999
"DXF R12 Output" (www.mydxf.blogspot.com)
 0 
SECTION
 2 
HEADER
 9 
$ACADVER
 1 
AC1009
 9 
$EXTMIN
 10 
 0 
 20 
 0 
 9 
$EXTMAX
 10 
 8.5 
 20 
 11 
 0 
ENDSEC
 0 
SECTION
 2 
ENTITIES
0
LINE
8
Layer 1
10
316.753000
20
189.331000
11
231.900000
21
104.479000
0
LINE
8
Layer 1
10
232.516000
20
103.862000
11
317.369000
21
188.715000
0
LINE
8
Layer 1
10
233.132000
20
103.246000
11
317.985000
21
188.099000
0
LINE
8
Layer 1
10
316.137000
20
189.948000
11
231.284000
21
105.095000
0
LINE
8
Layer 1
10
233.748000
20
102.630000
11
318.601000
21
187.483000
0
LINE
8
Layer 1
10
234.364000
20
102.014000
11
319.217000
21
186.867000
0
LINE
8
Layer 1
10
315.544000
20
190.540000
11
230.691000
21
105.688000
0
LINE
8
Layer 1
10
190.540000
20
315.544000
11
105.688000
21
230.691000
0
LINE
8
Layer 1
10
189.947000
20
316.137000
11
105.095000
21
231.284000
0
LINE
8
Layer 1
10
188.715000
20
317.369000
11
103.862000
21
232.516000
0
LINE
8
Layer 1
10
104.479000
20
231.900000
11
189.331000
21
316.753000
0
LINE
8
Layer 1
10
188.099000
20
317.985000
11
103.246000
21
233.132000
0
LINE
8
Layer 1
10
187.483000
20
318.601000
11
102.630000
21
233.748000
0
LINE
8
Layer 1
10
186.867000
20
319.217000
11
102.014000
21
234.364000
0
LINE
8
Layer 1
10
234.981000
20
101.398000
11
319.833000
21
186.251000
0
LINE
8
Layer 1
10
235.597000
20
100.782000
11
320.449000
21
185.635000
0
LINE
8
Layer 1
10
236.213000
20
100.166000
11
321.066000
21
185.019000
0
LINE
8
Layer 1
10
236.829000
20
99.549600
11
321.682000
21
184.402000
0
LINE
8
Layer 1
10
237.445000
20
98.933500
11
322.298000
21
183.786000
0
LINE
8
Layer 1
10
238.061000
20
98.317400
11
322.914000
21
183.170000
0
LINE
8
Layer 1
10
238.677000
20
97.701200
11
323.530000
21
182.554000
0
LINE
8
Layer 1
10
239.293000
20
97.085100
11
324.146000
21
181.938000
0
LINE
8
Layer 1
10
239.910000
20
96.469000
11
324.762000
21
181.322000
0
LINE
8
Layer 1
10
326.611000
20
179.473000
11
241.758000
21
94.620600
0
LINE
8
Layer 1
10
242.374000
20
94.004500
11
327.227000
21
178.857000
0
LINE
8
Layer 1
10
242.990000
20
93.388400
11
327.843000
21
178.241000
0
LINE
8
Layer 1
10
325.995000
20
180.090000
11
241.142000
21
95.236700
0
LINE
8
Layer 1
10
240.526000
20
95.852900
11
325.378000
21
180.706000
0
LINE
8
Layer 1
10
186.251000
20
319.833000
11
101.398000
21
234.981000
0
LINE
8
Layer 1
10
185.635000
20
320.449000
11
100.782000
21
235.597000
0
LINE
8
Layer 1
10
185.019000
20
321.066000
11
100.166000
21
236.213000
0
LINE
8
Layer 1
10
184.402000
20
321.682000
11
99.549600
21
236.829000
0
LINE
8
Layer 1
10
183.786000
20
322.298000
11
98.933500
21
237.445000
0
LINE
8
Layer 1
10
183.170000
20
322.914000
11
98.317400
21
238.061000
0
LINE
8
Layer 1
10
182.554000
20
323.530000
11
97.701200
21
238.677000
0
LINE
8
Layer 1
10
181.938000
20
324.146000
11
97.085100
21
239.293000
0
LINE
8
Layer 1
10
181.322000
20
324.762000
11
96.469000
21
239.909000
0
LINE
8
Layer 1
10
178.857000
20
327.227000
11
94.004500
21
242.374000
0
LINE
8
Layer 1
10
94.620600
20
241.758000
11
179.473000
21
326.611000
0
LINE
8
Layer 1
10
178.241000
20
327.843000
11
93.388400
21
242.990000
0
LINE
8
Layer 1
10
95.236800
20
241.142000
11
180.090000
21
325.995000
0
LINE
8
Layer 1
10
180.706000
20
325.378000
11
95.852900
21
240.526000
0
LINE
8
Layer 1
10
175.777000
20
330.307000
11
90.923900
21
245.455000
0
LINE
8
Layer 1
10
91.540000
20
244.838000
11
176.393000
21
329.691000
0
LINE
8
Layer 1
10
175.161000
20
330.923000
11
90.307800
21
246.071000
0
LINE
8
Layer 1
10
174.544000
20
331.540000
11
89.691700
21
246.687000
0
LINE
8
Layer 1
10
173.928000
20
332.156000
11
89.075500
21
247.303000
0
LINE
8
Layer 1
10
173.312000
20
332.772000
11
88.459400
21
247.919000
0
LINE
8
Layer 1
10
172.696000
20
333.388000
11
87.843300
21
248.535000
0
LINE
8
Layer 1
10
172.103000
20
333.981000
11
87.250300
21
249.128000
0
LINE
8
Layer 1
10
177.625000
20
328.459000
11
92.772300
21
243.606000
0
LINE
8
Layer 1
10
177.009000
20
329.075000
11
92.156200
21
244.222000
0
LINE
8
Layer 1
10
332.156000
20
173.928000
11
247.303000
21
89.075600
0
LINE
8
Layer 1
10
247.919000
20
88.459500
11
332.772000
21
173.312000
0
LINE
8
Layer 1
10
248.535000
20
87.843400
11
333.388000
21
172.696000
0
LINE
8
Layer 1
10
249.128000
20
87.250400
11
333.981000
21
172.103000
0
LINE
8
Layer 1
10
330.923000
20
175.161000
11
246.071000
21
90.307800
0
LINE
8
Layer 1
10
246.687000
20
89.691700
11
331.540000
21
174.544000
0
LINE
8
Layer 1
10
329.691000
20
176.393000
11
244.838000
21
91.540000
0
LINE
8
Layer 1
10
245.455000
20
90.923900
11
330.307000
21
175.777000
0
LINE
8
Layer 1
10
329.075000
20
177.009000
11
244.222000
21
92.156100
0
LINE
8
Layer 1
10
243.606000
20
92.772300
11
328.459000
21
177.625000
0
LINE
8
Layer 1
10
190.540000
20
315.544000
11
315.544000
21
190.540000
0
LINE
8
Layer 1
10
315.544000
20
190.540000
11
316.137000
21
189.948000
0
LINE
8
Layer 1
10
316.137000
20
189.948000
11
316.753000
21
189.331000
0
LINE
8
Layer 1
10
316.753000
20
189.331000
11
317.369000
21
188.715000
0
LINE
8
Layer 1
10
317.369000
20
188.715000
11
317.985000
21
188.099000
0
LINE
8
Layer 1
10
317.985000
20
188.099000
11
318.601000
21
187.483000
0
LINE
8
Layer 1
10
318.601000
20
187.483000
11
319.217000
21
186.867000
0
LINE
8
Layer 1
10
319.217000
20
186.867000
11
319.833000
21
186.251000
0
LINE
8
Layer 1
10
319.833000
20
186.251000
11
320.449000
21
185.635000
0
LINE
8
Layer 1
10
320.449000
20
185.635000
11
321.066000
21
185.019000
0
LINE
8
Layer 1
10
321.066000
20
185.019000
11
321.682000
21
184.402000
0
LINE
8
Layer 1
10
321.682000
20
184.402000
11
322.298000
21
183.786000
0
LINE
8
Layer 1
10
322.298000
20
183.786000
11
322.914000
21
183.170000
0
LINE
8
Layer 1
10
322.914000
20
183.170000
11
323.530000
21
182.554000
0
LINE
8
Layer 1
10
323.530000
20
182.554000
11
324.146000
21
181.938000
0
LINE
8
Layer 1
10
324.146000
20
181.938000
11
324.762000
21
181.322000
0
LINE
8
Layer 1
10
324.762000
20
181.322000
11
325.378000
21
180.706000
0
LINE
8
Layer 1
10
325.378000
20
180.706000
11
325.995000
21
180.090000
0
LINE
8
Layer 1
10
325.995000
20
180.090000
11
326.611000
21
179.473000
0
LINE
8
Layer 1
10
326.611000
20
179.473000
11
327.227000
21
178.857000
0
LINE
8
Layer 1
10
327.227000
20
178.857000
11
327.843000
21
178.241000
0
LINE
8
Layer 1
10
327.843000
20
178.241000
11
328.459000
21
177.625000
0
LINE
8
Layer 1
10
328.459000
20
177.625000
11
329.075000
21
177.009000
0
LINE
8
Layer 1
10
329.075000
20
177.009000
11
329.691000
21
176.393000
0
LINE
8
Layer 1
10
329.691000
20
176.393000
11
330.307000
21
175.777000
0
LINE
8
Layer 1
10
330.307000
20
175.777000
11
330.923000
21
175.161000
0
LINE
8
Layer 1
10
330.923000
20
175.161000
11
331.540000
21
174.544000
0
LINE
8
Layer 1
10
331.540000
20
174.544000
11
332.156000
21
173.928000
0
LINE
8
Layer 1
10
332.156000
20
173.928000
11
332.772000
21
173.312000
0
LINE
8
Layer 1
10
332.772000
20
173.312000
11
333.388000
21
172.696000
0
LINE
8
Layer 1
10
333.388000
20
172.696000
11
333.981000
21
172.103000
0
LINE
8
Layer 1
10
333.981000
20
172.103000
11
421.231000
21
84.852800
0
LINE
8
Layer 1
10
421.231000
20
84.852800
11
336.378000
21
0.000000
0
LINE
8
Layer 1
10
336.378000
20
0.000000
11
249.128000
21
87.250400
0
LINE
8
Layer 1
10
249.128000
20
87.250400
11
248.535000
21
87.843400
0
LINE
8
Layer 1
10
248.535000
20
87.843400
11
247.919000
21
88.459500
0
LINE
8
Layer 1
10
247.919000
20
88.459500
11
247.303000
21
89.075600
0
LINE
8
Layer 1
10
247.303000
20
89.075600
11
246.687000
21
89.691700
0
LINE
8
Layer 1
10
246.687000
20
89.691700
11
246.071000
21
90.307800
0
LINE
8
Layer 1
10
246.071000
20
90.307800
11
245.455000
21
90.923900
0
LINE
8
Layer 1
10
245.455000
20
90.923900
11
244.838000
21
91.540000
0
LINE
8
Layer 1
10
244.838000
20
91.540000
11
244.222000
21
92.156100
0
LINE
8
Layer 1
10
244.222000
20
92.156100
11
243.606000
21
92.772300
0
LINE
8
Layer 1
10
243.606000
20
92.772300
11
242.990000
21
93.388400
0
LINE
8
Layer 1
10
242.990000
20
93.388400
11
242.374000
21
94.004500
0
LINE
8
Layer 1
10
242.374000
20
94.004500
11
241.758000
21
94.620600
0
LINE
8
Layer 1
10
241.758000
20
94.620600
11
241.142000
21
95.236700
0
LINE
8
Layer 1
10
241.142000
20
95.236700
11
240.526000
21
95.852900
0
LINE
8
Layer 1
10
240.526000
20
95.852900
11
239.910000
21
96.469000
0
LINE
8
Layer 1
10
239.910000
20
96.469000
11
239.293000
21
97.085100
0
LINE
8
Layer 1
10
239.293000
20
97.085100
11
238.677000
21
97.701200
0
LINE
8
Layer 1
10
238.677000
20
97.701200
11
238.061000
21
98.317400
0
LINE
8
Layer 1
10
238.061000
20
98.317400
11
237.445000
21
98.933500
0
LINE
8
Layer 1
10
237.445000
20
98.933500
11
236.829000
21
99.549600
0
LINE
8
Layer 1
10
236.829000
20
99.549600
11
236.213000
21
100.166000
0
LINE
8
Layer 1
10
236.213000
20
100.166000
11
235.597000
21
100.782000
0
LINE
8
Layer 1
10
235.597000
20
100.782000
11
234.981000
21
101.398000
0
LINE
8
Layer 1
10
234.981000
20
101.398000
11
234.364000
21
102.014000
0
LINE
8
Layer 1
10
234.364000
20
102.014000
11
233.748000
21
102.630000
0
LINE
8
Layer 1
10
233.748000
20
102.630000
11
233.132000
21
103.246000
0
LINE
8
Layer 1
10
233.132000
20
103.246000
11
232.516000
21
103.862000
0
LINE
8
Layer 1
10
232.516000
20
103.862000
11
231.900000
21
104.479000
0
LINE
8
Layer 1
10
231.900000
20
104.479000
11
231.284000
21
105.095000
0
LINE
8
Layer 1
10
231.284000
20
105.095000
11
230.691000
21
105.688000
0
LINE
8
Layer 1
10
230.691000
20
105.688000
11
105.688000
21
230.691000
0
LINE
8
Layer 1
10
105.688000
20
230.691000
11
105.095000
21
231.284000
0
LINE
8
Layer 1
10
105.095000
20
231.284000
11
104.479000
21
231.900000
0
LINE
8
Layer 1
10
104.479000
20
231.900000
11
103.862000
21
232.516000
0
LINE
8
Layer 1
10
103.862000
20
232.516000
11
103.246000
21
233.132000
0
LINE
8
Layer 1
10
103.246000
20
233.132000
11
102.630000
21
233.748000
0
LINE
8
Layer 1
10
102.630000
20
233.748000
11
102.014000
21
234.364000
0
LINE
8
Layer 1
10
102.014000
20
234.364000
11
101.398000
21
234.981000
0
LINE
8
Layer 1
10
101.398000
20
234.981000
11
100.782000
21
235.597000
0
LINE
8
Layer 1
10
100.782000
20
235.597000
11
100.166000
21
236.213000
0
LINE
8
Layer 1
10
100.166000
20
236.213000
11
99.549600
21
236.829000
0
LINE
8
Layer 1
10
99.549600
20
236.829000
11
98.933500
21
237.445000
0
LINE
8
Layer 1
10
98.933500
20
237.445000
11
98.317400
21
238.061000
0
LINE
8
Layer 1
10
98.317400
20
238.061000
11
97.701200
21
238.677000
0
LINE
8
Layer 1
10
97.701200
20
238.677000
11
97.085100
21
239.293000
0
LINE
8
Layer 1
10
97.085100
20
239.293000
11
96.469000
21
239.909000
0
LINE
8
Layer 1
10
96.469000
20
239.909000
11
95.852900
21
240.526000
0
LINE
8
Layer 1
10
95.852900
20
240.526000
11
95.236800
21
241.142000
0
LINE
8
Layer 1
10
95.236800
20
241.142000
11
94.620600
21
241.758000
0
LINE
8
Layer 1
10
94.620600
20
241.758000
11
94.004500
21
242.374000
0
LINE
8
Layer 1
10
94.004500
20
242.374000
11
93.388400
21
242.990000
0
LINE
8
Layer 1
10
93.388400
20
242.990000
11
92.772300
21
243.606000
0
LINE
8
Layer 1
10
92.772300
20
243.606000
11
92.156200
21
244.222000
0
LINE
8
Layer 1
10
92.156200
20
244.222000
11
91.540000
21
244.838000
0
LINE
8
Layer 1
10
91.540000
20
244.838000
11
90.923900
21
245.455000
0
LINE
8
Layer 1
10
90.923900
20
245.455000
11
90.307800
21
246.071000
0
LINE
8
Layer 1
10
90.307800
20
246.071000
11
89.691700
21
246.687000
0
LINE
8
Layer 1
10
89.691700
20
246.687000
11
89.075500
21
247.303000
0
LINE
8
Layer 1
10
89.075500
20
247.303000
11
88.459400
21
247.919000
0
LINE
8
Layer 1
10
88.459400
20
247.919000
11
87.843300
21
248.535000
0
LINE
8
Layer 1
10
87.843300
20
248.535000
11
87.250300
21
249.128000
0
LINE
8
Layer 1
10
87.250300
20
249.128000
11
0.000000
21
336.378000
0
LINE
8
Layer 1
10
0.000000
20
336.378000
11
84.852800
21
421.231000
0
LINE
8
Layer 1
10
84.852800
20
421.231000
11
172.103000
21
333.981000
0
LINE
8
Layer 1
10
172.103000
20
333.981000
11
172.696000
21
333.388000
0
LINE
8
Layer 1
10
172.696000
20
333.388000
11
173.312000
21
332.772000
0
LINE
8
Layer 1
10
173.312000
20
332.772000
11
173.928000
21
332.156000
0
LINE
8
Layer 1
10
173.928000
20
332.156000
11
174.544000
21
331.540000
0
LINE
8
Layer 1
10
174.544000
20
331.540000
11
175.161000
21
330.923000
0
LINE
8
Layer 1
10
175.161000
20
330.923000
11
175.777000
21
330.307000
0
LINE
8
Layer 1
10
175.777000
20
330.307000
11
176.393000
21
329.691000
0
LINE
8
Layer 1
10
176.393000
20
329.691000
11
177.009000
21
329.075000
0
LINE
8
Layer 1
10
177.009000
20
329.075000
11
177.625000
21
328.459000
0
LINE
8
Layer 1
10
177.625000
20
328.459000
11
178.241000
21
327.843000
0
LINE
8
Layer 1
10
178.241000
20
327.843000
11
178.857000
21
327.227000
0
LINE
8
Layer 1
10
178.857000
20
327.227000
11
179.473000
21
326.611000
0
LINE
8
Layer 1
10
179.473000
20
326.611000
11
180.090000
21
325.995000
0
LINE
8
Layer 1
10
180.090000
20
325.995000
11
180.706000
21
325.378000
0
LINE
8
Layer 1
10
180.706000
20
325.378000
11
181.322000
21
324.762000
0
LINE
8
Layer 1
10
181.322000
20
324.762000
11
181.938000
21
324.146000
0
LINE
8
Layer 1
10
181.938000
20
324.146000
11
182.554000
21
323.530000
0
LINE
8
Layer 1
10
182.554000
20
323.530000
11
183.170000
21
322.914000
0
LINE
8
Layer 1
10
183.170000
20
322.914000
11
183.786000
21
322.298000
0
LINE
8
Layer 1
10
183.786000
20
322.298000
11
184.402000
21
321.682000
0
LINE
8
Layer 1
10
184.402000
20
321.682000
11
185.019000
21
321.066000
0
LINE
8
Layer 1
10
185.019000
20
321.066000
11
185.635000
21
320.449000
0
LINE
8
Layer 1
10
185.635000
20
320.449000
11
186.251000
21
319.833000
0
LINE
8
Layer 1
10
186.251000
20
319.833000
11
186.867000
21
319.217000
0
LINE
8
Layer 1
10
186.867000
20
319.217000
11
187.483000
21
318.601000
0
LINE
8
Layer 1
10
187.483000
20
318.601000
11
188.099000
21
317.985000
0
LINE
8
Layer 1
10
188.099000
20
317.985000
11
188.715000
21
317.369000
0
LINE
8
Layer 1
10
188.715000
20
317.369000
11
189.331000
21
316.753000
0
LINE
8
Layer 1
10
189.331000
20
316.753000
11
189.947000
21
316.137000
0
LINE
8
Layer 1
10
189.947000
20
316.137000
11
190.540000
21
315.544000
 0 
ENDSEC
 0 
EOF