  0
SECTION
  2
HEADER
  9
$ACADVER
  1
AC1032
  9
$ACADMAINTVER
 90
      255
  9
$DWGCODEPAGE
  3
ANSI_1252
  9
$LASTSAVEDBY
  1
dylim
  9
$REQUIREDVERSIONS
160
                 0
  9
$INSBASE
 10
0.0
 20
0.0
 30
0.0
  9
$EXTMIN
 10
237.5499600000153
 20
-18.46202527529195
 30
0.0
  9
$EXTMAX
 10
313.1499355859528
 20
83.31432665341898
 30
0.0
  9
$LIMMIN
 10
0.0
 20
0.0
  9
$LIMMAX
 10
12.0
 20
9.0
  9
$ORTHOMODE
 70
     0
  9
$REGENMODE
 70
     1
  9
$FILLMODE
 70
     1
  9
$QTEXTMODE
 70
     0
  9
$MIRRTEXT
 70
     0
  9
$LTSCALE
 40
1.0
  9
$ATTMODE
 70
     1
  9
$TEXTSIZE
 40
1.0
  9
$TRACEWID
 40
0.05
  9
$TEXTSTYLE
  7
STANDARD
  9
$CLAYER
  8
0
  9
$CELTYPE
  6
CONTINUOUS
  9
$CECOLOR
 62
   256
  9
$CELTSCALE
 40
1.0
  9
$DISPSILH
 70
     0
  9
$DIMSCALE
 40
1.0
  9
$DIMASZ
 40
0.18
  9
$DIMEXO
 40
0.0625
  9
$DIMDLI
 40
0.38
  9
$DIMRND
 40
0.0
  9
$DIMDLE
 40
0.0
  9
$DIMEXE
 40
0.18
  9
$DIMTP
 40
0.0
  9
$DIMTM
 40
0.0
  9
$DIMTXT
 40
0.18
  9
$DIMCEN
 40
0.09
  9
$DIMTSZ
 40
0.0
  9
$DIMTOL
 70
     0
  9
$DIMLIM
 70
     0
  9
$DIMTIH
 70
     1
  9
$DIMTOH
 70
     1
  9
$DIMSE1
 70
     0
  9
$DIMSE2
 70
     0
  9
$DIMTAD
 70
     0
  9
$DIMZIN
 70
     0
  9
$DIMBLK
  1

  9
$DIMASO
 70
     1
  9
$DIMSHO
 70
     1
  9
$DIMPOST
  1

  9
$DIMAPOST
  1

  9
$DIMALT
 70
     0
  9
$DIMALTD
 70
     2
  9
$DIMALTF
 40
25.4
  9
$DIMLFAC
 40
1.0
  9
$DIMTOFL
 70
     0
  9
$DIMTVP
 40
0.0
  9
$DIMTIX
 70
     0
  9
$DIMSOXD
 70
     0
  9
$DIMSAH
 70
     0
  9
$DIMBLK1
  1

  9
$DIMBLK2
  1

  9
$DIMSTYLE
  2
Standard
  9
$DIMCLRD
 70
     0
  9
$DIMCLRE
 70
     0
  9
$DIMCLRT
 70
     0
  9
$DIMTFAC
 40
1.0
  9
$DIMGAP
 40
0.09
  9
$DIMJUST
 70
     0
  9
$DIMSD1
 70
     0
  9
$DIMSD2
 70
     0
  9
$DIMTOLJ
 70
     1
  9
$DIMTZIN
 70
     0
  9
$DIMALTZ
 70
     0
  9
$DIMALTTZ
 70
     0
  9
$DIMUPT
 70
     0
  9
$DIMDEC
 70
     4
  9
$DIMTDEC
 70
     4
  9
$DIMALTU
 70
     2
  9
$DIMALTTD
 70
     2
  9
$DIMTXSTY
  7
STANDARD
  9
$DIMAUNIT
 70
     0
  9
$DIMADEC
 70
     0
  9
$DIMALTRND
 40
0.0
  9
$DIMAZIN
 70
     0
  9
$DIMDSEP
 70
    46
  9
$DIMATFIT
 70
     3
  9
$DIMFRAC
 70
     0
  9
$DIMLDRBLK
  1

  9
$DIMLUNIT
 70
     2
  9
$DIMLWD
 70
    -2
  9
$DIMLWE
 70
    -2
  9
$DIMTMOVE
 70
     0
  9
$DIMFXL
 40
1.0
  9
$DIMFXLON
 70
     0
  9
$DIMJOGANG
 40
0.7853981633974483
  9
$DIMTFILL
 70
     0
  9
$DIMTFILLCLR
 70
     0
  9
$DIMARCSYM
 70
     0
  9
$DIMLTYPE
  6

  9
$DIMLTEX1
  6

  9
$DIMLTEX2
  6

  9
$DIMTXTDIRECTION
 70
     0
  9
$LUNITS
 70
     2
  9
$LUPREC
 70
     4
  9
$SKETCHINC
 40
0.1
  9
$FILLETRAD
 40
0.0
  9
$AUNITS
 70
     0
  9
$AUPREC
 70
     0
  9
$MENU
  1
.
  9
$ELEVATION
 40
0.0
  9
$PELEVATION
 40
0.0
  9
$THICKNESS
 40
0.0
  9
$LIMCHECK
 70
     0
  9
$CHAMFERA
 40
0.0
  9
$CHAMFERB
 40
0.0
  9
$CHAMFERC
 40
0.0
  9
$CHAMFERD
 40
0.0
  9
$SKPOLY
 70
     0
  9
$TDCREATE
 40
2460158.688020833
  9
$TDUCREATE
 40
2460158.646354167
  9
$TDUPDATE
 40
2460158.688819444
  9
$TDUUPDATE
 40
2460158.647152778
  9
$TDINDWG
 40
0.0007986111
  9
$TDUSRTIMER
 40
0.0007986111
  9
$USRTIMER
 70
     1
  9
$ANGBASE
 50
0.0
  9
$ANGDIR
 70
     0
  9
$PDMODE
 70
     0
  9
$PDSIZE
 40
0.0
  9
$PLINEWID
 40
0.0
  9
$SPLFRAME
 70
     0
  9
$SPLINETYPE
 70
     6
  9
$SPLINESEGS
 70
     8
  9
$HANDSEED
  5
681
  9
$SURFTAB1
 70
     6
  9
$SURFTAB2
 70
     6
  9
$SURFTYPE
 70
     6
  9
$SURFU
 70
     6
  9
$SURFV
 70
     6
  9
$UCSBASE
  2

  9
$UCSNAME
  2

  9
$UCSORG
 10
0.0
 20
0.0
 30
0.0
  9
$UCSXDIR
 10
1.0
 20
0.0
 30
0.0
  9
$UCSYDIR
 10
0.0
 20
1.0
 30
0.0
  9
$UCSORTHOREF
  2

  9
$UCSORTHOVIEW
 70
     0
  9
$UCSORGTOP
 10
0.0
 20
0.0
 30
0.0
  9
$UCSORGBOTTOM
 10
0.0
 20
0.0
 30
0.0
  9
$UCSORGLEFT
 10
0.0
 20
0.0
 30
0.0
  9
$UCSORGRIGHT
 10
0.0
 20
0.0
 30
0.0
  9
$UCSORGFRONT
 10
0.0
 20
0.0
 30
0.0
  9
$UCSORGBACK
 10
0.0
 20
0.0
 30
0.0
  9
$PUCSBASE
  2

  9
$PUCSNAME
  2

  9
$PUCSORG
 10
0.0
 20
0.0
 30
0.0
  9
$PUCSXDIR
 10
1.0
 20
0.0
 30
0.0
  9
$PUCSYDIR
 10
0.0
 20
1.0
 30
0.0
  9
$PUCSORTHOREF
  2

  9
$PUCSORTHOVIEW
 70
     0
  9
$PUCSORGTOP
 10
0.0
 20
0.0
 30
0.0
  9
$PUCSORGBOTTOM
 10
0.0
 20
0.0
 30
0.0
  9
$PUCSORGLEFT
 10
0.0
 20
0.0
 30
0.0
  9
$PUCSORGRIGHT
 10
0.0
 20
0.0
 30
0.0
  9
$PUCSORGFRONT
 10
0.0
 20
0.0
 30
0.0
  9
$PUCSORGBACK
 10
0.0
 20
0.0
 30
0.0
  9
$USERI1
 70
     0
  9
$USERI2
 70
     0
  9
$USERI3
 70
     0
  9
$USERI4
 70
     0
  9
$USERI5
 70
     0
  9
$USERR1
 40
0.0
  9
$USERR2
 40
0.0
  9
$USERR3
 40
0.0
  9
$USERR4
 40
0.0
  9
$USERR5
 40
0.0
  9
$WORLDVIEW
 70
     1
  9
$SHADEDGE
 70
     3
  9
$SHADEDIF
 70
    70
  9
$TILEMODE
 70
     1
  9
$MAXACTVP
 70
    64
  9
$PINSBASE
 10
0.0
 20
0.0
 30
0.0
  9
$PLIMCHECK
 70
     0
  9
$PEXTMIN
 10
1.000000000000000E+20
 20
1.000000000000000E+20
 30
1.000000000000000E+20
  9
$PEXTMAX
 10
-1.000000000000000E+20
 20
-1.000000000000000E+20
 30
-1.000000000000000E+20
  9
$PLIMMIN
 10
0.0
 20
0.0
  9
$PLIMMAX
 10
12.0
 20
9.0
  9
$UNITMODE
 70
     0
  9
$VISRETAIN
 70
     1
  9
$PLINEGEN
 70
     0
  9
$PSLTSCALE
 70
     1
  9
$TREEDEPTH
 70
  3020
  9
$CMLSTYLE
  2
Standard
  9
$CMLJUST
 70
     0
  9
$CMLSCALE
 40
1.0
  9
$PROXYGRAPHICS
 70
     1
  9
$MEASUREMENT
 70
     0
  9
$CELWEIGHT
370
    -1
  9
$ENDCAPS
280
     0
  9
$JOINSTYLE
280
     0
  9
$LWDISPLAY
290
     0
  9
$INSUNITS
 70
     4
  9
$HYPERLINKBASE
  1

  9
$STYLESHEET
  1

  9
$XEDIT
290
     1
  9
$CEPSNTYPE
380
     0
  9
$PSTYLEMODE
290
     1
  9
$FINGERPRINTGUID
  2
{9CD5E317-9F88-AB40-B35B-0CA26B82151F}
  9
$VERSIONGUID
  2
{7D112FD9-F9E3-2944-97EC-2787AF340B73}
  9
$EXTNAMES
290
     1
  9
$PSVPSCALE
 40
0.0
  9
$OLESTARTUP
290
     0
  9
$SORTENTS
280
   127
  9
$INDEXCTL
280
     0
  9
$HIDETEXT
280
     0
  9
$XCLIPFRAME
280
     2
  9
$HALOGAP
280
     0
  9
$OBSCOLOR
 70
   257
  9
$OBSLTYPE
280
     0
  9
$INTERSECTIONDISPLAY
280
     0
  9
$INTERSECTIONCOLOR
 70
   257
  9
$DIMASSOC
280
     1
  9
$PROJECTNAME
  1

  9
$CAMERADISPLAY
290
     0
  9
$LENSLENGTH
 40
50.0
  9
$CAMERAHEIGHT
 40
0.0
  9
$STEPSPERSEC
 40
2.0
  9
$STEPSIZE
 40
6.0
  9
$3DDWFPREC
 40
2.0
  9
$PSOLWIDTH
 40
0.25
  9
$PSOLHEIGHT
 40
4.0
  9
$LOFTANG1
 40
1.570796326794896
  9
$LOFTANG2
 40
1.570796326794896
  9
$LOFTMAG1
 40
0.0
  9
$LOFTMAG2
 40
0.0
  9
$LOFTPARAM
 70
     7
  9
$LOFTNORMALS
280
     1
  9
$LATITUDE
 40
37.795
  9
$LONGITUDE
 40
-122.394
  9
$NORTHDIRECTION
 40
0.0
  9
$TIMEZONE
 70
 -8000
  9
$LIGHTGLYPHDISPLAY
280
     1
  9
$TILEMODELIGHTSYNCH
280
     1
  9
$CMATERIAL
347
11
  9
$SOLIDHIST
280
     0
  9
$SHOWHIST
280
     1
  9
$DWFFRAME
280
     2
  9
$DGNFRAME
280
     0
  9
$REALWORLDSCALE
290
     1
  9
$INTERFERECOLOR
 62
     1
  9
$INTERFEREOBJVS
345
33
  9
$INTERFEREVPVS
346
30
  9
$CSHADOW
280
     0
  9
$SHADOWPLANELOCATION
 40
0.0
  0
ENDSEC
  0
SECTION
  2
CLASSES
  0
CLASS
  1
ACDBDICTIONARYWDFLT
  2
AcDbDictionaryWithDefault
  3
ObjectDBX Classes
 90
        0
 91
        1
280
     0
281
     0
  0
CLASS
  1
MATERIAL
  2
AcDbMaterial
  3
ObjectDBX Classes
 90
     1153
 91
        3
280
     0
281
     0
  0
CLASS
  1
VISUALSTYLE
  2
AcDbVisualStyle
  3
ObjectDBX Classes
 90
     4095
 91
       24
280
     0
281
     0
  0
CLASS
  1
SCALE
  2
AcDbScale
  3
ObjectDBX Classes
 90
     1153
 91
       17
280
     0
281
     0
  0
CLASS
  1
TABLESTYLE
  2
AcDbTableStyle
  3
ObjectDBX Classes
 90
     4095
 91
        1
280
     0
281
     0
  0
CLASS
  1
MLEADERSTYLE
  2
AcDbMLeaderStyle
  3
ACDB_MLEADERSTYLE_CLASS
 90
     4095
 91
        1
280
     0
281
     0
  0
CLASS
  1
ACDBSECTIONVIEWSTYLE
  2
AcDbSectionViewStyle
  3
ObjectDBX Classes
 90
     1025
 91
        1
280
     0
281
     0
  0
CLASS
  1
ACDBDETAILVIEWSTYLE
  2
AcDbDetailViewStyle
  3
ObjectDBX Classes
 90
     1025
 91
        1
280
     0
281
     0
  0
CLASS
  1
DICTIONARYVAR
  2
AcDbDictionaryVar
  3
ObjectDBX Classes
 90
        0
 91
        9
280
     0
281
     0
  0
CLASS
  1
CELLSTYLEMAP
  2
AcDbCellStyleMap
  3
ObjectDBX Classes
 90
     1152
 91
        1
280
     0
281
     0
  0
ENDSEC
  0
SECTION
  2
TABLES
  0
TABLE
  2
VPORT
  5
8
330
0
100
AcDbSymbolTable
 70
     1
  0
VPORT
  5
73
330
8
100
AcDbSymbolTableRecord
100
AcDbViewportTableRecord
  2
*ACTIVE
 70
     0
 10
0.0
 20
0.0
 11
1.0
 21
1.0
 12
279.1910543118687
 22
15.36640565720091
 13
0.0
 23
0.0
 14
0.1
 24
0.1
 15
0.1
 25
0.1
 16
0.0
 26
0.0
 36
1.0
 17
0.0
 27
0.0
 37
0.0
 40
264.0319481410182
 41
1.301549463647199
 42
50.0
 43
0.0
 44
0.0
 50
0.0
 51
0.0
 71
     0
 72
   100
 73
     1
 74
     1
 75
     0
 76
     0
 77
     0
 78
     0
281
     0
 65
     1
110
0.0
120
0.0
130
0.0
111
1.0
121
0.0
131
0.0
112
0.0
122
1.0
132
0.0
 79
     0
146
0.0
348
2F
 60
     3
 61
     5
292
     1
282
     0
141
0.0
142
0.0
 63
   250
421
  3355443
1001
ACAD_NAV_VCDISPLAY
1070
     3
  0
ENDTAB
  0
TABLE
  2
LTYPE
  5
5
330
0
100
AcDbSymbolTable
 70
     8
  0
LTYPE
  5
5A
330
5
100
AcDbSymbolTableRecord
100
AcDbLinetypeTableRecord
  2
ByBlock
 70
     0
  3

 72
    65
 73
     0
 40
0.0
  0
LTYPE
  5
5B
330
5
100
AcDbSymbolTableRecord
100
AcDbLinetypeTableRecord
  2
ByLayer
 70
     0
  3

 72
    65
 73
     0
 40
0.0
  0
LTYPE
  5
5C
330
5
100
AcDbSymbolTableRecord
100
AcDbLinetypeTableRecord
  2
CONTINUOUS
 70
     0
  3
Solid line
 72
    65
 73
     0
 40
0.0
  0
LTYPE
  5
74
330
5
100
AcDbSymbolTableRecord
100
AcDbLinetypeTableRecord
  2
DOT
 70
     0
  3
. . . . . . .
 72
    65
 73
     2
 40
0.25
 49
0.0
 74
     0
 49
-0.25
 74
     0
  0
LTYPE
  5
75
330
5
100
AcDbSymbolTableRecord
100
AcDbLinetypeTableRecord
  2
DASHED
 70
     0
  3
__ __ __ __ __
 72
    65
 73
     2
 40
0.8
 49
0.5
 74
     0
 49
-0.3
 74
     0
  0
LTYPE
  5
76
330
5
100
AcDbSymbolTableRecord
100
AcDbLinetypeTableRecord
  2
DASHDOT
 70
     0
  3
__ . __ . __ .
 72
    65
 73
     4
 40
1.0
 49
0.5
 74
     0
 49
-0.25
 74
     0
 49
0.0
 74
     0
 49
-0.25
 74
     0
  0
LTYPE
  5
77
330
5
100
AcDbSymbolTableRecord
100
AcDbLinetypeTableRecord
  2
DIVIDE
 70
     0
  3
____ . . ____ . . 
 72
    65
 73
     6
 40
1.25
 49
0.5
 74
     0
 49
-0.25
 74
     0
 49
0.0
 74
     0
 49
-0.25
 74
     0
 49
0.0
 74
     0
 49
-0.25
 74
     0
  0
LTYPE
  5
78
330
5
100
AcDbSymbolTableRecord
100
AcDbLinetypeTableRecord
  2
BORDER
 70
     0
  3
__ __ . __ __ . 
 72
    65
 73
     6
 40
1.75
 49
0.5
 74
     0
 49
-0.25
 74
     0
 49
0.5
 74
     0
 49
-0.25
 74
     0
 49
0.0
 74
     0
 49
-0.25
 74
     0
  0
LTYPE
  5
79
330
5
100
AcDbSymbolTableRecord
100
AcDbLinetypeTableRecord
  2
HIDDEN
 70
     0
  3
__ __ __ __ __
 72
    65
 73
     2
 40
0.4
 49
0.25
 74
     0
 49
-0.25
 74
     0
  0
LTYPE
  5
7A
330
5
100
AcDbSymbolTableRecord
100
AcDbLinetypeTableRecord
  2
CENTER
 70
     0
  3
____ _ ____ _ __
 72
    65
 73
     4
 40
2.0
 49
1.25
 74
     0
 49
-0.25
 74
     0
 49
0.25
 74
     0
 49
-0.25
 74
     0
  0
ENDTAB
  0
TABLE
  2
LAYER
  5
2
102
{ACAD_XDICTIONARY
360
66D
102
}
330
0
100
AcDbSymbolTable
 70
     2
  0
LAYER
  5
54
102
{ACAD_XDICTIONARY
360
666
102
}
330
2
100
AcDbSymbolTableRecord
100
AcDbLayerTableRecord
  2
0
 70
     0
 62
     7
  6
CONTINUOUS
370
    -3
390
F
347
21
348
0
  0
LAYER
  5
7B
102
{ACAD_XDICTIONARY
360
668
102
}
330
2
100
AcDbSymbolTableRecord
100
AcDbLayerTableRecord
  2
PYDXF
 70
     0
 62
     7
  6
CONTINUOUS
370
    -3
390
F
347
21
348
0
  0
ENDTAB
  0
TABLE
  2
STYLE
  5
3
330
0
100
AcDbSymbolTable
 70
     2
  0
STYLE
  5
55
330
3
100
AcDbSymbolTableRecord
100
AcDbTextStyleTableRecord
  2
STANDARD
 70
     0
 40
0.0
 41
1.0
 50
0.0
 71
     0
 42
1.0
  3
ARIAL.TTF
  4

  0
STYLE
  5
59
330
3
100
AcDbSymbolTableRecord
100
AcDbTextStyleTableRecord
  2
Annotative
 70
     0
 40
0.0
 41
1.0
 50
0.0
 71
     0
 42
0.2
  3
txt
  4

1001
AcadAnnotative
1000
AnnotativeData
1002
{
1070
     1
1070
     1
1002
}
  0
ENDTAB
  0
TABLE
  2
VIEW
  5
6
330
0
100
AcDbSymbolTable
 70
     2
  0
VIEW
  5
7C
330
6
100
AcDbSymbolTableRecord
100
AcDbViewTableRecord
  2
BF_TOPVIEW
 70
     0
 40
120.0
 10
0.0
 20
0.0
 41
200.0
 11
0.0
 21
0.0
 31
1.0
 12
0.0
 22
0.0
 32
0.0
 42
50.0
 43
0.0
 44
0.0
 50
0.0
 71
     0
281
     0
 72
     0
 73
     0
348
2F
  0
ENDTAB
  0
TABLE
  2
UCS
  5
7
330
0
100
AcDbSymbolTable
 70
     0
  0
ENDTAB
  0
TABLE
  2
APPID
  5
9
330
0
100
AcDbSymbolTable
 70
     3
  0
APPID
  5
56
330
9
100
AcDbSymbolTableRecord
100
AcDbRegAppTableRecord
  2
ACAD
 70
     0
  0
APPID
  5
5D
330
9
100
AcDbSymbolTableRecord
100
AcDbRegAppTableRecord
  2
AcadAnnotative
 70
     0
  0
APPID
  5
67D
330
9
100
AcDbSymbolTableRecord
100
AcDbRegAppTableRecord
  2
ACAD_NAV_VCDISPLAY
 70
     0
  0
ENDTAB
  0
TABLE
  2
DIMSTYLE
  5
A
330
0
100
AcDbSymbolTable
 70
     2
100
AcDbDimStyleTable
 71
     0
  0
DIMSTYLE
105
57
330
A
100
AcDbSymbolTableRecord
100
AcDbDimStyleTableRecord
  2
Standard
 70
     0
340
55
  0
DIMSTYLE
105
58
330
A
100
AcDbSymbolTableRecord
100
AcDbDimStyleTableRecord
  2
Annotative
 70
     0
340
55
1001
AcadAnnotative
1000
AnnotativeData
1002
{
1070
     1
1070
     1
1002
}
  0
ENDTAB
  0
TABLE
  2
BLOCK_RECORD
  5
1
330
0
100
AcDbSymbolTable
 70
     0
  0
BLOCK_RECORD
  5
6F
330
1
100
AcDbSymbolTableRecord
100
AcDbBlockTableRecord
  2
*Model_Space
340
72
 70
     0
280
     1
281
     0
  0
BLOCK_RECORD
  5
6B
330
1
100
AcDbSymbolTableRecord
100
AcDbBlockTableRecord
  2
*Paper_Space
340
6E
 70
     0
280
     1
281
     0
  0
ENDTAB
  0
ENDSEC
  0
SECTION
  2
BLOCKS
  0
BLOCK
  5
70
330
6F
100
AcDbEntity
  8
0
100
AcDbBlockBegin
  2
*Model_Space
 70
     0
 10
0.0
 20
0.0
 30
0.0
  3
*Model_Space
  1

  0
ENDBLK
  5
71
330
6F
100
AcDbEntity
  8
0
100
AcDbBlockEnd
  0
BLOCK
  5
6C
330
6B
100
AcDbEntity
 67
     1
  8
0
100
AcDbBlockBegin
  2
*Paper_Space
 70
     0
 10
0.0
 20
0.0
 30
0.0
  3
*Paper_Space
  1

  0
ENDBLK
  5
6D
330
6B
100
AcDbEntity
 67
     1
  8
0
100
AcDbBlockEnd
  0
ENDSEC
  0
SECTION
  2
ENTITIES
  0
LINE
  5
7F
330
6F
100
AcDbEntity
  8
0
 62
     1
100
AcDbLine
 10
250.6728237695465
 20
22.56513918393657
 30
0.0
 11
252.6589077539215
 21
20.16893709653422
 31
0.0
  0
LINE
  5
83
330
6F
100
AcDbEntity
  8
0
 62
     1
100
AcDbLine
 10
259.340426308609
 20
14.17314852231547
 30
0.0
 11
261.7949551172028
 21
12.57912004941508
 31
0.0
  0
LINE
  5
84
330
6F
100
AcDbEntity
  8
0
 62
     1
100
AcDbLine
 10
261.7949551172028
 20
12.57912004941508
 30
0.0
 11
264.3556850976715
 21
11.1908563470225
 31
0.0
  0
LINE
  5
85
330
6F
100
AcDbEntity
  8
0
 62
     1
100
AcDbLine
 10
264.3556850976715
 20
11.1908563470225
 30
0.0
 11
267.018648964859
 21
10.01045549863386
 31
0.0
  0
LINE
  5
86
330
6F
100
AcDbEntity
  8
0
 62
     1
100
AcDbLine
 10
267.018648964859
 20
10.01045549863386
 30
0.0
 11
269.7795742578278
 21
9.039977440772503
 31
0.0
  0
LINE
  5
88
330
6F
100
AcDbEntity
  8
0
 62
     1
100
AcDbLine
 10
272.6341885156403
 20
8.28153933042094
 30
0.0
 11
275.578219277359
 21
7.737201104102581
 31
0.0
  0
LINE
  5
89
330
6F
100
AcDbEntity
  8
0
 62
     1
100
AcDbLine
 10
275.578219277359
 20
7.737201104102581
 30
0.0
 11
278.6076992578278
 21
7.409060845313518
 31
0.0
  0
LINE
  5
8A
330
6F
100
AcDbEntity
  8
0
 62
     1
100
AcDbLine
 10
278.6076992578278
 20
7.409060845313518
 30
0.0
 11
281.7177456445465
 21
7.299235711036175
 31
0.0
  0
LINE
  5
8B
330
6F
100
AcDbEntity
  8
0
 62
     1
100
AcDbLine
 10
248.6928433007965
 20
21.03872622006938
 30
0.0
 11
250.8055752343903
 21
18.48970736020612
 31
0.0
  0
LINE
  5
8D
330
6F
100
AcDbEntity
  8
0
 62
     1
100
AcDbLine
 10
253.0495327539215
 20
16.15068758481547
 30
0.0
 11
255.4204433984528
 21
14.02387941831156
 31
0.0
  0
LINE
  5
90
330
6F
100
AcDbEntity
  8
0
 62
     1
100
AcDbLine
 10
260.5242031640778
 20
10.41584337705183
 30
0.0
 11
263.2482021875153
 21
8.939040551124065
 31
0.0
  0
LINE
  5
92
330
6F
100
AcDbEntity
  8
0
 62
     1
100
AcDbLine
 10
266.081148964859
 20
7.683356652198284
 30
0.0
 11
269.0181606836091
 21
6.65098513120219
 31
0.0
  0
LINE
  5
9B
330
6F
100
AcDbEntity
  8
0
 62
     1
100
AcDbLine
 10
288.717867714859
 20
4.799235711036175
 30
0.0
 11
281.7177456445465
 21
4.799235711036175
 31
0.0
  0
LINE
  5
9C
330
6F
100
AcDbEntity
  8
0
 62
     1
100
AcDbLine
 10
250.6728237695465
 20
22.56513918393657
 30
0.0
 11
248.6928433007965
 21
21.03872622006938
 31
0.0
  0
LINE
  5
A0
330
6F
100
AcDbEntity
  8
0
 62
     1
100
AcDbLine
 10
252.6589077539215
 20
20.16893709653422
 30
0.0
 11
254.7682827539215
 21
17.97014559262797
 31
0.0
  0
LINE
  5
A1
330
6F
100
AcDbEntity
  8
0
 62
     1
100
AcDbLine
 10
254.7682827539215
 20
17.97014559262797
 30
0.0
 11
256.9969814843903
 21
15.97084368222758
 31
0.0
  0
LINE
  5
A2
330
6F
100
AcDbEntity
  8
0
 62
     1
100
AcDbLine
 10
256.9969814843903
 20
15.97084368222758
 30
0.0
 11
259.340426308609
 21
14.17314852231547
 31
0.0
  0
LINE
  5
A7
330
6F
100
AcDbEntity
  8
0
 62
     1
100
AcDbLine
 10
269.7795742578278
 20
9.039977440772503
 30
0.0
 11
272.6341885156403
 21
8.28153933042094
 31
0.0
  0
LINE
  5
AB
330
6F
100
AcDbEntity
  8
0
 62
     1
100
AcDbLine
 10
250.8055752343903
 20
18.48970736020612
 30
0.0
 11
253.0495327539215
 21
16.15068758481547
 31
0.0
  0
LINE
  5
AD
330
6F
100
AcDbEntity
  8
0
 62
     1
100
AcDbLine
 10
255.4204433984528
 20
14.02387941831156
 30
0.0
 11
257.913424355484
 21
12.11153353208107
 31
0.0
  0
LINE
  5
AE
330
6F
100
AcDbEntity
  8
0
 62
     1
100
AcDbLine
 10
257.913424355484
 20
12.11153353208107
 30
0.0
 11
260.5242031640778
 21
10.41584337705183
 31
0.0
  0
LINE
  5
B0
330
6F
100
AcDbEntity
  8
0
 62
     1
100
AcDbLine
 10
263.2482021875153
 20
8.939040551124065
 30
0.0
 11
266.081148964859
 21
7.683356652198284
 31
0.0
  0
LINE
  5
B2
330
6F
100
AcDbEntity
  8
0
 62
     1
100
AcDbLine
 10
269.0181606836091
 20
6.65098513120219
 30
0.0
 11
272.0546597070466
 21
5.844176659522503
 31
0.0
  0
LINE
  5
B3
330
6F
100
AcDbEntity
  8
0
 62
     1
100
AcDbLine
 10
272.0546597070466
 20
5.844176659522503
 30
0.0
 11
275.1866787500153
 21
5.265124688086956
 31
0.0
  0
LINE
  5
B4
330
6F
100
AcDbEntity
  8
0
 62
     1
100
AcDbLine
 10
275.1866787500153
 20
5.265124688086956
 30
0.0
 11
278.4093350000153
 21
4.916079888282268
 31
0.0
  0
LINE
  5
B5
330
6F
100
AcDbEntity
  8
0
 62
     1
100
AcDbLine
 10
281.7177456445465
 20
7.299235711036175
 30
0.0
 11
286.2178677148591
 21
7.299235711036175
 31
0.0
  0
LINE
  5
B6
330
6F
100
AcDbEntity
  8
0
 62
     1
100
AcDbLine
 10
286.2178677148591
 20
7.299235711036175
 30
0.0
 11
286.2178677148591
 21
15.69923723691508
 31
0.0
  0
LINE
  5
B7
330
6F
100
AcDbEntity
  8
0
 62
     1
100
AcDbLine
 10
286.2178677148591
 20
15.69923723691508
 30
0.0
 11
288.717867714859
 21
15.69923723691508
 31
0.0
  0
LINE
  5
B8
330
6F
100
AcDbEntity
  8
0
 62
     1
100
AcDbLine
 10
288.717867714859
 20
15.69923723691508
 30
0.0
 11
288.717867714859
 21
4.799235711036175
 31
0.0
  0
LINE
  5
DA
330
6F
100
AcDbEntity
  8
0
 62
     1
100
AcDbLine
 10
278.4093350000153
 20
4.916079888282268
 30
0.0
 11
281.7177456445465
 21
4.799235711036175
 31
0.0
  0
LINE
  5
DF
330
6F
100
AcDbEntity
  8
0
 62
     1
100
AcDbLine
 10
252.4480312890778
 20
25.90330446713972
 30
0.0
 11
254.3846767968903
 21
23.61997927182716
 31
0.0
  0
LINE
  5
E1
330
6F
100
AcDbEntity
  8
0
 62
     1
100
AcDbLine
 10
256.4626186914215
 20
21.52075136655375
 30
0.0
 11
258.677584511734
 21
19.60831011289161
 31
0.0
  0
LINE
  5
E4
330
6F
100
AcDbEntity
  8
0
 62
     1
100
AcDbLine
 10
263.504244667984
 20
16.35427797788188
 30
0.0
 11
266.108004433609
 21
15.01797045224711
 31
0.0
  0
LINE
  5
E5
330
6F
100
AcDbEntity
  8
0
 62
     1
100
AcDbLine
 10
266.108004433609
 20
15.01797045224711
 30
0.0
 11
268.8332241601715
 21
13.87901628964945
 31
0.0
  0
LINE
  5
E6
330
6F
100
AcDbEntity
  8
0
 62
     1
100
AcDbLine
 10
268.8332241601715
 20
13.87901628964945
 30
0.0
 11
271.6762417382966
 21
12.94004763120219
 31
0.0
  0
LINE
  5
E7
330
6F
100
AcDbEntity
  8
0
 62
     1
100
AcDbLine
 10
271.6762417382966
 20
12.94004763120219
 30
0.0
 11
274.6327847070465
 21
12.20371569150492
 31
0.0
  0
LINE
  5
EB
330
6F
100
AcDbEntity
  8
0
 62
     1
100
AcDbLine
 10
250.4982632226715
 20
24.33401430600688
 30
0.0
 11
252.558199746109
 21
21.90506304257914
 31
0.0
  0
LINE
  5
EC
330
6F
100
AcDbEntity
  8
0
 62
     1
100
AcDbLine
 10
252.558199746109
 20
21.90506304257914
 30
0.0
 11
254.7685879297028
 21
19.67197741025492
 31
0.0
  0
LINE
  5
ED
330
6F
100
AcDbEntity
  8
0
 62
     1
100
AcDbLine
 10
254.7685879297028
 20
19.67197741025492
 30
0.0
 11
257.1251553125153
 21
17.63756121152445
 31
0.0
  0
LINE
  5
EE
330
6F
100
AcDbEntity
  8
0
 62
     1
100
AcDbLine
 10
257.1251553125153
 20
17.63756121152445
 30
0.0
 11
259.623629433609
 21
15.80461824887797
 31
0.0
  0
LINE
  5
F1
330
6F
100
AcDbEntity
  8
0
 62
     1
100
AcDbLine
 10
265.0292080468903
 20
12.75446260922953
 30
0.0
 11
267.9283779687653
 21
11.54287661069438
 31
0.0
  0
LINE
  5
F2
330
6F
100
AcDbEntity
  8
0
 62
     1
100
AcDbLine
 10
267.9283779687653
 20
11.54287661069438
 30
0.0
 11
270.9526699609528
 21
10.5440172051768
 31
0.0
  0
LINE
  5
F3
330
6F
100
AcDbEntity
  8
0
 62
     1
100
AcDbLine
 10
270.9526699609528
 20
10.5440172051768
 30
0.0
 11
274.0978115625153
 21
9.760726342139719
 31
0.0
  0
LINE
  5
F5
330
6F
100
AcDbEntity
  8
0
 62
     1
100
AcDbLine
 10
277.6994961328278
 20
11.67265261167094
 30
0.0
 11
282.157809121109
 21
11.06176699155375
 31
0.0
  0
LINE
  5
F6
330
6F
100
AcDbEntity
  8
0
 62
     1
100
AcDbLine
 10
282.157809121109
 20
11.06176699155375
 30
0.0
 11
283.2982510156403
 21
19.38400591367292
 31
0.0
  0
LINE
  5
F8
330
6F
100
AcDbEntity
  8
0
 62
     1
100
AcDbLine
 10
285.7750576562653
 20
19.04461229795026
 30
0.0
 11
284.2952602929841
 21
8.245509514747112
 31
0.0
  0
LINE
  5
F9
330
6F
100
AcDbEntity
  8
0
 62
     1
100
AcDbLine
 10
284.2952602929841
 20
8.245509514747112
 30
0.0
 11
277.3601406640778
 21
9.195788750586956
 31
0.0
  0
LINE
  5
FD
330
6F
100
AcDbEntity
  8
0
 62
     1
100
AcDbLine
 10
249.0141933984528
 20
31.01175631040141
 30
0.0
 11
250.6566494531403
 21
28.36811388486433
 31
0.0
  0
LINE
  5
FE
330
6F
100
AcDbEntity
  8
0
 62
     1
100
AcDbLine
 10
250.6566494531403
 20
28.36811388486433
 30
0.0
 11
252.4480312890778
 21
25.90330446713972
 31
0.0
  0
LINE
  5
100
330
6F
100
AcDbEntity
  8
0
 62
     1
100
AcDbLine
 10
254.3846767968903
 20
23.61997927182716
 30
0.0
 11
256.4626186914215
 21
21.52075136655375
 31
0.0
  0
LINE
  5
102
330
6F
100
AcDbEntity
  8
0
 62
     1
100
AcDbLine
 10
258.677584511734
 20
19.60831011289161
 30
0.0
 11
261.026217324234
 21
17.88526857846781
 31
0.0
  0
LINE
  5
103
330
6F
100
AcDbEntity
  8
0
 62
     1
100
AcDbLine
 10
261.026217324234
 20
17.88526857846781
 30
0.0
 11
263.504244667984
 21
16.35427797788188
 31
0.0
  0
LINE
  5
108
330
6F
100
AcDbEntity
  8
0
 62
     1
100
AcDbLine
 10
246.845309121109
 20
29.76826036923933
 30
0.0
 11
248.5924404687653
 21
26.95602739804787
 31
0.0
  0
LINE
  5
109
330
6F
100
AcDbEntity
  8
0
 62
     1
100
AcDbLine
 10
248.5924404687653
 20
26.95602739804787
 30
0.0
 11
250.4982632226715
 21
24.33401430600688
 31
0.0
  0
LINE
  5
10E
330
6F
100
AcDbEntity
  8
0
 62
     1
100
AcDbLine
 10
259.623629433609
 20
15.80461824887797
 30
0.0
 11
262.2597378320465
 21
14.17599047177836
 31
0.0
  0
LINE
  5
10F
330
6F
100
AcDbEntity
  8
0
 62
     1
100
AcDbLine
 10
262.2597378320465
 20
14.17599047177836
 30
0.0
 11
265.0292080468903
 21
12.75446260922953
 31
0.0
  0
LINE
  5
115
330
6F
100
AcDbEntity
  8
0
 62
     1
100
AcDbLine
 10
283.2982510156403
 20
19.38400591367292
 30
0.0
 11
285.7750576562653
 21
19.04461229795026
 31
0.0
  0
LINE
  5
118
330
6F
100
AcDbEntity
  8
0
 62
     1
100
AcDbLine
 10
249.0141933984528
 20
31.01175631040141
 30
0.0
 11
246.845309121109
 21
29.76826036923933
 31
0.0
  0
LINE
  5
137
330
6F
100
AcDbEntity
  8
0
 62
     1
100
AcDbLine
 10
274.6327847070465
 20
12.20371569150492
 30
0.0
 11
277.6994961328278
 21
11.67265261167094
 31
0.0
  0
LINE
  5
138
330
6F
100
AcDbEntity
  8
0
 62
     1
100
AcDbLine
 10
274.0978115625153
 20
9.760726342139719
 30
0.0
 11
277.3601406640778
 21
9.195788750586956
 31
0.0
  0
LINE
  5
13B
330
6F
100
AcDbEntity
  8
0
 62
     1
100
AcDbLine
 10
248.3367031640778
 20
39.8847040032725
 30
0.0
 11
249.593111855484
 21
37.03729952329203
 31
0.0
  0
LINE
  5
13E
330
6F
100
AcDbEntity
  8
0
 62
     1
100
AcDbLine
 10
252.6201504297028
 20
31.81429232114357
 30
0.0
 11
254.3840664453278
 21
29.44502199643657
 31
0.0
  0
LINE
  5
144
330
6F
100
AcDbEntity
  8
0
 62
     1
100
AcDbLine
 10
265.5638760156403
 20
20.14774645322368
 30
0.0
 11
268.2475918359528
 21
18.82026995175883
 31
0.0
  0
LINE
  5
145
330
6F
100
AcDbEntity
  8
0
 62
     1
100
AcDbLine
 10
268.2475918359528
 20
18.82026995175883
 30
0.0
 11
271.0722988672028
 21
17.67752016538188
 31
0.0
  0
LINE
  5
146
330
6F
100
AcDbEntity
  8
0
 62
     1
100
AcDbLine
 10
271.0722988672028
 20
17.67752016538188
 30
0.0
 11
274.0343350000153
 21
16.72264421933695
 31
0.0
  0
LINE
  5
147
330
6F
100
AcDbEntity
  8
0
 62
     1
100
AcDbLine
 10
246.015230996109
 20
38.95685518735453
 30
0.0
 11
247.351900917984
 21
35.92785204404399
 31
0.0
  0
LINE
  5
14B
330
6F
100
AcDbEntity
  8
0
 62
     1
100
AcDbLine
 10
252.4480312890778
 20
27.85137499326274
 30
0.0
 11
254.496676308609
 21
25.50730074399516
 31
0.0
  0
LINE
  5
14C
330
6F
100
AcDbEntity
  8
0
 62
     1
100
AcDbLine
 10
254.496676308609
 20
25.50730074399516
 30
0.0
 11
256.7140835351715
 21
23.34286058896586
 31
0.0
  0
LINE
  5
14D
330
6F
100
AcDbEntity
  8
0
 62
     1
100
AcDbLine
 10
256.7140835351715
 20
23.34286058896586
 30
0.0
 11
259.0965908593903
 21
21.36144960874123
 31
0.0
  0
LINE
  5
14F
330
6F
100
AcDbEntity
  8
0
 62
     1
100
AcDbLine
 10
261.6399258203278
 20
19.56642473691508
 30
0.0
 11
264.3410366601715
 21
17.96116198056742
 31
0.0
  0
LINE
  5
151
330
6F
100
AcDbEntity
  8
0
 62
     1
100
AcDbLine
 10
267.1959560937653
 20
16.54903734677836
 30
0.0
 11
270.2007168359528
 21
15.33338869565531
 31
0.0
  0
LINE
  5
152
330
6F
100
AcDbEntity
  8
0
 62
     1
100
AcDbLine
 10
270.2007168359528
 20
15.33338869565531
 30
0.0
 11
273.3516567773591
 21
14.31763018125102
 31
0.0
  0
LINE
  5
153
330
6F
100
AcDbEntity
  8
0
 62
     1
100
AcDbLine
 10
274.0343350000153
 20
16.72264421933695
 30
0.0
 11
278.3632534570465
 21
15.49404467099711
 31
0.0
  0
LINE
  5
154
330
6F
100
AcDbEntity
  8
0
 62
     1
100
AcDbLine
 10
278.3632534570465
 20
15.49404467099711
 30
0.0
 11
280.6566494531403
 21
23.5748895501475
 31
0.0
  0
LINE
  5
156
330
6F
100
AcDbEntity
  8
0
 62
     1
100
AcDbLine
 10
283.0617397851715
 20
22.8923257684092
 30
0.0
 11
280.0856655664215
 21
12.40644777768656
 31
0.0
  0
LINE
  5
15C
330
6F
100
AcDbEntity
  8
0
 62
     1
100
AcDbLine
 10
249.593111855484
 20
37.03729952329203
 30
0.0
 11
251.0219448632966
 21
34.34610689633891
 31
0.0
  0
LINE
  5
15D
330
6F
100
AcDbEntity
  8
0
 62
     1
100
AcDbLine
 10
251.0219448632966
 20
34.34610689633891
 30
0.0
 11
252.6201504297028
 21
31.81429232114357
 31
0.0
  0
LINE
  5
15F
330
6F
100
AcDbEntity
  8
0
 62
     1
100
AcDbLine
 10
254.3840664453278
 20
29.44502199643657
 30
0.0
 11
256.3097256250153
 21
27.24146212094828
 31
0.0
  0
LINE
  5
160
330
6F
100
AcDbEntity
  8
0
 62
     1
100
AcDbLine
 10
256.3097256250153
 20
27.24146212094828
 30
0.0
 11
258.3940762109528
 21
25.20679796689555
 31
0.0
  0
LINE
  5
161
330
6F
100
AcDbEntity
  8
0
 62
     1
100
AcDbLine
 10
258.3940762109528
 20
25.20679796689555
 30
0.0
 11
260.6337612695465
 21
23.3441766595225
 31
0.0
  0
LINE
  5
162
330
6F
100
AcDbEntity
  8
0
 62
     1
100
AcDbLine
 10
260.6337612695465
 20
23.3441766595225
 30
0.0
 11
263.0248135156403
 21
21.65676439755961
 31
0.0
  0
LINE
  5
163
330
6F
100
AcDbEntity
  8
0
 62
     1
100
AcDbLine
 10
263.0248135156403
 20
21.65676439755961
 30
0.0
 11
265.5638760156403
 21
20.14774645322368
 31
0.0
  0
LINE
  5
167
330
6F
100
AcDbEntity
  8
0
 62
     1
100
AcDbLine
 10
247.351900917984
 20
35.92785204404399
 30
0.0
 11
248.8719814843903
 21
33.06503618711037
 31
0.0
  0
LINE
  5
168
330
6F
100
AcDbEntity
  8
0
 62
     1
100
AcDbLine
 10
248.8719814843903
 20
33.06503618711037
 30
0.0
 11
250.5718105859528
 21
30.37174547666118
 31
0.0
  0
LINE
  5
169
330
6F
100
AcDbEntity
  8
0
 62
     1
100
AcDbLine
 10
250.5718105859528
 20
30.37174547666118
 30
0.0
 11
252.4480312890778
 21
27.85137499326274
 31
0.0
  0
LINE
  5
16D
330
6F
100
AcDbEntity
  8
0
 62
     1
100
AcDbLine
 10
259.0965908593903
 20
21.36144960874123
 30
0.0
 11
261.6399258203278
 21
19.56642473691508
 31
0.0
  0
LINE
  5
16F
330
6F
100
AcDbEntity
  8
0
 62
     1
100
AcDbLine
 10
264.3410366601715
 20
17.96116198056742
 30
0.0
 11
267.1959560937653
 21
16.54903734677836
 31
0.0
  0
LINE
  5
173
330
6F
100
AcDbEntity
  8
0
 62
     1
100
AcDbLine
 10
280.6566494531403
 20
23.5748895501475
 30
0.0
 11
283.0617397851715
 21
22.8923257684092
 31
0.0
  0
LINE
  5
175
330
6F
100
AcDbEntity
  8
0
 62
     1
100
AcDbLine
 10
280.0856655664215
 20
12.40644777768656
 30
0.0
 11
273.3516567773591
 21
14.31763018125102
 31
0.0
  0
LINE
  5
176
330
6F
100
AcDbEntity
  8
0
 62
     1
100
AcDbLine
 10
248.3367031640778
 20
39.8847040032725
 30
0.0
 11
246.015230996109
 21
38.95685518735453
 31
0.0
  0
LINE
  5
19B
330
6F
100
AcDbEntity
  8
0
 62
     1
100
AcDbLine
 10
251.3188808984528
 20
42.87809694760844
 30
0.0
 11
252.5087612695465
 21
40.13059938901469
 31
0.0
  0
LINE
  5
19D
330
6F
100
AcDbEntity
  8
0
 62
     1
100
AcDbLine
 10
253.8869350976715
 20
37.51823748105571
 30
0.0
 11
255.4509609765778
 21
35.04469240659282
 31
0.0
  0
LINE
  5
19E
330
6F
100
AcDbEntity
  8
0
 62
     1
100
AcDbLine
 10
255.4509609765778
 20
35.04469240659282
 30
0.0
 11
257.1974819726715
 21
32.71362627500102
 31
0.0
  0
LINE
  5
19F
330
6F
100
AcDbEntity
  8
0
 62
     1
100
AcDbLine
 10
257.1974819726715
 20
32.71362627500102
 30
0.0
 11
259.1240566797028
 21
30.52870119565532
 31
0.0
  0
LINE
  5
1A0
330
6F
100
AcDbEntity
  8
0
 62
     1
100
AcDbLine
 10
259.1240566797028
 20
30.52870119565532
 30
0.0
 11
261.2270229882966
 21
28.49361742490336
 31
0.0
  0
LINE
  5
1A2
330
6F
100
AcDbEntity
  8
0
 62
     1
100
AcDbLine
 10
263.5039394922028
 20
26.6119989251475
 30
0.0
 11
265.9514492578278
 21
24.88754595273539
 31
0.0
  0
LINE
  5
1A7
330
6F
100
AcDbEntity
  8
0
 62
     1
100
AcDbLine
 10
248.997408730484
 20
41.94298113339946
 30
0.0
 11
250.2629726953278
 21
39.02027452939555
 31
0.0
  0
LINE
  5
1AA
330
6F
100
AcDbEntity
  8
0
 62
     1
100
AcDbLine
 10
253.3928555078278
 20
33.61000383847758
 30
0.0
 11
255.2507656640778
 21
31.13027895444438
 31
0.0
  0
LINE
  5
1AB
330
6F
100
AcDbEntity
  8
0
 62
     1
100
AcDbLine
 10
255.2507656640778
 20
31.13027895444438
 30
0.0
 11
257.3000210351715
 21
28.80602205747172
 31
0.0
  0
LINE
  5
1AC
330
6F
100
AcDbEntity
  8
0
 62
     1
100
AcDbLine
 10
257.3000210351715
 20
28.80602205747172
 30
0.0
 11
259.5372646875153
 21
26.64112413877055
 31
0.0
  0
LINE
  5
1B0
330
6F
100
AcDbEntity
  8
0
 62
     1
100
AcDbLine
 10
267.3448818750153
 20
21.14176119321391
 30
0.0
 11
270.302340371109
 21
19.65341890805766
 31
0.0
  0
LINE
  5
1B1
330
6F
100
AcDbEntity
  8
0
 62
     1
100
AcDbLine
 10
271.3466518945466
 20
21.92482317441508
 30
0.0
 11
275.4350918359528
 21
20.04497850888774
 31
0.0
  0
LINE
  5
1B9
330
6F
100
AcDbEntity
  8
0
 62
     1
100
AcDbLine
 10
249.5174282617341
 20
48.76381243222758
 30
0.0
 11
250.3209560937653
 21
45.75704897397563
 31
0.0
  0
LINE
  5
1BA
330
6F
100
AcDbEntity
  8
0
 62
     1
100
AcDbLine
 10
250.3209560937653
 20
45.75704897397563
 30
0.0
 11
251.3188808984528
 21
42.87809694760844
 31
0.0
  0
LINE
  5
1BC
330
6F
100
AcDbEntity
  8
0
 62
     1
100
AcDbLine
 10
252.5087612695465
 20
40.13059938901469
 30
0.0
 11
253.8869350976715
 21
37.51823748105571
 31
0.0
  0
LINE
  5
1C1
330
6F
100
AcDbEntity
  8
0
 62
     1
100
AcDbLine
 10
261.2270229882966
 20
28.49361742490336
 30
0.0
 11
263.5039394922028
 21
26.6119989251475
 31
0.0
  0
LINE
  5
1C3
330
6F
100
AcDbEntity
  8
0
 62
     1
100
AcDbLine
 10
265.9514492578278
 20
24.88754595273539
 30
0.0
 11
268.5665005273591
 21
23.32393969052836
 31
0.0
  0
LINE
  5
1C4
330
6F
100
AcDbEntity
  8
0
 62
     1
100
AcDbLine
 10
247.080904824234
 20
48.2040819024424
 30
0.0
 11
247.9357021875153
 21
45.0055536126475
 31
0.0
  0
LINE
  5
1C5
330
6F
100
AcDbEntity
  8
0
 62
     1
100
AcDbLine
 10
247.9357021875153
 20
45.0055536126475
 30
0.0
 11
248.997408730484
 21
41.94298113339946
 31
0.0
  0
LINE
  5
1C7
330
6F
100
AcDbEntity
  8
0
 62
     1
100
AcDbLine
 10
250.2629726953278
 20
39.02027452939555
 30
0.0
 11
251.7290371484528
 21
36.24130571836037
 31
0.0
  0
LINE
  5
1C8
330
6F
100
AcDbEntity
  8
0
 62
     1
100
AcDbLine
 10
251.7290371484528
 20
36.24130571836037
 30
0.0
 11
253.3928555078278
 21
33.61000383847758
 31
0.0
  0
LINE
  5
1CC
330
6F
100
AcDbEntity
  8
0
 62
     1
100
AcDbLine
 10
259.5372646875153
 20
26.64112413877055
 30
0.0
 11
261.9591396875153
 21
24.63951433652446
 31
0.0
  0
LINE
  5
1CD
330
6F
100
AcDbEntity
  8
0
 62
     1
100
AcDbLine
 10
261.9591396875153
 20
24.63951433652446
 30
0.0
 11
264.5628994531403
 21
22.80510271543071
 31
0.0
  0
LINE
  5
1CE
330
6F
100
AcDbEntity
  8
0
 62
     1
100
AcDbLine
 10
264.5628994531403
 20
22.80510271543071
 30
0.0
 11
267.3448818750153
 21
21.14176119321391
 31
0.0
  0
LINE
  5
1D0
330
6F
100
AcDbEntity
  8
0
 62
     1
100
AcDbLine
 10
275.4350918359528
 20
20.04497850888774
 30
0.0
 11
278.9443081445465
 21
27.67692888730571
 31
0.0
  0
LINE
  5
1D1
330
6F
100
AcDbEntity
  8
0
 62
     1
100
AcDbLine
 10
278.9443081445465
 20
27.67692888730571
 30
0.0
 11
281.2157314843903
 21
26.6325601434092
 31
0.0
  0
LINE
  5
1D2
330
6F
100
AcDbEntity
  8
0
 62
     1
100
AcDbLine
 10
281.2157314843903
 20
26.6325601434092
 30
0.0
 11
276.662203652359
 21
16.72920549863386
 31
0.0
  0
LINE
  5
1D3
330
6F
100
AcDbEntity
  8
0
 62
     1
100
AcDbLine
 10
276.662203652359
 20
16.72920549863386
 30
0.0
 11
270.302340371109
 21
19.65341890805766
 31
0.0
  0
LINE
  5
1D4
330
6F
100
AcDbEntity
  8
0
 62
     1
100
AcDbLine
 10
249.5174282617341
 20
48.76381243222758
 30
0.0
 11
247.080904824234
 21
48.2040819024424
 31
0.0
  0
LINE
  5
1F3
330
6F
100
AcDbEntity
  8
0
 62
     1
100
AcDbLine
 10
268.5665005273591
 20
23.32393969052836
 30
0.0
 11
271.3466518945466
 21
21.92482317441508
 31
0.0
  0
LINE
  5
1FB
330
6F
100
AcDbEntity
  8
0
 62
     1
100
AcDbLine
 10
254.8137539453278
 20
45.71499193662211
 30
0.0
 11
255.9691494531403
 21
43.02618349546
 31
0.0
  0
LINE
  5
1FC
330
6F
100
AcDbEntity
  8
0
 62
     1
100
AcDbLine
 10
255.9691494531403
 20
43.02618349546
 30
0.0
 11
257.3271816797028
 21
40.44931734555766
 31
0.0
  0
LINE
  5
1FD
330
6F
100
AcDbEntity
  8
0
 62
     1
100
AcDbLine
 10
257.3271816797028
 20
40.44931734555766
 30
0.0
 11
258.8857143945465
 21
37.98851335996196
 31
0.0
  0
LINE
  5
200
330
6F
100
AcDbEntity
  8
0
 62
     1
100
AcDbLine
 10
262.594820839859
 20
33.43145693296
 30
0.0
 11
264.7405117578278
 21
31.34338701718852
 31
0.0
  0
LINE
  5
205
330
6F
100
AcDbEntity
  8
0
 62
     1
100
AcDbLine
 10
250.6810635156403
 20
50.85399950498149
 30
0.0
 11
251.4711636132965
 21
47.76855791562598
 31
0.0
  0
LINE
  5
207
330
6F
100
AcDbEntity
  8
0
 62
     1
100
AcDbLine
 10
252.4819058007965
 20
44.79349459165141
 30
0.0
 11
253.7108486718903
 21
41.93319643491313
 31
0.0
  0
LINE
  5
20A
330
6F
100
AcDbEntity
  8
0
 62
     1
100
AcDbLine
 10
256.813570839859
 20
36.57425249570414
 30
0.0
 11
258.6821621484528
 21
34.08432329648539
 31
0.0
  0
LINE
  5
20E
330
6F
100
AcDbEntity
  8
0
 62
     1
100
AcDbLine
 10
265.5272549218903
 20
27.42496813291118
 30
0.0
 11
268.213717324234
 21
25.48984850400493
 31
0.0
  0
LINE
  5
214
330
6F
100
AcDbEntity
  8
0
 62
     1
100
AcDbLine
 10
252.2679775781403
 20
57.50801409238386
 30
0.0
 11
249.7737759179841
 21
57.33862246030375
 31
0.0
  0
LINE
  5
217
330
6F
100
AcDbEntity
  8
0
 62
     1
100
AcDbLine
 10
252.2679775781403
 20
57.50801409238386
 30
0.0
 11
252.5884121484528
 21
54.4122918938975
 31
0.0
  0
LINE
  5
218
330
6F
100
AcDbEntity
  8
0
 62
     1
100
AcDbLine
 10
252.5884121484528
 20
54.4122918938975
 30
0.0
 11
253.120943886734
 21
51.41214693540141
 31
0.0
  0
LINE
  5
219
330
6F
100
AcDbEntity
  8
0
 62
     1
100
AcDbLine
 10
253.120943886734
 20
51.41214693540141
 30
0.0
 11
253.8637417382965
 21
48.51168001645612
 31
0.0
  0
LINE
  5
21A
330
6F
100
AcDbEntity
  8
0
 62
     1
100
AcDbLine
 10
253.8637417382965
 20
48.51168001645612
 30
0.0
 11
254.8137539453278
 21
45.71499193662211
 31
0.0
  0
LINE
  5
21E
330
6F
100
AcDbEntity
  8
0
 62
     1
100
AcDbLine
 10
258.8857143945465
 20
37.98851335996196
 30
0.0
 11
260.6423061914215
 21
35.64787233823347
 31
0.0
  0
LINE
  5
21F
330
6F
100
AcDbEntity
  8
0
 62
     1
100
AcDbLine
 10
260.6423061914215
 20
35.64787233823347
 30
0.0
 11
262.594820839859
 21
33.43145693296
 31
0.0
  0
LINE
  5
221
330
6F
100
AcDbEntity
  8
0
 62
     1
100
AcDbLine
 10
264.7405117578278
 20
31.34338701718852
 30
0.0
 11
267.0772427148591
 21
29.38774431699321
 31
0.0
  0
LINE
  5
222
330
6F
100
AcDbEntity
  8
0
 62
     1
100
AcDbLine
 10
249.7737759179841
 20
57.33862246030375
 30
0.0
 11
250.1146572656403
 21
54.045470604835
 31
0.0
  0
LINE
  5
223
330
6F
100
AcDbEntity
  8
0
 62
     1
100
AcDbLine
 10
250.1146572656403
 20
54.045470604835
 30
0.0
 11
250.6810635156403
 21
50.85399950498149
 31
0.0
  0
LINE
  5
225
330
6F
100
AcDbEntity
  8
0
 62
     1
100
AcDbLine
 10
251.4711636132965
 20
47.76855791562598
 30
0.0
 11
252.4819058007965
 21
44.79349459165141
 31
0.0
  0
LINE
  5
227
330
6F
100
AcDbEntity
  8
0
 62
     1
100
AcDbLine
 10
253.7108486718903
 20
41.93319643491313
 30
0.0
 11
255.1555508203278
 21
39.19199312680766
 31
0.0
  0
LINE
  5
228
330
6F
100
AcDbEntity
  8
0
 62
     1
100
AcDbLine
 10
255.1555508203278
 20
39.19199312680766
 30
0.0
 11
256.813570839859
 21
36.57425249570414
 31
0.0
  0
LINE
  5
22A
330
6F
100
AcDbEntity
  8
0
 62
     1
100
AcDbLine
 10
258.6821621484528
 20
34.08432329648539
 30
0.0
 11
260.7591885156403
 21
31.72657335752055
 31
0.0
  0
LINE
  5
22B
330
6F
100
AcDbEntity
  8
0
 62
     1
100
AcDbLine
 10
260.7591885156403
 20
31.72657335752055
 30
0.0
 11
263.041598183609
 21
29.50533236020613
 31
0.0
  0
LINE
  5
22C
330
6F
100
AcDbEntity
  8
0
 62
     1
100
AcDbLine
 10
263.041598183609
 20
29.50533236020613
 30
0.0
 11
265.5272549218903
 21
27.42496813291118
 31
0.0
  0
LINE
  5
22D
330
6F
100
AcDbEntity
  8
0
 62
     1
100
AcDbLine
 10
269.6025723047028
 20
27.56864870542094
 30
0.0
 11
273.344332558609
 21
25.06891573422953
 31
0.0
  0
LINE
  5
22E
330
6F
100
AcDbEntity
  8
0
 62
     1
100
AcDbLine
 10
273.344332558609
 20
25.06891573422953
 30
0.0
 11
278.0104702539215
 21
32.05366457456157
 31
0.0
  0
LINE
  5
22F
330
6F
100
AcDbEntity
  8
0
 62
     1
100
AcDbLine
 10
278.0104702539215
 20
32.05366457456157
 30
0.0
 11
280.0893276757965
 21
30.66492403501078
 31
0.0
  0
LINE
  5
230
330
6F
100
AcDbEntity
  8
0
 62
     1
100
AcDbLine
 10
280.0893276757965
 20
30.66492403501078
 30
0.0
 11
274.0343350000153
 21
21.60137499326274
 31
0.0
  0
LINE
  5
231
330
6F
100
AcDbEntity
  8
0
 62
     1
100
AcDbLine
 10
274.0343350000153
 20
21.60137499326274
 30
0.0
 11
268.213717324234
 21
25.48984850400493
 31
0.0
  0
LINE
  5
251
330
6F
100
AcDbEntity
  8
0
 62
     1
100
AcDbLine
 10
267.0772427148591
 20
29.38774431699321
 30
0.0
 11
269.6025723047028
 21
27.56864870542094
 31
0.0
  0
LINE
  5
255
330
6F
100
AcDbEntity
  8
0
 62
     1
100
AcDbLine
 10
256.8593472070465
 20
63.12080706113386
 30
0.0
 11
257.1108120507965
 21
66.22288073056743
 31
0.0
  0
LINE
  5
256
330
6F
100
AcDbEntity
  8
0
 62
     1
100
AcDbLine
 10
256.8593472070465
 20
63.12080706113386
 30
0.0
 11
256.8340176172028
 21
60.07385576718852
 31
0.0
  0
LINE
  5
257
330
6F
100
AcDbEntity
  8
0
 62
     1
100
AcDbLine
 10
256.8340176172028
 20
60.07385576718852
 30
0.0
 11
257.0329922265778
 21
57.08649004453227
 31
0.0
  0
LINE
  5
25B
330
6F
100
AcDbEntity
  8
0
 62
     1
100
AcDbLine
 10
258.9629238672028
 20
48.52644289487407
 30
0.0
 11
260.044772011734
 21
45.82197512143657
 31
0.0
  0
LINE
  5
25D
330
6F
100
AcDbEntity
  8
0
 62
     1
100
AcDbLine
 10
261.3432949609528
 20
43.19938982480571
 30
0.0
 11
262.857272011734
 21
40.66313112729594
 31
0.0
  0
LINE
  5
26A
330
6F
100
AcDbEntity
  8
0
 62
     1
100
AcDbLine
 10
260.740572792984
 20
39.32295168393657
 30
0.0
 11
262.5780361718903
 21
36.72151888364357
 31
0.0
  0
LINE
  5
26B
330
6F
100
AcDbEntity
  8
0
 62
     1
100
AcDbLine
 10
262.5780361718903
 20
36.72151888364357
 30
0.0
 11
264.6410244531403
 21
34.22142351621196
 31
0.0
  0
LINE
  5
26D
330
6F
100
AcDbEntity
  8
0
 62
     1
100
AcDbLine
 10
271.8947475976715
 20
30.47468508237407
 30
0.0
 11
277.7605312890778
 21
36.48758257382914
 31
0.0
  0
LINE
  5
26E
330
6F
100
AcDbEntity
  8
0
 62
     1
100
AcDbLine
 10
277.7605312890778
 20
36.48758257382914
 30
0.0
 11
279.5500820703278
 21
34.7418817376475
 31
0.0
  0
LINE
  5
26F
330
6F
100
AcDbEntity
  8
0
 62
     1
100
AcDbLine
 10
279.5500820703278
 20
34.7418817376475
 30
0.0
 11
271.9386929101716
 21
26.9394334649424
 31
0.0
  0
LINE
  5
270
330
6F
100
AcDbEntity
  8
0
 62
     1
100
AcDbLine
 10
257.1108120507965
 20
66.22288073056743
 30
0.0
 11
254.6275967187653
 21
66.51277864926857
 31
0.0
  0
LINE
  5
272
330
6F
100
AcDbEntity
  8
0
 62
     1
100
AcDbLine
 10
268.9470547265778
 20
29.85782946103618
 30
0.0
 11
269.715182167984
 21
30.64522112363386
 31
0.0
  0
LINE
  5
273
330
6F
100
AcDbEntity
  8
0
 62
     1
100
AcDbLine
 10
269.715182167984
 20
30.64522112363386
 30
0.0
 11
266.136080605484
 21
34.13664186948347
 31
0.0
  0
LINE
  5
274
330
6F
100
AcDbEntity
  8
0
 62
     1
100
AcDbLine
 10
266.136080605484
 20
34.13664186948347
 30
0.0
 11
265.4216641015778
 21
33.40433443540141
 31
0.0
  0
LINE
  5
275
330
6F
100
AcDbEntity
  8
0
 62
     1
100
AcDbLine
 10
271.9386929101716
 20
26.9394334649424
 30
0.0
 11
268.9470547265778
 21
29.85782946103618
 31
0.0
  0
LINE
  5
27A
330
6F
100
AcDbEntity
  8
0
 62
     1
100
AcDbLine
 10
257.0329922265778
 20
57.08649004453227
 30
0.0
 11
257.4553555078278
 21
54.16315401547956
 31
0.0
  0
LINE
  5
27B
330
6F
100
AcDbEntity
  8
0
 62
     1
100
AcDbLine
 10
257.4553555078278
 20
54.16315401547956
 30
0.0
 11
258.0992764062653
 21
51.30831087583107
 31
0.0
  0
LINE
  5
27E
330
6F
100
AcDbEntity
  8
0
 62
     1
100
AcDbLine
 10
260.044772011734
 20
45.82197512143657
 30
0.0
 11
261.3432949609528
 21
43.19938982480571
 31
0.0
  0
LINE
  5
282
330
6F
100
AcDbEntity
  8
0
 62
     1
100
AcDbLine
 10
266.5239590234528
 20
35.86744631284282
 30
0.0
 11
268.6736172265778
 21
33.61694658750102
 31
0.0
  0
LINE
  5
284
330
6F
100
AcDbEntity
  8
0
 62
     1
100
AcDbLine
 10
254.359957558609
 20
63.21287477963972
 30
0.0
 11
254.3331020898591
 21
59.97160280698347
 31
0.0
  0
LINE
  5
286
330
6F
100
AcDbEntity
  8
0
 62
     1
100
AcDbLine
 10
254.5448940820465
 20
56.79371202939558
 30
0.0
 11
254.9941128320465
 21
53.68395174497172
 31
0.0
  0
LINE
  5
287
330
6F
100
AcDbEntity
  8
0
 62
     1
100
AcDbLine
 10
254.9941128320465
 20
53.68395174497172
 30
0.0
 11
255.6789272851716
 21
50.647033104835
 31
0.0
  0
LINE
  5
28A
330
6F
100
AcDbEntity
  8
0
 62
     1
100
AcDbLine
 10
257.748629433609
 20
44.81081331723735
 30
0.0
 11
259.1301601953278
 21
42.02095354550883
 31
0.0
  0
LINE
  5
28E
330
6F
100
AcDbEntity
  8
0
 62
     1
100
AcDbLine
 10
268.6736172265778
 20
33.61694658750102
 30
0.0
 11
271.8947475976715
 21
30.47468508237407
 31
0.0
  0
LINE
  5
2C0
330
6F
100
AcDbEntity
  8
0
 62
     1
100
AcDbLine
 10
258.0992764062653
 20
51.30831087583107
 30
0.0
 11
258.9629238672028
 21
48.52644289487407
 31
0.0
  0
LINE
  5
2C4
330
6F
100
AcDbEntity
  8
0
 62
     1
100
AcDbLine
 10
262.857272011734
 20
40.66313112729594
 30
0.0
 11
264.584566933609
 21
38.21766222470802
 31
0.0
  0
LINE
  5
2C5
330
6F
100
AcDbEntity
  8
0
 62
     1
100
AcDbLine
 10
264.584566933609
 20
38.21766222470802
 30
0.0
 11
266.5239590234528
 21
35.86744631284282
 31
0.0
  0
LINE
  5
2C7
330
6F
100
AcDbEntity
  8
0
 62
     1
100
AcDbLine
 10
254.6275967187653
 20
66.51277864926857
 30
0.0
 11
254.359957558609
 21
63.21287477963972
 31
0.0
  0
LINE
  5
2C9
330
6F
100
AcDbEntity
  8
0
 62
     1
100
AcDbLine
 10
254.3331020898591
 20
59.97160280698347
 30
0.0
 11
254.5448940820465
 21
56.79371202939558
 31
0.0
  0
LINE
  5
2CC
330
6F
100
AcDbEntity
  8
0
 62
     1
100
AcDbLine
 10
255.6789272851716
 20
50.647033104835
 30
0.0
 11
256.5978115625153
 21
47.68774355405375
 31
0.0
  0
LINE
  5
2CD
330
6F
100
AcDbEntity
  8
0
 62
     1
100
AcDbLine
 10
256.5978115625153
 20
47.68774355405375
 30
0.0
 11
257.748629433609
 21
44.81081331723735
 31
0.0
  0
LINE
  5
2CF
330
6F
100
AcDbEntity
  8
0
 62
     1
100
AcDbLine
 10
259.1301601953278
 20
42.02095354550883
 30
0.0
 11
260.740572792984
 21
39.32295168393657
 31
0.0
  0
LINE
  5
2DC
330
6F
100
AcDbEntity
  8
0
 62
     1
100
AcDbLine
 10
264.6410244531403
 20
34.22142351621196
 30
0.0
 11
265.4216641015778
 21
33.40433443540141
 31
0.0
  0
LINE
  5
2FF
330
6F
100
AcDbEntity
  8
0
 62
     1
100
AcDbLine
 10
261.432711464859
 20
70.12155855649516
 30
0.0
 11
262.1666592187653
 21
73.14607943051857
 31
0.0
  0
LINE
  5
300
330
6F
100
AcDbEntity
  8
0
 62
     1
100
AcDbLine
 10
261.432711464859
 20
70.12155855649516
 30
0.0
 11
260.9310024804841
 21
67.11609209531352
 31
0.0
  0
LINE
  5
301
330
6F
100
AcDbEntity
  8
0
 62
     1
100
AcDbLine
 10
260.9310024804841
 20
67.11609209531352
 30
0.0
 11
260.6606167382965
 21
64.13433397763776
 31
0.0
  0
LINE
  5
302
330
6F
100
AcDbEntity
  8
0
 62
     1
100
AcDbLine
 10
260.6606167382965
 20
64.13433397763776
 30
0.0
 11
260.6203335351715
 21
61.18093813413188
 31
0.0
  0
LINE
  5
304
330
6F
100
AcDbEntity
  8
0
 62
     1
100
AcDbLine
 10
260.8095425195465
 20
58.26053942197368
 30
0.0
 11
261.2273281640778
 21
55.37781084531352
 31
0.0
  0
LINE
  5
305
330
6F
100
AcDbEntity
  8
0
 62
     1
100
AcDbLine
 10
261.2273281640778
 20
55.37781084531352
 30
0.0
 11
261.8730801172028
 21
52.53738726132917
 31
0.0
  0
LINE
  5
306
330
6F
100
AcDbEntity
  8
0
 62
     1
100
AcDbLine
 10
261.8730801172028
 20
52.53738726132917
 30
0.0
 11
262.7452725000153
 21
49.74392260068461
 31
0.0
  0
LINE
  5
307
330
6F
100
AcDbEntity
  8
0
 62
     1
100
AcDbLine
 10
262.7452725000153
 20
49.74392260068461
 30
0.0
 11
263.8439053125153
 21
47.00208986753032
 31
0.0
  0
LINE
  5
308
330
6F
100
AcDbEntity
  8
0
 62
     1
100
AcDbLine
 10
263.8439053125153
 20
47.00208986753032
 30
0.0
 11
265.1674526757965
 21
44.31650484555766
 31
0.0
  0
LINE
  5
30B
330
6F
100
AcDbEntity
  8
0
 62
     1
100
AcDbLine
 10
259.7594326562653
 20
73.82088030332133
 30
0.0
 11
258.9787930078278
 21
70.60345018857524
 31
0.0
  0
LINE
  5
30E
330
6F
100
AcDbEntity
  8
0
 62
     1
100
AcDbLine
 10
258.1572598047028
 20
64.23439348691508
 30
0.0
 11
258.1145351953278
 21
61.09262789243266
 31
0.0
  0
LINE
  5
30F
330
6F
100
AcDbEntity
  8
0
 62
     1
100
AcDbLine
 10
258.1145351953278
 20
61.09262789243266
 30
0.0
 11
258.3159512109528
 21
57.98599565976667
 31
0.0
  0
LINE
  5
310
330
6F
100
AcDbEntity
  8
0
 62
     1
100
AcDbLine
 10
258.3159512109528
 20
57.98599565976667
 30
0.0
 11
258.7602871484528
 21
54.91941774838972
 31
0.0
  0
LINE
  5
313
330
6F
100
AcDbEntity
  8
0
 62
     1
100
AcDbLine
 10
260.3749722070465
 20
48.92622316831157
 30
0.0
 11
261.5434902734528
 21
46.00952471250102
 31
0.0
  0
LINE
  5
314
330
6F
100
AcDbEntity
  8
0
 62
     1
100
AcDbLine
 10
261.5434902734528
 20
46.00952471250102
 30
0.0
 11
262.9515713281403
 21
43.15267885678813
 31
0.0
  0
LINE
  5
315
330
6F
100
AcDbEntity
  8
0
 62
     1
100
AcDbLine
 10
262.9515713281403
 20
43.15267885678813
 30
0.0
 11
264.597994667984
 21
40.36062563413188
 31
0.0
  0
LINE
  5
316
330
6F
100
AcDbEntity
  8
0
 62
     1
100
AcDbLine
 10
268.4862392968903
 20
39.1327508782725
 30
0.0
 11
271.176363808609
 21
35.52528704160258
 31
0.0
  0
LINE
  5
317
330
6F
100
AcDbEntity
  8
0
 62
     1
100
AcDbLine
 10
271.176363808609
 20
35.52528704160258
 30
0.0
 11
277.9103725976715
 21
40.54659212583106
 31
0.0
  0
LINE
  5
318
330
6F
100
AcDbEntity
  8
0
 62
     1
100
AcDbLine
 10
277.9103725976715
 20
40.54659212583106
 30
0.0
 11
279.4048183984528
 21
38.54242647641707
 31
0.0
  0
LINE
  5
319
330
6F
100
AcDbEntity
  8
0
 62
     1
100
AcDbLine
 10
279.4048183984528
 20
38.54242647641707
 30
0.0
 11
270.6667202539215
 21
32.02669466489357
 31
0.0
  0
LINE
  5
31A
330
6F
100
AcDbEntity
  8
0
 62
     1
100
AcDbLine
 10
262.1666592187653
 20
73.14607943051857
 30
0.0
 11
259.7594326562653
 21
73.82088030332133
 31
0.0
  0
LINE
  5
31C
330
6F
100
AcDbEntity
  8
0
 62
     1
100
AcDbLine
 10
268.1682461328278
 20
35.37716234677836
 30
0.0
 11
269.0502041406403
 21
36.03470171445414
 31
0.0
  0
LINE
  5
31E
330
6F
100
AcDbEntity
  8
0
 62
     1
100
AcDbLine
 10
266.0613125390778
 20
40.04303301328227
 30
0.0
 11
265.2410000390778
 21
39.43149889462993
 31
0.0
  0
LINE
  5
325
330
6F
100
AcDbEntity
  8
0
 62
     1
100
AcDbLine
 10
260.6203335351715
 20
61.18093813413188
 30
0.0
 11
260.8095425195465
 21
58.26053942197368
 31
0.0
  0
LINE
  5
32B
330
6F
100
AcDbEntity
  8
0
 62
     1
100
AcDbLine
 10
265.1674526757965
 20
44.31650484555766
 30
0.0
 11
266.7153042382965
 21
41.69184053891706
 31
0.0
  0
LINE
  5
32C
330
6F
100
AcDbEntity
  8
0
 62
     1
100
AcDbLine
 10
266.7153042382965
 20
41.69184053891706
 30
0.0
 11
268.4862392968903
 21
39.1327508782725
 31
0.0
  0
LINE
  5
32E
330
6F
100
AcDbEntity
  8
0
 62
     1
100
AcDbLine
 10
258.9787930078278
 20
70.60345018857524
 30
0.0
 11
258.4450405664215
 21
67.40631426328227
 31
0.0
  0
LINE
  5
32F
330
6F
100
AcDbEntity
  8
0
 62
     1
100
AcDbLine
 10
258.4450405664215
 20
67.40631426328227
 30
0.0
 11
258.1572598047028
 21
64.23439348691508
 31
0.0
  0
LINE
  5
333
330
6F
100
AcDbEntity
  8
0
 62
     1
100
AcDbLine
 10
258.7602871484528
 20
54.91941774838972
 30
0.0
 11
259.4469326562653
 21
51.89783419126078
 31
0.0
  0
LINE
  5
334
330
6F
100
AcDbEntity
  8
0
 62
     1
100
AcDbLine
 10
259.4469326562653
 20
51.89783419126078
 30
0.0
 11
260.3749722070465
 21
48.92622316831157
 31
0.0
  0
LINE
  5
33F
330
6F
100
AcDbEntity
  8
0
 62
     1
100
AcDbLine
 10
269.0502041406403
 20
36.03470171445414
 30
0.0
 11
266.0613125390778
 21
40.04303301328227
 31
0.0
  0
LINE
  5
341
330
6F
100
AcDbEntity
  8
0
 62
     1
100
AcDbLine
 10
270.6667202539215
 20
32.02669466489357
 30
0.0
 11
268.1682461328278
 21
35.37716234677836
 31
0.0
  0
LINE
  5
342
330
6F
100
AcDbEntity
  8
0
 62
     1
100
AcDbLine
 10
264.597994667984
 20
40.36062563413188
 30
0.0
 11
265.2410000390778
 21
39.43149889462993
 31
0.0
  0
LINE
  5
365
330
6F
100
AcDbEntity
  8
0
 62
     1
100
AcDbLine
 10
268.1148403711091
 20
79.34652651303813
 30
0.0
 11
269.4658535547028
 21
82.15021456235453
 31
0.0
  0
LINE
  5
368
330
6F
100
AcDbEntity
  8
0
 62
     1
100
AcDbLine
 10
266.105563027359
 20
73.65393007749123
 30
0.0
 11
265.4476040429841
 21
70.77448214047956
 31
0.0
  0
LINE
  5
369
330
6F
100
AcDbEntity
  8
0
 62
     1
100
AcDbLine
 10
265.4476040429841
 20
70.77448214047956
 30
0.0
 11
265.0206631250153
 21
67.87924135678813
 31
0.0
  0
LINE
  5
36A
330
6F
100
AcDbEntity
  8
0
 62
     1
100
AcDbLine
 10
265.0206631250153
 20
67.87924135678813
 30
0.0
 11
264.8253506250153
 21
64.97295702451276
 31
0.0
  0
LINE
  5
36B
330
6F
100
AcDbEntity
  8
0
 62
     1
100
AcDbLine
 10
264.8253506250153
 20
64.97295702451276
 30
0.0
 11
264.8616665429841
 21
62.06032122129008
 31
0.0
  0
LINE
  5
36C
330
6F
100
AcDbEntity
  8
0
 62
     1
100
AcDbLine
 10
264.8616665429841
 20
62.06032122129008
 30
0.0
 11
265.1293057031403
 21
59.14608324521586
 31
0.0
  0
LINE
  5
36D
330
6F
100
AcDbEntity
  8
0
 62
     1
100
AcDbLine
 10
265.1293057031403
 20
59.14608324521586
 30
0.0
 11
265.6288784570465
 21
56.23497332089946
 31
0.0
  0
LINE
  5
370
330
6F
100
AcDbEntity
  8
0
 62
     1
100
AcDbLine
 10
267.3241299218903
 20
50.44103945249123
 30
0.0
 11
268.520113808609
 21
47.56769503110453
 31
0.0
  0
LINE
  5
372
330
6F
100
AcDbEntity
  8
0
 62
     1
100
AcDbLine
 10
265.816256386734
 20
80.33182466977638
 30
0.0
 11
264.6245449609528
 21
77.31743181699318
 31
0.0
  0
LINE
  5
373
330
6F
100
AcDbEntity
  8
0
 62
     1
100
AcDbLine
 10
264.6245449609528
 20
77.31743181699318
 30
0.0
 11
263.678805214859
 21
74.27618349545998
 31
0.0
  0
LINE
  5
376
330
6F
100
AcDbEntity
  8
0
 62
     1
100
AcDbLine
 10
262.5246304101715
 20
68.13320482724711
 30
0.0
 11
262.3168057031403
 21
65.041564354835
 31
0.0
  0
LINE
  5
377
330
6F
100
AcDbEntity
  8
0
 62
     1
100
AcDbLine
 10
262.3168057031403
 20
65.041564354835
 30
0.0
 11
262.355563027359
 21
61.94319094174907
 31
0.0
  0
LINE
  5
37A
330
6F
100
AcDbEntity
  8
0
 62
     1
100
AcDbLine
 10
263.1719082422028
 20
55.7463296746592
 30
0.0
 11
263.9501064843903
 21
52.65791262143657
 31
0.0
  0
LINE
  5
37E
330
6F
100
AcDbEntity
  8
0
 62
     1
100
AcDbLine
 10
270.3945034570466
 20
43.47673738950297
 30
0.0
 11
278.0309170312653
 21
46.97590197080183
 31
0.0
  0
LINE
  5
382
330
6F
100
AcDbEntity
  8
0
 62
     1
100
AcDbLine
 10
269.4658535547028
 20
82.15021456235453
 30
0.0
 11
267.2536343164215
 21
83.31432665341898
 31
0.0
  0
LINE
  5
386
330
6F
100
AcDbEntity
  8
0
 62
     1
100
AcDbLine
 10
268.1148403711091
 20
79.34652651303813
 30
0.0
 11
266.9945400781403
 21
76.51285494321391
 31
0.0
  0
LINE
  5
387
330
6F
100
AcDbEntity
  8
0
 62
     1
100
AcDbLine
 10
266.9945400781403
 20
76.51285494321391
 30
0.0
 11
266.105563027359
 21
73.65393007749123
 31
0.0
  0
LINE
  5
38E
330
6F
100
AcDbEntity
  8
0
 62
     1
100
AcDbLine
 10
265.6288784570465
 20
56.23497332089946
 30
0.0
 11
266.360689980484
 21
53.33172167295026
 31
0.0
  0
LINE
  5
38F
330
6F
100
AcDbEntity
  8
0
 62
     1
100
AcDbLine
 10
266.360689980484
 20
53.33172167295026
 30
0.0
 11
267.3241299218903
 21
50.44103945249123
 31
0.0
  0
LINE
  5
390
330
6F
100
AcDbEntity
  8
0
 62
     1
100
AcDbLine
 10
267.2536343164215
 20
83.31432665341898
 30
0.0
 11
265.816256386734
 21
80.33182466977638
 31
0.0
  0
LINE
  5
393
330
6F
100
AcDbEntity
  8
0
 62
     1
100
AcDbLine
 10
263.678805214859
 20
74.27618349545998
 30
0.0
 11
262.9787319726716
 21
71.21309603208107
 31
0.0
  0
LINE
  5
394
330
6F
100
AcDbEntity
  8
0
 62
     1
100
AcDbLine
 10
262.9787319726716
 20
71.21309603208107
 30
0.0
 11
262.5246304101715
 21
68.13320482724711
 31
0.0
  0
LINE
  5
397
330
6F
100
AcDbEntity
  8
0
 62
     1
100
AcDbLine
 10
262.355563027359
 20
61.94319094174907
 30
0.0
 11
262.6402920312653
 21
58.84308184140727
 31
0.0
  0
LINE
  5
398
330
6F
100
AcDbEntity
  8
0
 62
     1
100
AcDbLine
 10
262.6402920312653
 20
58.84308184140727
 30
0.0
 11
263.1719082422028
 21
55.7463296746592
 31
0.0
  0
LINE
  5
39A
330
6F
100
AcDbEntity
  8
0
 62
     1
100
AcDbLine
 10
263.9501064843903
 20
52.65791262143657
 30
0.0
 11
264.975191933609
 21
49.58288515561625
 31
0.0
  0
LINE
  5
39B
330
6F
100
AcDbEntity
  8
0
 62
     1
100
AcDbLine
 10
268.520113808609
 20
47.56769503110453
 30
0.0
 11
270.3945034570466
 21
43.47673738950297
 31
0.0
  0
LINE
  5
39D
330
6F
100
AcDbEntity
  8
0
 62
     1
100
AcDbLine
 10
278.0309170312653
 20
46.97590197080183
 30
0.0
 11
280.1137417382965
 21
42.43038500302836
 31
0.0
  0
LINE
  5
39E
330
6F
100
AcDbEntity
  8
0
 62
     1
100
AcDbLine
 10
280.1137417382965
 20
42.43038500302836
 30
0.0
 11
270.204684121109
 21
37.88980806821391
 31
0.0
  0
LINE
  5
39F
330
6F
100
AcDbEntity
  8
0
 62
     1
100
AcDbLine
 10
270.204684121109
 20
37.88980806821391
 30
0.0
 11
266.2471645898591
 21
46.52626360410258
 31
0.0
  0
LINE
  5
3C0
330
6F
100
AcDbEntity
  8
0
 62
     1
100
AcDbLine
 10
264.975191933609
 20
49.58288515561625
 30
0.0
 11
266.2471645898591
 21
46.52626360410258
 31
0.0
  0
LINE
  5
3C6
330
6F
100
AcDbEntity
  8
0
 62
     1
100
AcDbLine
 10
254.2848843164215
 20
13.24257219785258
 30
0.0
 11
256.568209511734
 21
11.36898363584086
 31
0.0
  0
LINE
  5
3C9
330
6F
100
AcDbEntity
  8
0
 62
     1
100
AcDbLine
 10
261.482760292984
 20
8.22386110776469
 30
0.0
 11
264.1057461328278
 21
6.95677126401469
 31
0.0
  0
LINE
  5
3CA
330
6F
100
AcDbEntity
  8
0
 62
     1
100
AcDbLine
 10
264.1057461328278
 20
6.95677126401469
 30
0.0
 11
266.8331020898591
 21
5.89628542417094
 31
0.0
  0
LINE
  5
3CF
330
6F
100
AcDbEntity
  8
0
 62
     1
100
AcDbLine
 10
246.1513393945466
 20
18.58002031796977
 30
0.0
 11
248.179537636734
 21
15.96308077329203
 31
0.0
  0
LINE
  5
3D0
330
6F
100
AcDbEntity
  8
0
 62
     1
100
AcDbLine
 10
248.179537636734
 20
15.96308077329203
 30
0.0
 11
250.3453701562653
 21
13.55175341123149
 31
0.0
  0
LINE
  5
3D1
330
6F
100
AcDbEntity
  8
0
 62
     1
100
AcDbLine
 10
250.3453701562653
 20
13.55175341123149
 30
0.0
 11
252.6451748437653
 21
11.34834612363386
 31
0.0
  0
LINE
  5
3D2
330
6F
100
AcDbEntity
  8
0
 62
     1
100
AcDbLine
 10
252.6451748437653
 20
11.34834612363386
 30
0.0
 11
255.0743740625153
 21
9.355281243262737
 31
0.0
  0
LINE
  5
3D3
330
6F
100
AcDbEntity
  8
0
 62
     1
100
AcDbLine
 10
255.0743740625153
 20
9.355281243262737
 30
0.0
 11
257.6280850000153
 21
7.574904808936565
 31
0.0
  0
LINE
  5
3D4
330
6F
100
AcDbEntity
  8
0
 62
     1
100
AcDbLine
 10
257.6280850000153
 20
7.574904808936565
 30
0.0
 11
260.3023403711091
 21
6.009562859473675
 31
0.0
  0
LINE
  5
3D6
330
6F
100
AcDbEntity
  8
0
 62
     1
100
AcDbLine
 10
263.0922573632965
 20
4.661658654151409
 30
0.0
 11
265.9938686914216
 21
3.533557305274456
 31
0.0
  0
LINE
  5
3D7
330
6F
100
AcDbEntity
  8
0
 62
     1
100
AcDbLine
 10
265.9938686914216
 20
3.533557305274456
 30
0.0
 11
269.0025967187653
 21
2.627585778174847
 31
0.0
  0
LINE
  5
3D8
330
6F
100
AcDbEntity
  8
0
 62
     1
100
AcDbLine
 10
269.0025967187653
 20
2.627585778174847
 30
0.0
 11
272.113863808609
 21
1.946166405616253
 31
0.0
  0
LINE
  5
3DF
330
6F
100
AcDbEntity
  8
0
 62
     1
100
AcDbLine
 10
288.120943886734
 20
0.9548410271982561
 30
0.0
 11
278.626314980484
 21
1.266349205909222
 31
0.0
  0
LINE
  5
3E0
330
6F
100
AcDbEntity
  8
0
 62
     1
100
AcDbLine
 10
248.1804531640778
 20
20.04068697446391
 30
0.0
 11
246.1513393945466
 21
18.58002031796977
 31
0.0
  0
LINE
  5
3E3
330
6F
100
AcDbEntity
  8
0
 62
     1
100
AcDbLine
 10
248.1804531640778
 20
20.04068697446391
 30
0.0
 11
250.0865810937653
 21
17.58064592832133
 31
0.0
  0
LINE
  5
3E4
330
6F
100
AcDbEntity
  8
0
 62
     1
100
AcDbLine
 10
250.0865810937653
 20
17.58064592832133
 30
0.0
 11
252.1230190820465
 21
15.31385744565531
 31
0.0
  0
LINE
  5
3E5
330
6F
100
AcDbEntity
  8
0
 62
     1
100
AcDbLine
 10
252.1230190820465
 20
15.31385744565531
 30
0.0
 11
254.2848843164215
 21
13.24257219785258
 31
0.0
  0
LINE
  5
3E7
330
6F
100
AcDbEntity
  8
0
 62
     1
100
AcDbLine
 10
256.568209511734
 20
11.36898363584086
 30
0.0
 11
258.9690273828278
 21
9.695342431006878
 31
0.0
  0
LINE
  5
3E8
330
6F
100
AcDbEntity
  8
0
 62
     1
100
AcDbLine
 10
258.9690273828278
 20
9.695342431006878
 30
0.0
 11
261.482760292984
 21
8.22386110776469
 31
0.0
  0
LINE
  5
3EB
330
6F
100
AcDbEntity
  8
0
 62
     1
100
AcDbLine
 10
266.8331020898591
 20
5.89628542417094
 30
0.0
 11
269.661471230484
 21
5.044635186133831
 31
0.0
  0
LINE
  5
3EC
330
6F
100
AcDbEntity
  8
0
 62
     1
100
AcDbLine
 10
269.661471230484
 20
5.044635186133831
 30
0.0
 11
272.586275917984
 21
4.404071221290081
 31
0.0
  0
LINE
  5
3ED
330
6F
100
AcDbEntity
  8
0
 62
     1
100
AcDbLine
 10
272.586275917984
 20
4.404071221290081
 30
0.0
 11
275.6032436914215
 21
3.976786980567425
 31
0.0
  0
LINE
  5
3F4
330
6F
100
AcDbEntity
  8
0
 62
     1
100
AcDbLine
 10
260.3023403711091
 20
6.009562859473675
 30
0.0
 11
263.0922573632965
 21
4.661658654151409
 31
0.0
  0
LINE
  5
3F8
330
6F
100
AcDbEntity
  8
0
 62
     1
100
AcDbLine
 10
272.113863808609
 20
1.946166405616253
 30
0.0
 11
275.3230923242341
 21
1.491626152930734
 31
0.0
  0
LINE
  5
3F9
330
6F
100
AcDbEntity
  8
0
 62
     1
100
AcDbLine
 10
278.708102089859
 20
3.765014061866253
 30
0.0
 11
283.2057827539216
 21
3.617461571631878
 31
0.0
  0
LINE
  5
3FB
330
6F
100
AcDbEntity
  8
0
 62
     1
100
AcDbLine
 10
283.2057827539216
 20
3.617461571631878
 30
0.0
 11
288.2030361718903
 21
3.453505883155315
 31
0.0
  0
LINE
  5
3FC
330
6F
100
AcDbEntity
  8
0
 62
     1
100
AcDbLine
 10
288.2030361718903
 20
3.453505883155315
 30
0.0
 11
288.120943886734
 21
0.9548410271982561
 31
0.0
  0
LINE
  5
41D
330
6F
100
AcDbEntity
  8
0
 62
     1
100
AcDbLine
 10
275.6032436914215
 20
3.976786980567425
 30
0.0
 11
278.708102089859
 21
3.765014061866253
 31
0.0
  0
LINE
  5
41E
330
6F
100
AcDbEntity
  8
0
 62
     1
100
AcDbLine
 10
275.3230923242341
 20
1.491626152930734
 30
0.0
 11
278.626314980484
 21
1.266349205909222
 31
0.0
  0
LINE
  5
423
330
6F
100
AcDbEntity
  8
0
 62
     1
100
AcDbLine
 10
250.2776211328278
 20
11.96890200131938
 30
0.0
 11
252.4394863672028
 21
9.897616753516672
 31
0.0
  0
LINE
  5
424
330
6F
100
AcDbEntity
  8
0
 62
     1
100
AcDbLine
 10
252.4394863672028
 20
9.897616753516672
 30
0.0
 11
254.7228115625153
 21
8.024028191504925
 31
0.0
  0
LINE
  5
428
330
6F
100
AcDbEntity
  8
0
 62
     1
100
AcDbLine
 10
262.260348183609
 20
3.611815819678753
 30
0.0
 11
264.9877041406403
 21
2.551329979835003
 31
0.0
  0
LINE
  5
429
330
6F
100
AcDbEntity
  8
0
 62
     1
100
AcDbLine
 10
264.9877041406403
 20
2.551329979835003
 30
0.0
 11
267.8160732812653
 21
1.699679741797893
 31
0.0
  0
LINE
  5
42A
330
6F
100
AcDbEntity
  8
0
 62
     1
100
AcDbLine
 10
267.8160732812653
 20
1.699679741797893
 30
0.0
 11
270.7408779687653
 21
1.059115776954143
 31
0.0
  0
LINE
  5
42B
330
6F
100
AcDbEntity
  8
0
 62
     1
100
AcDbLine
 10
270.7408779687653
 20
1.059115776954143
 30
0.0
 11
273.7578457422028
 21
0.6318315362314593
 31
0.0
  0
LINE
  5
42C
330
6F
100
AcDbEntity
  8
0
 62
     1
100
AcDbLine
 10
273.7578457422028
 20
0.6318315362314593
 30
0.0
 11
276.8627041406403
 21
0.4200586175303159
 31
0.0
  0
LINE
  5
434
330
6F
100
AcDbEntity
  8
0
 62
     1
100
AcDbLine
 10
261.2468594140778
 20
1.316703209815472
 30
0.0
 11
264.1484707422028
 21
0.1886018609385189
 31
0.0
  0
LINE
  5
437
330
6F
100
AcDbEntity
  8
0
 62
     1
100
AcDbLine
 10
270.2684658593903
 20
-1.398789038719684
 30
0.0
 11
273.4776943750153
 21
-1.853329291405231
 31
0.0
  0
LINE
  5
439
330
6F
100
AcDbEntity
  8
0
 62
     1
100
AcDbLine
 10
276.8627041406403
 20
0.4200586175303159
 30
0.0
 11
281.3603848047028
 21
0.2725061272959408
 31
0.0
  0
LINE
  5
43B
330
6F
100
AcDbEntity
  8
0
 62
     1
100
AcDbLine
 10
281.3603848047028
 20
0.2725061272959408
 30
0.0
 11
286.3576382226715
 21
0.1085504388193783
 31
0.0
  0
LINE
  5
43D
330
6F
100
AcDbEntity
  8
0
 62
     1
100
AcDbLine
 10
286.2755459375153
 20
-2.390114417137652
 30
0.0
 11
276.7809170312653
 21
-2.078606238426743
 31
0.0
  0
LINE
  5
43E
330
6F
100
AcDbEntity
  8
0
 62
     1
100
AcDbLine
 10
246.335055214859
 20
16.69573153012797
 30
0.0
 11
244.3059414453278
 21
15.23506487363386
 31
0.0
  0
LINE
  5
441
330
6F
100
AcDbEntity
  8
0
 62
     1
100
AcDbLine
 10
246.335055214859
 20
16.69573153012797
 30
0.0
 11
248.2411831445465
 21
14.23569048398539
 31
0.0
  0
LINE
  5
442
330
6F
100
AcDbEntity
  8
0
 62
     1
100
AcDbLine
 10
248.2411831445465
 20
14.23569048398539
 30
0.0
 11
250.2776211328278
 21
11.96890200131938
 31
0.0
  0
LINE
  5
445
330
6F
100
AcDbEntity
  8
0
 62
     1
100
AcDbLine
 10
254.7228115625153
 20
8.024028191504925
 30
0.0
 11
257.123629433609
 21
6.35038698667094
 31
0.0
  0
LINE
  5
446
330
6F
100
AcDbEntity
  8
0
 62
     1
100
AcDbLine
 10
257.123629433609
 20
6.35038698667094
 30
0.0
 11
259.6373623437653
 21
4.878905663428753
 31
0.0
  0
LINE
  5
447
330
6F
100
AcDbEntity
  8
0
 62
     1
100
AcDbLine
 10
259.6373623437653
 20
4.878905663428753
 30
0.0
 11
262.260348183609
 21
3.611815819678753
 31
0.0
  0
LINE
  5
44C
330
6F
100
AcDbEntity
  8
0
 62
     1
100
AcDbLine
 10
244.3059414453278
 20
15.23506487363386
 30
0.0
 11
246.3341396875153
 21
12.61812532895612
 31
0.0
  0
LINE
  5
44D
330
6F
100
AcDbEntity
  8
0
 62
     1
100
AcDbLine
 10
246.3341396875153
 20
12.61812532895612
 30
0.0
 11
248.4999722070465
 21
10.20679796689555
 31
0.0
  0
LINE
  5
44E
330
6F
100
AcDbEntity
  8
0
 62
     1
100
AcDbLine
 10
248.4999722070465
 20
10.20679796689555
 30
0.0
 11
250.7997768945465
 21
8.003390679297865
 31
0.0
  0
LINE
  5
44F
330
6F
100
AcDbEntity
  8
0
 62
     1
100
AcDbLine
 10
250.7997768945465
 20
8.003390679297865
 30
0.0
 11
253.2289761132965
 21
6.0103257989268
 31
0.0
  0
LINE
  5
450
330
6F
100
AcDbEntity
  8
0
 62
     1
100
AcDbLine
 10
253.2289761132965
 20
6.0103257989268
 30
0.0
 11
255.7826870507966
 21
4.229949364600628
 31
0.0
  0
LINE
  5
451
330
6F
100
AcDbEntity
  8
0
 62
     1
100
AcDbLine
 10
255.7826870507966
 20
4.229949364600628
 30
0.0
 11
258.4569424218903
 21
2.664607415137737
 31
0.0
  0
LINE
  5
452
330
6F
100
AcDbEntity
  8
0
 62
     1
100
AcDbLine
 10
258.4569424218903
 20
2.664607415137737
 30
0.0
 11
261.2468594140778
 21
1.316703209815472
 31
0.0
  0
LINE
  5
454
330
6F
100
AcDbEntity
  8
0
 62
     1
100
AcDbLine
 10
264.1484707422028
 20
0.1886018609385189
 30
0.0
 11
267.1571987695465
 21
-0.7173696661610621
 31
0.0
  0
LINE
  5
455
330
6F
100
AcDbEntity
  8
0
 62
     1
100
AcDbLine
 10
267.1571987695465
 20
-0.7173696661610621
 30
0.0
 11
270.2684658593903
 21
-1.398789038719684
 31
0.0
  0
LINE
  5
45A
330
6F
100
AcDbEntity
  8
0
 62
     1
100
AcDbLine
 10
286.3576382226715
 20
0.1085504388193783
 30
0.0
 11
286.2755459375153
 21
-2.390114417137652
 31
0.0
  0
LINE
  5
47C
330
6F
100
AcDbEntity
  8
0
 62
     1
100
AcDbLine
 10
273.4776943750153
 20
-1.853329291405231
 30
0.0
 11
276.7809170312653
 21
-2.078606238426743
 31
0.0
  0
LINE
  5
47F
330
6F
100
AcDbEntity
  8
0
 62
     1
100
AcDbLine
 10
247.0299404687653
 20
10.71771944516706
 30
0.0
 11
245.1238125390778
 21
13.17776049130961
 31
0.0
  0
LINE
  5
481
330
6F
100
AcDbEntity
  8
0
 62
     1
100
AcDbLine
 10
249.0663784570465
 20
8.450930962501018
 30
0.0
 11
251.2282436914215
 21
6.379645714698284
 31
0.0
  0
LINE
  5
482
330
6F
100
AcDbEntity
  8
0
 62
     1
100
AcDbLine
 10
251.2282436914215
 20
6.379645714698284
 30
0.0
 11
253.511568886734
 21
4.506057152686565
 31
0.0
  0
LINE
  5
483
330
6F
100
AcDbEntity
  8
0
 62
     1
100
AcDbLine
 10
253.511568886734
 20
4.506057152686565
 30
0.0
 11
255.9123867578278
 21
2.832415947852581
 31
0.0
  0
LINE
  5
485
330
6F
100
AcDbEntity
  8
0
 62
     1
100
AcDbLine
 10
258.426119667984
 20
1.360934624610393
 30
0.0
 11
261.0491055078278
 21
0.093844780860394
 31
0.0
  0
LINE
  5
488
330
6F
100
AcDbEntity
  8
0
 62
     1
100
AcDbLine
 10
266.604830605484
 20
-1.818291297020493
 30
0.0
 11
269.529635292984
 21
-2.458855261864243
 31
0.0
  0
LINE
  5
489
330
6F
100
AcDbEntity
  8
0
 62
     1
100
AcDbLine
 10
269.529635292984
 20
-2.458855261864243
 30
0.0
 11
272.5466030664215
 21
-2.886139502586871
 31
0.0
  0
LINE
  5
48A
330
6F
100
AcDbEntity
  8
0
 62
     1
100
AcDbLine
 10
272.5466030664215
 20
-2.886139502586871
 30
0.0
 11
275.651461464859
 21
-3.097912421288015
 31
0.0
  0
LINE
  5
48B
330
6F
100
AcDbEntity
  8
0
 62
     1
100
AcDbLine
 10
243.0946987695465
 20
11.71709383481547
 30
0.0
 11
245.1228970117341
 21
9.100154290137737
 31
0.0
  0
LINE
  5
48E
330
6F
100
AcDbEntity
  8
0
 62
     1
100
AcDbLine
 10
249.5885342187653
 20
4.485419640479534
 30
0.0
 11
252.0177334375153
 21
2.49235476010844
 31
0.0
  0
LINE
  5
48F
330
6F
100
AcDbEntity
  8
0
 62
     1
100
AcDbLine
 10
252.0177334375153
 20
2.49235476010844
 30
0.0
 11
254.5714443750153
 21
0.711978325782269
 31
0.0
  0
LINE
  5
491
330
6F
100
AcDbEntity
  8
0
 62
     1
100
AcDbLine
 10
257.245699746109
 20
-0.8533636236806216
 30
0.0
 11
260.0356167382965
 21
-2.201267829002887
 31
0.0
  0
LINE
  5
492
330
6F
100
AcDbEntity
  8
0
 62
     1
100
AcDbLine
 10
260.0356167382965
 20
-2.201267829002887
 30
0.0
 11
262.9372280664215
 21
-3.329369177879812
 31
0.0
  0
LINE
  5
496
330
6F
100
AcDbEntity
  8
0
 62
     1
100
AcDbLine
 10
272.266451699234
 20
-5.371300330223562
 30
0.0
 11
275.569674355484
 21
-5.596577277245074
 31
0.0
  0
LINE
  5
499
330
6F
100
AcDbEntity
  8
0
 62
     1
100
AcDbLine
 10
280.1491421289215
 20
-3.245464911522418
 30
0.0
 11
285.1463955468903
 21
-3.409420599998981
 31
0.0
  0
LINE
  5
49C
330
6F
100
AcDbEntity
  8
0
 62
     1
100
AcDbLine
 10
245.1238125390778
 20
13.17776049130961
 30
0.0
 11
243.0946987695465
 21
11.71709383481547
 31
0.0
  0
LINE
  5
4A0
330
6F
100
AcDbEntity
  8
0
 62
     1
100
AcDbLine
 10
247.0299404687653
 20
10.71771944516706
 30
0.0
 11
249.0663784570465
 21
8.450930962501018
 31
0.0
  0
LINE
  5
4A4
330
6F
100
AcDbEntity
  8
0
 62
     1
100
AcDbLine
 10
255.9123867578278
 20
2.832415947852581
 30
0.0
 11
258.426119667984
 21
1.360934624610393
 31
0.0
  0
LINE
  5
4A6
330
6F
100
AcDbEntity
  8
0
 62
     1
100
AcDbLine
 10
261.0491055078278
 20
0.093844780860394
 30
0.0
 11
263.776461464859
 21
-0.9666410589833844
 31
0.0
  0
LINE
  5
4A7
330
6F
100
AcDbEntity
  8
0
 62
     1
100
AcDbLine
 10
263.776461464859
 20
-0.9666410589833844
 30
0.0
 11
266.604830605484
 21
-1.818291297020493
 31
0.0
  0
LINE
  5
4AB
330
6F
100
AcDbEntity
  8
0
 62
     1
100
AcDbLine
 10
245.1228970117341
 20
9.100154290137737
 30
0.0
 11
247.2887295312653
 21
6.688826928077162
 31
0.0
  0
LINE
  5
4AC
330
6F
100
AcDbEntity
  8
0
 62
     1
100
AcDbLine
 10
247.2887295312653
 20
6.688826928077162
 30
0.0
 11
249.5885342187653
 21
4.485419640479534
 31
0.0
  0
LINE
  5
4AF
330
6F
100
AcDbEntity
  8
0
 62
     1
100
AcDbLine
 10
254.5714443750153
 20
0.711978325782269
 30
0.0
 11
257.245699746109
 21
-0.8533636236806216
 31
0.0
  0
LINE
  5
4B2
330
6F
100
AcDbEntity
  8
0
 62
     1
100
AcDbLine
 10
262.9372280664215
 20
-3.329369177879812
 30
0.0
 11
265.9459560937653
 21
-4.235340704979449
 31
0.0
  0
LINE
  5
4B3
330
6F
100
AcDbEntity
  8
0
 62
     1
100
AcDbLine
 10
265.9459560937653
 20
-4.235340704979449
 30
0.0
 11
269.057223183609
 21
-4.916760077538015
 31
0.0
  0
LINE
  5
4B4
330
6F
100
AcDbEntity
  8
0
 62
     1
100
AcDbLine
 10
269.057223183609
 20
-4.916760077538015
 30
0.0
 11
272.266451699234
 21
-5.371300330223562
 31
0.0
  0
LINE
  5
4B5
330
6F
100
AcDbEntity
  8
0
 62
     1
100
AcDbLine
 10
275.651461464859
 20
-3.097912421288015
 30
0.0
 11
280.1491421289215
 21
-3.245464911522418
 31
0.0
  0
LINE
  5
4B8
330
6F
100
AcDbEntity
  8
0
 62
     1
100
AcDbLine
 10
285.1463955468903
 20
-3.409420599998981
 30
0.0
 11
285.0643032617341
 21
-5.90808545595604
 31
0.0
  0
LINE
  5
4B9
330
6F
100
AcDbEntity
  8
0
 62
     1
100
AcDbLine
 10
285.0643032617341
 20
-5.90808545595604
 30
0.0
 11
275.569674355484
 21
-5.596577277245074
 31
0.0
  0
LINE
  5
4DD
330
6F
100
AcDbEntity
  8
0
 62
     1
100
AcDbLine
 10
245.530611855484
 20
7.084411034522503
 30
0.0
 11
243.6244839257966
 21
9.544452080665081
 31
0.0
  0
LINE
  5
4DF
330
6F
100
AcDbEntity
  8
0
 62
     1
100
AcDbLine
 10
247.5670498437653
 20
4.817622551856487
 30
0.0
 11
249.7289150781403
 21
2.746337304053753
 31
0.0
  0
LINE
  5
4E0
330
6F
100
AcDbEntity
  8
0
 62
     1
100
AcDbLine
 10
249.7289150781403
 20
2.746337304053753
 30
0.0
 11
252.0122402734528
 21
0.8727487420420061
 31
0.0
  0
LINE
  5
4E1
330
6F
100
AcDbEntity
  8
0
 62
     1
100
AcDbLine
 10
252.0122402734528
 20
0.8727487420420061
 30
0.0
 11
254.4130581445465
 21
-0.8008924627919498
 31
0.0
  0
LINE
  5
4E4
330
6F
100
AcDbEntity
  8
0
 62
     1
100
AcDbLine
 10
259.5497768945465
 20
-3.539463629784137
 30
0.0
 11
262.2771328515778
 21
-4.599949469627887
 31
0.0
  0
LINE
  5
4E7
330
6F
100
AcDbEntity
  8
0
 62
     1
100
AcDbLine
 10
268.0303066797028
 20
-6.092163672508746
 30
0.0
 11
271.0472744531403
 21
-6.519447913231402
 31
0.0
  0
LINE
  5
4EA
330
6F
100
AcDbEntity
  8
0
 62
     1
100
AcDbLine
 10
243.6235683984528
 20
5.466845879493206
 30
0.0
 11
245.789400917984
 21
3.055518517432659
 31
0.0
  0
LINE
  5
4EC
330
6F
100
AcDbEntity
  8
0
 62
     1
100
AcDbLine
 10
248.0892056054841
 20
0.8521112298350033
 30
0.0
 11
250.5184048242341
 21
-1.140953650536062
 31
0.0
  0
LINE
  5
4EE
330
6F
100
AcDbEntity
  8
0
 62
     1
100
AcDbLine
 10
253.072115761734
 20
-2.921330084862262
 30
0.0
 11
255.7463711328278
 21
-4.486672034325152
 31
0.0
  0
LINE
  5
4F1
330
6F
100
AcDbEntity
  8
0
 62
     1
100
AcDbLine
 10
261.4378994531403
 20
-6.962677588524371
 30
0.0
 11
264.4466274804841
 21
-7.868649115623981
 31
0.0
  0
LINE
  5
4F2
330
6F
100
AcDbEntity
  8
0
 62
     1
100
AcDbLine
 10
264.4466274804841
 20
-7.868649115623981
 30
0.0
 11
267.5578945703278
 21
-8.550068488182574
 31
0.0
  0
LINE
  5
4F7
330
6F
100
AcDbEntity
  8
0
 62
     1
100
AcDbLine
 10
278.6498135156403
 20
-6.878773322166949
 30
0.0
 11
283.647066933609
 21
-7.04272901064354
 31
0.0
  0
LINE
  5
4F8
330
6F
100
AcDbEntity
  8
0
 62
     1
100
AcDbLine
 10
283.647066933609
 20
-7.04272901064354
 30
0.0
 11
283.5649746484528
 21
-9.541393866600515
 31
0.0
  0
LINE
  5
4FE
330
6F
100
AcDbEntity
  8
0
 62
     1
100
AcDbLine
 10
245.530611855484
 20
7.084411034522503
 30
0.0
 11
247.5670498437653
 21
4.817622551856487
 31
0.0
  0
LINE
  5
502
330
6F
100
AcDbEntity
  8
0
 62
     1
100
AcDbLine
 10
254.4130581445465
 20
-0.8008924627919498
 30
0.0
 11
256.9267910547028
 21
-2.272373786034137
 31
0.0
  0
LINE
  5
503
330
6F
100
AcDbEntity
  8
0
 62
     1
100
AcDbLine
 10
256.9267910547028
 20
-2.272373786034137
 30
0.0
 11
259.5497768945465
 21
-3.539463629784137
 31
0.0
  0
LINE
  5
505
330
6F
100
AcDbEntity
  8
0
 62
     1
100
AcDbLine
 10
262.2771328515778
 20
-4.599949469627887
 30
0.0
 11
265.1055019922028
 21
-5.451599707664996
 31
0.0
  0
LINE
  5
506
330
6F
100
AcDbEntity
  8
0
 62
     1
100
AcDbLine
 10
265.1055019922028
 20
-5.451599707664996
 30
0.0
 11
268.0303066797028
 21
-6.092163672508746
 31
0.0
  0
LINE
  5
508
330
6F
100
AcDbEntity
  8
0
 62
     1
100
AcDbLine
 10
241.5953701562653
 20
8.08378542417094
 30
0.0
 11
243.6235683984528
 21
5.466845879493206
 31
0.0
  0
LINE
  5
50A
330
6F
100
AcDbEntity
  8
0
 62
     1
100
AcDbLine
 10
245.789400917984
 20
3.055518517432659
 30
0.0
 11
248.0892056054841
 21
0.8521112298350033
 31
0.0
  0
LINE
  5
50C
330
6F
100
AcDbEntity
  8
0
 62
     1
100
AcDbLine
 10
250.5184048242341
 20
-1.140953650536062
 30
0.0
 11
253.072115761734
 21
-2.921330084862262
 31
0.0
  0
LINE
  5
50E
330
6F
100
AcDbEntity
  8
0
 62
     1
100
AcDbLine
 10
255.7463711328278
 20
-4.486672034325152
 30
0.0
 11
258.5362881250153
 21
-5.834576239647418
 31
0.0
  0
LINE
  5
50F
330
6F
100
AcDbEntity
  8
0
 62
     1
100
AcDbLine
 10
258.5362881250153
 20
-5.834576239647418
 30
0.0
 11
261.4378994531403
 21
-6.962677588524371
 31
0.0
  0
LINE
  5
512
330
6F
100
AcDbEntity
  8
0
 62
     1
100
AcDbLine
 10
267.5578945703278
 20
-8.550068488182574
 30
0.0
 11
270.7671230859528
 21
-9.004608740868121
 31
0.0
  0
LINE
  5
513
330
6F
100
AcDbEntity
  8
0
 62
     1
100
AcDbLine
 10
274.1521328515778
 20
-6.731220831932574
 30
0.0
 11
278.6498135156403
 21
-6.878773322166949
 31
0.0
  0
LINE
  5
517
330
6F
100
AcDbEntity
  8
0
 62
     1
100
AcDbLine
 10
283.5649746484528
 20
-9.541393866600515
 30
0.0
 11
274.0703457422028
 21
-9.229885687889606
 31
0.0
  0
LINE
  5
518
330
6F
100
AcDbEntity
  8
0
 62
     1
100
AcDbLine
 10
243.6244839257966
 20
9.544452080665081
 30
0.0
 11
241.5953701562653
 21
8.08378542417094
 31
0.0
  0
LINE
  5
537
330
6F
100
AcDbEntity
  8
0
 62
     1
100
AcDbLine
 10
271.0472744531403
 20
-6.519447913231402
 30
0.0
 11
274.1521328515778
 21
-6.731220831932574
 31
0.0
  0
LINE
  5
538
330
6F
100
AcDbEntity
  8
0
 62
     1
100
AcDbLine
 10
270.7671230859528
 20
-9.004608740868121
 30
0.0
 11
274.0703457422028
 21
-9.229885687889606
 31
0.0
  0
LINE
  5
53B
330
6F
100
AcDbEntity
  8
0
 62
     1
100
AcDbLine
 10
243.8005703515778
 20
3.739455590186565
 30
0.0
 11
241.8944424218903
 21
6.199496636329143
 31
0.0
  0
LINE
  5
53D
330
6F
100
AcDbEntity
  8
0
 62
     1
100
AcDbLine
 10
245.8370083398591
 20
1.47266710752055
 30
0.0
 11
247.998873574234
 21
-0.5986181402821842
 31
0.0
  0
LINE
  5
53E
330
6F
100
AcDbEntity
  8
0
 62
     1
100
AcDbLine
 10
247.998873574234
 20
-0.5986181402821842
 30
0.0
 11
250.2821987695465
 21
-2.472206702293902
 31
0.0
  0
LINE
  5
53F
330
6F
100
AcDbEntity
  8
0
 62
     1
100
AcDbLine
 10
250.2821987695465
 20
-2.472206702293902
 30
0.0
 11
252.6830166406403
 21
-4.145847907127887
 31
0.0
  0
LINE
  5
540
330
6F
100
AcDbEntity
  8
0
 62
     1
100
AcDbLine
 10
252.6830166406403
 20
-4.145847907127887
 30
0.0
 11
255.1967495507966
 21
-5.617329230370074
 31
0.0
  0
LINE
  5
542
330
6F
100
AcDbEntity
  8
0
 62
     1
100
AcDbLine
 10
257.8197353906403
 20
-6.884419074120074
 30
0.0
 11
260.5470913476715
 21
-7.944904913963824
 31
0.0
  0
LINE
  5
543
330
6F
100
AcDbEntity
  8
0
 62
     1
100
AcDbLine
 10
260.5470913476715
 20
-7.944904913963824
 30
0.0
 11
263.3754604882966
 21
-8.796555152000934
 31
0.0
  0
LINE
  5
544
330
6F
100
AcDbEntity
  8
0
 62
     1
100
AcDbLine
 10
263.3754604882966
 20
-8.796555152000934
 30
0.0
 11
266.3002651757965
 21
-9.437119116844684
 31
0.0
  0
LINE
  5
545
330
6F
100
AcDbEntity
  8
0
 62
     1
100
AcDbLine
 10
266.3002651757965
 20
-9.437119116844684
 30
0.0
 11
269.3172329492341
 21
-9.864403357567312
 31
0.0
  0
LINE
  5
546
330
6F
100
AcDbEntity
  8
0
 62
     1
100
AcDbLine
 10
269.3172329492341
 20
-9.864403357567312
 30
0.0
 11
272.4220913476715
 21
-10.07617627626854
 31
0.0
  0
LINE
  5
54E
330
6F
100
AcDbEntity
  8
0
 62
     1
100
AcDbLine
 10
256.806246621109
 20
-9.179531683983384
 30
0.0
 11
259.707857949234
 21
-10.30763303286031
 31
0.0
  0
LINE
  5
54F
330
6F
100
AcDbEntity
  8
0
 62
     1
100
AcDbLine
 10
259.707857949234
 20
-10.30763303286031
 30
0.0
 11
262.7165859765778
 21
-11.21360455995992
 31
0.0
  0
LINE
  5
550
330
6F
100
AcDbEntity
  8
0
 62
     1
100
AcDbLine
 10
262.7165859765778
 20
-11.21360455995992
 30
0.0
 11
265.8278530664215
 21
-11.89502393251854
 31
0.0
  0
LINE
  5
552
330
6F
100
AcDbEntity
  8
0
 62
     1
100
AcDbLine
 10
269.0370815820465
 20
-12.34956418520406
 30
0.0
 11
272.3403042382965
 21
-12.57484113222551
 31
0.0
  0
LINE
  5
553
330
6F
100
AcDbEntity
  8
0
 62
     1
100
AcDbLine
 10
272.4220913476715
 20
-10.07617627626854
 30
0.0
 11
276.919772011734
 21
-10.22372876650289
 31
0.0
  0
LINE
  5
555
330
6F
100
AcDbEntity
  8
0
 62
     1
100
AcDbLine
 10
276.919772011734
 20
-10.22372876650289
 30
0.0
 11
281.9170254297028
 21
-10.38768445497945
 31
0.0
  0
LINE
  5
557
330
6F
100
AcDbEntity
  8
0
 62
     1
100
AcDbLine
 10
281.8349331445465
 20
-12.88634931093648
 30
0.0
 11
272.3403042382965
 21
-12.57484113222551
 31
0.0
  0
LINE
  5
55C
330
6F
100
AcDbEntity
  8
0
 62
     1
100
AcDbLine
 10
243.8005703515778
 20
3.739455590186565
 30
0.0
 11
245.8370083398591
 21
1.47266710752055
 31
0.0
  0
LINE
  5
561
330
6F
100
AcDbEntity
  8
0
 62
     1
100
AcDbLine
 10
255.1967495507966
 20
-5.617329230370074
 30
0.0
 11
257.8197353906403
 21
-6.884419074120074
 31
0.0
  0
LINE
  5
566
330
6F
100
AcDbEntity
  8
0
 62
     1
100
AcDbLine
 10
239.865328652359
 20
4.738829979835003
 30
0.0
 11
241.8935268945465
 21
2.121890435157268
 31
0.0
  0
LINE
  5
567
330
6F
100
AcDbEntity
  8
0
 62
     1
100
AcDbLine
 10
241.8935268945465
 20
2.121890435157268
 30
0.0
 11
244.0593594140778
 21
-0.2894369269032779
 31
0.0
  0
LINE
  5
568
330
6F
100
AcDbEntity
  8
0
 62
     1
100
AcDbLine
 10
244.0593594140778
 20
-0.2894369269032779
 30
0.0
 11
246.3591641015778
 21
-2.492844214500934
 31
0.0
  0
LINE
  5
569
330
6F
100
AcDbEntity
  8
0
 62
     1
100
AcDbLine
 10
246.3591641015778
 20
-2.492844214500934
 30
0.0
 11
248.7883633203278
 21
-4.485909094872027
 31
0.0
  0
LINE
  5
56A
330
6F
100
AcDbEntity
  8
0
 62
     1
100
AcDbLine
 10
248.7883633203278
 20
-4.485909094872027
 30
0.0
 11
251.3420742578278
 21
-6.266285529198199
 31
0.0
  0
LINE
  5
56B
330
6F
100
AcDbEntity
  8
0
 62
     1
100
AcDbLine
 10
251.3420742578278
 20
-6.266285529198199
 30
0.0
 11
254.0163296289215
 21
-7.831627478661062
 31
0.0
  0
LINE
  5
56C
330
6F
100
AcDbEntity
  8
0
 62
     1
100
AcDbLine
 10
254.0163296289215
 20
-7.831627478661062
 30
0.0
 11
256.806246621109
 21
-9.179531683983384
 31
0.0
  0
LINE
  5
570
330
6F
100
AcDbEntity
  8
0
 62
     1
100
AcDbLine
 10
265.8278530664215
 20
-11.89502393251854
 30
0.0
 11
269.0370815820465
 21
-12.34956418520406
 31
0.0
  0
LINE
  5
574
330
6F
100
AcDbEntity
  8
0
 62
     1
100
AcDbLine
 10
281.9170254297028
 20
-10.38768445497945
 30
0.0
 11
281.8349331445465
 21
-12.88634931093648
 31
0.0
  0
LINE
  5
576
330
6F
100
AcDbEntity
  8
0
 62
     1
100
AcDbLine
 10
241.8944424218903
 20
6.199496636329143
 30
0.0
 11
239.865328652359
 21
4.738829979835003
 31
0.0
  0
LINE
  5
599
330
6F
100
AcDbEntity
  8
0
 62
     1
100
AcDbLine
 10
237.5499600000153
 20
-1.491448035301743
 30
0.0
 11
239.6184414453278
 21
-4.076534857811481
 31
0.0
  0
LINE
  5
59F
330
6F
100
AcDbEntity
  8
0
 62
     1
100
AcDbLine
 10
251.8944424218903
 20
-13.84038602358299
 30
0.0
 11
254.7051113672028
 21
-15.14474545961812
 31
0.0
  0
LINE
  5
5A1
330
6F
100
AcDbEntity
  8
0
 62
     1
100
AcDbLine
 10
257.624117714859
 20
-16.22762357241106
 30
0.0
 11
260.6462734765778
 21
-17.08669339662987
 31
0.0
  0
LINE
  5
5A2
330
6F
100
AcDbEntity
  8
0
 62
     1
100
AcDbLine
 10
260.6462734765778
 20
-17.08669339662987
 30
0.0
 11
263.7676113672028
 21
-17.71967565065819
 31
0.0
  0
LINE
  5
5A3
330
6F
100
AcDbEntity
  8
0
 62
     1
100
AcDbLine
 10
263.7676113672028
 20
-17.71967565065819
 30
0.0
 11
266.9838589257965
 21
-18.12426244265035
 31
0.0
  0
LINE
  5
5A5
330
6F
100
AcDbEntity
  8
0
 62
     1
100
AcDbLine
 10
279.788424355484
 20
-18.46202527529195
 30
0.0
 11
270.2898281640778
 21
-18.29816495424703
 31
0.0
  0
LINE
  5
5A8
330
6F
100
AcDbEntity
  8
0
 62
     1
100
AcDbLine
 10
239.6184414453278
 20
-4.076534857811481
 30
0.0
 11
241.8218105859528
 21
-6.453911414207993
 31
0.0
  0
LINE
  5
5A9
330
6F
100
AcDbEntity
  8
0
 62
     1
100
AcDbLine
 10
241.8218105859528
 20
-6.453911414207993
 30
0.0
 11
244.1554897851716
 21
-8.621269812645493
 31
0.0
  0
LINE
  5
5AA
330
6F
100
AcDbEntity
  8
0
 62
     1
100
AcDbLine
 10
244.1554897851716
 20
-8.621269812645493
 30
0.0
 11
246.6152065820466
 21
-10.57634030825093
 31
0.0
  0
LINE
  5
5AB
330
6F
100
AcDbEntity
  8
0
 62
     1
100
AcDbLine
 10
246.6152065820466
 20
-10.57634030825093
 30
0.0
 11
249.196383339859
 21
-12.31681500917867
 31
0.0
  0
LINE
  5
5AC
330
6F
100
AcDbEntity
  8
0
 62
     1
100
AcDbLine
 10
249.196383339859
 20
-12.31681500917867
 30
0.0
 11
251.8944424218903
 21
-13.84038602358299
 31
0.0
  0
LINE
  5
5AE
330
6F
100
AcDbEntity
  8
0
 62
     1
100
AcDbLine
 10
254.7051113672028
 20
-15.14474545961812
 30
0.0
 11
257.624117714859
 21
-16.22762357241106
 31
0.0
  0
LINE
  5
5C1
330
6F
100
AcDbEntity
  8
0
 62
     1
100
AcDbLine
 10
266.9838589257965
 20
-18.12426244265035
 30
0.0
 11
270.2898281640778
 21
-18.29816495424703
 31
0.0
  0
LINE
  5
5C4
330
6F
100
AcDbEntity
  8
0
 62
     1
100
AcDbLine
 10
270.3331631250153
 20
-15.79851781374407
 30
0.0
 11
267.224947792984
 21
-15.6350484991689
 31
0.0
  0
LINE
  5
5C5
330
6F
100
AcDbEntity
  8
0
 62
     1
100
AcDbLine
 10
274.832369667984
 20
-15.8761373663564
 30
0.0
 11
279.8317593164215
 21
-15.96238767153218
 31
0.0
  0
LINE
  5
5C8
330
6F
100
AcDbEntity
  8
0
 62
     1
100
AcDbLine
 10
261.2676113672028
 20
-14.65968762880757
 30
0.0
 11
258.4264248437653
 21
-13.85211621767479
 31
0.0
  0
LINE
  5
5C9
330
6F
100
AcDbEntity
  8
0
 62
     1
100
AcDbLine
 10
258.4264248437653
 20
-13.85211621767479
 30
0.0
 11
255.6825893945465
 21
-12.83416425234273
 31
0.0
  0
LINE
  5
5CB
330
6F
100
AcDbEntity
  8
0
 62
     1
100
AcDbLine
 10
253.040377480484
 20
-11.60798703676658
 30
0.0
 11
250.5040615625153
 21
-10.17575894838765
 31
0.0
  0
LINE
  5
5CC
330
6F
100
AcDbEntity
  8
0
 62
     1
100
AcDbLine
 10
250.5040615625153
 20
-10.17575894838765
 30
0.0
 11
248.0776089257965
 21
-8.539654364647418
 31
0.0
  0
LINE
  5
5CD
330
6F
100
AcDbEntity
  8
0
 62
     1
100
AcDbLine
 10
248.0776089257965
 20
-8.539654364647418
 30
0.0
 11
245.7652920312653
 21
-6.701790442528277
 31
0.0
  0
LINE
  5
5CE
330
6F
100
AcDbEntity
  8
0
 62
     1
100
AcDbLine
 10
245.7652920312653
 20
-6.701790442528277
 30
0.0
 11
243.571383339859
 21
-4.664360632957993
 31
0.0
  0
LINE
  5
5CF
330
6F
100
AcDbEntity
  8
0
 62
     1
100
AcDbLine
 10
241.562105996109
 20
1.492637047706097
 30
0.0
 11
243.3824795312653
 21
-0.7824865484853092
 31
0.0
  0
LINE
  5
5D0
330
6F
100
AcDbEntity
  8
0
 62
     1
100
AcDbLine
 10
241.5001553125153
 20
-2.429501166405231
 30
0.0
 11
239.5558804101715
 21
0.0005945062021908
 31
0.0
  0
LINE
  5
5D1
330
6F
100
AcDbEntity
  8
0
 62
     1
100
AcDbLine
 10
243.571383339859
 20
-4.664360632957993
 30
0.0
 11
241.5001553125153
 21
-2.429501166405231
 31
0.0
  0
LINE
  5
5D2
330
6F
100
AcDbEntity
  8
0
 62
     1
100
AcDbLine
 10
239.5558804101715
 20
0.0005945062021908
 30
0.0
 11
241.5001553125153
 21
-2.429520239891587
 31
0.0
  0
LINE
  5
5D3
330
6F
100
AcDbEntity
  8
0
 62
     1
100
AcDbLine
 10
241.5001553125153
 20
-2.429520239891587
 30
0.0
 11
243.571383339859
 21
-4.664360632957993
 31
0.0
  0
LINE
  5
5D4
330
6F
100
AcDbEntity
  8
0
 62
     1
100
AcDbLine
 10
243.571383339859
 20
-4.664360632957993
 30
0.0
 11
245.7652920312653
 21
-6.701809516014606
 31
0.0
  0
LINE
  5
5D5
330
6F
100
AcDbEntity
  8
0
 62
     1
100
AcDbLine
 10
245.7652920312653
 20
-6.701809516014606
 30
0.0
 11
248.0776089257965
 21
-8.539654364647418
 31
0.0
  0
LINE
  5
5D6
330
6F
100
AcDbEntity
  8
0
 62
     1
100
AcDbLine
 10
248.0776089257965
 20
-8.539654364647418
 30
0.0
 11
250.5040615625153
 21
-10.17577802187398
 31
0.0
  0
LINE
  5
5D8
330
6F
100
AcDbEntity
  8
0
 62
     1
100
AcDbLine
 10
253.040377480484
 20
-11.60800611025289
 30
0.0
 11
255.6825893945465
 21
-12.83418332582906
 31
0.0
  0
LINE
  5
5D9
330
6F
100
AcDbEntity
  8
0
 62
     1
100
AcDbLine
 10
255.6825893945465
 20
-12.83418332582906
 30
0.0
 11
258.4264248437653
 21
-13.85212575441792
 31
0.0
  0
LINE
  5
5DB
330
6F
100
AcDbEntity
  8
0
 62
     1
100
AcDbLine
 10
261.2676113672028
 20
-14.65969716555071
 30
0.0
 11
264.2018765039215
 21
-15.25472318178606
 31
0.0
  0
LINE
  5
5DC
330
6F
100
AcDbEntity
  8
0
 62
     1
100
AcDbLine
 10
264.2018765039215
 20
-15.25472318178606
 30
0.0
 11
267.224947792984
 21
-15.63505803591209
 31
0.0
  0
LINE
  5
5DD
330
6F
100
AcDbEntity
  8
0
 62
     1
100
AcDbLine
 10
274.832369667984
 20
-15.87615643984273
 30
0.0
 11
279.8314541406403
 21
-15.96239720827535
 31
0.0
  0
LINE
  5
5DE
330
6F
100
AcDbEntity
  8
0
 62
     1
100
AcDbLine
 10
267.224947792984
 20
-15.63505803591209
 30
0.0
 11
270.3331631250153
 21
-15.79853688723042
 31
0.0
  0
LINE
  5
5E0
330
6F
100
AcDbEntity
  8
0
 62
     1
100
AcDbLine
 10
243.3824795312653
 20
-0.7825056219716373
 30
0.0
 11
245.3215664453278
 21
-2.874828925194265
 31
0.0
  0
LINE
  5
5E1
330
6F
100
AcDbEntity
  8
0
 62
     1
100
AcDbLine
 10
245.3215664453278
 20
-2.874828925194265
 30
0.0
 11
247.3753994531403
 21
-4.782330145897418
 31
0.0
  0
LINE
  5
5E2
330
6F
100
AcDbEntity
  8
0
 62
     1
100
AcDbLine
 10
247.3753994531403
 20
-4.782330145897418
 30
0.0
 11
249.5403164453278
 21
-6.502968421043902
 31
0.0
  0
LINE
  5
5E3
330
6F
100
AcDbEntity
  8
0
 62
     1
100
AcDbLine
 10
249.5403164453278
 20
-6.502968421043902
 30
0.0
 11
251.8120449609528
 21
-8.034741034569265
 31
0.0
  0
LINE
  5
5E5
330
6F
100
AcDbEntity
  8
0
 62
     1
100
AcDbLine
 10
254.1866177148591
 20
-9.375626196922809
 30
0.0
 11
256.6603725976715
 21
-10.52360211855367
 31
0.0
  0
LINE
  5
5E6
330
6F
100
AcDbEntity
  8
0
 62
     1
100
AcDbLine
 10
256.6603725976715
 20
-10.52360211855367
 30
0.0
 11
259.2290371484528
 21
-11.47662793642479
 31
0.0
  0
LINE
  5
5E7
330
6F
100
AcDbEntity
  8
0
 62
     1
100
AcDbLine
 10
259.2290371484528
 20
-11.47662793642479
 30
0.0
 11
261.8889492578278
 21
-12.23270093447164
 31
0.0
  0
LINE
  5
5E8
330
6F
100
AcDbEntity
  8
0
 62
     1
100
AcDbLine
 10
261.8889492578278
 20
-12.23270093447164
 30
0.0
 11
264.6361416406403
 21
-12.78978024965718
 31
0.0
  0
LINE
  5
5E9
330
6F
100
AcDbEntity
  8
0
 62
     1
100
AcDbLine
 10
264.6361416406403
 20
-12.78978024965718
 30
0.0
 11
267.466647011734
 21
-13.14586316591695
 31
0.0
  0
LINE
  5
5EA
330
6F
100
AcDbEntity
  8
0
 62
     1
100
AcDbLine
 10
267.466647011734
 20
-13.14586316591695
 30
0.0
 11
270.3761929101716
 21
-13.29890882021382
 31
0.0
  0
LINE
  5
5EB
330
6F
100
AcDbEntity
  8
0
 62
     1
100
AcDbLine
 10
239.5558804101715
 20
0.0005945062021908
 30
0.0
 11
241.562105996109
 21
1.492617974219768
 31
0.0
  0
LINE
  5
5EC
330
6F
100
AcDbEntity
  8
0
 62
     1
100
AcDbLine
 10
279.8314541406403
 20
-15.96239720827535
 30
0.0
 11
279.8747891015778
 21
-13.46276914125875
 31
0.0
  0
LINE
  5
5EE
330
6F
100
AcDbEntity
  8
0
 62
     1
100
AcDbLine
 10
270.3331631250153
 20
-15.79853688723042
 30
0.0
 11
274.832369667984
 21
-15.87615643984273
 31
0.0
  0
LINE
  5
5F0
330
6F
100
AcDbEntity
  8
0
 62
     1
100
AcDbLine
 10
247.3753994531403
 20
-4.782311072411062
 30
0.0
 11
249.5403164453278
 21
-6.502968421043902
 31
0.0
  0
LINE
  5
5F2
330
6F
100
AcDbEntity
  8
0
 62
     1
100
AcDbLine
 10
251.8120449609528
 20
-8.034741034569265
 30
0.0
 11
254.1866177148591
 21
-9.375626196922809
 31
0.0
  0
LINE
  5
5F3
330
6F
100
AcDbEntity
  8
0
 62
     1
100
AcDbLine
 10
254.1866177148591
 20
-9.375626196922809
 30
0.0
 11
256.6603725976715
 21
-10.52358304506731
 31
0.0
  0
LINE
  5
5F4
330
6F
100
AcDbEntity
  8
0
 62
     1
100
AcDbLine
 10
256.6603725976715
 20
-10.52358304506731
 30
0.0
 11
259.2290371484528
 21
-11.47662793642479
 31
0.0
  0
LINE
  5
5F5
330
6F
100
AcDbEntity
  8
0
 62
     1
100
AcDbLine
 10
259.2290371484528
 20
-11.47662793642479
 30
0.0
 11
261.8889492578278
 21
-12.23268186098531
 31
0.0
  0
LINE
  5
5F6
330
6F
100
AcDbEntity
  8
0
 62
     1
100
AcDbLine
 10
261.8889492578278
 20
-12.23268186098531
 30
0.0
 11
264.6361416406403
 21
-12.78978024965718
 31
0.0
  0
LINE
  5
5F7
330
6F
100
AcDbEntity
  8
0
 62
     1
100
AcDbLine
 10
264.6361416406403
 20
-12.78978024965718
 30
0.0
 11
267.466647011734
 21
-13.14584409243062
 31
0.0
  0
LINE
  5
5F9
330
6F
100
AcDbEntity
  8
0
 62
     1
100
AcDbLine
 10
239.5558804101715
 20
0.0005945062021908
 30
0.0
 11
241.562105996109
 21
1.492637047706097
 31
0.0
  0
LINE
  5
5FA
330
6F
100
AcDbEntity
  8
0
 62
     1
100
AcDbLine
 10
279.8317593164215
 20
-15.96238767153218
 30
0.0
 11
279.8747891015778
 21
-13.46275006777242
 31
0.0
  0
LINE
  5
5FB
330
6F
100
AcDbEntity
  8
0
 62
     1
100
AcDbLine
 10
270.3761929101716
 20
-13.29888974672747
 30
0.0
 11
279.8747891015778
 21
-13.46275006777242
 31
0.0
  0
LINE
  5
61C
330
6F
100
AcDbEntity
  8
0
 62
     1
100
AcDbLine
 10
279.788424355484
 20
-18.46202527529195
 30
0.0
 11
279.8317593164215
 21
-15.96238767153218
 31
0.0
  0
LINE
  5
61E
330
6F
100
AcDbEntity
  8
0
 62
     1
100
AcDbLine
 10
279.788424355484
 20
-18.46202527529195
 30
0.0
 11
279.8314541406403
 21
-15.96239720827535
 31
0.0
  0
LINE
  5
61F
330
6F
100
AcDbEntity
  8
0
 62
     1
100
AcDbLine
 10
237.5499600000153
 20
-1.491448035301743
 30
0.0
 11
239.5558804101715
 21
0.0005945062021908
 31
0.0
  0
LINE
  5
624
330
6F
100
AcDbEntity
  8
0
 62
     1
100
AcDbLine
 10
300.8653896875153
 20
-16.64721166140035
 30
0.0
 11
304.3654507226715
 21
-16.64721166140035
 31
0.0
  0
LINE
  5
625
330
6F
100
AcDbEntity
  8
0
 62
     1
100
AcDbLine
 10
305.760104042984
 20
6.172278771338909
 30
0.0
 11
300.9670132226716
 21
6.412986168799875
 31
0.0
  0
LINE
  5
626
330
6F
100
AcDbEntity
  8
0
 62
     1
100
AcDbLine
 10
311.1498135156403
 20
3.477748284278362
 30
0.0
 11
311.1498135156403
 21
4.884570488868206
 31
0.0
  0
LINE
  5
62A
330
6F
100
AcDbEntity
  8
0
 62
     1
100
AcDbLine
 10
311.1498135156403
 20
4.884570488868206
 30
0.0
 11
313.1499355859528
 21
4.779742608008831
 31
0.0
  0
LINE
  5
62B
330
6F
100
AcDbEntity
  8
0
 62
     1
100
AcDbLine
 10
311.1498135156403
 20
3.477748284278362
 30
0.0
 11
305.760104042984
 21
3.477748284278362
 31
0.0
  0
LINE
  5
62E
330
6F
100
AcDbEntity
  8
0
 62
     1
100
AcDbLine
 10
305.760104042984
 20
6.172278771338909
 30
0.0
 11
305.760104042984
 21
3.477748284278362
 31
0.0
  0
LINE
  5
62F
330
6F
100
AcDbEntity
  8
0
 62
     1
100
AcDbLine
 10
313.1499355859528
 20
0.4777368401865659
 30
0.0
 11
313.1499355859528
 21
4.779742608008831
 31
0.0
  0
LINE
  5
63B
330
6F
100
AcDbEntity
  8
0
 62
     1
100
AcDbLine
 10
313.1499355859528
 20
0.4777368401865659
 30
0.0
 11
304.3654507226715
 21
0.4777368401865659
 31
0.0
  0
LINE
  5
63F
330
6F
100
AcDbEntity
  8
0
 62
     1
100
AcDbLine
 10
304.3654507226715
 20
-16.64721166140035
 30
0.0
 11
304.3654507226715
 21
0.4777368401865659
 31
0.0
  0
LINE
  5
647
330
6F
100
AcDbEntity
  8
0
 62
     1
100
AcDbLine
 10
293.632418496109
 20
5.796054253516615
 30
0.0
 11
295.6325405664216
 21
5.697806725440472
 31
0.0
  0
LINE
  5
648
330
6F
100
AcDbEntity
  8
0
 62
     1
100
AcDbLine
 10
295.6325405664216
 20
3.477748284278362
 30
0.0
 11
300.9670132226716
 21
3.477748284278362
 31
0.0
  0
LINE
  5
649
330
6F
100
AcDbEntity
  8
0
 62
     1
100
AcDbLine
 10
295.6325405664216
 20
3.477748284278362
 30
0.0
 11
295.6325405664216
 21
5.697806725440472
 31
0.0
  0
LINE
  5
64A
330
6F
100
AcDbEntity
  8
0
 62
     1
100
AcDbLine
 10
293.632418496109
 20
5.796054253516615
 30
0.0
 11
293.632418496109
 21
0.4777368401865659
 31
0.0
  0
LINE
  5
64B
330
6F
100
AcDbEntity
  8
0
 62
     1
100
AcDbLine
 10
300.8653896875153
 20
0.4777368401865659
 30
0.0
 11
293.632418496109
 21
0.4777368401865659
 31
0.0
  0
LINE
  5
660
330
6F
100
AcDbEntity
  8
0
 62
     1
100
AcDbLine
 10
300.8653896875153
 20
-16.64721166140035
 30
0.0
 11
300.8653896875153
 21
0.4777368401865659
 31
0.0
  0
LINE
  5
662
330
6F
100
AcDbEntity
  8
0
 62
     1
100
AcDbLine
 10
300.9670132226716
 20
6.412986168799875
 30
0.0
 11
300.9670132226716
 21
3.477748284278362
 31
0.0
  0
ENDSEC
  0
SECTION
  2
OBJECTS
  0
DICTIONARY
  5
C
330
0
100
AcDbDictionary
281
     1
  3
ACAD_CIP_PREVIOUS_PRODUCT_INFO
350
665
  3
ACAD_COLOR
350
62
  3
ACAD_DETAILVIEWSTYLE
350
69
  3
ACAD_GROUP
350
D
  3
ACAD_LAYOUT
350
61
  3
ACAD_MATERIAL
350
10
  3
ACAD_MLEADERSTYLE
350
65
  3
ACAD_MLINESTYLE
350
5E
  3
ACAD_PLOTSETTINGS
350
60
  3
ACAD_PLOTSTYLENAME
350
E
  3
ACAD_SCALELIST
350
42
  3
ACAD_SECTIONVIEWSTYLE
350
67
  3
ACAD_TABLESTYLE
350
63
  3
ACAD_VISUALSTYLE
350
29
  3
ACDB_RECOMPOSE_DATA
350
680
  3
AcDbVariableDictionary
350
673
  0
DICTIONARY
  5
66D
330
2
100
AcDbDictionary
280
     1
281
     1
  3
ACAD_LAYERSTATES
360
66E
  0
DICTIONARY
  5
666
330
54
100
AcDbDictionary
280
     1
281
     1
  3
ADSK_XREC_LAYER_RECONCILED
360
667
  0
DICTIONARY
  5
668
330
7B
100
AcDbDictionary
280
     1
281
     1
  3
ADSK_XREC_LAYER_RECONCILED
360
669
  0
XRECORD
  5
665
102
{ACAD_REACTORS
330
C
102
}
330
C
100
AcDbXrecord
280
     1
300
ACDMAC
300
2023
300

  0
DICTIONARY
  5
62
102
{ACAD_REACTORS
330
C
102
}
330
C
100
AcDbDictionary
281
     1
  0
DICTIONARY
  5
69
102
{ACAD_REACTORS
330
C
102
}
330
C
100
AcDbDictionary
281
     1
  3
Imperial24
350
6A
  0
DICTIONARY
  5
D
102
{ACAD_REACTORS
330
C
102
}
330
C
100
AcDbDictionary
281
     1
  0
DICTIONARY
  5
61
102
{ACAD_REACTORS
330
C
102
}
330
C
100
AcDbDictionary
281
     1
  3
Layout1
350
6E
  3
Model
350
72
  0
DICTIONARY
  5
10
102
{ACAD_REACTORS
330
C
102
}
330
C
100
AcDbDictionary
281
     1
  3
ByBlock
350
19
  3
ByLayer
350
11
  3
Global
350
21
  0
DICTIONARY
  5
65
102
{ACAD_REACTORS
330
C
102
}
330
C
100
AcDbDictionary
281
     1
  3
Standard
350
66
  0
DICTIONARY
  5
5E
102
{ACAD_REACTORS
330
C
102
}
330
C
100
AcDbDictionary
281
     1
  3
Standard
350
5F
  0
DICTIONARY
  5
60
102
{ACAD_REACTORS
330
C
102
}
330
C
100
AcDbDictionary
281
     1
  0
ACDBDICTIONARYWDFLT
  5
E
102
{ACAD_REACTORS
330
C
102
}
330
C
100
AcDbDictionary
281
     1
  3
Normal
350
F
100
AcDbDictionaryWithDefault
340
F
  0
DICTIONARY
  5
42
102
{ACAD_REACTORS
330
C
102
}
330
C
100
AcDbDictionary
281
     1
  3
A0
350
43
  3
A1
350
44
  3
A2
350
45
  3
A3
350
46
  3
A4
350
47
  3
A5
350
48
  3
A6
350
49
  3
A7
350
4A
  3
A8
350
4B
  3
A9
350
4C
  3
B0
350
4D
  3
B1
350
4E
  3
B2
350
4F
  3
B3
350
50
  3
B4
350
51
  3
B5
350
52
  3
B6
350
53
  0
DICTIONARY
  5
67
102
{ACAD_REACTORS
330
C
102
}
330
C
100
AcDbDictionary
281
     1
  3
Imperial24
350
68
  0
DICTIONARY
  5
63
102
{ACAD_REACTORS
330
C
102
}
330
C
100
AcDbDictionary
281
     1
  3
Standard
350
64
  0
DICTIONARY
  5
29
102
{ACAD_REACTORS
330
C
102
}
330
C
100
AcDbDictionary
281
     1
  3
2dWireframe
350
2F
  3
Basic
350
2E
  3
Brighten
350
35
  3
ColorChange
350
39
  3
Conceptual
350
32
  3
Dim
350
34
  3
EdgeColorOff
350
41
  3
Facepattern
350
38
  3
Flat
350
2A
  3
FlatWithEdges
350
2B
  3
Gouraud
350
2C
  3
GouraudWithEdges
350
2D
  3
Hidden
350
31
  3
JitterOff
350
3F
  3
Linepattern
350
37
  3
OverhangOff
350
40
  3
Realistic
350
33
  3
Shaded
350
3E
  3
Shaded with edges
350
3D
  3
Shades of Gray
350
3A
  3
Sketchy
350
3B
  3
Thicken
350
36
  3
Wireframe
350
30
  3
X-Ray
350
3C
  0
XRECORD
  5
680
102
{ACAD_REACTORS
330
C
102
}
330
C
100
AcDbXrecord
280
     1
 90
        1
330
64
  0
DICTIONARY
  5
673
102
{ACAD_REACTORS
330
C
102
}
330
C
100
AcDbDictionary
281
     1
  3
CANNOSCALE
350
679
  3
CMLEADERSTYLE
350
675
  3
CTABLESTYLE
350
674
  3
CVIEWDETAILSTYLE
350
676
  3
CVIEWSECTIONSTYLE
350
677
  3
LAYEREVAL
350
67B
  3
LAYERNOTIFY
350
67C
  3
LIGHTINGUNITS
350
67A
  3
MSLTSCALE
350
678
  0
DICTIONARY
  5
66E
102
{ACAD_REACTORS
330
66D
102
}
330
66D
100
AcDbDictionary
281
     1
  0
XRECORD
  5
667
102
{ACAD_REACTORS
330
666
102
}
330
666
100
AcDbXrecord
280
     1
290
     1
  0
XRECORD
  5
669
102
{ACAD_REACTORS
330
668
102
}
330
668
100
AcDbXrecord
280
     1
290
     1
  0
ACDBDETAILVIEWSTYLE
  5
6A
102
{ACAD_REACTORS
330
69
102
}
330
69
100
AcDbModelDocViewStyle
 70
     0
  3
Imperial24
290
     0
300
Imperial24
 90
        0
100
AcDbDetailViewStyle
 70
     0
 71
     0
 90
        3
 71
     1
340
55
 62
   256
 40
0.24
340
0
 62
   256
 40
0.24
300

 40
0.36
280
     3
 71
     2
340
5C
 90
       25
 62
   256
 71
     3
340
55
 62
   256
 40
0.24
 90
        1
 40
0.75
 90
        1
300
%<\AcVar ViewType \f "%tc1">% %<\AcVar ViewDetailId>%\PSCALE %<\AcVar ViewScale \f "%sn">%
 71
     4
340
5C
 90
       25
 62
   256
340
5C
 90
       25
 62
   256
280
     0
  0
LAYOUT
  5
6E
102
{ACAD_REACTORS
330
61
102
}
330
61
100
AcDbPlotSettings
  1

  2

  4

  6

 40
0.0
 41
0.0
 42
0.0
 43
0.0
 44
0.0
 45
0.0
 46
0.0
 47
0.0
 48
0.0
 49
0.0
140
0.0
141
0.0
142
1.0
143
1.0
 70
   688
 72
     0
 73
     0
 74
     5
  7

 75
    16
147
1.0
 76
     0
 77
     2
 78
   300
148
0.0
149
0.0
100
AcDbLayout
  1
Layout1
 70
     1
 71
     1
 10
0.0
 20
0.0
 11
12.0
 21
9.0
 12
0.0
 22
0.0
 32
0.0
 14
1.000000000000000E+20
 24
1.000000000000000E+20
 34
1.000000000000000E+20
 15
-1.000000000000000E+20
 25
-1.000000000000000E+20
 35
-1.000000000000000E+20
146
0.0
 13
0.0
 23
0.0
 33
0.0
 16
1.0
 26
0.0
 36
0.0
 17
0.0
 27
1.0
 37
0.0
 76
     0
330
6B
  0
LAYOUT
  5
72
102
{ACAD_REACTORS
330
61
102
}
330
61
100
AcDbPlotSettings
  1

  2

  4

  6

 40
0.0
 41
0.0
 42
0.0
 43
0.0
 44
0.0
 45
0.0
 46
0.0
 47
0.0
 48
0.0
 49
0.0
140
0.0
141
0.0
142
1.0
143
1.0
 70
  1712
 72
     0
 73
     0
 74
     0
  7

 75
     0
147
1.0
 76
     0
 77
     2
 78
   300
148
0.0
149
0.0
100
AcDbLayout
  1
Model
 70
     1
 71
     0
 10
0.0
 20
0.0
 11
12.0
 21
9.0
 12
0.0
 22
0.0
 32
0.0
 14
0.0
 24
0.0
 34
0.0
 15
0.0
 25
0.0
 35
0.0
146
0.0
 13
0.0
 23
0.0
 33
0.0
 16
1.0
 26
0.0
 36
0.0
 17
0.0
 27
1.0
 37
0.0
 76
     0
330
6F
331
73
  0
MATERIAL
  5
19
102
{ACAD_XDICTIONARY
360
1A
102
}
102
{ACAD_REACTORS
330
10
102
}
330
10
100
AcDbMaterial
  1
ByBlock
 72
     0
 43
0.0208333333333333
 43
0.0
 43
0.0
 43
0.0
 43
0.0
 43
0.0208333333333333
 43
0.0
 43
0.0
 43
0.0
 43
0.0
 43
1.0
 43
0.0
 43
0.0
 43
0.0
 43
0.0
 43
1.0
 77
     0
 47
0.0208333333333333
 47
0.0
 47
0.0
 47
0.0
 47
0.0
 47
0.0208333333333333
 47
0.0
 47
0.0
 47
0.0
 47
0.0
 47
1.0
 47
0.0
 47
0.0
 47
0.0
 47
0.0
 47
1.0
171
     0
 49
0.0208333333333333
 49
0.0
 49
0.0
 49
0.0
 49
0.0
 49
0.0208333333333333
 49
0.0
 49
0.0
 49
0.0
 49
0.0
 49
1.0
 49
0.0
 49
0.0
 49
0.0
 49
0.0
 49
1.0
175
     0
142
0.0208333333333333
142
0.0
142
0.0
142
0.0
142
0.0
142
0.0208333333333333
142
0.0
142
0.0
142
0.0
142
0.0
142
1.0
142
0.0
142
0.0
142
0.0
142
0.0
142
1.0
179
     0
144
0.0208333333333333
144
0.0
144
0.0
144
0.0
144
0.0
144
0.0208333333333333
144
0.0
144
0.0
144
0.0
144
0.0
144
1.0
144
0.0
144
0.0
144
0.0
144
0.0
144
1.0
147
0.0208333333333333
147
0.0
147
0.0
147
0.0
147
0.0
147
0.0208333333333333
147
0.0
147
0.0
147
0.0
147
0.0
147
1.0
147
0.0
147
0.0
147
0.0
147
0.0
147
1.0
  0
MATERIAL
  5
11
102
{ACAD_XDICTIONARY
360
12
102
}
102
{ACAD_REACTORS
330
10
102
}
330
10
100
AcDbMaterial
  1
ByLayer
 72
     0
 43
0.0208333333333333
 43
0.0
 43
0.0
 43
0.0
 43
0.0
 43
0.0208333333333333
 43
0.0
 43
0.0
 43
0.0
 43
0.0
 43
1.0
 43
0.0
 43
0.0
 43
0.0
 43
0.0
 43
1.0
 77
     0
 47
0.0208333333333333
 47
0.0
 47
0.0
 47
0.0
 47
0.0
 47
0.0208333333333333
 47
0.0
 47
0.0
 47
0.0
 47
0.0
 47
1.0
 47
0.0
 47
0.0
 47
0.0
 47
0.0
 47
1.0
171
     0
 49
0.0208333333333333
 49
0.0
 49
0.0
 49
0.0
 49
0.0
 49
0.0208333333333333
 49
0.0
 49
0.0
 49
0.0
 49
0.0
 49
1.0
 49
0.0
 49
0.0
 49
0.0
 49
0.0
 49
1.0
175
     0
142
0.0208333333333333
142
0.0
142
0.0
142
0.0
142
0.0
142
0.0208333333333333
142
0.0
142
0.0
142
0.0
142
0.0
142
1.0
142
0.0
142
0.0
142
0.0
142
0.0
142
1.0
179
     0
144
0.0208333333333333
144
0.0
144
0.0
144
0.0
144
0.0
144
0.0208333333333333
144
0.0
144
0.0
144
0.0
144
0.0
144
1.0
144
0.0
144
0.0
144
0.0
144
0.0
144
1.0
147
0.0208333333333333
147
0.0
147
0.0
147
0.0
147
0.0
147
0.0208333333333333
147
0.0
147
0.0
147
0.0
147
0.0
147
1.0
147
0.0
147
0.0
147
0.0
147
0.0
147
1.0
  0
MATERIAL
  5
21
102
{ACAD_XDICTIONARY
360
22
102
}
102
{ACAD_REACTORS
330
10
102
}
330
10
100
AcDbMaterial
  1
Global
 72
     0
 43
0.0208333333333333
 43
0.0
 43
0.0
 43
0.0
 43
0.0
 43
0.0208333333333333
 43
0.0
 43
0.0
 43
0.0
 43
0.0
 43
1.0
 43
0.0
 43
0.0
 43
0.0
 43
0.0
 43
1.0
 77
     0
 47
0.0208333333333333
 47
0.0
 47
0.0
 47
0.0
 47
0.0
 47
0.0208333333333333
 47
0.0
 47
0.0
 47
0.0
 47
0.0
 47
1.0
 47
0.0
 47
0.0
 47
0.0
 47
0.0
 47
1.0
171
     0
 49
0.0208333333333333
 49
0.0
 49
0.0
 49
0.0
 49
0.0
 49
0.0208333333333333
 49
0.0
 49
0.0
 49
0.0
 49
0.0
 49
1.0
 49
0.0
 49
0.0
 49
0.0
 49
0.0
 49
1.0
175
     0
142
0.0208333333333333
142
0.0
142
0.0
142
0.0
142
0.0
142
0.0208333333333333
142
0.0
142
0.0
142
0.0
142
0.0
142
1.0
142
0.0
142
0.0
142
0.0
142
0.0
142
1.0
179
     0
144
0.0208333333333333
144
0.0
144
0.0
144
0.0
144
0.0
144
0.0208333333333333
144
0.0
144
0.0
144
0.0
144
0.0
144
1.0
144
0.0
144
0.0
144
0.0
144
0.0
144
1.0
147
0.0208333333333333
147
0.0
147
0.0
147
0.0
147
0.0
147
0.0208333333333333
147
0.0
147
0.0
147
0.0
147
0.0
147
1.0
147
0.0
147
0.0
147
0.0
147
0.0
147
1.0
  0
MLEADERSTYLE
  5
66
102
{ACAD_REACTORS
330
65
102
}
330
65
100
AcDbMLeaderStyle
179
     2
170
     2
171
     1
172
     0
 90
        2
 40
0.0
 41
0.0
173
     1
 91
-1056964608
340
5A
 92
       -2
290
     1
 42
0.09
291
     1
 43
0.36
  3
Standard
 44
0.18
300

342
55
174
     1
178
     6
175
     1
176
     0
 93
-1056964608
 45
0.18
292
     0
297
     0
 46
0.18
 94
-1056964608
 47
1.0
 49
1.0
140
1.0
293
     1
141
0.0
294
     1
177
     0
142
1.0
295
     0
296
     0
143
0.125
271
     0
272
     9
273
     9
298
     0
  0
MLINESTYLE
  5
5F
102
{ACAD_REACTORS
330
5E
102
}
330
5E
100
AcDbMlineStyle
  2
STANDARD
 70
     0
  3

 62
   256
 51
90.0
 52
90.0
 71
     2
 49
0.5
 62
   256
  6
BYLAYER
 49
-0.5
 62
   256
  6
BYLAYER
  0
ACDBPLACEHOLDER
  5
F
102
{ACAD_REACTORS
330
E
102
}
330
E
  0
SCALE
  5
43
102
{ACAD_REACTORS
330
42
102
}
330
42
100
AcDbScale
 70
     0
300
1:1
140
1.0
141
1.0
290
     1
  0
SCALE
  5
44
102
{ACAD_REACTORS
330
42
102
}
330
42
100
AcDbScale
 70
     0
300
1/128" = 1'-0"
140
0.0078125
141
12.0
290
     0
  0
SCALE
  5
45
102
{ACAD_REACTORS
330
42
102
}
330
42
100
AcDbScale
 70
     0
300
1/64" = 1'-0"
140
0.015625
141
12.0
290
     0
  0
SCALE
  5
46
102
{ACAD_REACTORS
330
42
102
}
330
42
100
AcDbScale
 70
     0
300
1/32" = 1'-0"
140
0.03125
141
12.0
290
     0
  0
SCALE
  5
47
102
{ACAD_REACTORS
330
42
102
}
330
42
100
AcDbScale
 70
     0
300
1/16" = 1'-0"
140
0.0625
141
12.0
290
     0
  0
SCALE
  5
48
102
{ACAD_REACTORS
330
42
102
}
330
42
100
AcDbScale
 70
     0
300
3/32" = 1'-0"
140
0.09375
141
12.0
290
     0
  0
SCALE
  5
49
102
{ACAD_REACTORS
330
42
102
}
330
42
100
AcDbScale
 70
     0
300
1/8" = 1'-0"
140
0.125
141
12.0
290
     0
  0
SCALE
  5
4A
102
{ACAD_REACTORS
330
42
102
}
330
42
100
AcDbScale
 70
     0
300
3/16" = 1'-0"
140
0.1875
141
12.0
290
     0
  0
SCALE
  5
4B
102
{ACAD_REACTORS
330
42
102
}
330
42
100
AcDbScale
 70
     0
300
1/4" = 1'-0"
140
0.25
141
12.0
290
     0
  0
SCALE
  5
4C
102
{ACAD_REACTORS
330
42
102
}
330
42
100
AcDbScale
 70
     0
300
3/8" = 1'-0"
140
0.375
141
12.0
290
     0
  0
SCALE
  5
4D
102
{ACAD_REACTORS
330
42
102
}
330
42
100
AcDbScale
 70
     0
300
1/2" = 1'-0"
140
0.5
141
12.0
290
     0
  0
SCALE
  5
4E
102
{ACAD_REACTORS
330
42
102
}
330
42
100
AcDbScale
 70
     0
300
3/4" = 1'-0"
140
0.75
141
12.0
290
     0
  0
SCALE
  5
4F
102
{ACAD_REACTORS
330
42
102
}
330
42
100
AcDbScale
 70
     0
300
1" = 1'-0"
140
1.0
141
12.0
290
     0
  0
SCALE
  5
50
102
{ACAD_REACTORS
330
42
102
}
330
42
100
AcDbScale
 70
     0
300
1-1/2" = 1'-0"
140
1.5
141
12.0
290
     0
  0
SCALE
  5
51
102
{ACAD_REACTORS
330
42
102
}
330
42
100
AcDbScale
 70
     0
300
3" = 1'-0"
140
3.0
141
12.0
290
     0
  0
SCALE
  5
52
102
{ACAD_REACTORS
330
42
102
}
330
42
100
AcDbScale
 70
     0
300
6" = 1'-0"
140
6.0
141
12.0
290
     0
  0
SCALE
  5
53
102
{ACAD_REACTORS
330
42
102
}
330
42
100
AcDbScale
 70
     0
300
1'-0" = 1'-0"
140
12.0
141
12.0
290
     0
  0
ACDBSECTIONVIEWSTYLE
  5
68
102
{ACAD_REACTORS
330
67
102
}
330
67
100
AcDbModelDocViewStyle
 70
     0
  3
Imperial24
290
     0
300
Imperial24
 90
        0
100
AcDbSectionViewStyle
 70
     0
 71
     0
 90
       78
 71
     1
340
55
 62
   256
 40
0.24
340
0
340
0
 62
   256
 40
0.24
300
I, O, Q, S, X, Z
 40
0.48
 90
        3
 40
0.18
 90
        1
 71
     2
340
5C
 90
       25
 62
   256
340
5C
 90
       50
 62
   256
 40
0.24
 40
0.0
 40
0.24
 71
     3
340
55
 62
   256
 40
0.24
 90
        1
 40
0.75
 90
        1
300
%<\AcVar ViewType \f "%tc1">% %<\AcVar ViewSectionStartId>%-%<\AcVar ViewSectionEndId>%\PSCALE %<\AcVar ViewScale \f "%sn">%
 71
     4
 62
   256
 62
   257
300
ANSI31
 40
1.0
 90
        0
290
     0
290
     0
 90
        6
 40
0.0
 40
1.570796326794896
 40
0.2617993877991494
 40
1.308996938995747
 40
-0.2617993877991494
 40
1.832595714594046
  0
TABLESTYLE
  5
64
102
{ACAD_XDICTIONARY
360
67E
102
}
102
{ACAD_REACTORS
330
63
102
}
330
63
100
AcDbTableStyle
280
     0
  3
Standard
 70
     0
 71
     0
 40
0.06
 41
0.06
280
     0
281
     0
  7
STANDARD
140
0.18
170
     2
 62
     0
 63
     7
283
     0
 90
      512
 91
        0
  1

274
    -2
284
     1
 64
     0
275
    -2
285
     1
 65
     0
276
    -2
286
     1
 66
     0
277
    -2
287
     1
 67
     0
278
    -2
288
     1
 68
     0
279
    -2
289
     1
 69
     0
  7
STANDARD
140
0.25
170
     5
 62
     0
 63
     7
283
     0
 90
      512
 91
        0
  1

274
    -2
284
     1
 64
     0
275
    -2
285
     1
 65
     0
276
    -2
286
     1
 66
     0
277
    -2
287
     1
 67
     0
278
    -2
288
     1
 68
     0
279
    -2
289
     1
 69
     0
  7
STANDARD
140
0.18
170
     5
 62
     0
 63
     7
283
     0
 90
      512
 91
        0
  1

274
    -2
284
     1
 64
     0
275
    -2
285
     1
 65
     0
276
    -2
286
     1
 66
     0
277
    -2
287
     1
 67
     0
278
    -2
288
     1
 68
     0
279
    -2
289
     1
 69
     0
  0
VISUALSTYLE
  5
2F
102
{ACAD_REACTORS
330
29
102
}
330
29
100
AcDbVisualStyle
  2
2dWireframe
 70
     4
177
     3
291
     0
 70
    58
 90
        0
176
     1
 90
        2
176
     1
 90
        0
176
     1
 90
        0
176
     1
 40
0.6
176
     1
 40
30.0
176
     1
 62
     7
420
 16777215
176
     1
 90
        1
176
     1
 90
        4
176
     1
 62
     7
176
     1
 62
   257
176
     1
 90
        1
176
     1
 90
        1
176
     1
 40
1.0
176
     1
 90
        0
176
     1
 62
   257
176
     1
 40
1.0
176
     1
 90
        1
176
     1
 90
        6
176
     1
 90
        2
176
     1
 62
     7
176
     1
 90
        5
176
     1
 90
        0
176
     1
 90
        0
176
     1
290
     0
176
     1
 90
        1
176
     1
 40
0.0
176
     1
 90
        0
176
     1
290
     1
176
     1
290
     1
176
     1
290
     0
176
     1
290
     0
176
     1
290
     0
176
     1
290
     0
176
     1
290
     0
176
     1
290
     0
176
     1
290
     0
176
     1
 90
       50
176
     1
 40
0.0
176
     1
 40
1.0
176
     1
 90
        0
176
     1
 62
    18
420
        0
176
     1
 90
       50
176
     1
 90
        3
176
     1
 62
     5
420
      255
176
     1
290
     0
176
     1
 90
       50
176
     1
 90
       50
176
     1
 90
       50
176
     1
290
     0
176
     1
 90
       50
176
     1
 62
   256
176
     0
 40
1.0
176
     0
 90
        2
176
     1
  1
strokes_ogs.tif
176
     1
290
     0
176
     1
 40
1.0
176
     1
 40
1.0
176
     1
  0
VISUALSTYLE
  5
2E
102
{ACAD_REACTORS
330
29
102
}
330
29
100
AcDbVisualStyle
  2
Basic
 70
     7
177
     3
291
     1
 70
    58
 90
        1
176
     1
 90
        0
176
     1
 90
        1
176
     1
 90
        0
176
     1
 40
0.6
176
     1
 40
30.0
176
     1
 62
     7
420
 16777215
176
     1
 90
        0
176
     1
 90
        4
176
     1
 62
     7
176
     1
 62
   257
176
     1
 90
        1
176
     1
 90
        1
176
     1
 40
1.0
176
     1
 90
        8
176
     1
 62
     7
176
     1
 40
1.0
176
     1
 90
        1
176
     1
 90
        6
176
     1
 90
        2
176
     1
 62
     7
176
     1
 90
        5
176
     1
 90
        0
176
     1
 90
        0
176
     1
290
     0
176
     1
 90
        1
176
     1
 40
0.0
176
     1
 90
        0
176
     1
290
     0
176
     1
290
     1
176
     1
290
     1
176
     1
290
     0
176
     1
290
     0
176
     1
290
     0
176
     1
290
     0
176
     1
290
     0
176
     1
290
     0
176
     1
 90
       50
176
     1
 40
0.0
176
     1
 40
1.0
176
     1
 90
        0
176
     1
 62
    18
420
        0
176
     1
 90
       50
176
     1
 90
        3
176
     1
 62
     5
420
      255
176
     1
290
     0
176
     1
 90
       50
176
     1
 90
       50
176
     1
 90
       50
176
     1
290
     0
176
     1
 90
       50
176
     1
 62
   256
176
     0
 40
1.0
176
     0
 90
        2
176
     1
  1
strokes_ogs.tif
176
     1
290
     0
176
     1
 40
1.0
176
     1
 40
1.0
176
     1
  0
VISUALSTYLE
  5
35
102
{ACAD_REACTORS
330
29
102
}
330
29
100
AcDbVisualStyle
  2
Brighten
 70
    12
177
     3
291
     1
 70
    58
 90
        2
176
     1
 90
        2
176
     1
 90
        0
176
     1
 90
        0
176
     1
 40
0.6
176
     1
 40
30.0
176
     1
 62
     7
420
 16777215
176
     1
 90
        1
176
     1
 90
        4
176
     1
 62
     7
176
     1
 62
   257
176
     1
 90
        1
176
     1
 90
        1
176
     1
 40
1.0
176
     1
 90
        8
176
     1
 62
     7
176
     1
 40
1.0
176
     1
 90
        1
176
     1
 90
        6
176
     1
 90
        2
176
     1
 62
     7
176
     1
 90
        5
176
     1
 90
        0
176
     1
 90
        0
176
     1
290
     0
176
     1
 90
        1
176
     1
 40
50.0
176
     1
 90
        0
176
     1
290
     0
176
     1
290
     1
176
     1
290
     1
176
     1
290
     0
176
     1
290
     0
176
     1
290
     0
176
     1
290
     0
176
     1
290
     0
176
     1
290
     0
176
     1
 90
       50
176
     1
 40
0.0
176
     1
 40
1.0
176
     1
 90
        0
176
     1
 62
    18
420
        0
176
     1
 90
       50
176
     1
 90
        3
176
     1
 62
     5
420
      255
176
     1
290
     0
176
     1
 90
       50
176
     1
 90
       50
176
     1
 90
       50
176
     1
290
     0
176
     1
 90
       50
176
     1
 62
   256
176
     0
 40
1.0
176
     0
 90
        2
176
     1
  1
strokes_ogs.tif
176
     1
290
     0
176
     1
 40
1.0
176
     1
 40
1.0
176
     1
  0
VISUALSTYLE
  5
39
102
{ACAD_REACTORS
330
29
102
}
330
29
100
AcDbVisualStyle
  2
ColorChange
 70
    16
177
     3
291
     1
 70
    58
 90
        2
176
     1
 90
        2
176
     1
 90
        3
176
     1
 90
        0
176
     1
 40
0.6
176
     1
 40
30.0
176
     1
 62
     8
420
  8421504
176
     1
 90
        1
176
     1
 90
        4
176
     1
 62
     7
176
     1
 62
   257
176
     1
 90
        1
176
     1
 90
        1
176
     1
 40
1.0
176
     1
 90
        8
176
     1
 62
     8
420
  8421504
176
     1
 40
1.0
176
     1
 90
        1
176
     1
 90
        6
176
     1
 90
        2
176
     1
 62
     7
176
     1
 90
        5
176
     1
 90
        0
176
     1
 90
        0
176
     1
290
     0
176
     1
 90
        1
176
     1
 40
0.0
176
     1
 90
        0
176
     1
290
     0
176
     1
290
     1
176
     1
290
     1
176
     1
290
     0
176
     1
290
     0
176
     1
290
     0
176
     1
290
     0
176
     1
290
     0
176
     1
290
     0
176
     1
 90
       50
176
     1
 40
0.0
176
     1
 40
1.0
176
     1
 90
        0
176
     1
 62
    18
420
        0
176
     1
 90
       50
176
     1
 90
        3
176
     1
 62
     5
420
      255
176
     1
290
     0
176
     1
 90
       50
176
     1
 90
       50
176
     1
 90
       50
176
     1
290
     0
176
     1
 90
       50
176
     1
 62
   256
176
     0
 40
1.0
176
     0
 90
        2
176
     1
  1
strokes_ogs.tif
176
     1
290
     0
176
     1
 40
1.0
176
     1
 40
1.0
176
     1
  0
VISUALSTYLE
  5
32
102
{ACAD_REACTORS
330
29
102
}
330
29
100
AcDbVisualStyle
  2
Conceptual
 70
     9
177
     3
291
     0
 70
    58
 90
        3
176
     1
 90
        2
176
     1
 90
        0
176
     1
 90
        0
176
     1
 40
0.6
176
     1
 40
30.0
176
     1
 62
     7
420
 16777215
176
     1
 90
        2
176
     1
 90
        2
176
     1
 62
     7
176
     1
 62
   257
176
     1
 90
        1
176
     1
 90
        1
176
     1
 40
179.0
176
     1
 90
        8
176
     1
 62
     7
176
     1
 40
1.0
176
     1
 90
        1
176
     1
 90
        6
176
     1
 90
        2
176
     1
 62
     7
176
     1
 90
        3
176
     1
 90
        0
176
     1
 90
        0
176
     1
290
     0
176
     1
 90
        1
176
     1
 40
0.0
176
     1
 90
        0
176
     1
290
     0
176
     1
290
     1
176
     1
290
     1
176
     1
290
     0
176
     1
290
     0
176
     1
290
     0
176
     1
290
     0
176
     1
290
     0
176
     1
290
     0
176
     1
 90
       50
176
     1
 40
0.0
176
     1
 40
1.0
176
     1
 90
        0
176
     1
 62
    18
420
        0
176
     1
 90
       50
176
     1
 90
        3
176
     1
 62
     5
420
      255
176
     1
290
     0
176
     1
 90
       50
176
     1
 90
       50
176
     1
 90
       50
176
     1
290
     0
176
     1
 90
       50
176
     1
 62
   256
176
     0
 40
1.0
176
     0
 90
        2
176
     1
  1
strokes_ogs.tif
176
     1
290
     0
176
     1
 40
1.0
176
     1
 40
1.0
176
     1
  0
VISUALSTYLE
  5
34
102
{ACAD_REACTORS
330
29
102
}
330
29
100
AcDbVisualStyle
  2
Dim
 70
    11
177
     3
291
     1
 70
    58
 90
        2
176
     1
 90
        2
176
     1
 90
        0
176
     1
 90
        0
176
     1
 40
0.6
176
     1
 40
30.0
176
     1
 62
     7
420
 16777215
176
     1
 90
        1
176
     1
 90
        4
176
     1
 62
     7
176
     1
 62
   257
176
     1
 90
        1
176
     1
 90
        1
176
     1
 40
1.0
176
     1
 90
        8
176
     1
 62
     7
176
     1
 40
1.0
176
     1
 90
        1
176
     1
 90
        6
176
     1
 90
        2
176
     1
 62
     7
176
     1
 90
        5
176
     1
 90
        0
176
     1
 90
        0
176
     1
290
     0
176
     1
 90
        1
176
     1
 40
-50.0
176
     1
 90
        0
176
     1
290
     0
176
     1
290
     1
176
     1
290
     1
176
     1
290
     0
176
     1
290
     0
176
     1
290
     0
176
     1
290
     0
176
     1
290
     0
176
     1
290
     0
176
     1
 90
       50
176
     1
 40
0.0
176
     1
 40
1.0
176
     1
 90
        0
176
     1
 62
    18
420
        0
176
     1
 90
       50
176
     1
 90
        3
176
     1
 62
     5
420
      255
176
     1
290
     0
176
     1
 90
       50
176
     1
 90
       50
176
     1
 90
       50
176
     1
290
     0
176
     1
 90
       50
176
     1
 62
   256
176
     0
 40
1.0
176
     0
 90
        2
176
     1
  1
strokes_ogs.tif
176
     1
290
     0
176
     1
 40
1.0
176
     1
 40
1.0
176
     1
  0
VISUALSTYLE
  5
41
102
{ACAD_REACTORS
330
29
102
}
330
29
100
AcDbVisualStyle
  2
EdgeColorOff
 70
    22
177
     3
291
     1
 70
    58
 90
        2
176
     0
 90
        2
176
     0
 90
        0
176
     0
 90
        0
176
     0
 40
0.6
176
     0
 40
30.0
176
     0
 62
     7
420
 16777215
176
     0
 90
        1
176
     0
 90
        4
176
     0
 62
     7
176
     0
 62
   257
176
     0
 90
        1
176
     0
 90
        1
176
     0
 40
1.0
176
     0
 90
        8
176
     2
 62
     7
176
     0
 40
1.0
176
     0
 90
        1
176
     0
 90
        6
176
     0
 90
        2
176
     0
 62
     7
176
     0
 90
        5
176
     0
 90
        0
176
     0
 90
        0
176
     0
290
     0
176
     0
 90
        1
176
     0
 40
0.0
176
     0
 90
        0
176
     0
290
     0
176
     1
290
     1
176
     1
290
     1
176
     1
290
     0
176
     1
290
     0
176
     1
290
     0
176
     1
290
     0
176
     1
290
     0
176
     1
290
     0
176
     1
 90
       50
176
     0
 40
0.0
176
     0
 40
1.0
176
     0
 90
        0
176
     0
 62
    18
420
        0
176
     0
 90
       50
176
     0
 90
        3
176
     0
 62
     5
420
      255
176
     0
290
     0
176
     1
 90
       50
176
     0
 90
       50
176
     0
 90
       50
176
     0
290
     0
176
     1
 90
       50
176
     0
 62
   256
176
     0
 40
1.0
176
     0
 90
        2
176
     0
  1
strokes_ogs.tif
176
     0
290
     0
176
     1
 40
1.0
176
     0
 40
1.0
176
     0
  0
VISUALSTYLE
  5
38
102
{ACAD_REACTORS
330
29
102
}
330
29
100
AcDbVisualStyle
  2
Facepattern
 70
    15
177
     3
291
     1
 70
    58
 90
        2
176
     1
 90
        2
176
     1
 90
        0
176
     1
 90
        0
176
     1
 40
0.6
176
     1
 40
30.0
176
     1
 62
     7
420
 16777215
176
     1
 90
        1
176
     1
 90
        4
176
     1
 62
     7
176
     1
 62
   257
176
     1
 90
        1
176
     1
 90
        1
176
     1
 40
1.0
176
     1
 90
        8
176
     1
 62
     7
176
     1
 40
1.0
176
     1
 90
        1
176
     1
 90
        6
176
     1
 90
        2
176
     1
 62
     7
176
     1
 90
        5
176
     1
 90
        0
176
     1
 90
        0
176
     1
290
     0
176
     1
 90
        1
176
     1
 40
0.0
176
     1
 90
        0
176
     1
290
     0
176
     1
290
     1
176
     1
290
     1
176
     1
290
     0
176
     1
290
     0
176
     1
290
     0
176
     1
290
     0
176
     1
290
     0
176
     1
290
     0
176
     1
 90
       50
176
     1
 40
0.0
176
     1
 40
1.0
176
     1
 90
        0
176
     1
 62
    18
420
        0
176
     1
 90
       50
176
     1
 90
        3
176
     1
 62
     5
420
      255
176
     1
290
     0
176
     1
 90
       50
176
     1
 90
       50
176
     1
 90
       50
176
     1
290
     0
176
     1
 90
       50
176
     1
 62
   256
176
     0
 40
1.0
176
     0
 90
        2
176
     1
  1
strokes_ogs.tif
176
     1
290
     0
176
     1
 40
1.0
176
     1
 40
1.0
176
     1
  0
VISUALSTYLE
  5
2A
102
{ACAD_REACTORS
330
29
102
}
330
29
100
AcDbVisualStyle
  2
Flat
 70
     0
177
     3
291
     1
 70
    58
 90
        2
176
     1
 90
        1
176
     1
 90
        1
176
     1
 90
        2
176
     1
 40
0.6
176
     1
 40
30.0
176
     1
 62
     7
420
 16777215
176
     1
 90
        0
176
     1
 90
        0
176
     1
 62
     7
176
     1
 62
   257
176
     1
 90
        1
176
     1
 90
        1
176
     1
 40
1.0
176
     1
 90
        8
176
     1
 62
     7
176
     1
 40
1.0
176
     1
 90
        1
176
     1
 90
        6
176
     1
 90
        2
176
     1
 62
     7
176
     1
 90
        5
176
     1
 90
        0
176
     1
 90
        0
176
     1
290
     0
176
     1
 90
       13
176
     1
 40
0.0
176
     1
 90
        0
176
     1
290
     0
176
     1
290
     1
176
     1
290
     1
176
     1
290
     0
176
     1
290
     0
176
     1
290
     0
176
     1
290
     0
176
     1
290
     0
176
     1
290
     0
176
     1
 90
       50
176
     1
 40
0.0
176
     1
 40
1.0
176
     1
 90
        0
176
     1
 62
    18
420
        0
176
     1
 90
       50
176
     1
 90
        3
176
     1
 62
     5
420
      255
176
     1
290
     0
176
     1
 90
       50
176
     1
 90
       50
176
     1
 90
       50
176
     1
290
     0
176
     1
 90
       50
176
     1
 62
   256
176
     0
 40
1.0
176
     0
 90
        2
176
     1
  1
strokes_ogs.tif
176
     1
290
     0
176
     1
 40
1.0
176
     1
 40
1.0
176
     1
  0
VISUALSTYLE
  5
2B
102
{ACAD_REACTORS
330
29
102
}
330
29
100
AcDbVisualStyle
  2
FlatWithEdges
 70
     1
177
     3
291
     1
 70
    58
 90
        2
176
     1
 90
        1
176
     1
 90
        1
176
     1
 90
        2
176
     1
 40
0.6
176
     1
 40
30.0
176
     1
 62
     7
420
 16777215
176
     1
 90
        1
176
     1
 90
        0
176
     1
 62
     7
176
     1
 62
   257
176
     1
 90
        1
176
     1
 90
        1
176
     1
 40
1.0
176
     1
 90
        0
176
     1
 62
   257
176
     1
 40
1.0
176
     1
 90
        1
176
     1
 90
        6
176
     1
 90
        2
176
     1
 62
     7
176
     1
 90
        5
176
     1
 90
        0
176
     1
 90
        0
176
     1
290
     0
176
     1
 90
       13
176
     1
 40
0.0
176
     1
 90
        0
176
     1
290
     0
176
     1
290
     1
176
     1
290
     1
176
     1
290
     0
176
     1
290
     0
176
     1
290
     0
176
     1
290
     0
176
     1
290
     0
176
     1
290
     0
176
     1
 90
       50
176
     1
 40
0.0
176
     1
 40
1.0
176
     1
 90
        0
176
     1
 62
    18
420
        0
176
     1
 90
       50
176
     1
 90
        3
176
     1
 62
     5
420
      255
176
     1
290
     0
176
     1
 90
       50
176
     1
 90
       50
176
     1
 90
       50
176
     1
290
     0
176
     1
 90
       50
176
     1
 62
   256
176
     0
 40
1.0
176
     0
 90
        2
176
     1
  1
strokes_ogs.tif
176
     1
290
     0
176
     1
 40
1.0
176
     1
 40
1.0
176
     1
  0
VISUALSTYLE
  5
2C
102
{ACAD_REACTORS
330
29
102
}
330
29
100
AcDbVisualStyle
  2
Gouraud
 70
     2
177
     3
291
     1
 70
    58
 90
        2
176
     1
 90
        2
176
     1
 90
        1
176
     1
 90
        2
176
     1
 40
0.6
176
     1
 40
30.0
176
     1
 62
     7
420
 16777215
176
     1
 90
        0
176
     1
 90
        0
176
     1
 62
     7
176
     1
 62
   257
176
     1
 90
        1
176
     1
 90
        1
176
     1
 40
1.0
176
     1
 90
        0
176
     1
 62
     7
176
     1
 40
1.0
176
     1
 90
        1
176
     1
 90
        6
176
     1
 90
        2
176
     1
 62
     7
176
     1
 90
        5
176
     1
 90
        0
176
     1
 90
        0
176
     1
290
     0
176
     1
 90
       13
176
     1
 40
0.0
176
     1
 90
        0
176
     1
290
     0
176
     1
290
     1
176
     1
290
     1
176
     1
290
     0
176
     1
290
     0
176
     1
290
     0
176
     1
290
     0
176
     1
290
     0
176
     1
290
     0
176
     1
 90
       50
176
     1
 40
0.0
176
     1
 40
1.0
176
     1
 90
        0
176
     1
 62
    18
420
        0
176
     1
 90
       50
176
     1
 90
        3
176
     1
 62
     5
420
      255
176
     1
290
     0
176
     1
 90
       50
176
     1
 90
       50
176
     1
 90
       50
176
     1
290
     0
176
     1
 90
       50
176
     1
 62
   256
176
     0
 40
1.0
176
     0
 90
        2
176
     1
  1
strokes_ogs.tif
176
     1
290
     0
176
     1
 40
1.0
176
     1
 40
1.0
176
     1
  0
VISUALSTYLE
  5
2D
102
{ACAD_REACTORS
330
29
102
}
330
29
100
AcDbVisualStyle
  2
GouraudWithEdges
 70
     3
177
     3
291
     1
 70
    58
 90
        2
176
     1
 90
        2
176
     1
 90
        1
176
     1
 90
        2
176
     1
 40
0.6
176
     1
 40
30.0
176
     1
 62
     7
420
 16777215
176
     1
 90
        1
176
     1
 90
        0
176
     1
 62
     7
176
     1
 62
   257
176
     1
 90
        1
176
     1
 90
        1
176
     1
 40
1.0
176
     1
 90
        0
176
     1
 62
   257
176
     1
 40
1.0
176
     1
 90
        1
176
     1
 90
        6
176
     1
 90
        2
176
     1
 62
     7
176
     1
 90
        5
176
     1
 90
        0
176
     1
 90
        0
176
     1
290
     0
176
     1
 90
       13
176
     1
 40
0.0
176
     1
 90
        0
176
     1
290
     0
176
     1
290
     1
176
     1
290
     1
176
     1
290
     0
176
     1
290
     0
176
     1
290
     0
176
     1
290
     0
176
     1
290
     0
176
     1
290
     0
176
     1
 90
       50
176
     1
 40
0.0
176
     1
 40
1.0
176
     1
 90
        0
176
     1
 62
    18
420
        0
176
     1
 90
       50
176
     1
 90
        3
176
     1
 62
     5
420
      255
176
     1
290
     0
176
     1
 90
       50
176
     1
 90
       50
176
     1
 90
       50
176
     1
290
     0
176
     1
 90
       50
176
     1
 62
   256
176
     0
 40
1.0
176
     0
 90
        2
176
     1
  1
strokes_ogs.tif
176
     1
290
     0
176
     1
 40
1.0
176
     1
 40
1.0
176
     1
  0
VISUALSTYLE
  5
31
102
{ACAD_REACTORS
330
29
102
}
330
29
100
AcDbVisualStyle
  2
Hidden
 70
     6
177
     3
291
     0
 70
    58
 90
        1
176
     1
 90
        2
176
     1
 90
        2
176
     1
 90
        0
176
     1
 40
0.6
176
     1
 40
30.0
176
     1
 62
     7
420
 16777215
176
     1
 90
        2
176
     1
 90
        2
176
     1
 62
     7
176
     1
 62
   257
176
     1
 90
        2
176
     1
 90
        1
176
     1
 40
40.0
176
     1
 90
        0
176
     1
 62
   257
176
     1
 40
1.0
176
     1
 90
        1
176
     1
 90
        6
176
     1
 90
        2
176
     1
 62
     7
176
     1
 90
        3
176
     1
 90
        0
176
     1
 90
        0
176
     1
290
     0
176
     1
 90
        1
176
     1
 40
0.0
176
     1
 90
        0
176
     1
290
     0
176
     1
290
     1
176
     1
290
     1
176
     1
290
     0
176
     1
290
     0
176
     1
290
     0
176
     1
290
     0
176
     1
290
     0
176
     1
290
     0
176
     1
 90
       50
176
     1
 40
0.0
176
     1
 40
1.0
176
     1
 90
        0
176
     1
 62
    18
420
        0
176
     1
 90
       50
176
     1
 90
        3
176
     1
 62
     5
420
      255
176
     1
290
     0
176
     1
 90
       50
176
     1
 90
       50
176
     1
 90
       50
176
     1
290
     0
176
     1
 90
       50
176
     1
 62
   256
176
     0
 40
1.0
176
     0
 90
        2
176
     1
  1
strokes_ogs.tif
176
     1
290
     0
176
     1
 40
1.0
176
     1
 40
1.0
176
     1
  0
VISUALSTYLE
  5
3F
102
{ACAD_REACTORS
330
29
102
}
330
29
100
AcDbVisualStyle
  2
JitterOff
 70
    20
177
     3
291
     1
 70
    58
 90
        2
176
     0
 90
        2
176
     0
 90
        0
176
     0
 90
        0
176
     0
 40
0.6
176
     0
 40
30.0
176
     0
 62
     7
420
 16777215
176
     0
 90
        1
176
     0
 90
        4
176
     0
 62
     7
176
     0
 62
   257
176
     0
 90
        1
176
     0
 90
        1
176
     0
 40
1.0
176
     0
 90
       10
176
     2
 62
     7
176
     0
 40
1.0
176
     0
 90
        1
176
     0
 90
        6
176
     0
 90
        2
176
     0
 62
     7
176
     0
 90
        5
176
     0
 90
        0
176
     0
 90
        0
176
     0
290
     0
176
     0
 90
        1
176
     0
 40
0.0
176
     0
 90
        0
176
     0
290
     0
176
     1
290
     1
176
     1
290
     1
176
     1
290
     0
176
     1
290
     0
176
     1
290
     0
176
     1
290
     0
176
     1
290
     0
176
     1
290
     0
176
     1
 90
       50
176
     0
 40
0.0
176
     0
 40
1.0
176
     0
 90
        0
176
     0
 62
    18
420
        0
176
     0
 90
       50
176
     0
 90
        3
176
     0
 62
     5
420
      255
176
     0
290
     0
176
     1
 90
       50
176
     0
 90
       50
176
     0
 90
       50
176
     0
290
     0
176
     1
 90
       50
176
     0
 62
   256
176
     0
 40
1.0
176
     0
 90
        2
176
     0
  1
strokes_ogs.tif
176
     0
290
     0
176
     1
 40
1.0
176
     0
 40
1.0
176
     0
  0
VISUALSTYLE
  5
37
102
{ACAD_REACTORS
330
29
102
}
330
29
100
AcDbVisualStyle
  2
Linepattern
 70
    14
177
     3
291
     1
 70
    58
 90
        2
176
     1
 90
        2
176
     1
 90
        0
176
     1
 90
        0
176
     1
 40
0.6
176
     1
 40
30.0
176
     1
 62
     7
420
 16777215
176
     1
 90
        1
176
     1
 90
        4
176
     1
 62
     7
176
     1
 62
   257
176
     1
 90
        7
176
     1
 90
        7
176
     1
 40
1.0
176
     1
 90
        8
176
     1
 62
     7
176
     1
 40
1.0
176
     1
 90
        1
176
     1
 90
        6
176
     1
 90
        2
176
     1
 62
     7
176
     1
 90
        5
176
     1
 90
        0
176
     1
 90
        0
176
     1
290
     0
176
     1
 90
        1
176
     1
 40
0.0
176
     1
 90
        0
176
     1
290
     0
176
     1
290
     1
176
     1
290
     1
176
     1
290
     0
176
     1
290
     0
176
     1
290
     0
176
     1
290
     0
176
     1
290
     0
176
     1
290
     0
176
     1
 90
       50
176
     1
 40
0.0
176
     1
 40
1.0
176
     1
 90
        0
176
     1
 62
    18
420
        0
176
     1
 90
       50
176
     1
 90
        3
176
     1
 62
     5
420
      255
176
     1
290
     0
176
     1
 90
       50
176
     1
 90
       50
176
     1
 90
       50
176
     1
290
     0
176
     1
 90
       50
176
     1
 62
   256
176
     0
 40
1.0
176
     0
 90
        2
176
     1
  1
strokes_ogs.tif
176
     1
290
     0
176
     1
 40
1.0
176
     1
 40
1.0
176
     1
  0
VISUALSTYLE
  5
40
102
{ACAD_REACTORS
330
29
102
}
330
29
100
AcDbVisualStyle
  2
OverhangOff
 70
    21
177
     3
291
     1
 70
    58
 90
        2
176
     0
 90
        2
176
     0
 90
        0
176
     0
 90
        0
176
     0
 40
0.6
176
     0
 40
30.0
176
     0
 62
     7
420
 16777215
176
     0
 90
        1
176
     0
 90
        4
176
     0
 62
     7
176
     0
 62
   257
176
     0
 90
        1
176
     0
 90
        1
176
     0
 40
1.0
176
     0
 90
        9
176
     2
 62
     7
176
     0
 40
1.0
176
     0
 90
        1
176
     0
 90
        6
176
     0
 90
        2
176
     0
 62
     7
176
     0
 90
        5
176
     0
 90
        0
176
     0
 90
        0
176
     0
290
     0
176
     0
 90
        1
176
     0
 40
0.0
176
     0
 90
        0
176
     0
290
     0
176
     1
290
     1
176
     1
290
     1
176
     1
290
     0
176
     1
290
     0
176
     1
290
     0
176
     1
290
     0
176
     1
290
     0
176
     1
290
     0
176
     1
 90
       50
176
     0
 40
0.0
176
     0
 40
1.0
176
     0
 90
        0
176
     0
 62
    18
420
        0
176
     0
 90
       50
176
     0
 90
        3
176
     0
 62
     5
420
      255
176
     0
290
     0
176
     1
 90
       50
176
     0
 90
       50
176
     0
 90
       50
176
     0
290
     0
176
     1
 90
       50
176
     0
 62
   256
176
     0
 40
1.0
176
     0
 90
        2
176
     0
  1
strokes_ogs.tif
176
     0
290
     0
176
     1
 40
1.0
176
     0
 40
1.0
176
     0
  0
VISUALSTYLE
  5
33
102
{ACAD_REACTORS
330
29
102
}
330
29
100
AcDbVisualStyle
  2
Realistic
 70
     8
177
     3
291
     0
 70
    58
 90
        2
176
     1
 90
        3
176
     1
 90
        0
176
     1
 90
        2
176
     1
 40
0.6
176
     1
 40
30.0
176
     1
 62
     7
420
 16777215
176
     1
 90
        0
176
     1
 90
        0
176
     1
 62
     7
176
     1
 62
   257
176
     1
 90
        1
176
     1
 90
        1
176
     1
 40
1.0
176
     1
 90
        8
176
     1
 62
   257
176
     1
 40
1.0
176
     1
 90
        1
176
     1
 90
        6
176
     1
 90
        2
176
     1
 62
     7
176
     1
 90
        3
176
     1
 90
        0
176
     1
 90
        0
176
     1
290
     0
176
     1
 90
       13
176
     1
 40
0.0
176
     1
 90
        0
176
     1
290
     0
176
     1
290
     1
176
     1
290
     1
176
     1
290
     0
176
     1
290
     0
176
     1
290
     0
176
     1
290
     0
176
     1
290
     0
176
     1
290
     0
176
     1
 90
       50
176
     1
 40
0.0
176
     1
 40
1.0
176
     1
 90
        0
176
     1
 62
    18
420
        0
176
     1
 90
       50
176
     1
 90
        3
176
     1
 62
     5
420
      255
176
     1
290
     0
176
     1
 90
       50
176
     1
 90
       50
176
     1
 90
       50
176
     1
290
     0
176
     1
 90
       50
176
     1
 62
   256
176
     0
 40
1.0
176
     0
 90
        2
176
     1
  1
strokes_ogs.tif
176
     1
290
     0
176
     1
 40
1.0
176
     1
 40
1.0
176
     1
  0
VISUALSTYLE
  5
3E
102
{ACAD_REACTORS
330
29
102
}
330
29
100
AcDbVisualStyle
  2
Shaded
 70
    27
177
     3
291
     0
 70
    58
 90
        2
176
     1
 90
        2
176
     1
 90
        1
176
     1
 90
        2
176
     1
 40
0.6
176
     1
 40
30.0
176
     1
 62
     7
420
 16777215
176
     1
 90
        0
176
     1
 90
        4
176
     1
 62
     7
176
     1
 62
   257
176
     1
 90
        1
176
     1
 90
        1
176
     1
 40
1.0
176
     1
 90
        8
176
     1
 62
   257
176
     1
 40
1.0
176
     1
 90
        1
176
     1
 90
        6
176
     1
 90
        2
176
     1
 62
     8
420
  7895160
176
     1
 90
        3
176
     1
 90
        0
176
     1
 90
        0
176
     1
290
     0
176
     1
 90
        5
176
     1
 40
0.0
176
     1
 90
        0
176
     1
290
     0
176
     1
290
     1
176
     1
290
     1
176
     1
290
     0
176
     1
290
     0
176
     1
290
     0
176
     1
290
     0
176
     1
290
     0
176
     1
290
     0
176
     1
 90
       50
176
     1
 40
0.0
176
     1
 40
1.0
176
     1
 90
        0
176
     1
 62
    18
420
        0
176
     1
 90
       50
176
     1
 90
        3
176
     1
 62
     5
420
      255
176
     1
290
     0
176
     1
 90
       50
176
     1
 90
       50
176
     1
 90
       50
176
     1
290
     0
176
     1
 90
       50
176
     1
 62
   256
176
     0
 40
1.0
176
     0
 90
        2
176
     1
  1
strokes_ogs.tif
176
     1
290
     0
176
     1
 40
1.0
176
     1
 40
1.0
176
     1
  0
VISUALSTYLE
  5
3D
102
{ACAD_REACTORS
330
29
102
}
330
29
100
AcDbVisualStyle
  2
Shaded with edges
 70
    26
177
     3
291
     0
 70
    58
 90
        2
176
     1
 90
        2
176
     1
 90
        1
176
     1
 90
        2
176
     1
 40
0.6
176
     1
 40
30.0
176
     1
 62
     7
420
 16777215
176
     1
 90
        1
176
     1
 90
        2
176
     1
 62
     7
176
     1
 62
   257
176
     1
 90
        2
176
     1
 90
        1
176
     1
 40
1.0
176
     1
 90
        8
176
     1
 62
   257
176
     1
 40
1.0
176
     1
 90
        1
176
     1
 90
        6
176
     1
 90
        2
176
     1
 62
     7
176
     1
 90
        3
176
     1
 90
        0
176
     1
 90
        0
176
     1
290
     0
176
     1
 90
        5
176
     1
 40
0.0
176
     1
 90
        0
176
     1
290
     0
176
     1
290
     1
176
     1
290
     1
176
     1
290
     0
176
     1
290
     0
176
     1
290
     0
176
     1
290
     0
176
     1
290
     0
176
     1
290
     0
176
     1
 90
       50
176
     1
 40
0.0
176
     1
 40
1.0
176
     1
 90
        0
176
     1
 62
    18
420
        0
176
     1
 90
       50
176
     1
 90
        3
176
     1
 62
     5
420
      255
176
     1
290
     0
176
     1
 90
       50
176
     1
 90
       50
176
     1
 90
       50
176
     1
290
     0
176
     1
 90
       50
176
     1
 62
   256
176
     0
 40
1.0
176
     0
 90
        2
176
     1
  1
strokes_ogs.tif
176
     1
290
     0
176
     1
 40
1.0
176
     1
 40
1.0
176
     1
  0
VISUALSTYLE
  5
3A
102
{ACAD_REACTORS
330
29
102
}
330
29
100
AcDbVisualStyle
  2
Shades of Gray
 70
    23
177
     3
291
     0
 70
    58
 90
        2
176
     1
 90
        2
176
     1
 90
        3
176
     1
 90
        0
176
     1
 40
0.6
176
     1
 40
30.0
176
     1
 62
     7
420
 16777215
176
     1
 90
        2
176
     1
 90
        2
176
     1
 62
     7
176
     1
 62
     7
176
     1
 90
        1
176
     1
 90
        1
176
     1
 40
40.0
176
     1
 90
        8
176
     1
 62
     7
176
     1
 40
1.0
176
     1
 90
        1
176
     1
 90
        6
176
     1
 90
        2
176
     1
 62
     7
176
     1
 90
        3
176
     1
 90
        0
176
     1
 90
        0
176
     1
290
     0
176
     1
 90
        1
176
     1
 40
0.0
176
     1
 90
        0
176
     1
290
     0
176
     1
290
     1
176
     1
290
     1
176
     1
290
     0
176
     1
290
     0
176
     1
290
     0
176
     1
290
     0
176
     1
290
     0
176
     1
290
     0
176
     1
 90
       50
176
     1
 40
0.0
176
     1
 40
1.0
176
     1
 90
        0
176
     1
 62
    18
420
        0
176
     1
 90
       50
176
     1
 90
        3
176
     1
 62
     5
420
      255
176
     1
290
     0
176
     1
 90
       50
176
     1
 90
       50
176
     1
 90
       50
176
     1
290
     0
176
     1
 90
       50
176
     1
 62
   256
176
     0
 40
1.0
176
     0
 90
        2
176
     1
  1
strokes_ogs.tif
176
     1
290
     0
176
     1
 40
1.0
176
     1
 40
1.0
176
     1
  0
VISUALSTYLE
  5
3B
102
{ACAD_REACTORS
330
29
102
}
330
29
100
AcDbVisualStyle
  2
Sketchy
 70
    24
177
     3
291
     0
 70
    58
 90
        1
176
     1
 90
        2
176
     1
 90
        2
176
     1
 90
        0
176
     1
 40
0.6
176
     1
 40
30.0
176
     1
 62
     7
420
 16777215
176
     1
 90
        2
176
     1
 90
        2
176
     1
 62
     7
176
     1
 62
     7
176
     1
 90
        1
176
     1
 90
        1
176
     1
 40
40.0
176
     1
 90
       11
176
     1
 62
     7
176
     1
 40
1.0
176
     1
 90
        1
176
     1
 90
        6
176
     1
 90
        2
176
     1
 62
     7
176
     1
 90
        6
176
     1
 90
        0
176
     1
 90
        0
176
     1
290
     0
176
     1
 90
        1
176
     1
 40
0.0
176
     1
 90
        0
176
     1
290
     0
176
     1
290
     1
176
     1
290
     1
176
     1
290
     0
176
     1
290
     0
176
     1
290
     0
176
     1
290
     0
176
     1
290
     0
176
     1
290
     0
176
     1
 90
       50
176
     1
 40
0.0
176
     1
 40
1.0
176
     1
 90
        0
176
     1
 62
    18
420
        0
176
     1
 90
       50
176
     1
 90
        3
176
     1
 62
     5
420
      255
176
     1
290
     0
176
     1
 90
       50
176
     1
 90
       50
176
     1
 90
       50
176
     1
290
     0
176
     1
 90
       50
176
     1
 62
   256
176
     0
 40
1.0
176
     0
 90
        2
176
     1
  1
strokes_ogs.tif
176
     1
290
     0
176
     1
 40
1.0
176
     1
 40
1.0
176
     1
  0
VISUALSTYLE
  5
36
102
{ACAD_REACTORS
330
29
102
}
330
29
100
AcDbVisualStyle
  2
Thicken
 70
    13
177
     3
291
     1
 70
    58
 90
        2
176
     1
 90
        2
176
     1
 90
        0
176
     1
 90
        0
176
     1
 40
0.6
176
     1
 40
30.0
176
     1
 62
     7
420
 16777215
176
     1
 90
        1
176
     1
 90
        4
176
     1
 62
     7
176
     1
 62
   257
176
     1
 90
        1
176
     1
 90
        1
176
     1
 40
1.0
176
     1
 90
       12
176
     1
 62
     7
176
     1
 40
1.0
176
     1
 90
        1
176
     1
 90
        6
176
     1
 90
        2
176
     1
 62
     7
176
     1
 90
        5
176
     1
 90
        0
176
     1
 90
        0
176
     1
290
     0
176
     1
 90
        1
176
     1
 40
0.0
176
     1
 90
        0
176
     1
290
     0
176
     1
290
     1
176
     1
290
     1
176
     1
290
     0
176
     1
290
     0
176
     1
290
     0
176
     1
290
     0
176
     1
290
     0
176
     1
290
     0
176
     1
 90
       50
176
     1
 40
0.0
176
     1
 40
1.0
176
     1
 90
        0
176
     1
 62
    18
420
        0
176
     1
 90
       50
176
     1
 90
        3
176
     1
 62
     5
420
      255
176
     1
290
     0
176
     1
 90
       50
176
     1
 90
       50
176
     1
 90
       50
176
     1
290
     0
176
     1
 90
       50
176
     1
 62
   256
176
     0
 40
1.0
176
     0
 90
        2
176
     1
  1
strokes_ogs.tif
176
     1
290
     0
176
     1
 40
1.0
176
     1
 40
1.0
176
     1
  0
VISUALSTYLE
  5
30
102
{ACAD_REACTORS
330
29
102
}
330
29
100
AcDbVisualStyle
  2
Wireframe
 70
     5
177
     3
291
     0
 70
    58
 90
        0
176
     1
 90
        2
176
     1
 90
        0
176
     1
 90
        0
176
     1
 40
0.6
176
     1
 40
30.0
176
     1
 62
     7
420
 16777215
176
     1
 90
        1
176
     1
 90
        4
176
     1
 62
     7
176
     1
 62
   257
176
     1
 90
        1
176
     1
 90
        1
176
     1
 40
1.0
176
     1
 90
        0
176
     1
 62
   257
176
     1
 40
1.0
176
     1
 90
        1
176
     1
 90
        6
176
     1
 90
        2
176
     1
 62
     7
176
     1
 90
        3
176
     1
 90
        0
176
     1
 90
        0
176
     1
290
     0
176
     1
 90
        1
176
     1
 40
0.0
176
     1
 90
        0
176
     1
290
     0
176
     1
290
     1
176
     1
290
     1
176
     1
290
     0
176
     1
290
     0
176
     1
290
     0
176
     1
290
     0
176
     1
290
     0
176
     1
290
     0
176
     1
 90
       50
176
     1
 40
0.0
176
     1
 40
1.0
176
     1
 90
        0
176
     1
 62
    18
420
        0
176
     1
 90
       50
176
     1
 90
        3
176
     1
 62
     5
420
      255
176
     1
290
     0
176
     1
 90
       50
176
     1
 90
       50
176
     1
 90
       50
176
     1
290
     0
176
     1
 90
       50
176
     1
 62
   256
176
     0
 40
1.0
176
     0
 90
        2
176
     1
  1
strokes_ogs.tif
176
     1
290
     0
176
     1
 40
1.0
176
     1
 40
1.0
176
     1
  0
VISUALSTYLE
  5
3C
102
{ACAD_REACTORS
330
29
102
}
330
29
100
AcDbVisualStyle
  2
X-Ray
 70
    25
177
     3
291
     0
 70
    58
 90
        2
176
     1
 90
        2
176
     1
 90
        1
176
     1
 90
        1
176
     1
 40
0.5
176
     1
 40
30.0
176
     1
 62
     7
420
 16777215
176
     1
 90
        1
176
     1
 90
        0
176
     1
 62
     7
176
     1
 62
   257
176
     1
 90
        1
176
     1
 90
        1
176
     1
 40
1.0
176
     1
 90
        8
176
     1
 62
     7
176
     1
 40
1.0
176
     1
 90
        1
176
     1
 90
        6
176
     1
 90
        2
176
     1
 62
     7
176
     1
 90
        3
176
     1
 90
        0
176
     1
 90
        0
176
     1
290
     0
176
     1
 90
       13
176
     1
 40
0.0
176
     1
 90
        0
176
     1
290
     0
176
     1
290
     1
176
     1
290
     1
176
     1
290
     0
176
     1
290
     0
176
     1
290
     0
176
     1
290
     0
176
     1
290
     0
176
     1
290
     0
176
     1
 90
       50
176
     1
 40
0.0
176
     1
 40
1.0
176
     1
 90
        0
176
     1
 62
    18
420
        0
176
     1
 90
       50
176
     1
 90
        3
176
     1
 62
     5
420
      255
176
     1
290
     0
176
     1
 90
       50
176
     1
 90
       50
176
     1
 90
       50
176
     1
290
     0
176
     1
 90
       50
176
     1
 62
   256
176
     0
 40
1.0
176
     0
 90
        2
176
     1
  1
strokes_ogs.tif
176
     1
290
     0
176
     1
 40
1.0
176
     1
 40
1.0
176
     1
  0
DICTIONARYVAR
  5
679
102
{ACAD_REACTORS
330
673
102
}
330
673
100
DictionaryVariables
280
     0
  1
1:1
  0
DICTIONARYVAR
  5
675
102
{ACAD_REACTORS
330
673
102
}
330
673
100
DictionaryVariables
280
     0
  1
STANDARD
  0
DICTIONARYVAR
  5
674
102
{ACAD_REACTORS
330
673
102
}
330
673
100
DictionaryVariables
280
     0
  1
STANDARD
  0
DICTIONARYVAR
  5
676
102
{ACAD_REACTORS
330
673
102
}
330
673
100
DictionaryVariables
280
     0
  1
Imperial24
  0
DICTIONARYVAR
  5
677
102
{ACAD_REACTORS
330
673
102
}
330
673
100
DictionaryVariables
280
     0
  1
Imperial24
  0
DICTIONARYVAR
  5
67B
102
{ACAD_REACTORS
330
673
102
}
330
673
100
DictionaryVariables
280
     0
  1
1
  0
DICTIONARYVAR
  5
67C
102
{ACAD_REACTORS
330
673
102
}
330
673
100
DictionaryVariables
280
     0
  1
15
  0
DICTIONARYVAR
  5
67A
102
{ACAD_REACTORS
330
673
102
}
330
673
100
DictionaryVariables
280
     0
  1
0
  0
DICTIONARYVAR
  5
678
102
{ACAD_REACTORS
330
673
102
}
330
673
100
DictionaryVariables
280
     0
  1
0
  0
DICTIONARY
  5
1A
330
19
100
AcDbDictionary
280
     1
281
     1
  3
BUMPTILE
360
1C
  3
DIFFUSETILE
360
1B
  3
OPACITYTILE
360
1F
  3
REFLECTIONTILE
360
1E
  3
REFRACTIONTILE
360
20
  3
SPECULARTILE
360
1D
  0
DICTIONARY
  5
12
330
11
100
AcDbDictionary
280
     1
281
     1
  3
BUMPTILE
360
14
  3
DIFFUSETILE
360
13
  3
OPACITYTILE
360
17
  3
REFLECTIONTILE
360
16
  3
REFRACTIONTILE
360
18
  3
SPECULARTILE
360
15
  0
DICTIONARY
  5
22
330
21
100
AcDbDictionary
280
     1
281
     1
  3
BUMPTILE
360
24
  3
DIFFUSETILE
360
23
  3
OPACITYTILE
360
27
  3
REFLECTIONTILE
360
26
  3
REFRACTIONTILE
360
28
  3
SPECULARTILE
360
25
  0
DICTIONARY
  5
67E
330
64
100
AcDbDictionary
280
     1
281
     1
  3
ACAD_ROUNDTRIP_2008_TABLESTYLE_CELLSTYLEMAP
360
67F
  0
XRECORD
  5
1C
102
{ACAD_REACTORS
330
1A
102
}
330
1A
100
AcDbXrecord
280
     1
270
     1
271
     1
  0
XRECORD
  5
1B
102
{ACAD_REACTORS
330
1A
102
}
330
1A
100
AcDbXrecord
280
     1
270
     1
271
     1
  0
XRECORD
  5
1F
102
{ACAD_REACTORS
330
1A
102
}
330
1A
100
AcDbXrecord
280
     1
270
     1
271
     1
  0
XRECORD
  5
1E
102
{ACAD_REACTORS
330
1A
102
}
330
1A
100
AcDbXrecord
280
     1
270
     1
271
     1
  0
XRECORD
  5
20
102
{ACAD_REACTORS
330
1A
102
}
330
1A
100
AcDbXrecord
280
     1
270
     1
271
     1
  0
XRECORD
  5
1D
102
{ACAD_REACTORS
330
1A
102
}
330
1A
100
AcDbXrecord
280
     1
270
     1
271
     1
  0
XRECORD
  5
14
102
{ACAD_REACTORS
330
12
102
}
330
12
100
AcDbXrecord
280
     1
270
     1
271
     1
  0
XRECORD
  5
13
102
{ACAD_REACTORS
330
12
102
}
330
12
100
AcDbXrecord
280
     1
270
     1
271
     1
  0
XRECORD
  5
17
102
{ACAD_REACTORS
330
12
102
}
330
12
100
AcDbXrecord
280
     1
270
     1
271
     1
  0
XRECORD
  5
16
102
{ACAD_REACTORS
330
12
102
}
330
12
100
AcDbXrecord
280
     1
270
     1
271
     1
  0
XRECORD
  5
18
102
{ACAD_REACTORS
330
12
102
}
330
12
100
AcDbXrecord
280
     1
270
     1
271
     1
  0
XRECORD
  5
15
102
{ACAD_REACTORS
330
12
102
}
330
12
100
AcDbXrecord
280
     1
270
     1
271
     1
  0
XRECORD
  5
24
102
{ACAD_REACTORS
330
22
102
}
330
22
100
AcDbXrecord
280
     1
270
     1
271
     1
  0
XRECORD
  5
23
102
{ACAD_REACTORS
330
22
102
}
330
22
100
AcDbXrecord
280
     1
270
     1
271
     1
  0
XRECORD
  5
27
102
{ACAD_REACTORS
330
22
102
}
330
22
100
AcDbXrecord
280
     1
270
     1
271
     1
  0
XRECORD
  5
26
102
{ACAD_REACTORS
330
22
102
}
330
22
100
AcDbXrecord
280
     1
270
     1
271
     1
  0
XRECORD
  5
28
102
{ACAD_REACTORS
330
22
102
}
330
22
100
AcDbXrecord
280
     1
270
     1
271
     1
  0
XRECORD
  5
25
102
{ACAD_REACTORS
330
22
102
}
330
22
100
AcDbXrecord
280
     1
270
     1
271
     1
  0
CELLSTYLEMAP
  5
67F
102
{ACAD_REACTORS
330
67E
102
}
330
67E
100
AcDbCellStyleMap
 90
        3
300
CELLSTYLE
  1
TABLEFORMAT_BEGIN
 90
        5
170
     1
 91
        0
 92
    32768
 62
   257
 93
        1
300
CONTENTFORMAT
  1
CONTENTFORMAT_BEGIN
 90
        0
 91
        0
 92
      512
 93
        0
300

 40
0.0
140
1.0
 94
        5
 62
     0
340
55
144
0.25
309
CONTENTFORMAT_END
171
     0
 94
        0
309
TABLEFORMAT_END
  1
CELLSTYLE_BEGIN
 90
        1
 91
        1
300
_TITLE
309
CELLSTYLE_END
300
CELLSTYLE
  1
TABLEFORMAT_BEGIN
 90
        5
170
     1
 91
        0
 92
        0
 62
   257
 93
        1
300
CONTENTFORMAT
  1
CONTENTFORMAT_BEGIN
 90
        0
 91
        0
 92
      512
 93
        0
300

 40
0.0
140
1.0
 94
        5
 62
     0
340
55
144
0.18
309
CONTENTFORMAT_END
171
     0
 94
        0
309
TABLEFORMAT_END
  1
CELLSTYLE_BEGIN
 90
        2
 91
        1
300
_HEADER
309
CELLSTYLE_END
300
CELLSTYLE
  1
TABLEFORMAT_BEGIN
 90
        5
170
     1
 91
        0
 92
        0
 62
   257
 93
        1
300
CONTENTFORMAT
  1
CONTENTFORMAT_BEGIN
 90
        0
 91
        0
 92
      512
 93
        0
300

 40
0.0
140
1.0
 94
        2
 62
     0
340
55
144
0.18
309
CONTENTFORMAT_END
171
     0
 94
        0
309
TABLEFORMAT_END
  1
CELLSTYLE_BEGIN
 90
        3
 91
        2
300
_DATA
309
CELLSTYLE_END
  0
ENDSEC
  0
SECTION
  2
ACDSDATA
 70
     2
 71
     8
  0
ACDSSCHEMA
 90
        0
  1
AcDb_Thumbnail_Schema
  2
AcDbDs::ID
280
    10
 91
        8
  2
Thumbnail_Data
280
    15
 91
        0
101
ACDSRECORD
 95
        0
 90
        1
  2
AcDbDs::TreatedAsObjectData
280
     1
291
     1
101
ACDSRECORD
 95
        0
 90
        2
  2
AcDbDs::Legacy
280
     1
291
     1
101
ACDSRECORD
  1
AcDbDs::ID
 90
        3
  2
AcDs:Indexable
280
     1
291
     1
101
ACDSRECORD
  1
AcDbDs::ID
 90
        4
  2
AcDbDs::HandleAttribute
280
     7
282
     1
  0
ACDSSCHEMA
 90
        1
  1
AcDbDs::TreatedAsObjectDataSchema
  2
AcDbDs::TreatedAsObjectData
280
     1
 91
        0
  0
ACDSSCHEMA
 90
        2
  1
AcDbDs::LegacySchema
  2
AcDbDs::Legacy
280
     1
 91
        0
  0
ACDSSCHEMA
 90
        3
  1
AcDbDs::IndexedPropertySchema
  2
AcDs:Indexable
280
     1
 91
        0
  0
ACDSSCHEMA
 90
        4
  1
AcDbDs::HandleAttributeSchema
  2
AcDbDs::HandleAttribute
280
     7
 91
        1
284
     1
  0
ACDSRECORD
 90
        0
  2
AcDbDs::ID
280
    10
320
72
  2
Thumbnail_Data
280
    15
 94
     1409
310
89504E470D0A1A0A0000000D4948445200000100000000C4080300000047A20F4200000300504C5445212830FFFFFF2128300000000000000000000000000000000000000000000000000000330000660000990000CC0000FF0033000033330033660033990033CC0033FF0066000066330066660066990066CC0066FF0099
310
000099330099660099990099CC0099FF00CC0000CC3300CC6600CC9900CCCC00CCFF00FF0000FF3300FF6600FF9900FFCC00FFFF3300003300333300663300993300CC3300FF3333003333333333663333993333CC3333FF3366003366333366663366993366CC3366FF3399003399333399663399993399CC3399FF33CC00
310
33CC3333CC6633CC9933CCCC33CCFF33FF0033FF3333FF6633FF9933FFCC33FFFF6600006600336600666600996600CC6600FF6633006633336633666633996633CC6633FF6666006666336666666666996666CC6666FF6699006699336699666699996699CC6699FF66CC0066CC3366CC6666CC9966CCCC66CCFF66FF0066
310
FF3366FF6666FF9966FFCC66FFFF9900009900339900669900999900CC9900FF9933009933339933669933999933CC9933FF9966009966339966669966999966CC9966FF9999009999339999669999999999CC9999FF99CC0099CC3399CC6699CC9999CCCC99CCFF99FF0099FF3399FF6699FF9999FFCC99FFFFCC0000CC00
310
33CC0066CC0099CC00CCCC00FFCC3300CC3333CC3366CC3399CC33CCCC33FFCC6600CC6633CC6666CC6699CC66CCCC66FFCC9900CC9933CC9966CC9999CC99CCCC99FFCCCC00CCCC33CCCC66CCCC99CCCCCCCCCCFFCCFF00CCFF33CCFF66CCFF99CCFFCCCCFFFFFF0000FF0033FF0066FF0099FF00CCFF00FFFF3300FF3333
310
FF3366FF3399FF33CCFF33FFFF6600FF6633FF6666FF6699FF66CCFF66FFFF9900FF9933FF9966FF9999FF99CCFF99FFFFCC00FFCC33FFCC66FFCC99FFCCCCFFCCFFFFFF00FFFF33FFFF66FFFF99FFFFCCFFFFFF0000000D0D0D1A1A1A2828283535354343435050505D5D5D6B6B6B787878868686939393A1A1A1AEAEAEBB
310
BBBBC9C9C9D6D6D6E4E4E4F1F1F1FFFFFF0000000000000000000000000000000000000000000000000000000000002E4550F10000023C4944415478DAEDD9416E25210C8461DFFF5075B62C1E60BBE93C659195EBFF341ACD44D9500DC640040000000000000000000000000000000000F827B20F40EE13404C000260FC04
310
E03A78EF12A84F04DE3BA0BCD73F01500264FCF5CD0308022000022000DB00F616E01A408E5EB601AC36D0740AEC006CD7C0FAF62200D735B027BFE995901E1340860BE0650D186D887BFFAFFB805535D4B50A3E5FDF7B0A9805F09802664540CA29F0B91A5B3F34FAFE6D0AC8AD212807C19A825709C887C11387513FD4BB
310
C01D42F84D01B5CFEFD411971BA1F344EA5403D60ED83A01A35EB817C0F5E9CDCE02E74E50BD25304B20DA71C06D0EEC05B056C0FE635506EA99706D0B3EFB407B1C3AFF94DF0A2847429F22A096C08EC02780731550AAA0F2A1C4A711CE43B03E5C7A81AC80EBAF732D5EFF3BFC28A8721550AFC51C0A41DE05DE7B804300
310
F5FC575B41D95C0DB68B8033EE734E9E3F03FAF16F55C49584C15B69B908574690194CAF0175D4B90DEAB94D9C5FD6B8EF5FBADF5DF9EAE7CF9F9CDF9E75467ABE889D09D1C69F1DD1BC45A1DE08C6FD2AA4B86E4634B1065C27813603CEFEA859CD71D6803C11E5EBF073B0F336049537A1DE06D7E53F3880721D5E77C06B
310
054C0E209E255077091C1C403E06478D205E27C0CCAEB8BE8194BB90B7F14F3D16285E76C0D71D7FEAB120CBFFD712383880D2003E46AC70082023B8BAC03009A0465043089F00FA04F8E5CC33FE72E8DA065F4E4EE37D2901000000000000000000000000000000000000000000000000000000F8AB1FE3F409FE28D40D09
310
0000000049454E44AE426082
  0
ENDSEC
  0
EOF
