999
"DXF R12 Output" (www.mydxf.blogspot.com)
 0 
SECTION
 2 
HEADER
 9 
$ACADVER
 1 
AC1009
 9 
$EXTMIN
 10 
 0 
 20 
 0 
 9 
$EXTMAX
 10 
 8.5 
 20 
 11 
 0 
ENDSEC
 0 
SECTION
 2 
ENTITIES
0
LINE
8
Layer 1
10
672.935000
20
542.051000
11
798.174000
21
459.496000
0
LINE
8
Layer 1
10
1006.890000
20
321.907000
11
1097.760000
21
262.014000
0
LINE
8
Layer 1
10
1097.760000
20
262.014000
11
1133.030000
21
240.700000
0
LINE
8
Layer 1
10
3175.700000
20
688.815000
11
2969.710000
21
830.481000
0
LINE
8
Layer 1
10
7778.350000
20
7671.520000
11
7860.900000
21
7796.770000
0
LINE
8
Layer 1
10
7998.490000
20
8005.500000
11
8081.040000
21
8130.740000
0
LINE
8
Layer 1
10
8070.490000
20
7658.620000
11
7999.490000
21
7652.790000
0
LINE
8
Layer 1
10
7999.490000
20
7652.790000
11
7946.180000
21
7560.890000
0
LINE
8
Layer 1
10
8248.880000
20
8020.110000
11
8227.180000
21
7907.370000
0
LINE
8
Layer 1
10
8227.180000
20
7907.370000
11
8208.070000
21
7867.350000
0
LINE
8
Layer 1
10
562.868000
20
375.065000
11
627.247000
21
280.009000
0
LINE
8
Layer 1
10
936.847000
20
135.802000
11
814.279000
21
29.679400
0
LINE
8
Layer 1
10
627.247000
20
280.009000
11
605.554000
21
167.263000
0
LINE
8
Layer 1
10
8131.240000
20
7576.620000
11
7999.490000
21
7652.790000
0
LINE
8
Layer 1
10
8112.850000
20
7561.930000
11
7999.490000
21
7652.790000
0
LINE
8
Layer 1
10
8092.390000
20
7550.310000
11
7999.490000
21
7652.790000
0
LINE
8
Layer 1
10
8070.360000
20
7542.020000
11
7999.490000
21
7652.790000
0
LINE
8
Layer 1
10
8047.300000
20
7537.280000
11
7999.490000
21
7652.790000
0
LINE
8
Layer 1
10
8023.790000
20
7536.210000
11
7999.490000
21
7652.790000
0
LINE
8
Layer 1
10
8000.390000
20
7538.830000
11
7999.490000
21
7652.790000
0
LINE
8
Layer 1
10
8227.180000
20
7907.370000
11
8297.650000
21
7822.390000
0
LINE
8
Layer 1
10
7988.920000
20
7541.510000
11
7999.490000
21
7652.790000
0
LINE
8
Layer 1
10
7956.260000
20
7554.800000
11
7999.490000
21
7652.790000
0
LINE
8
Layer 1
10
8227.180000
20
7907.370000
11
8307.370000
21
7843.830000
0
LINE
8
Layer 1
10
8275.830000
20
7997.370000
11
8227.180000
21
7907.370000
0
LINE
8
Layer 1
10
8290.520000
20
7978.980000
11
8227.180000
21
7907.370000
0
LINE
8
Layer 1
10
8227.180000
20
7907.370000
11
8315.390000
21
7878.160000
0
LINE
8
Layer 1
10
8302.150000
20
7958.520000
11
8227.180000
21
7907.370000
0
LINE
8
Layer 1
10
8227.180000
20
7907.370000
11
8316.170000
21
7901.690000
0
LINE
8
Layer 1
10
8227.180000
20
7907.370000
11
8315.170000
21
7913.430000
0
LINE
8
Layer 1
10
1784.140000
20
272.166000
11
1756.300000
21
23.718900
0
LINE
8
Layer 1
10
1873.770000
20
15.210600
11
1882.030000
21
265.075000
0
LINE
8
Layer 1
10
1991.550000
20
15.945300
11
1980.180000
21
265.685000
0
LINE
8
Layer 1
10
1687.100000
20
286.914000
11
1639.860000
21
41.418600
0
LINE
8
Layer 1
10
2108.910000
20
25.917700
11
2077.980000
21
273.996000
0
LINE
8
Layer 1
10
2225.120000
20
45.066000
11
2174.820000
21
289.953000
0
LINE
8
Layer 1
10
2339.470000
20
73.274100
11
2270.110000
21
313.461000
0
LINE
8
Layer 1
10
2451.260000
20
110.366000
11
2363.270000
21
344.372000
0
LINE
8
Layer 1
10
2559.790000
20
156.115000
11
2453.710000
21
382.495000
0
LINE
8
Layer 1
10
2664.400000
20
210.238000
11
2540.890000
21
427.599000
0
LINE
8
Layer 1
10
2624.250000
20
479.402000
11
2764.440000
21
272.403000
0
LINE
8
Layer 1
10
2859.290000
20
342.223000
11
2703.300000
21
537.589000
0
LINE
8
Layer 1
10
2948.370000
20
419.271000
11
2777.530000
21
601.794000
0
LINE
8
Layer 1
10
3031.140000
20
503.071000
11
2846.500000
21
671.627000
0
LINE
8
Layer 1
10
3107.070000
20
593.104000
11
2909.780000
21
746.656000
0
LINE
8
Layer 1
10
1591.520000
20
309.231000
11
1525.170000
21
68.199700
0
LINE
8
Layer 1
10
1407.080000
20
375.970000
11
1303.830000
21
148.288000
0
LINE
8
Layer 1
10
1412.920000
20
103.895000
11
1497.990000
21
338.977000
0
LINE
8
Layer 1
10
1319.350000
20
419.984000
11
1198.560000
21
201.103000
0
LINE
8
Layer 1
10
1097.760000
20
262.014000
11
1231.220000
21
473.404000
0
LINE
8
Layer 1
10
627.247000
20
280.009000
11
660.585000
21
250.766000
0
LINE
8
Layer 1
10
8258.450000
20
8013.240000
11
8227.180000
21
7907.370000
0
LINE
8
Layer 1
10
8267.450000
20
8005.650000
11
8227.180000
21
7907.370000
0
LINE
8
Layer 1
10
869.304000
20
113.178000
11
936.847000
21
135.802000
0
LINE
8
Layer 1
10
936.847000
20
135.802000
11
1022.070000
21
72.364200
0
LINE
8
Layer 1
10
8147.110000
20
7594.010000
11
7999.490000
21
7652.790000
0
LINE
8
Layer 1
10
7999.490000
20
7652.790000
11
8153.980000
21
7603.580000
0
LINE
8
Layer 1
10
8227.180000
20
7907.370000
11
8291.560000
21
7812.310000
0
LINE
8
Layer 1
10
8139.520000
20
7585.000000
11
7999.490000
21
7652.790000
0
LINE
8
Layer 1
10
8122.340000
20
7568.920000
11
7999.490000
21
7652.790000
0
LINE
8
Layer 1
10
8102.850000
20
7555.720000
11
7999.490000
21
7652.790000
0
LINE
8
Layer 1
10
8081.530000
20
7545.730000
11
7999.490000
21
7652.790000
0
LINE
8
Layer 1
10
8058.920000
20
7539.200000
11
7999.490000
21
7652.790000
0
LINE
8
Layer 1
10
8035.560000
20
7536.290000
11
7999.490000
21
7652.790000
0
LINE
8
Layer 1
10
8012.040000
20
7537.060000
11
7999.490000
21
7652.790000
0
LINE
8
Layer 1
10
7977.700000
20
7545.080000
11
7999.490000
21
7652.790000
0
LINE
8
Layer 1
10
8227.180000
20
7907.370000
11
8302.930000
21
7832.920000
0
LINE
8
Layer 1
10
7966.790000
20
7549.520000
11
7999.490000
21
7652.790000
0
LINE
8
Layer 1
10
8283.540000
20
7988.470000
11
8227.180000
21
7907.370000
0
LINE
8
Layer 1
10
8227.180000
20
7907.370000
11
8310.940000
21
7855.050000
0
LINE
8
Layer 1
10
8227.180000
20
7907.370000
11
8313.620000
21
7866.520000
0
LINE
8
Layer 1
10
8296.730000
20
7968.980000
11
8227.180000
21
7907.370000
0
LINE
8
Layer 1
10
8227.180000
20
7907.370000
11
8316.240000
21
7889.910000
0
LINE
8
Layer 1
10
8306.720000
20
7947.660000
11
8227.180000
21
7907.370000
0
LINE
8
Layer 1
10
8310.430000
20
7936.490000
11
8227.180000
21
7907.370000
0
LINE
8
Layer 1
10
8227.180000
20
7907.370000
11
8313.250000
21
7925.050000
0
LINE
8
Layer 1
10
595.983000
20
174.127000
11
586.979000
21
181.719000
0
LINE
8
Layer 1
10
586.979000
20
181.719000
11
578.599000
21
189.996000
0
LINE
8
Layer 1
10
578.599000
20
189.996000
11
570.892000
21
198.903000
0
LINE
8
Layer 1
10
570.892000
20
198.903000
11
563.909000
21
208.390000
0
LINE
8
Layer 1
10
563.909000
20
208.390000
11
557.692000
21
218.395000
0
LINE
8
Layer 1
10
557.692000
20
218.395000
11
552.279000
21
228.856000
0
LINE
8
Layer 1
10
552.279000
20
228.856000
11
547.703000
21
239.709000
0
LINE
8
Layer 1
10
547.703000
20
239.709000
11
543.993000
21
250.890000
0
LINE
8
Layer 1
10
543.993000
20
250.890000
11
541.172000
21
262.327000
0
LINE
8
Layer 1
10
541.172000
20
262.327000
11
539.260000
21
273.948000
0
LINE
8
Layer 1
10
539.260000
20
273.948000
11
538.263000
21
285.684000
0
LINE
8
Layer 1
10
538.263000
20
285.684000
11
538.189000
21
297.463000
0
LINE
8
Layer 1
10
538.189000
20
297.463000
11
539.039000
21
309.211000
0
LINE
8
Layer 1
10
539.039000
20
309.211000
11
540.810000
21
320.855000
0
LINE
8
Layer 1
10
540.810000
20
320.855000
11
543.487000
21
332.323000
0
LINE
8
Layer 1
10
543.487000
20
332.323000
11
547.057000
21
343.548000
0
LINE
8
Layer 1
10
547.057000
20
343.548000
11
551.496000
21
354.458000
0
LINE
8
Layer 1
10
551.496000
20
354.458000
11
556.777000
21
364.984000
0
LINE
8
Layer 1
10
556.777000
20
364.984000
11
562.868000
21
375.065000
0
LINE
8
Layer 1
10
562.868000
20
375.065000
11
672.935000
21
542.051000
0
LINE
8
Layer 1
10
672.935000
20
542.051000
11
5.000000
21
982.344000
0
LINE
8
Layer 1
10
5.000000
20
982.344000
11
142.591000
21
1191.070000
0
LINE
8
Layer 1
10
142.591000
20
1191.070000
11
1231.220000
21
473.404000
0
LINE
8
Layer 1
10
1231.220000
20
473.404000
11
1319.350000
21
419.984000
0
LINE
8
Layer 1
10
1319.350000
20
419.984000
11
1407.080000
21
375.970000
0
LINE
8
Layer 1
10
1407.080000
20
375.970000
11
1497.990000
21
338.977000
0
LINE
8
Layer 1
10
1497.990000
20
338.977000
11
1591.520000
21
309.231000
0
LINE
8
Layer 1
10
1591.520000
20
309.231000
11
1687.100000
21
286.914000
0
LINE
8
Layer 1
10
1687.100000
20
286.914000
11
1784.140000
21
272.166000
0
LINE
8
Layer 1
10
1784.140000
20
272.166000
11
1882.030000
21
265.075000
0
LINE
8
Layer 1
10
1882.030000
20
265.075000
11
1980.180000
21
265.685000
0
LINE
8
Layer 1
10
1980.180000
20
265.685000
11
2077.980000
21
273.996000
0
LINE
8
Layer 1
10
2077.980000
20
273.996000
11
2174.820000
21
289.953000
0
LINE
8
Layer 1
10
2174.820000
20
289.953000
11
2270.110000
21
313.461000
0
LINE
8
Layer 1
10
2270.110000
20
313.461000
11
2363.270000
21
344.372000
0
LINE
8
Layer 1
10
2363.270000
20
344.372000
11
2453.710000
21
382.495000
0
LINE
8
Layer 1
10
2453.710000
20
382.495000
11
2540.890000
21
427.599000
0
LINE
8
Layer 1
10
2540.890000
20
427.599000
11
2624.250000
21
479.402000
0
LINE
8
Layer 1
10
2624.250000
20
479.402000
11
2703.300000
21
537.589000
0
LINE
8
Layer 1
10
2703.300000
20
537.589000
11
2777.530000
21
601.794000
0
LINE
8
Layer 1
10
2777.530000
20
601.794000
11
2846.500000
21
671.627000
0
LINE
8
Layer 1
10
2846.500000
20
671.627000
11
2909.780000
21
746.656000
0
LINE
8
Layer 1
10
2909.780000
20
746.656000
11
2969.710000
21
830.481000
0
LINE
8
Layer 1
10
2969.710000
20
830.481000
11
7903.880000
21
8316.240000
0
LINE
8
Layer 1
10
7903.880000
20
8316.240000
11
8112.620000
21
8178.650000
0
LINE
8
Layer 1
10
8112.620000
20
8178.650000
11
8081.040000
21
8130.740000
0
LINE
8
Layer 1
10
8081.040000
20
8130.740000
11
8248.880000
21
8020.110000
0
LINE
8
Layer 1
10
8248.880000
20
8020.110000
11
8258.450000
21
8013.240000
0
LINE
8
Layer 1
10
8258.450000
20
8013.240000
11
8267.450000
21
8005.650000
0
LINE
8
Layer 1
10
8267.450000
20
8005.650000
11
8275.830000
21
7997.370000
0
LINE
8
Layer 1
10
8275.830000
20
7997.370000
11
8283.540000
21
7988.470000
0
LINE
8
Layer 1
10
8283.540000
20
7988.470000
11
8290.520000
21
7978.980000
0
LINE
8
Layer 1
10
8290.520000
20
7978.980000
11
8296.730000
21
7968.980000
0
LINE
8
Layer 1
10
8296.730000
20
7968.980000
11
8302.150000
21
7958.520000
0
LINE
8
Layer 1
10
8302.150000
20
7958.520000
11
8306.720000
21
7947.660000
0
LINE
8
Layer 1
10
8306.720000
20
7947.660000
11
8310.430000
21
7936.490000
0
LINE
8
Layer 1
10
8310.430000
20
7936.490000
11
8313.250000
21
7925.050000
0
LINE
8
Layer 1
10
8313.250000
20
7925.050000
11
8315.170000
21
7913.430000
0
LINE
8
Layer 1
10
8315.170000
20
7913.430000
11
8316.170000
21
7901.690000
0
LINE
8
Layer 1
10
8316.170000
20
7901.690000
11
8316.240000
21
7889.910000
0
LINE
8
Layer 1
10
8316.240000
20
7889.910000
11
8315.390000
21
7878.160000
0
LINE
8
Layer 1
10
8315.390000
20
7878.160000
11
8313.620000
21
7866.520000
0
LINE
8
Layer 1
10
8313.620000
20
7866.520000
11
8310.940000
21
7855.050000
0
LINE
8
Layer 1
10
8310.940000
20
7855.050000
11
8307.370000
21
7843.830000
0
LINE
8
Layer 1
10
8307.370000
20
7843.830000
11
8302.930000
21
7832.920000
0
LINE
8
Layer 1
10
8302.930000
20
7832.920000
11
8297.650000
21
7822.390000
0
LINE
8
Layer 1
10
8297.650000
20
7822.390000
11
8291.560000
21
7812.310000
0
LINE
8
Layer 1
10
8291.560000
20
7812.310000
11
8153.980000
21
7603.580000
0
LINE
8
Layer 1
10
8153.980000
20
7603.580000
11
8147.110000
21
7594.010000
0
LINE
8
Layer 1
10
8147.110000
20
7594.010000
11
8139.520000
21
7585.000000
0
LINE
8
Layer 1
10
8139.520000
20
7585.000000
11
8131.240000
21
7576.620000
0
LINE
8
Layer 1
10
8131.240000
20
7576.620000
11
8122.340000
21
7568.920000
0
LINE
8
Layer 1
10
8122.340000
20
7568.920000
11
8112.850000
21
7561.930000
0
LINE
8
Layer 1
10
8112.850000
20
7561.930000
11
8102.850000
21
7555.720000
0
LINE
8
Layer 1
10
8102.850000
20
7555.720000
11
8092.390000
21
7550.310000
0
LINE
8
Layer 1
10
8092.390000
20
7550.310000
11
8081.530000
21
7545.730000
0
LINE
8
Layer 1
10
8081.530000
20
7545.730000
11
8070.360000
21
7542.020000
0
LINE
8
Layer 1
10
8070.360000
20
7542.020000
11
8058.920000
21
7539.200000
0
LINE
8
Layer 1
10
8058.920000
20
7539.200000
11
8047.300000
21
7537.280000
0
LINE
8
Layer 1
10
8047.300000
20
7537.280000
11
8035.560000
21
7536.290000
0
LINE
8
Layer 1
10
8035.560000
20
7536.290000
11
8023.790000
21
7536.210000
0
LINE
8
Layer 1
10
8023.790000
20
7536.210000
11
8012.040000
21
7537.060000
0
LINE
8
Layer 1
10
8012.040000
20
7537.060000
11
8000.390000
21
7538.830000
0
LINE
8
Layer 1
10
8000.390000
20
7538.830000
11
7988.920000
21
7541.510000
0
LINE
8
Layer 1
10
7988.920000
20
7541.510000
11
7977.700000
21
7545.080000
0
LINE
8
Layer 1
10
7977.700000
20
7545.080000
11
7966.790000
21
7549.520000
0
LINE
8
Layer 1
10
7966.790000
20
7549.520000
11
7956.260000
21
7554.800000
0
LINE
8
Layer 1
10
7956.260000
20
7554.800000
11
7946.180000
21
7560.890000
0
LINE
8
Layer 1
10
7946.180000
20
7560.890000
11
7778.350000
21
7671.520000
0
LINE
8
Layer 1
10
7778.350000
20
7671.520000
11
3175.700000
21
688.815000
0
LINE
8
Layer 1
10
3175.700000
20
688.815000
11
3107.070000
21
593.104000
0
LINE
8
Layer 1
10
3107.070000
20
593.104000
11
3031.140000
21
503.071000
0
LINE
8
Layer 1
10
3031.140000
20
503.071000
11
2948.370000
21
419.271000
0
LINE
8
Layer 1
10
2948.370000
20
419.271000
11
2859.290000
21
342.223000
0
LINE
8
Layer 1
10
2859.290000
20
342.223000
11
2764.440000
21
272.403000
0
LINE
8
Layer 1
10
2764.440000
20
272.403000
11
2664.400000
21
210.238000
0
LINE
8
Layer 1
10
2664.400000
20
210.238000
11
2559.790000
21
156.115000
0
LINE
8
Layer 1
10
2559.790000
20
156.115000
11
2451.260000
21
110.366000
0
LINE
8
Layer 1
10
2451.260000
20
110.366000
11
2339.470000
21
73.274100
0
LINE
8
Layer 1
10
2339.470000
20
73.274100
11
2225.120000
21
45.066000
0
LINE
8
Layer 1
10
2225.120000
20
45.066000
11
2108.910000
21
25.917700
0
LINE
8
Layer 1
10
2108.910000
20
25.917700
11
1991.550000
21
15.945300
0
LINE
8
Layer 1
10
1991.550000
20
15.945300
11
1873.770000
21
15.210600
0
LINE
8
Layer 1
10
1873.770000
20
15.210600
11
1756.300000
21
23.718900
0
LINE
8
Layer 1
10
1756.300000
20
23.718900
11
1639.860000
21
41.418600
0
LINE
8
Layer 1
10
1639.860000
20
41.418600
11
1525.170000
21
68.199700
0
LINE
8
Layer 1
10
1525.170000
20
68.199700
11
1412.920000
21
103.895000
0
LINE
8
Layer 1
10
1412.920000
20
103.895000
11
1303.830000
21
148.288000
0
LINE
8
Layer 1
10
1303.830000
20
148.288000
11
1198.560000
21
201.103000
0
LINE
8
Layer 1
10
1198.560000
20
201.103000
11
1133.030000
21
240.700000
0
LINE
8
Layer 1
10
1133.030000
20
240.700000
11
1022.070000
21
72.364200
0
LINE
8
Layer 1
10
1022.070000
20
72.364200
11
1015.200000
21
62.792600
0
LINE
8
Layer 1
10
1015.200000
20
62.792600
11
1007.610000
21
53.788500
0
LINE
8
Layer 1
10
1007.610000
20
53.788500
11
999.336000
21
45.409000
0
LINE
8
Layer 1
10
999.336000
20
45.409000
11
990.429000
21
37.703400
0
LINE
8
Layer 1
10
990.429000
20
37.703400
11
980.943000
21
30.720400
0
LINE
8
Layer 1
10
980.943000
20
30.720400
11
970.941000
21
24.505200
0
LINE
8
Layer 1
10
970.941000
20
24.505200
11
960.480000
21
19.091800
0
LINE
8
Layer 1
10
960.480000
20
19.091800
11
949.628000
21
14.517100
0
LINE
8
Layer 1
10
949.628000
20
14.517100
11
938.449000
21
10.807100
0
LINE
8
Layer 1
10
938.449000
20
10.807100
11
927.014000
21
7.986150
0
LINE
8
Layer 1
10
927.014000
20
7.986150
11
915.393000
21
6.071270
0
LINE
8
Layer 1
10
915.393000
20
6.071270
11
903.657000
21
5.074120
0
LINE
8
Layer 1
10
903.657000
20
5.074120
11
891.880000
21
5.000000
0
LINE
8
Layer 1
10
891.880000
20
5.000000
11
880.133000
21
5.850680
0
LINE
8
Layer 1
10
880.133000
20
5.850680
11
868.489000
21
7.619970
0
LINE
8
Layer 1
10
868.489000
20
7.619970
11
857.019000
21
10.297200
0
LINE
8
Layer 1
10
857.019000
20
10.297200
11
845.797000
21
13.868300
0
LINE
8
Layer 1
10
845.797000
20
13.868300
11
834.886000
21
18.306000
0
LINE
8
Layer 1
10
834.886000
20
18.306000
11
824.360000
21
23.588100
0
LINE
8
Layer 1
10
824.360000
20
23.588100
11
814.279000
21
29.679400
0
LINE
8
Layer 1
10
814.279000
20
29.679400
11
605.554000
21
167.263000
0
LINE
8
Layer 1
10
605.554000
20
167.263000
11
595.983000
21
174.127000
0
LINE
8
Layer 1
10
1006.890000
20
321.907000
11
798.174000
21
459.496000
0
LINE
8
Layer 1
10
798.174000
20
459.496000
11
660.585000
21
250.766000
0
LINE
8
Layer 1
10
660.585000
20
250.766000
11
869.304000
21
113.178000
0
LINE
8
Layer 1
10
869.304000
20
113.178000
11
1006.890000
21
321.907000
0
LINE
8
Layer 1
10
7860.900000
20
7796.770000
11
8070.490000
21
7658.620000
0
LINE
8
Layer 1
10
8070.490000
20
7658.620000
11
8208.070000
21
7867.350000
0
LINE
8
Layer 1
10
8208.070000
20
7867.350000
11
7998.490000
21
8005.500000
0
LINE
8
Layer 1
10
7998.490000
20
8005.500000
11
7860.900000
21
7796.770000
 0 
ENDSEC
 0 
EOF