999
"DXF R12 Output" (www.mydxf.blogspot.com)
 0 
SECTION
 2 
HEADER
 9 
$ACADVER
 1 
AC1009
 9 
$EXTMIN
 10 
 0 
 20 
 0 
 9 
$EXTMAX
 10 
 8.5 
 20 
 11 
 0 
ENDSEC
 0 
SECTION
 2 
ENTITIES
0
LINE
8
Layer 1
10
6450.270000
20
112.755000
11
6312.180000
21
321.153000
0
LINE
8
Layer 1
10
6341.560000
20
342.503000
11
6320.930000
21
327.528000
0
LINE
8
Layer 1
10
6491.680000
20
142.597000
11
6341.560000
21
342.503000
0
LINE
8
Layer 1
10
6754.700000
20
665.676000
11
6636.540000
21
573.257000
0
LINE
8
Layer 1
10
6439.640000
20
419.231000
11
6341.560000
21
342.503000
0
LINE
8
Layer 1
10
5773.020000
20
412.088000
11
5579.230000
21
254.138000
0
LINE
8
Layer 1
10
540.847000
20
7088.590000
11
448.317000
21
7206.660000
0
LINE
8
Layer 1
10
294.115000
20
7403.430000
11
201.590000
21
7521.500000
0
LINE
8
Layer 1
10
6482.510000
20
770.191000
11
6551.660000
21
753.102000
0
LINE
8
Layer 1
10
6254.740000
20
584.336000
11
6285.600000
21
616.179000
0
LINE
8
Layer 1
10
368.560000
20
7651.750000
11
459.017000
21
7588.470000
0
LINE
8
Layer 1
10
6254.740000
20
584.336000
11
6224.000000
21
694.947000
0
LINE
8
Layer 1
10
730.709000
20
7413.000000
11
628.070000
21
7291.700000
0
LINE
8
Layer 1
10
742.150000
20
7392.430000
11
628.070000
21
7291.700000
0
LINE
8
Layer 1
10
750.232000
20
7370.320000
11
628.070000
21
7291.700000
0
LINE
8
Layer 1
10
755.648000
20
7335.480000
11
628.070000
21
7291.700000
0
LINE
8
Layer 1
10
752.780000
20
7300.330000
11
628.070000
21
7291.700000
0
LINE
8
Layer 1
10
741.786000
20
7266.830000
11
628.070000
21
7291.700000
0
LINE
8
Layer 1
10
459.017000
20
7588.470000
11
553.681000
21
7636.650000
0
LINE
8
Layer 1
10
715.600000
20
7227.880000
11
628.070000
21
7291.700000
0
LINE
8
Layer 1
10
389.130000
20
7663.190000
11
459.017000
21
7588.470000
0
LINE
8
Layer 1
10
400.024000
20
7667.670000
11
459.017000
21
7588.470000
0
LINE
8
Layer 1
10
459.017000
20
7588.470000
11
535.236000
21
7651.280000
0
LINE
8
Layer 1
10
459.017000
20
7588.470000
11
514.732000
21
7662.840000
0
LINE
8
Layer 1
10
434.335000
20
7675.800000
11
459.017000
21
7588.470000
0
LINE
8
Layer 1
10
459.017000
20
7588.470000
11
492.670000
21
7671.050000
0
LINE
8
Layer 1
10
457.858000
20
7676.660000
11
459.017000
21
7588.470000
0
LINE
8
Layer 1
10
5796.460000
20
384.195000
11
5612.230000
21
215.202000
0
LINE
8
Layer 1
10
6551.660000
20
753.102000
11
6631.470000
21
823.226000
0
LINE
8
Layer 1
10
645.093000
20
7360.870000
11
628.070000
21
7291.700000
0
LINE
8
Layer 1
10
628.070000
20
7291.700000
11
698.269000
21
7211.960000
0
LINE
8
Layer 1
10
359.012000
20
7644.860000
11
459.017000
21
7588.470000
0
LINE
8
Layer 1
10
459.017000
20
7588.470000
11
490.890000
21
7557.640000
0
LINE
8
Layer 1
10
6198.250000
20
484.385000
11
6254.740000
21
584.336000
0
LINE
8
Layer 1
10
378.620000
20
7657.880000
11
459.017000
21
7588.470000
0
LINE
8
Layer 1
10
6551.660000
20
753.102000
11
6420.910000
21
848.964000
0
LINE
8
Layer 1
10
628.070000
20
7291.700000
11
723.813000
21
7422.550000
0
LINE
8
Layer 1
10
459.017000
20
7588.470000
11
569.609000
21
7619.320000
0
LINE
8
Layer 1
10
736.834000
20
7402.940000
11
628.070000
21
7291.700000
0
LINE
8
Layer 1
10
746.625000
20
7381.530000
11
628.070000
21
7291.700000
0
LINE
8
Layer 1
10
752.949000
20
7358.860000
11
628.070000
21
7291.700000
0
LINE
8
Layer 1
10
754.758000
20
7347.220000
11
628.070000
21
7291.700000
0
LINE
8
Layer 1
10
755.614000
20
7323.700000
11
628.070000
21
7291.700000
0
LINE
8
Layer 1
10
754.656000
20
7311.960000
11
628.070000
21
7291.700000
0
LINE
8
Layer 1
10
749.996000
20
7288.890000
11
628.070000
21
7291.700000
0
LINE
8
Layer 1
10
746.325000
20
7277.700000
11
628.070000
21
7291.700000
0
LINE
8
Layer 1
10
736.408000
20
7256.350000
11
628.070000
21
7291.700000
0
LINE
8
Layer 1
10
459.017000
20
7588.470000
11
561.986000
21
7628.300000
0
LINE
8
Layer 1
10
730.226000
20
7246.330000
11
628.070000
21
7291.700000
0
LINE
8
Layer 1
10
723.274000
20
7236.820000
11
628.070000
21
7291.700000
0
LINE
8
Layer 1
10
707.247000
20
7219.580000
11
628.070000
21
7291.700000
0
LINE
8
Layer 1
10
459.017000
20
7588.470000
11
544.746000
21
7644.330000
0
LINE
8
Layer 1
10
411.237000
20
7671.280000
11
459.017000
21
7588.470000
0
LINE
8
Layer 1
10
459.017000
20
7588.470000
11
525.211000
21
7657.460000
0
LINE
8
Layer 1
10
422.698000
20
7673.990000
11
459.017000
21
7588.470000
0
LINE
8
Layer 1
10
459.017000
20
7588.470000
11
503.862000
21
7667.380000
0
LINE
8
Layer 1
10
446.081000
20
7676.690000
11
459.017000
21
7588.470000
0
LINE
8
Layer 1
10
459.017000
20
7588.470000
11
481.225000
21
7673.830000
0
LINE
8
Layer 1
10
459.017000
20
7588.470000
11
469.597000
21
7675.710000
0
LINE
8
Layer 1
10
5728.040000
20
115.524000
11
5686.860000
21
145.681000
0
LINE
8
Layer 1
10
5686.860000
20
145.681000
11
5648.180000
21
178.975000
0
LINE
8
Layer 1
10
5648.180000
20
178.975000
11
5612.230000
21
215.202000
0
LINE
8
Layer 1
10
5612.230000
20
215.202000
11
5579.230000
21
254.138000
0
LINE
8
Layer 1
10
5579.230000
20
254.138000
11
5.000000
21
7367.060000
0
LINE
8
Layer 1
10
5.000000
20
7367.060000
11
201.590000
21
7521.500000
0
LINE
8
Layer 1
10
201.590000
20
7521.500000
11
359.012000
21
7644.860000
0
LINE
8
Layer 1
10
359.012000
20
7644.860000
11
368.560000
21
7651.750000
0
LINE
8
Layer 1
10
368.560000
20
7651.750000
11
378.620000
21
7657.880000
0
LINE
8
Layer 1
10
378.620000
20
7657.880000
11
389.130000
21
7663.190000
0
LINE
8
Layer 1
10
389.130000
20
7663.190000
11
400.024000
21
7667.670000
0
LINE
8
Layer 1
10
400.024000
20
7667.670000
11
411.237000
21
7671.280000
0
LINE
8
Layer 1
10
411.237000
20
7671.280000
11
422.698000
21
7673.990000
0
LINE
8
Layer 1
10
422.698000
20
7673.990000
11
434.335000
21
7675.800000
0
LINE
8
Layer 1
10
434.335000
20
7675.800000
11
446.081000
21
7676.690000
0
LINE
8
Layer 1
10
446.081000
20
7676.690000
11
457.858000
21
7676.660000
0
LINE
8
Layer 1
10
457.858000
20
7676.660000
11
469.597000
21
7675.710000
0
LINE
8
Layer 1
10
469.597000
20
7675.710000
11
481.225000
21
7673.830000
0
LINE
8
Layer 1
10
481.225000
20
7673.830000
11
492.670000
21
7671.050000
0
LINE
8
Layer 1
10
492.670000
20
7671.050000
11
503.862000
21
7667.380000
0
LINE
8
Layer 1
10
503.862000
20
7667.380000
11
514.732000
21
7662.840000
0
LINE
8
Layer 1
10
514.732000
20
7662.840000
11
525.211000
21
7657.460000
0
LINE
8
Layer 1
10
525.211000
20
7657.460000
11
535.236000
21
7651.280000
0
LINE
8
Layer 1
10
535.236000
20
7651.280000
11
544.746000
21
7644.330000
0
LINE
8
Layer 1
10
544.746000
20
7644.330000
11
553.681000
21
7636.650000
0
LINE
8
Layer 1
10
553.681000
20
7636.650000
11
561.986000
21
7628.300000
0
LINE
8
Layer 1
10
561.986000
20
7628.300000
11
569.609000
21
7619.320000
0
LINE
8
Layer 1
10
569.609000
20
7619.320000
11
723.813000
21
7422.550000
0
LINE
8
Layer 1
10
723.813000
20
7422.550000
11
730.709000
21
7413.000000
0
LINE
8
Layer 1
10
730.709000
20
7413.000000
11
736.834000
21
7402.940000
0
LINE
8
Layer 1
10
736.834000
20
7402.940000
11
742.150000
21
7392.430000
0
LINE
8
Layer 1
10
742.150000
20
7392.430000
11
746.625000
21
7381.530000
0
LINE
8
Layer 1
10
746.625000
20
7381.530000
11
750.232000
21
7370.320000
0
LINE
8
Layer 1
10
750.232000
20
7370.320000
11
752.949000
21
7358.860000
0
LINE
8
Layer 1
10
752.949000
20
7358.860000
11
754.758000
21
7347.220000
0
LINE
8
Layer 1
10
754.758000
20
7347.220000
11
755.648000
21
7335.480000
0
LINE
8
Layer 1
10
755.648000
20
7335.480000
11
755.614000
21
7323.700000
0
LINE
8
Layer 1
10
755.614000
20
7323.700000
11
754.656000
21
7311.960000
0
LINE
8
Layer 1
10
754.656000
20
7311.960000
11
752.780000
21
7300.330000
0
LINE
8
Layer 1
10
752.780000
20
7300.330000
11
749.996000
21
7288.890000
0
LINE
8
Layer 1
10
749.996000
20
7288.890000
11
746.325000
21
7277.700000
0
LINE
8
Layer 1
10
746.325000
20
7277.700000
11
741.786000
21
7266.830000
0
LINE
8
Layer 1
10
741.786000
20
7266.830000
11
736.408000
21
7256.350000
0
LINE
8
Layer 1
10
736.408000
20
7256.350000
11
730.226000
21
7246.330000
0
LINE
8
Layer 1
10
730.226000
20
7246.330000
11
723.274000
21
7236.820000
0
LINE
8
Layer 1
10
723.274000
20
7236.820000
11
715.600000
21
7227.880000
0
LINE
8
Layer 1
10
715.600000
20
7227.880000
11
707.247000
21
7219.580000
0
LINE
8
Layer 1
10
707.247000
20
7219.580000
11
698.269000
21
7211.960000
0
LINE
8
Layer 1
10
698.269000
20
7211.960000
11
540.847000
21
7088.590000
0
LINE
8
Layer 1
10
540.847000
20
7088.590000
11
5773.020000
21
412.088000
0
LINE
8
Layer 1
10
5773.020000
20
412.088000
11
5796.460000
21
384.195000
0
LINE
8
Layer 1
10
5796.460000
20
384.195000
11
5818.580000
21
361.905000
0
LINE
8
Layer 1
10
5818.580000
20
361.905000
11
5842.390000
21
341.418000
0
LINE
8
Layer 1
10
5842.390000
20
341.418000
11
5867.730000
21
322.857000
0
LINE
8
Layer 1
10
5867.730000
20
322.857000
11
5894.440000
21
306.343000
0
LINE
8
Layer 1
10
5894.440000
20
306.343000
11
5922.370000
21
291.977000
0
LINE
8
Layer 1
10
5922.370000
20
291.977000
11
5951.340000
21
279.847000
0
LINE
8
Layer 1
10
5951.340000
20
279.847000
11
5981.180000
21
270.027000
0
LINE
8
Layer 1
10
5981.180000
20
270.027000
11
6011.690000
21
262.579000
0
LINE
8
Layer 1
10
6011.690000
20
262.579000
11
6042.690000
21
257.546000
0
LINE
8
Layer 1
10
6042.690000
20
257.546000
11
6073.990000
21
254.962000
0
LINE
8
Layer 1
10
6073.990000
20
254.962000
11
6105.400000
21
254.842000
0
LINE
8
Layer 1
10
6105.400000
20
254.842000
11
6136.720000
21
257.187000
0
LINE
8
Layer 1
10
6136.720000
20
257.187000
11
6167.760000
21
261.982000
0
LINE
8
Layer 1
10
6167.760000
20
261.982000
11
6198.330000
21
269.195000
0
LINE
8
Layer 1
10
6198.330000
20
269.195000
11
6228.230000
21
278.787000
0
LINE
8
Layer 1
10
6228.230000
20
278.787000
11
6257.300000
21
290.695000
0
LINE
8
Layer 1
10
6257.300000
20
290.695000
11
6285.340000
21
304.847000
0
LINE
8
Layer 1
10
6285.340000
20
304.847000
11
6312.180000
21
321.153000
0
LINE
8
Layer 1
10
6312.180000
20
321.153000
11
6320.930000
21
327.528000
0
LINE
8
Layer 1
10
6320.930000
20
327.528000
11
6198.250000
21
484.385000
0
LINE
8
Layer 1
10
6198.250000
20
484.385000
11
6191.370000
21
493.940000
0
LINE
8
Layer 1
10
6191.370000
20
493.940000
11
6185.250000
21
504.007000
0
LINE
8
Layer 1
10
6185.250000
20
504.007000
11
6179.950000
21
514.521000
0
LINE
8
Layer 1
10
6179.950000
20
514.521000
11
6175.480000
21
525.419000
0
LINE
8
Layer 1
10
6175.480000
20
525.419000
11
6171.880000
21
536.635000
0
LINE
8
Layer 1
10
6171.880000
20
536.635000
11
6169.180000
21
548.098000
0
LINE
8
Layer 1
10
6169.180000
20
548.098000
11
6167.380000
21
559.738000
0
LINE
8
Layer 1
10
6167.380000
20
559.738000
11
6166.500000
21
571.483000
0
LINE
8
Layer 1
10
6166.500000
20
571.483000
11
6166.550000
21
583.261000
0
LINE
8
Layer 1
10
6166.550000
20
583.261000
11
6167.520000
21
594.999000
0
LINE
8
Layer 1
10
6167.520000
20
594.999000
11
6169.410000
21
606.619000
0
LINE
8
Layer 1
10
6169.410000
20
606.619000
11
6172.200000
21
618.063000
0
LINE
8
Layer 1
10
6172.200000
20
618.063000
11
6175.880000
21
629.250000
0
LINE
8
Layer 1
10
6175.880000
20
629.250000
11
6180.430000
21
640.113000
0
LINE
8
Layer 1
10
6180.430000
20
640.113000
11
6185.820000
21
650.586000
0
LINE
8
Layer 1
10
6185.820000
20
650.586000
11
6192.010000
21
660.606000
0
LINE
8
Layer 1
10
6192.010000
20
660.606000
11
6198.970000
21
670.109000
0
LINE
8
Layer 1
10
6198.970000
20
670.109000
11
6206.650000
21
679.035000
0
LINE
8
Layer 1
10
6206.650000
20
679.035000
11
6215.010000
21
687.332000
0
LINE
8
Layer 1
10
6215.010000
20
687.332000
11
6224.000000
21
694.947000
0
LINE
8
Layer 1
10
6224.000000
20
694.947000
11
6420.910000
21
848.964000
0
LINE
8
Layer 1
10
6420.910000
20
848.964000
11
6430.470000
21
855.851000
0
LINE
8
Layer 1
10
6430.470000
20
855.851000
11
6440.530000
21
861.967000
0
LINE
8
Layer 1
10
6440.530000
20
861.967000
11
6451.050000
21
867.273000
0
LINE
8
Layer 1
10
6451.050000
20
867.273000
11
6461.940000
21
871.739000
0
LINE
8
Layer 1
10
6461.940000
20
871.739000
11
6473.160000
21
875.336000
0
LINE
8
Layer 1
10
6473.160000
20
875.336000
11
6484.620000
21
878.042000
0
LINE
8
Layer 1
10
6484.620000
20
878.042000
11
6496.260000
21
879.839000
0
LINE
8
Layer 1
10
6496.260000
20
879.839000
11
6508.010000
21
880.718000
0
LINE
8
Layer 1
10
6508.010000
20
880.718000
11
6519.790000
21
880.673000
0
LINE
8
Layer 1
10
6519.790000
20
880.673000
11
6531.520000
21
879.704000
0
LINE
8
Layer 1
10
6531.520000
20
879.704000
11
6543.150000
21
877.817000
0
LINE
8
Layer 1
10
6543.150000
20
877.817000
11
6554.590000
21
875.024000
0
LINE
8
Layer 1
10
6554.590000
20
875.024000
11
6565.780000
21
871.342000
0
LINE
8
Layer 1
10
6565.780000
20
871.342000
11
6576.640000
21
866.793000
0
LINE
8
Layer 1
10
6576.640000
20
866.793000
11
6587.120000
21
861.406000
0
LINE
8
Layer 1
10
6587.120000
20
861.406000
11
6597.130000
21
855.214000
0
LINE
8
Layer 1
10
6597.130000
20
855.214000
11
6606.640000
21
848.255000
0
LINE
8
Layer 1
10
6606.640000
20
848.255000
11
6615.560000
21
840.571000
0
LINE
8
Layer 1
10
6615.560000
20
840.571000
11
6623.860000
21
832.210000
0
LINE
8
Layer 1
10
6623.860000
20
832.210000
11
6631.470000
21
823.226000
0
LINE
8
Layer 1
10
6631.470000
20
823.226000
11
6754.700000
21
665.676000
0
LINE
8
Layer 1
10
6754.700000
20
665.676000
11
7522.670000
21
1266.370000
0
LINE
8
Layer 1
10
7522.670000
20
1266.370000
11
7676.690000
21
1069.450000
0
LINE
8
Layer 1
10
7676.690000
20
1069.450000
11
6491.680000
21
142.597000
0
LINE
8
Layer 1
10
6491.680000
20
142.597000
11
6450.270000
21
112.755000
0
LINE
8
Layer 1
10
6450.270000
20
112.755000
11
6406.660000
21
86.255600
0
LINE
8
Layer 1
10
6406.660000
20
86.255600
11
6361.090000
21
63.259500
0
LINE
8
Layer 1
10
6361.090000
20
63.259500
11
6313.870000
21
43.909000
0
LINE
8
Layer 1
10
6313.870000
20
43.909000
11
6265.260000
21
28.322300
0
LINE
8
Layer 1
10
6265.260000
20
28.322300
11
6215.590000
21
16.599300
0
LINE
8
Layer 1
10
6215.590000
20
16.599300
11
6165.150000
21
8.808440
0
LINE
8
Layer 1
10
6165.150000
20
8.808440
11
6114.260000
21
5.000000
0
LINE
8
Layer 1
10
6114.260000
20
5.000000
11
6063.220000
21
5.194310
0
LINE
8
Layer 1
10
6063.220000
20
5.194310
11
6012.360000
21
9.394110
0
LINE
8
Layer 1
10
6012.360000
20
9.394110
11
5961.980000
21
17.571900
0
LINE
8
Layer 1
10
5961.980000
20
17.571900
11
5912.390000
21
29.676200
0
LINE
8
Layer 1
10
5912.390000
20
29.676200
11
5863.920000
21
45.633200
0
LINE
8
Layer 1
10
5863.920000
20
45.633200
11
5816.840000
21
65.344200
0
LINE
8
Layer 1
10
5816.840000
20
65.344200
11
5771.450000
21
88.690400
0
LINE
8
Layer 1
10
5771.450000
20
88.690400
11
5728.040000
21
115.524000
0
LINE
8
Layer 1
10
294.115000
20
7403.430000
11
448.317000
21
7206.660000
0
LINE
8
Layer 1
10
448.317000
20
7206.660000
11
645.093000
21
7360.870000
0
LINE
8
Layer 1
10
645.093000
20
7360.870000
11
490.890000
21
7557.640000
0
LINE
8
Layer 1
10
490.890000
20
7557.640000
11
294.115000
21
7403.430000
0
LINE
8
Layer 1
10
6439.640000
20
419.231000
11
6636.540000
21
573.257000
0
LINE
8
Layer 1
10
6636.540000
20
573.257000
11
6482.510000
21
770.191000
0
LINE
8
Layer 1
10
6482.510000
20
770.191000
11
6285.600000
21
616.179000
0
LINE
8
Layer 1
10
6285.600000
20
616.179000
11
6439.640000
21
419.231000
 0 
ENDSEC
 0 
EOF