999
"DXF R12 Output" (www.mydxf.blogspot.com)
 0 
SECTION
 2 
HEADER
 9 
$ACADVER
 1 
AC1009
 9 
$EXTMIN
 10 
 0 
 20 
 0 
 9 
$EXTMAX
 10 
 8.5 
 20 
 11 
 0 
ENDSEC
 0 
SECTION
 2 
ENTITIES
0
LINE
8
Layer 1
10
7170.100000
20
243.399000
11
7187.870000
21
253.787000
0
LINE
8
Layer 1
10
7187.870000
20
253.787000
11
7296.940000
21
323.480000
0
LINE
8
Layer 1
10
7507.610000
20
458.077000
11
7634.020000
21
538.844000
0
LINE
8
Layer 1
10
5324.150000
20
849.018000
11
5116.230000
21
710.209000
0
LINE
8
Layer 1
10
7642.190000
20
247.433000
11
7649.040000
21
318.334000
0
LINE
8
Layer 1
10
7649.040000
20
318.334000
11
7741.680000
21
370.332000
0
LINE
8
Layer 1
10
247.651000
20
7848.860000
11
318.561000
21
7842.080000
0
LINE
8
Layer 1
10
318.561000
20
7842.080000
11
370.646000
21
7749.490000
0
LINE
8
Layer 1
10
74.086000
20
8212.680000
11
94.278900
21
8099.660000
0
LINE
8
Layer 1
10
7278.210000
20
74.212200
11
7391.240000
21
94.297100
0
LINE
8
Layer 1
10
7391.240000
20
94.297100
11
7431.530000
21
112.837000
0
LINE
8
Layer 1
10
55.320400
20
8198.470000
11
94.278900
21
8099.660000
0
LINE
8
Layer 1
10
170.172000
20
7785.270000
11
318.561000
21
7842.080000
0
LINE
8
Layer 1
10
185.808000
20
7767.680000
11
318.561000
21
7842.080000
0
LINE
8
Layer 1
10
204.004000
20
7752.750000
11
318.561000
21
7842.080000
0
LINE
8
Layer 1
10
235.102000
20
7736.120000
11
318.561000
21
7842.080000
0
LINE
8
Layer 1
10
246.230000
20
7732.260000
11
318.561000
21
7842.080000
0
LINE
8
Layer 1
10
257.627000
20
7729.290000
11
318.561000
21
7842.080000
0
LINE
8
Layer 1
10
269.223000
20
7727.220000
11
318.561000
21
7842.080000
0
LINE
8
Layer 1
10
292.722000
20
7725.840000
11
318.561000
21
7842.080000
0
LINE
8
Layer 1
10
316.145000
20
7728.150000
11
318.561000
21
7842.080000
0
LINE
8
Layer 1
10
94.278900
20
8099.660000
11
22.684900
21
8015.640000
0
LINE
8
Layer 1
10
338.919000
20
7734.090000
11
318.561000
21
7842.080000
0
LINE
8
Layer 1
10
94.278900
20
8099.660000
11
17.544600
21
8026.230000
0
LINE
8
Layer 1
10
94.278900
20
8099.660000
11
9.832030
21
8048.470000
0
LINE
8
Layer 1
10
31.902200
20
8172.110000
11
94.278900
21
8099.660000
0
LINE
8
Layer 1
10
25.554100
20
8162.190000
11
94.278900
21
8099.660000
0
LINE
8
Layer 1
10
94.278900
20
8099.660000
11
5.693320
21
8071.640000
0
LINE
8
Layer 1
10
94.278900
20
8099.660000
11
5.230790
21
8095.170000
0
LINE
8
Layer 1
10
15.282800
20
8141.010000
11
94.278900
21
8099.660000
0
LINE
8
Layer 1
10
7086.200000
20
194.321000
11
6968.540000
21
414.904000
0
LINE
8
Layer 1
10
7187.870000
20
253.787000
11
7057.430000
21
467.060000
0
LINE
8
Layer 1
10
5382.950000
20
764.238000
11
5183.490000
21
613.522000
0
LINE
8
Layer 1
10
242.517000
20
8320.520000
11
323.398000
21
8194.200000
0
LINE
8
Layer 1
10
458.193000
20
7983.660000
11
539.078000
21
7857.320000
0
LINE
8
Layer 1
10
94.278900
20
8099.660000
11
112.855000
21
8059.400000
0
LINE
8
Layer 1
10
64.424400
20
8205.940000
11
94.278900
21
8099.660000
0
LINE
8
Layer 1
10
7649.040000
20
318.334000
11
7696.040000
21
163.170000
0
LINE
8
Layer 1
10
7391.240000
20
94.297100
11
7485.380000
21
28.570900
0
LINE
8
Layer 1
10
318.561000
20
7842.080000
11
163.437000
21
7794.930000
0
LINE
8
Layer 1
10
94.278900
20
8099.660000
11
28.640900
21
8005.470000
0
LINE
8
Layer 1
10
177.644000
20
7776.170000
11
318.561000
21
7842.080000
0
LINE
8
Layer 1
10
194.612000
20
7759.850000
11
318.561000
21
7842.080000
0
LINE
8
Layer 1
10
213.923000
20
7746.400000
11
318.561000
21
7842.080000
0
LINE
8
Layer 1
10
224.312000
20
7740.840000
11
318.561000
21
7842.080000
0
LINE
8
Layer 1
10
280.945000
20
7726.070000
11
318.561000
21
7842.080000
0
LINE
8
Layer 1
10
304.479000
20
7726.530000
11
318.561000
21
7842.080000
0
LINE
8
Layer 1
10
327.649000
20
7730.670000
11
318.561000
21
7842.080000
0
LINE
8
Layer 1
10
349.887000
20
7738.390000
11
318.561000
21
7842.080000
0
LINE
8
Layer 1
10
360.485000
20
7743.530000
11
318.561000
21
7842.080000
0
LINE
8
Layer 1
10
94.278900
20
8099.660000
11
13.251200
21
8037.200000
0
LINE
8
Layer 1
10
46.831500
20
8190.310000
11
94.278900
21
8099.660000
0
LINE
8
Layer 1
10
39.008000
20
8181.500000
11
94.278900
21
8099.660000
0
LINE
8
Layer 1
10
94.278900
20
8099.660000
11
7.308370
21
8059.980000
0
LINE
8
Layer 1
10
20.002300
20
8151.800000
11
94.278900
21
8099.660000
0
LINE
8
Layer 1
10
94.278900
20
8099.660000
11
5.000000
21
8083.400000
0
LINE
8
Layer 1
10
94.278900
20
8099.660000
11
6.385210
21
8106.890000
0
LINE
8
Layer 1
10
11.424200
20
8129.890000
11
94.278900
21
8099.660000
0
LINE
8
Layer 1
10
8.450870
20
8118.490000
11
94.278900
21
8099.660000
0
LINE
8
Layer 1
10
323.398000
20
8194.200000
11
112.855000
21
8059.400000
0
LINE
8
Layer 1
10
112.855000
20
8059.400000
11
247.651000
21
7848.860000
0
LINE
8
Layer 1
10
247.651000
20
7848.860000
11
458.193000
21
7983.660000
0
LINE
8
Layer 1
10
458.193000
20
7983.660000
11
323.398000
21
8194.200000
0
LINE
8
Layer 1
10
327.649000
20
7730.670000
11
316.145000
21
7728.150000
0
LINE
8
Layer 1
10
316.145000
20
7728.150000
11
304.479000
21
7726.530000
0
LINE
8
Layer 1
10
304.479000
20
7726.530000
11
292.722000
21
7725.840000
0
LINE
8
Layer 1
10
292.722000
20
7725.840000
11
280.945000
21
7726.070000
0
LINE
8
Layer 1
10
280.945000
20
7726.070000
11
269.223000
21
7727.220000
0
LINE
8
Layer 1
10
269.223000
20
7727.220000
11
257.627000
21
7729.290000
0
LINE
8
Layer 1
10
257.627000
20
7729.290000
11
246.230000
21
7732.260000
0
LINE
8
Layer 1
10
246.230000
20
7732.260000
11
235.102000
21
7736.120000
0
LINE
8
Layer 1
10
235.102000
20
7736.120000
11
224.312000
21
7740.840000
0
LINE
8
Layer 1
10
224.312000
20
7740.840000
11
213.923000
21
7746.400000
0
LINE
8
Layer 1
10
213.923000
20
7746.400000
11
204.004000
21
7752.750000
0
LINE
8
Layer 1
10
204.004000
20
7752.750000
11
194.612000
21
7759.850000
0
LINE
8
Layer 1
10
194.612000
20
7759.850000
11
185.808000
21
7767.680000
0
LINE
8
Layer 1
10
185.808000
20
7767.680000
11
177.644000
21
7776.170000
0
LINE
8
Layer 1
10
177.644000
20
7776.170000
11
170.172000
21
7785.270000
0
LINE
8
Layer 1
10
170.172000
20
7785.270000
11
163.437000
21
7794.930000
0
LINE
8
Layer 1
10
163.437000
20
7794.930000
11
28.640900
21
8005.470000
0
LINE
8
Layer 1
10
28.640900
20
8005.470000
11
22.684900
21
8015.640000
0
LINE
8
Layer 1
10
22.684900
20
8015.640000
11
17.544600
21
8026.230000
0
LINE
8
Layer 1
10
17.544600
20
8026.230000
11
13.251200
21
8037.200000
0
LINE
8
Layer 1
10
13.251200
20
8037.200000
11
9.832030
21
8048.470000
0
LINE
8
Layer 1
10
9.832030
20
8048.470000
11
7.308370
21
8059.980000
0
LINE
8
Layer 1
10
7.308370
20
8059.980000
11
5.693320
21
8071.640000
0
LINE
8
Layer 1
10
5.693320
20
8071.640000
11
5.000000
21
8083.400000
0
LINE
8
Layer 1
10
5.000000
20
8083.400000
11
5.230790
21
8095.170000
0
LINE
8
Layer 1
10
5.230790
20
8095.170000
11
6.385210
21
8106.890000
0
LINE
8
Layer 1
10
6.385210
20
8106.890000
11
8.450870
21
8118.490000
0
LINE
8
Layer 1
10
8.450870
20
8118.490000
11
11.424200
21
8129.890000
0
LINE
8
Layer 1
10
11.424200
20
8129.890000
11
15.282800
21
8141.010000
0
LINE
8
Layer 1
10
15.282800
20
8141.010000
11
20.002300
21
8151.800000
0
LINE
8
Layer 1
10
20.002300
20
8151.800000
11
25.554100
21
8162.190000
0
LINE
8
Layer 1
10
25.554100
20
8162.190000
11
31.902200
21
8172.110000
0
LINE
8
Layer 1
10
31.902200
20
8172.110000
11
39.008000
21
8181.500000
0
LINE
8
Layer 1
10
39.008000
20
8181.500000
11
46.831500
21
8190.310000
0
LINE
8
Layer 1
10
46.831500
20
8190.310000
11
55.320400
21
8198.470000
0
LINE
8
Layer 1
10
55.320400
20
8198.470000
11
64.424400
21
8205.940000
0
LINE
8
Layer 1
10
64.424400
20
8205.940000
11
74.086000
21
8212.680000
0
LINE
8
Layer 1
10
74.086000
20
8212.680000
11
242.517000
21
8320.520000
0
LINE
8
Layer 1
10
242.517000
20
8320.520000
11
454.079000
21
8455.640000
0
LINE
8
Layer 1
10
454.079000
20
8455.640000
11
5324.150000
21
849.018000
0
LINE
8
Layer 1
10
5324.150000
20
849.018000
11
5382.950000
21
764.238000
0
LINE
8
Layer 1
10
5382.950000
20
764.238000
11
5445.150000
21
688.314000
0
LINE
8
Layer 1
10
5445.150000
20
688.314000
11
5513.110000
21
617.503000
0
LINE
8
Layer 1
10
5513.110000
20
617.503000
11
5586.430000
21
552.244000
0
LINE
8
Layer 1
10
5586.430000
20
552.244000
11
5664.630000
21
492.937000
0
LINE
8
Layer 1
10
5664.630000
20
492.937000
11
5747.250000
21
439.948000
0
LINE
8
Layer 1
10
5747.250000
20
439.948000
11
5833.770000
21
393.606000
0
LINE
8
Layer 1
10
5833.770000
20
393.606000
11
5923.660000
21
354.195000
0
LINE
8
Layer 1
10
5923.660000
20
354.195000
11
6016.360000
21
321.957000
0
LINE
8
Layer 1
10
6016.360000
20
321.957000
11
6111.310000
21
297.093000
0
LINE
8
Layer 1
10
6111.310000
20
297.093000
11
6207.920000
21
279.754000
0
LINE
8
Layer 1
10
6207.920000
20
279.754000
11
6305.580000
21
270.049000
0
LINE
8
Layer 1
10
6305.580000
20
270.049000
11
6403.710000
21
268.037000
0
LINE
8
Layer 1
10
6403.710000
20
268.037000
11
6501.700000
21
273.729000
0
LINE
8
Layer 1
10
6501.700000
20
273.729000
11
6598.930000
21
287.093000
0
LINE
8
Layer 1
10
6598.930000
20
287.093000
11
6694.820000
21
308.045000
0
LINE
8
Layer 1
10
6694.820000
20
308.045000
11
6788.770000
21
336.453000
0
LINE
8
Layer 1
10
6788.770000
20
336.453000
11
6880.200000
21
372.148000
0
LINE
8
Layer 1
10
6880.200000
20
372.148000
11
6968.540000
21
414.904000
0
LINE
8
Layer 1
10
6968.540000
20
414.904000
11
7057.430000
21
467.060000
0
LINE
8
Layer 1
10
7057.430000
20
467.060000
11
8321.030000
21
1274.460000
0
LINE
8
Layer 1
10
8321.030000
20
1274.460000
11
8455.640000
21
1063.790000
0
LINE
8
Layer 1
10
8455.640000
20
1063.790000
11
7634.020000
21
538.844000
0
LINE
8
Layer 1
10
7634.020000
20
538.844000
11
7741.680000
21
370.332000
0
LINE
8
Layer 1
10
7741.680000
20
370.332000
11
7747.630000
21
360.166000
0
LINE
8
Layer 1
10
7747.630000
20
360.166000
11
7752.760000
21
349.565000
0
LINE
8
Layer 1
10
7752.760000
20
349.565000
11
7757.040000
21
338.592000
0
LINE
8
Layer 1
10
7757.040000
20
338.592000
11
7760.450000
21
327.320000
0
LINE
8
Layer 1
10
7760.450000
20
327.320000
11
7762.970000
21
315.813000
0
LINE
8
Layer 1
10
7762.970000
20
315.813000
11
7764.570000
21
304.145000
0
LINE
8
Layer 1
10
7764.570000
20
304.145000
11
7765.250000
21
292.386000
0
LINE
8
Layer 1
10
7765.250000
20
292.386000
11
7765.010000
21
280.611000
0
LINE
8
Layer 1
10
7765.010000
20
280.611000
11
7763.850000
21
268.891000
0
LINE
8
Layer 1
10
7763.850000
20
268.891000
11
7761.770000
21
257.298000
0
LINE
8
Layer 1
10
7761.770000
20
257.298000
11
7758.790000
21
245.904000
0
LINE
8
Layer 1
10
7758.790000
20
245.904000
11
7754.920000
21
234.780000
0
LINE
8
Layer 1
10
7754.920000
20
234.780000
11
7750.190000
21
223.994000
0
LINE
8
Layer 1
10
7750.190000
20
223.994000
11
7744.630000
21
213.610000
0
LINE
8
Layer 1
10
7744.630000
20
213.610000
11
7738.270000
21
203.698000
0
LINE
8
Layer 1
10
7738.270000
20
203.698000
11
7731.150000
21
194.313000
0
LINE
8
Layer 1
10
7731.150000
20
194.313000
11
7723.320000
21
185.515000
0
LINE
8
Layer 1
10
7723.320000
20
185.515000
11
7714.820000
21
177.358000
0
LINE
8
Layer 1
10
7714.820000
20
177.358000
11
7705.710000
21
169.895000
0
LINE
8
Layer 1
10
7705.710000
20
169.895000
11
7696.040000
21
163.170000
0
LINE
8
Layer 1
10
7696.040000
20
163.170000
11
7485.380000
21
28.570900
0
LINE
8
Layer 1
10
7485.380000
20
28.570900
11
7475.210000
21
22.624600
0
LINE
8
Layer 1
10
7475.210000
20
22.624600
11
7464.610000
21
17.494300
0
LINE
8
Layer 1
10
7464.610000
20
17.494300
11
7453.640000
21
13.209700
0
LINE
8
Layer 1
10
7453.640000
20
13.209700
11
7442.360000
21
9.800800
0
LINE
8
Layer 1
10
7442.360000
20
9.800800
11
7430.860000
21
7.287870
0
LINE
8
Layer 1
10
7430.860000
20
7.287870
11
7419.190000
21
5.683550
0
LINE
8
Layer 1
10
7419.190000
20
5.683550
11
7407.430000
21
5.000000
0
LINE
8
Layer 1
10
7407.430000
20
5.000000
11
7395.650000
21
5.240800
0
LINE
8
Layer 1
10
7395.650000
20
5.240800
11
7383.930000
21
6.405480
0
LINE
8
Layer 1
10
7383.930000
20
6.405480
11
7372.340000
21
8.486160
0
LINE
8
Layer 1
10
7372.340000
20
8.486160
11
7360.950000
21
11.469700
0
LINE
8
Layer 1
10
7360.950000
20
11.469700
11
7349.820000
21
15.338700
0
LINE
8
Layer 1
10
7349.820000
20
15.338700
11
7339.030000
21
20.067800
0
LINE
8
Layer 1
10
7339.030000
20
20.067800
11
7328.650000
21
25.629500
0
LINE
8
Layer 1
10
7328.650000
20
25.629500
11
7318.740000
21
31.987600
0
LINE
8
Layer 1
10
7318.740000
20
31.987600
11
7309.350000
21
39.104200
0
LINE
8
Layer 1
10
7309.350000
20
39.104200
11
7300.560000
21
46.935300
0
LINE
8
Layer 1
10
7300.560000
20
46.935300
11
7292.400000
21
55.432700
0
LINE
8
Layer 1
10
7292.400000
20
55.432700
11
7284.940000
21
64.542800
0
LINE
8
Layer 1
10
7284.940000
20
64.542800
11
7278.210000
21
74.212200
0
LINE
8
Layer 1
10
7278.210000
20
74.212200
11
7170.100000
21
243.399000
0
LINE
8
Layer 1
10
7170.100000
20
243.399000
11
7086.200000
21
194.321000
0
LINE
8
Layer 1
10
7086.200000
20
194.321000
11
6980.190000
21
143.014000
0
LINE
8
Layer 1
10
6980.190000
20
143.014000
11
6870.470000
21
100.180000
0
LINE
8
Layer 1
10
6870.470000
20
100.180000
11
6757.730000
21
66.090400
0
LINE
8
Layer 1
10
6757.730000
20
66.090400
11
6642.670000
21
40.949100
0
LINE
8
Layer 1
10
6642.670000
20
40.949100
11
6525.990000
21
24.912400
0
LINE
8
Layer 1
10
6525.990000
20
24.912400
11
6408.400000
21
18.080000
0
LINE
8
Layer 1
10
6408.400000
20
18.080000
11
6290.650000
21
20.495800
0
LINE
8
Layer 1
10
6290.650000
20
20.495800
11
6173.450000
21
32.141500
0
LINE
8
Layer 1
10
6173.450000
20
32.141500
11
6057.520000
21
52.948700
0
LINE
8
Layer 1
10
6057.520000
20
52.948700
11
5943.580000
21
82.785300
0
LINE
8
Layer 1
10
5943.580000
20
82.785300
11
5832.340000
21
121.471000
0
LINE
8
Layer 1
10
5832.340000
20
121.471000
11
5724.470000
21
168.763000
0
LINE
8
Layer 1
10
5724.470000
20
168.763000
11
5620.650000
21
224.375000
0
LINE
8
Layer 1
10
5620.650000
20
224.375000
11
5521.510000
21
287.961000
0
LINE
8
Layer 1
10
5521.510000
20
287.961000
11
5427.660000
21
359.128000
0
LINE
8
Layer 1
10
5427.660000
20
359.128000
11
5339.690000
21
437.440000
0
LINE
8
Layer 1
10
5339.690000
20
437.440000
11
5258.130000
21
522.413000
0
LINE
8
Layer 1
10
5258.130000
20
522.413000
11
5183.490000
21
613.522000
0
LINE
8
Layer 1
10
5183.490000
20
613.522000
11
5116.230000
21
710.209000
0
LINE
8
Layer 1
10
5116.230000
20
710.209000
11
539.078000
21
7857.320000
0
LINE
8
Layer 1
10
539.078000
20
7857.320000
11
370.646000
21
7749.490000
0
LINE
8
Layer 1
10
370.646000
20
7749.490000
11
360.485000
21
7743.530000
0
LINE
8
Layer 1
10
360.485000
20
7743.530000
11
349.887000
21
7738.390000
0
LINE
8
Layer 1
10
349.887000
20
7738.390000
11
338.919000
21
7734.090000
0
LINE
8
Layer 1
10
338.919000
20
7734.090000
11
327.649000
21
7730.670000
0
LINE
8
Layer 1
10
7431.530000
20
112.837000
11
7642.190000
21
247.433000
0
LINE
8
Layer 1
10
7642.190000
20
247.433000
11
7507.610000
21
458.077000
0
LINE
8
Layer 1
10
7507.610000
20
458.077000
11
7296.940000
21
323.480000
0
LINE
8
Layer 1
10
7296.940000
20
323.480000
11
7431.530000
21
112.837000
 0 
ENDSEC
 0 
EOF