999
"DXF R12 Output" (www.mydxf.blogspot.com)
 0 
SECTION
 2 
HEADER
 9 
$ACADVER
 1 
AC1009
 9 
$EXTMIN
 10 
 0 
 20 
 0 
 9 
$EXTMAX
 10 
 8.5 
 20 
 11 
 0 
ENDSEC
 0 
SECTION
 2 
ENTITIES
0
LINE
8
Layer 1
10
130.595000
20
687.072000
11
148.624000
21
704.392000
0
LINE
8
Layer 1
10
766.803000
20
35.774900
11
748.468000
21
18.781000
0
LINE
8
Layer 1
10
748.468000
20
18.781000
11
744.982000
21
22.551400
0
LINE
8
Layer 1
10
744.982000
20
22.551400
11
730.296000
21
8.974440
0
LINE
8
Layer 1
10
730.296000
20
8.974440
11
729.400000
21
8.209410
0
LINE
8
Layer 1
10
729.400000
20
8.209410
11
728.448000
21
7.517220
0
LINE
8
Layer 1
10
728.448000
20
7.517220
11
727.444000
21
6.901870
0
LINE
8
Layer 1
10
727.444000
20
6.901870
11
726.394000
21
6.366910
0
LINE
8
Layer 1
10
726.394000
20
6.366910
11
725.306000
21
5.915890
0
LINE
8
Layer 1
10
725.306000
20
5.915890
11
724.186000
21
5.551820
0
LINE
8
Layer 1
10
724.186000
20
5.551820
11
723.041000
21
5.276450
0
LINE
8
Layer 1
10
723.041000
20
5.276450
11
721.878000
21
5.092450
0
LINE
8
Layer 1
10
721.878000
20
5.092450
11
720.703000
21
5.000000
0
LINE
8
Layer 1
10
720.703000
20
5.000000
11
719.526000
21
5.000000
0
LINE
8
Layer 1
10
719.526000
20
5.000000
11
718.351000
21
5.092150
0
LINE
8
Layer 1
10
718.351000
20
5.092150
11
717.188000
21
5.277100
0
LINE
8
Layer 1
10
717.188000
20
5.277100
11
716.043000
21
5.551820
0
LINE
8
Layer 1
10
716.043000
20
5.551820
11
714.922000
21
5.915710
0
LINE
8
Layer 1
10
714.922000
20
5.915710
11
713.834000
21
6.366140
0
LINE
8
Layer 1
10
713.834000
20
6.366140
11
712.785000
21
6.900970
0
LINE
8
Layer 1
10
712.785000
20
6.900970
11
711.781000
21
7.515850
0
LINE
8
Layer 1
10
711.781000
20
7.515850
11
710.828000
21
8.208580
0
LINE
8
Layer 1
10
710.828000
20
8.208580
11
709.932000
21
8.973130
0
LINE
8
Layer 1
10
709.932000
20
8.973130
11
709.099000
21
9.806100
0
LINE
8
Layer 1
10
709.099000
20
9.806100
11
692.128000
21
28.161800
0
LINE
8
Layer 1
10
692.128000
20
28.161800
11
691.362000
21
29.057400
0
LINE
8
Layer 1
10
691.362000
20
29.057400
11
690.670000
21
30.010500
0
LINE
8
Layer 1
10
690.670000
20
30.010500
11
690.055000
21
31.014100
0
LINE
8
Layer 1
10
690.055000
20
31.014100
11
689.520000
21
32.063500
0
LINE
8
Layer 1
10
689.520000
20
32.063500
11
689.069000
21
33.152000
0
LINE
8
Layer 1
10
689.069000
20
33.152000
11
688.705000
21
34.272000
0
LINE
8
Layer 1
10
688.705000
20
34.272000
11
688.430000
21
35.417200
0
LINE
8
Layer 1
10
688.430000
20
35.417200
11
688.246000
21
36.580300
0
LINE
8
Layer 1
10
688.246000
20
36.580300
11
688.153000
21
37.754400
0
LINE
8
Layer 1
10
688.153000
20
37.754400
11
688.153000
21
38.932400
0
LINE
8
Layer 1
10
688.153000
20
38.932400
11
688.245000
21
40.106600
0
LINE
8
Layer 1
10
688.245000
20
40.106600
11
688.429000
21
41.269600
0
LINE
8
Layer 1
10
688.429000
20
41.269600
11
688.704000
21
42.415000
0
LINE
8
Layer 1
10
688.704000
20
42.415000
11
689.068000
21
43.535200
0
LINE
8
Layer 1
10
689.068000
20
43.535200
11
689.519000
21
44.623400
0
LINE
8
Layer 1
10
689.519000
20
44.623400
11
690.053000
21
45.672700
0
LINE
8
Layer 1
10
690.053000
20
45.672700
11
690.669000
21
46.677100
0
LINE
8
Layer 1
10
690.669000
20
46.677100
11
691.361000
21
47.630000
0
LINE
8
Layer 1
10
691.361000
20
47.630000
11
692.126000
21
48.525800
0
LINE
8
Layer 1
10
692.126000
20
48.525800
11
692.958000
21
49.358600
0
LINE
8
Layer 1
10
692.958000
20
49.358600
11
707.644000
21
62.936000
0
LINE
8
Layer 1
10
707.644000
20
62.936000
11
130.595000
21
687.072000
0
LINE
8
Layer 1
10
130.595000
20
687.072000
11
128.030000
21
689.663000
0
LINE
8
Layer 1
10
128.030000
20
689.663000
11
125.645000
21
691.704000
0
LINE
8
Layer 1
10
125.645000
20
691.704000
11
123.105000
21
693.553000
0
LINE
8
Layer 1
10
123.105000
20
693.553000
11
120.429000
21
695.197000
0
LINE
8
Layer 1
10
120.429000
20
695.197000
11
117.632000
21
696.625000
0
LINE
8
Layer 1
10
117.632000
20
696.625000
11
114.731000
21
697.830000
0
LINE
8
Layer 1
10
114.731000
20
697.830000
11
111.745000
21
698.803000
0
LINE
8
Layer 1
10
111.745000
20
698.803000
11
108.692000
21
699.540000
0
LINE
8
Layer 1
10
108.692000
20
699.540000
11
105.590000
21
700.034000
0
LINE
8
Layer 1
10
105.590000
20
700.034000
11
102.459000
21
700.283000
0
LINE
8
Layer 1
10
102.459000
20
700.283000
11
99.318700
21
700.286000
0
LINE
8
Layer 1
10
99.318700
20
700.286000
11
96.187200
21
700.043000
0
LINE
8
Layer 1
10
96.187200
20
700.043000
11
93.084800
21
699.555000
0
LINE
8
Layer 1
10
93.084800
20
699.555000
11
90.029900
21
698.824000
0
LINE
8
Layer 1
10
90.029900
20
698.824000
11
87.041800
21
697.857000
0
LINE
8
Layer 1
10
87.041800
20
697.857000
11
84.139300
21
696.658000
0
LINE
8
Layer 1
10
84.139300
20
696.658000
11
81.339300
21
695.234000
0
LINE
8
Layer 1
10
81.339300
20
695.234000
11
78.659700
21
693.596000
0
LINE
8
Layer 1
10
78.659700
20
693.596000
11
75.238400
21
691.109000
0
LINE
8
Layer 1
10
75.238400
20
691.109000
11
88.799800
21
676.409000
0
LINE
8
Layer 1
10
88.799800
20
676.409000
11
89.563900
21
675.512000
0
LINE
8
Layer 1
10
89.563900
20
675.512000
11
90.255100
21
674.559000
0
LINE
8
Layer 1
10
90.255100
20
674.559000
11
90.869500
21
673.554000
0
LINE
8
Layer 1
10
90.869500
20
673.554000
11
91.403200
21
672.504000
0
LINE
8
Layer 1
10
91.403200
20
672.504000
11
91.852800
21
671.415000
0
LINE
8
Layer 1
10
91.852800
20
671.415000
11
92.215700
21
670.295000
0
LINE
8
Layer 1
10
92.215700
20
670.295000
11
92.489500
21
669.149000
0
LINE
8
Layer 1
10
92.489500
20
669.149000
11
92.672600
21
667.986000
0
LINE
8
Layer 1
10
92.672600
20
667.986000
11
92.763900
21
666.812000
0
LINE
8
Layer 1
10
92.763900
20
666.812000
11
92.762600
21
665.634000
0
LINE
8
Layer 1
10
92.762600
20
665.634000
11
92.669000
21
664.460000
0
LINE
8
Layer 1
10
92.669000
20
664.460000
11
92.483700
21
663.297000
0
LINE
8
Layer 1
10
92.483700
20
663.297000
11
92.207600
21
662.152000
0
LINE
8
Layer 1
10
92.207600
20
662.152000
11
91.842600
21
661.032000
0
LINE
8
Layer 1
10
91.842600
20
661.032000
11
91.390800
21
659.944000
0
LINE
8
Layer 1
10
91.390800
20
659.944000
11
90.855100
21
658.895000
0
LINE
8
Layer 1
10
90.855100
20
658.895000
11
90.238800
21
657.892000
0
LINE
8
Layer 1
10
90.238800
20
657.892000
11
89.545600
21
656.939000
0
LINE
8
Layer 1
10
89.545600
20
656.939000
11
88.779800
21
656.045000
0
LINE
8
Layer 1
10
88.779800
20
656.045000
11
87.946200
21
655.213000
0
LINE
8
Layer 1
10
87.946200
20
655.213000
11
69.572200
21
638.261000
0
LINE
8
Layer 1
10
69.572200
20
638.261000
11
68.675900
21
637.497000
0
LINE
8
Layer 1
10
68.675900
20
637.497000
11
67.722400
21
636.805000
0
LINE
8
Layer 1
10
67.722400
20
636.805000
11
66.717500
21
636.191000
0
LINE
8
Layer 1
10
66.717500
20
636.191000
11
65.667600
21
635.657000
0
LINE
8
Layer 1
10
65.667600
20
635.657000
11
64.579000
21
635.207000
0
LINE
8
Layer 1
10
64.579000
20
635.207000
11
63.458500
21
634.845000
0
LINE
8
Layer 1
10
63.458500
20
634.845000
11
62.313000
21
634.571000
0
LINE
8
Layer 1
10
62.313000
20
634.571000
11
61.149500
21
634.388000
0
LINE
8
Layer 1
10
61.149500
20
634.388000
11
59.975300
21
634.296000
0
LINE
8
Layer 1
10
59.975300
20
634.296000
11
58.797500
21
634.297000
0
LINE
8
Layer 1
10
58.797500
20
634.297000
11
57.623500
21
634.391000
0
LINE
8
Layer 1
10
57.623500
20
634.391000
11
56.460300
21
634.576000
0
LINE
8
Layer 1
10
56.460300
20
634.576000
11
55.315300
21
634.852000
0
LINE
8
Layer 1
10
55.315300
20
634.852000
11
54.195600
21
635.217000
0
LINE
8
Layer 1
10
54.195600
20
635.217000
11
53.107900
21
635.669000
0
LINE
8
Layer 1
10
53.107900
20
635.669000
11
52.059000
21
636.205000
0
LINE
8
Layer 1
10
52.059000
20
636.205000
11
51.055300
21
636.821000
0
LINE
8
Layer 1
10
51.055300
20
636.821000
11
50.103100
21
637.515000
0
LINE
8
Layer 1
10
50.103100
20
637.515000
11
49.208300
21
638.280000
0
LINE
8
Layer 1
10
49.208300
20
638.280000
11
48.376300
21
639.114000
0
LINE
8
Layer 1
10
48.376300
20
639.114000
11
34.814500
21
653.814000
0
LINE
8
Layer 1
10
34.814500
20
653.814000
11
21.952300
21
641.948000
0
LINE
8
Layer 1
10
21.952300
20
641.948000
11
5.000000
21
660.322000
0
LINE
8
Layer 1
10
5.000000
20
660.322000
11
56.774400
21
708.089000
0
LINE
8
Layer 1
10
56.774400
20
708.089000
11
60.658500
21
711.400000
0
LINE
8
Layer 1
10
60.658500
20
711.400000
11
64.790600
21
714.396000
0
LINE
8
Layer 1
10
64.790600
20
714.396000
11
69.144800
21
717.058000
0
LINE
8
Layer 1
10
69.144800
20
717.058000
11
73.694500
21
719.371000
0
LINE
8
Layer 1
10
73.694500
20
719.371000
11
78.411700
21
721.320000
0
LINE
8
Layer 1
10
78.411700
20
721.320000
11
83.267200
21
722.892000
0
LINE
8
Layer 1
10
83.267200
20
722.892000
11
88.231100
21
724.079000
0
LINE
8
Layer 1
10
88.231100
20
724.079000
11
93.272900
21
724.872000
0
LINE
8
Layer 1
10
93.272900
20
724.872000
11
98.361300
21
725.268000
0
LINE
8
Layer 1
10
98.361300
20
725.268000
11
103.465000
21
725.263000
0
LINE
8
Layer 1
10
103.465000
20
725.263000
11
108.553000
21
724.858000
0
LINE
8
Layer 1
10
108.553000
20
724.858000
11
113.593000
21
724.054000
0
LINE
8
Layer 1
10
113.593000
20
724.054000
11
118.554000
21
722.858000
0
LINE
8
Layer 1
10
118.554000
20
722.858000
11
123.407000
21
721.276000
0
LINE
8
Layer 1
10
123.407000
20
721.276000
11
128.120000
21
719.319000
0
LINE
8
Layer 1
10
128.120000
20
719.319000
11
132.666000
21
716.997000
0
LINE
8
Layer 1
10
132.666000
20
716.997000
11
137.015000
21
714.326000
0
LINE
8
Layer 1
10
137.015000
20
714.326000
11
141.141000
21
711.322000
0
LINE
8
Layer 1
10
141.141000
20
711.322000
11
145.018000
21
708.004000
0
LINE
8
Layer 1
10
145.018000
20
708.004000
11
148.624000
21
704.392000
0
LINE
8
Layer 1
10
148.624000
20
704.392000
11
766.803000
21
35.774900
0
LINE
8
Layer 1
10
64.213600
20
680.937000
11
45.839900
21
663.986000
0
LINE
8
Layer 1
10
45.839900
20
663.986000
11
62.791900
21
645.611000
0
LINE
8
Layer 1
10
62.791900
20
645.611000
11
81.165800
21
662.563000
0
LINE
8
Layer 1
10
81.165800
20
662.563000
11
64.213600
21
680.937000
0
LINE
8
Layer 1
10
734.798000
20
33.565800
11
717.827000
21
51.921500
0
LINE
8
Layer 1
10
717.827000
20
51.921500
11
699.471000
21
34.949800
0
LINE
8
Layer 1
10
699.471000
20
34.949800
11
716.442000
21
16.594100
0
LINE
8
Layer 1
10
716.442000
20
16.594100
11
734.798000
21
33.565800
 0 
ENDSEC
 0 
EOF