999
"DXF R12 Output" (www.mydxf.blogspot.com)
 0 
SECTION
 2 
HEADER
 9 
$ACADVER
 1 
AC1009
 9 
$EXTMIN
 10 
 0 
 20 
 0 
 9 
$EXTMAX
 10 
 8.5 
 20 
 11 
 0 
ENDSEC
 0 
SECTION
 2 
ENTITIES
0
LINE
8
Layer 1
10
59.969500
20
345.605000
11
40.963400
21
361.845000
0
LINE
8
Layer 1
10
500.277000
20
785.908000
11
484.042000
21
804.920000
0
LINE
8
Layer 1
10
21.365700
20
332.532000
11
27.123300
21
342.806000
0
LINE
8
Layer 1
10
27.123300
20
342.806000
11
33.669200
21
352.598000
0
LINE
8
Layer 1
10
33.669200
20
352.598000
11
40.963400
21
361.845000
0
LINE
8
Layer 1
10
40.963400
20
361.845000
11
241.592000
21
563.125000
0
LINE
8
Layer 1
10
241.592000
20
563.125000
11
227.450000
21
577.268000
0
LINE
8
Layer 1
10
227.450000
20
577.268000
11
226.650000
21
578.133000
0
LINE
8
Layer 1
10
226.650000
20
578.133000
11
225.921000
21
579.058000
0
LINE
8
Layer 1
10
225.921000
20
579.058000
11
225.266000
21
580.037000
0
LINE
8
Layer 1
10
225.266000
20
580.037000
11
224.691000
21
581.065000
0
LINE
8
Layer 1
10
224.691000
20
581.065000
11
224.198000
21
582.134000
0
LINE
8
Layer 1
10
224.198000
20
582.134000
11
223.790000
21
583.239000
0
LINE
8
Layer 1
10
223.790000
20
583.239000
11
223.471000
21
584.373000
0
LINE
8
Layer 1
10
223.471000
20
584.373000
11
223.241000
21
585.528000
0
LINE
8
Layer 1
10
223.241000
20
585.528000
11
223.103000
21
586.698000
0
LINE
8
Layer 1
10
223.103000
20
586.698000
11
223.057000
21
587.875000
0
LINE
8
Layer 1
10
223.057000
20
587.875000
11
223.103000
21
589.052000
0
LINE
8
Layer 1
10
223.103000
20
589.052000
11
223.241000
21
590.221000
0
LINE
8
Layer 1
10
223.241000
20
590.221000
11
223.471000
21
591.377000
0
LINE
8
Layer 1
10
223.471000
20
591.377000
11
223.790000
21
592.510000
0
LINE
8
Layer 1
10
223.790000
20
592.510000
11
224.199000
21
593.615000
0
LINE
8
Layer 1
10
224.199000
20
593.615000
11
224.692000
21
594.685000
0
LINE
8
Layer 1
10
224.692000
20
594.685000
11
225.267000
21
595.712000
0
LINE
8
Layer 1
10
225.267000
20
595.712000
11
225.922000
21
596.692000
0
LINE
8
Layer 1
10
225.922000
20
596.692000
11
226.650000
21
597.616000
0
LINE
8
Layer 1
10
226.650000
20
597.616000
11
227.450000
21
598.482000
0
LINE
8
Layer 1
10
227.450000
20
598.482000
11
245.128000
21
616.159000
0
LINE
8
Layer 1
10
245.128000
20
616.159000
11
245.992000
21
616.958000
0
LINE
8
Layer 1
10
245.992000
20
616.958000
11
246.917000
21
617.687000
0
LINE
8
Layer 1
10
246.917000
20
617.687000
11
247.897000
21
618.342000
0
LINE
8
Layer 1
10
247.897000
20
618.342000
11
248.924000
21
618.917000
0
LINE
8
Layer 1
10
248.924000
20
618.917000
11
249.994000
21
619.411000
0
LINE
8
Layer 1
10
249.994000
20
619.411000
11
251.099000
21
619.818000
0
LINE
8
Layer 1
10
251.099000
20
619.818000
11
252.232000
21
620.138000
0
LINE
8
Layer 1
10
252.232000
20
620.138000
11
253.387000
21
620.367000
0
LINE
8
Layer 1
10
253.387000
20
620.367000
11
254.557000
21
620.506000
0
LINE
8
Layer 1
10
254.557000
20
620.506000
11
255.734000
21
620.552000
0
LINE
8
Layer 1
10
255.734000
20
620.552000
11
256.911000
21
620.506000
0
LINE
8
Layer 1
10
256.911000
20
620.506000
11
258.081000
21
620.368000
0
LINE
8
Layer 1
10
258.081000
20
620.368000
11
259.235000
21
620.138000
0
LINE
8
Layer 1
10
259.235000
20
620.138000
11
260.369000
21
619.818000
0
LINE
8
Layer 1
10
260.369000
20
619.818000
11
261.474000
21
619.410000
0
LINE
8
Layer 1
10
261.474000
20
619.410000
11
262.545000
21
618.918000
0
LINE
8
Layer 1
10
262.545000
20
618.918000
11
263.571000
21
618.342000
0
LINE
8
Layer 1
10
263.571000
20
618.342000
11
264.551000
21
617.687000
0
LINE
8
Layer 1
10
264.551000
20
617.687000
11
265.476000
21
616.959000
0
LINE
8
Layer 1
10
265.476000
20
616.959000
11
266.341000
21
616.159000
0
LINE
8
Layer 1
10
266.341000
20
616.159000
11
280.483000
21
602.017000
0
LINE
8
Layer 1
10
280.483000
20
602.017000
11
484.042000
21
804.920000
0
LINE
8
Layer 1
10
484.042000
20
804.920000
11
493.292000
21
812.210000
0
LINE
8
Layer 1
10
493.292000
20
812.210000
11
503.085000
21
818.753000
0
LINE
8
Layer 1
10
503.085000
20
818.753000
11
513.362000
21
824.508000
0
LINE
8
Layer 1
10
513.362000
20
824.508000
11
524.059000
21
829.437000
0
LINE
8
Layer 1
10
524.059000
20
829.437000
11
535.109000
21
833.514000
0
LINE
8
Layer 1
10
535.109000
20
833.514000
11
546.445000
21
836.710000
0
LINE
8
Layer 1
10
546.445000
20
836.710000
11
557.997000
21
839.007000
0
LINE
8
Layer 1
10
557.997000
20
839.007000
11
569.694000
21
840.390000
0
LINE
8
Layer 1
10
569.694000
20
840.390000
11
581.463000
21
840.852000
0
LINE
8
Layer 1
10
581.463000
20
840.852000
11
593.232000
21
840.389000
0
LINE
8
Layer 1
10
593.232000
20
840.389000
11
604.928000
21
839.004000
0
LINE
8
Layer 1
10
604.928000
20
839.004000
11
616.480000
21
836.705000
0
LINE
8
Layer 1
10
616.480000
20
836.705000
11
627.815000
21
833.507000
0
LINE
8
Layer 1
10
627.815000
20
833.507000
11
638.865000
21
829.430000
0
LINE
8
Layer 1
10
638.865000
20
829.430000
11
649.561000
21
824.498000
0
LINE
8
Layer 1
10
649.561000
20
824.498000
11
659.837000
21
818.743000
0
LINE
8
Layer 1
10
659.837000
20
818.743000
11
669.630000
21
812.198000
0
LINE
8
Layer 1
10
669.630000
20
812.198000
11
678.879000
21
804.906000
0
LINE
8
Layer 1
10
678.879000
20
804.906000
11
687.527000
21
796.911000
0
LINE
8
Layer 1
10
687.527000
20
796.911000
11
783.426000
21
701.144000
0
LINE
8
Layer 1
10
783.426000
20
701.144000
11
797.570000
21
715.285000
0
LINE
8
Layer 1
10
797.570000
20
715.285000
11
798.435000
21
716.084000
0
LINE
8
Layer 1
10
798.435000
20
716.084000
11
799.360000
21
716.813000
0
LINE
8
Layer 1
10
799.360000
20
716.813000
11
800.339000
21
717.468000
0
LINE
8
Layer 1
10
800.339000
20
717.468000
11
801.367000
21
718.043000
0
LINE
8
Layer 1
10
801.367000
20
718.043000
11
802.437000
21
718.536000
0
LINE
8
Layer 1
10
802.437000
20
718.536000
11
803.542000
21
718.944000
0
LINE
8
Layer 1
10
803.542000
20
718.944000
11
804.675000
21
719.263000
0
LINE
8
Layer 1
10
804.675000
20
719.263000
11
805.830000
21
719.493000
0
LINE
8
Layer 1
10
805.830000
20
719.493000
11
807.000000
21
719.631000
0
LINE
8
Layer 1
10
807.000000
20
719.631000
11
808.176000
21
719.677000
0
LINE
8
Layer 1
10
808.176000
20
719.677000
11
809.353000
21
719.631000
0
LINE
8
Layer 1
10
809.353000
20
719.631000
11
810.523000
21
719.493000
0
LINE
8
Layer 1
10
810.523000
20
719.493000
11
811.678000
21
719.262000
0
LINE
8
Layer 1
10
811.678000
20
719.262000
11
812.812000
21
718.943000
0
LINE
8
Layer 1
10
812.812000
20
718.943000
11
813.917000
21
718.535000
0
LINE
8
Layer 1
10
813.917000
20
718.535000
11
814.986000
21
718.042000
0
LINE
8
Layer 1
10
814.986000
20
718.042000
11
816.014000
21
717.466000
0
LINE
8
Layer 1
10
816.014000
20
717.466000
11
816.993000
21
716.812000
0
LINE
8
Layer 1
10
816.993000
20
716.812000
11
817.918000
21
716.083000
0
LINE
8
Layer 1
10
817.918000
20
716.083000
11
818.782000
21
715.283000
0
LINE
8
Layer 1
10
818.782000
20
715.283000
11
836.459000
21
697.605000
0
LINE
8
Layer 1
10
836.459000
20
697.605000
11
837.259000
21
696.740000
0
LINE
8
Layer 1
10
837.259000
20
696.740000
11
837.987000
21
695.815000
0
LINE
8
Layer 1
10
837.987000
20
695.815000
11
838.642000
21
694.836000
0
LINE
8
Layer 1
10
838.642000
20
694.836000
11
839.217000
21
693.808000
0
LINE
8
Layer 1
10
839.217000
20
693.808000
11
839.710000
21
692.739000
0
LINE
8
Layer 1
10
839.710000
20
692.739000
11
840.118000
21
691.634000
0
LINE
8
Layer 1
10
840.118000
20
691.634000
11
840.438000
21
690.500000
0
LINE
8
Layer 1
10
840.438000
20
690.500000
11
840.668000
21
689.345000
0
LINE
8
Layer 1
10
840.668000
20
689.345000
11
840.806000
21
688.175000
0
LINE
8
Layer 1
10
840.806000
20
688.175000
11
840.852000
21
686.998000
0
LINE
8
Layer 1
10
840.852000
20
686.998000
11
840.805000
21
685.821000
0
LINE
8
Layer 1
10
840.805000
20
685.821000
11
840.667000
21
684.652000
0
LINE
8
Layer 1
10
840.667000
20
684.652000
11
840.437000
21
683.496000
0
LINE
8
Layer 1
10
840.437000
20
683.496000
11
840.118000
21
682.363000
0
LINE
8
Layer 1
10
840.118000
20
682.363000
11
839.710000
21
681.258000
0
LINE
8
Layer 1
10
839.710000
20
681.258000
11
839.217000
21
680.188000
0
LINE
8
Layer 1
10
839.217000
20
680.188000
11
838.641000
21
679.161000
0
LINE
8
Layer 1
10
838.641000
20
679.161000
11
837.986000
21
678.182000
0
LINE
8
Layer 1
10
837.986000
20
678.182000
11
837.257000
21
677.257000
0
LINE
8
Layer 1
10
837.257000
20
677.257000
11
836.458000
21
676.392000
0
LINE
8
Layer 1
10
836.458000
20
676.392000
11
822.315000
21
662.251000
0
LINE
8
Layer 1
10
822.315000
20
662.251000
11
825.779000
21
658.642000
0
LINE
8
Layer 1
10
825.779000
20
658.642000
11
808.100000
21
640.965000
0
LINE
8
Layer 1
10
808.100000
20
640.965000
11
670.198000
21
778.890000
0
LINE
8
Layer 1
10
670.198000
20
778.890000
11
662.641000
21
785.897000
0
LINE
8
Layer 1
10
662.641000
20
785.897000
11
654.934000
21
791.974000
0
LINE
8
Layer 1
10
654.934000
20
791.974000
11
646.773000
21
797.427000
0
LINE
8
Layer 1
10
646.773000
20
797.427000
11
638.210000
21
802.223000
0
LINE
8
Layer 1
10
638.210000
20
802.223000
11
629.296000
21
806.333000
0
LINE
8
Layer 1
10
629.296000
20
806.333000
11
620.089000
21
809.731000
0
LINE
8
Layer 1
10
620.089000
20
809.731000
11
610.642000
21
812.396000
0
LINE
8
Layer 1
10
610.642000
20
812.396000
11
601.015000
21
814.311000
0
LINE
8
Layer 1
10
601.015000
20
814.311000
11
591.269000
21
815.466000
0
LINE
8
Layer 1
10
591.269000
20
815.466000
11
581.461000
21
815.851000
0
LINE
8
Layer 1
10
581.461000
20
815.851000
11
571.654000
21
815.467000
0
LINE
8
Layer 1
10
571.654000
20
815.467000
11
561.906000
21
814.314000
0
LINE
8
Layer 1
10
561.906000
20
814.314000
11
552.280000
21
812.400000
0
LINE
8
Layer 1
10
552.280000
20
812.400000
11
542.833000
21
809.736000
0
LINE
8
Layer 1
10
542.833000
20
809.736000
11
533.624000
21
806.340000
0
LINE
8
Layer 1
10
533.624000
20
806.340000
11
524.710000
21
802.231000
0
LINE
8
Layer 1
10
524.710000
20
802.231000
11
516.147000
21
797.436000
0
LINE
8
Layer 1
10
516.147000
20
797.436000
11
507.985000
21
791.984000
0
LINE
8
Layer 1
10
507.985000
20
791.984000
11
500.277000
21
785.908000
0
LINE
8
Layer 1
10
500.277000
20
785.908000
11
492.745000
21
778.928000
0
LINE
8
Layer 1
10
492.745000
20
778.928000
11
66.952700
21
353.139000
0
LINE
8
Layer 1
10
66.952700
20
353.139000
11
59.969500
21
345.605000
0
LINE
8
Layer 1
10
59.969500
20
345.605000
11
53.890900
21
337.898000
0
LINE
8
Layer 1
10
53.890900
20
337.898000
11
48.436300
21
329.739000
0
LINE
8
Layer 1
10
48.436300
20
329.739000
11
43.638100
21
321.176000
0
LINE
8
Layer 1
10
43.638100
20
321.176000
11
39.527000
21
312.264000
0
LINE
8
Layer 1
10
39.527000
20
312.264000
11
36.127600
21
303.057000
0
LINE
8
Layer 1
10
36.127600
20
303.057000
11
33.461200
21
293.611000
0
LINE
8
Layer 1
10
33.461200
20
293.611000
11
31.543800
21
283.985000
0
LINE
8
Layer 1
10
31.543800
20
283.985000
11
30.387600
21
274.238000
0
LINE
8
Layer 1
10
30.387600
20
274.238000
11
29.999700
21
264.431000
0
LINE
8
Layer 1
10
29.999700
20
264.431000
11
30.382900
21
254.624000
0
LINE
8
Layer 1
10
30.382900
20
254.624000
11
31.533800
21
244.876000
0
LINE
8
Layer 1
10
31.533800
20
244.876000
11
33.446300
21
235.249000
0
LINE
8
Layer 1
10
33.446300
20
235.249000
11
36.108100
21
225.802000
0
LINE
8
Layer 1
10
36.108100
20
225.802000
11
39.502900
21
216.593000
0
LINE
8
Layer 1
10
39.502900
20
216.593000
11
43.609600
21
207.678000
0
LINE
8
Layer 1
10
43.609600
20
207.678000
11
48.403200
21
199.114000
0
LINE
8
Layer 1
10
48.403200
20
199.114000
11
53.854500
21
190.952000
0
LINE
8
Layer 1
10
53.854500
20
190.952000
11
59.928900
21
183.243000
0
LINE
8
Layer 1
10
59.928900
20
183.243000
11
66.932800
21
175.683000
0
LINE
8
Layer 1
10
66.932800
20
175.683000
11
204.816000
21
37.738100
0
LINE
8
Layer 1
10
204.816000
20
37.738100
11
187.134000
21
20.064900
0
LINE
8
Layer 1
10
187.134000
20
20.064900
11
183.526000
21
23.529200
0
LINE
8
Layer 1
10
183.526000
20
23.529200
11
169.380000
21
9.390720
0
LINE
8
Layer 1
10
169.380000
20
9.390720
11
168.515000
21
8.591180
0
LINE
8
Layer 1
10
168.515000
20
8.591180
11
167.590000
21
7.862330
0
LINE
8
Layer 1
10
167.590000
20
7.862330
11
166.611000
21
7.208170
0
LINE
8
Layer 1
10
166.611000
20
7.208170
11
165.583000
21
6.632930
0
LINE
8
Layer 1
10
165.583000
20
6.632930
11
164.513000
21
6.140240
0
LINE
8
Layer 1
10
164.513000
20
6.140240
11
163.408000
21
5.732780
0
LINE
8
Layer 1
10
163.408000
20
5.732780
11
162.274000
21
5.413360
0
LINE
8
Layer 1
10
162.274000
20
5.413360
11
161.119000
21
5.184180
0
LINE
8
Layer 1
10
161.119000
20
5.184180
11
159.949000
21
5.045720
0
LINE
8
Layer 1
10
159.949000
20
5.045720
11
158.773000
21
5.000000
0
LINE
8
Layer 1
10
158.773000
20
5.000000
11
157.596000
21
5.046490
0
LINE
8
Layer 1
10
157.596000
20
5.046490
11
156.426000
21
5.185130
0
LINE
8
Layer 1
10
156.426000
20
5.185130
11
155.271000
21
5.415030
0
LINE
8
Layer 1
10
155.271000
20
5.415030
11
154.138000
21
5.735160
0
LINE
8
Layer 1
10
154.138000
20
5.735160
11
153.033000
21
6.143280
0
LINE
8
Layer 1
10
153.033000
20
6.143280
11
151.963000
21
6.636270
0
LINE
8
Layer 1
10
151.963000
20
6.636270
11
150.936000
21
7.212050
0
LINE
8
Layer 1
10
150.936000
20
7.212050
11
149.956000
21
7.866750
0
LINE
8
Layer 1
10
149.956000
20
7.866750
11
149.032000
21
8.596360
0
LINE
8
Layer 1
10
149.032000
20
8.596360
11
148.167000
21
9.395780
0
LINE
8
Layer 1
10
148.167000
20
9.395780
11
130.494000
21
27.077500
0
LINE
8
Layer 1
10
130.494000
20
27.077500
11
129.695000
21
27.942800
0
LINE
8
Layer 1
10
129.695000
20
27.942800
11
128.966000
21
28.867700
0
LINE
8
Layer 1
10
128.966000
20
28.867700
11
128.312000
21
29.847000
0
LINE
8
Layer 1
10
128.312000
20
29.847000
11
127.737000
21
30.874800
0
LINE
8
Layer 1
10
127.737000
20
30.874800
11
127.244000
21
31.944900
0
LINE
8
Layer 1
10
127.244000
20
31.944900
11
126.837000
21
33.049900
0
LINE
8
Layer 1
10
126.837000
20
33.049900
11
126.517000
21
34.183300
0
LINE
8
Layer 1
10
126.517000
20
34.183300
11
126.288000
21
35.338800
0
LINE
8
Layer 1
10
126.288000
20
35.338800
11
126.150000
21
36.508600
0
LINE
8
Layer 1
10
126.150000
20
36.508600
11
126.104000
21
37.685600
0
LINE
8
Layer 1
10
126.104000
20
37.685600
11
126.150000
21
38.862100
0
LINE
8
Layer 1
10
126.150000
20
38.862100
11
126.289000
21
40.032200
0
LINE
8
Layer 1
10
126.289000
20
40.032200
11
126.519000
21
41.186900
0
LINE
8
Layer 1
10
126.519000
20
41.186900
11
126.839000
21
42.320400
0
LINE
8
Layer 1
10
126.839000
20
42.320400
11
127.247000
21
43.425300
0
LINE
8
Layer 1
10
127.247000
20
43.425300
11
127.740000
21
44.494700
0
LINE
8
Layer 1
10
127.740000
20
44.494700
11
128.316000
21
45.522300
0
LINE
8
Layer 1
10
128.316000
20
45.522300
11
128.970000
21
46.501300
0
LINE
8
Layer 1
10
128.970000
20
46.501300
11
129.700000
21
47.426100
0
LINE
8
Layer 1
10
129.700000
20
47.426100
11
130.499000
21
48.291200
0
LINE
8
Layer 1
10
130.499000
20
48.291200
11
144.645000
21
62.429800
0
LINE
8
Layer 1
10
144.645000
20
62.429800
11
48.907500
21
158.361000
0
LINE
8
Layer 1
10
48.907500
20
158.361000
11
40.914700
21
167.011000
0
LINE
8
Layer 1
10
40.914700
20
167.011000
11
33.625100
21
176.262000
0
LINE
8
Layer 1
10
33.625100
20
176.262000
11
27.084200
21
186.057000
0
LINE
8
Layer 1
10
27.084200
20
186.057000
11
21.331700
21
196.334000
0
LINE
8
Layer 1
10
21.331700
20
196.334000
11
16.403800
21
207.032000
0
LINE
8
Layer 1
10
16.403800
20
207.032000
11
12.330000
21
218.083000
0
LINE
8
Layer 1
10
12.330000
20
218.083000
11
9.135770
21
229.420000
0
LINE
8
Layer 1
10
9.135770
20
229.420000
11
6.840530
21
240.971000
0
LINE
8
Layer 1
10
6.840530
20
240.971000
11
5.459430
21
252.668000
0
LINE
8
Layer 1
10
5.459430
20
252.668000
11
5.000000
21
264.437000
0
LINE
8
Layer 1
10
5.000000
20
264.437000
11
5.465240
21
276.206000
0
LINE
8
Layer 1
10
5.465240
20
276.206000
11
6.852300
21
287.902000
0
LINE
8
Layer 1
10
6.852300
20
287.902000
11
9.153010
21
299.453000
0
LINE
8
Layer 1
10
9.153010
20
299.453000
11
12.353300
21
310.788000
0
LINE
8
Layer 1
10
12.353300
20
310.788000
11
16.432300
21
321.837000
0
LINE
8
Layer 1
10
16.432300
20
321.837000
11
21.365700
21
332.532000
0
LINE
8
Layer 1
10
155.239000
20
16.465800
11
172.921000
21
34.139000
0
LINE
8
Layer 1
10
172.921000
20
34.139000
11
155.248000
21
51.820500
0
LINE
8
Layer 1
10
155.248000
20
51.820500
11
137.566000
21
34.147100
0
LINE
8
Layer 1
10
137.566000
20
34.147100
11
155.239000
21
16.465800
0
LINE
8
Layer 1
10
829.387000
20
690.535000
11
811.711000
21
708.213000
0
LINE
8
Layer 1
10
811.711000
20
708.213000
11
794.032000
21
690.537000
0
LINE
8
Layer 1
10
794.032000
20
690.537000
11
811.708000
21
672.858000
0
LINE
8
Layer 1
10
811.708000
20
672.858000
11
829.387000
21
690.535000
0
LINE
8
Layer 1
10
252.198000
20
609.087000
11
234.521000
21
591.410000
0
LINE
8
Layer 1
10
234.521000
20
591.410000
11
252.199000
21
573.732000
0
LINE
8
Layer 1
10
252.199000
20
573.732000
11
269.876000
21
591.409000
0
LINE
8
Layer 1
10
269.876000
20
591.409000
11
252.198000
21
609.087000
 0 
ENDSEC
 0 
EOF