999
"DXF R12 Output" (www.mydxf.blogspot.com)
 0 
SECTION
 2 
HEADER
 9 
$ACADVER
 1 
AC1009
 9 
$EXTMIN
 10 
 0 
 20 
 0 
 9 
$EXTMAX
 10 
 8.5 
 20 
 11 
 0 
ENDSEC
 0 
SECTION
 2 
ENTITIES
0
LINE
8
Layer 1
10
67.571200
20
550.152000
11
82.537300
21
570.177000
0
LINE
8
Layer 1
10
82.537300
20
570.177000
11
815.278000
21
44.730300
0
LINE
8
Layer 1
10
815.278000
20
44.730300
11
800.709000
21
24.414200
0
LINE
8
Layer 1
10
800.709000
20
24.414200
11
796.217000
21
27.510200
0
LINE
8
Layer 1
10
796.217000
20
27.510200
11
784.561000
21
11.257900
0
LINE
8
Layer 1
10
784.561000
20
11.257900
11
783.838000
21
10.328500
0
LINE
8
Layer 1
10
783.838000
20
10.328500
11
783.044000
21
9.458670
0
LINE
8
Layer 1
10
783.044000
20
9.458670
11
782.184000
21
8.653820
0
LINE
8
Layer 1
10
782.184000
20
8.653820
11
781.264000
21
7.918900
0
LINE
8
Layer 1
10
781.264000
20
7.918900
11
780.288000
21
7.258540
0
LINE
8
Layer 1
10
780.288000
20
7.258540
11
779.264000
21
6.676680
0
LINE
8
Layer 1
10
779.264000
20
6.676680
11
778.198000
21
6.177010
0
LINE
8
Layer 1
10
778.198000
20
6.177010
11
777.095000
21
5.762280
0
LINE
8
Layer 1
10
777.095000
20
5.762280
11
775.964000
21
5.435590
0
LINE
8
Layer 1
10
775.964000
20
5.435590
11
774.810000
21
5.199140
0
LINE
8
Layer 1
10
774.810000
20
5.199140
11
773.641000
21
5.053460
0
LINE
8
Layer 1
10
773.641000
20
5.053460
11
772.465000
21
5.000000
0
LINE
8
Layer 1
10
772.465000
20
5.000000
11
771.288000
21
5.038560
0
LINE
8
Layer 1
10
771.288000
20
5.038560
11
770.117000
21
5.170050
0
LINE
8
Layer 1
10
770.117000
20
5.170050
11
768.961000
21
5.392620
0
LINE
8
Layer 1
10
768.961000
20
5.392620
11
767.825000
21
5.705360
0
LINE
8
Layer 1
10
767.825000
20
5.705360
11
766.717000
21
6.106020
0
LINE
8
Layer 1
10
766.717000
20
6.106020
11
765.645000
21
6.592580
0
LINE
8
Layer 1
10
765.645000
20
6.592580
11
764.614000
21
7.161560
0
LINE
8
Layer 1
10
764.614000
20
7.161560
11
763.630000
21
7.809880
0
LINE
8
Layer 1
10
763.630000
20
7.809880
11
743.315000
21
22.378200
0
LINE
8
Layer 1
10
743.315000
20
22.378200
11
742.385000
21
23.101600
0
LINE
8
Layer 1
10
742.385000
20
23.101600
11
741.515000
21
23.895600
0
LINE
8
Layer 1
10
741.515000
20
23.895600
11
740.710000
21
24.755500
0
LINE
8
Layer 1
10
740.710000
20
24.755500
11
739.976000
21
25.676000
0
LINE
8
Layer 1
10
739.976000
20
25.676000
11
739.315000
21
26.651300
0
LINE
8
Layer 1
10
739.315000
20
26.651300
11
738.733000
21
27.675200
0
LINE
8
Layer 1
10
738.733000
20
27.675200
11
738.233000
21
28.741700
0
LINE
8
Layer 1
10
738.233000
20
28.741700
11
737.819000
21
29.844300
0
LINE
8
Layer 1
10
737.819000
20
29.844300
11
737.492000
21
30.975800
0
LINE
8
Layer 1
10
737.492000
20
30.975800
11
737.255000
21
32.129500
0
LINE
8
Layer 1
10
737.255000
20
32.129500
11
737.110000
21
33.298200
0
LINE
8
Layer 1
10
737.110000
20
33.298200
11
737.056000
21
34.474800
0
LINE
8
Layer 1
10
737.056000
20
34.474800
11
737.095000
21
35.651900
0
LINE
8
Layer 1
10
737.095000
20
35.651900
11
737.226000
21
36.822500
0
LINE
8
Layer 1
10
737.226000
20
36.822500
11
737.448000
21
37.979200
0
LINE
8
Layer 1
10
737.448000
20
37.979200
11
737.761000
21
39.114500
0
LINE
8
Layer 1
10
737.761000
20
39.114500
11
738.162000
21
40.222100
0
LINE
8
Layer 1
10
738.162000
20
40.222100
11
738.649000
21
41.294800
0
LINE
8
Layer 1
10
738.649000
20
41.294800
11
739.218000
21
42.325700
0
LINE
8
Layer 1
10
739.218000
20
42.325700
11
739.866000
21
43.309200
0
LINE
8
Layer 1
10
739.866000
20
43.309200
11
751.521000
21
59.561900
0
LINE
8
Layer 1
10
751.521000
20
59.561900
11
67.571200
21
550.152000
0
LINE
8
Layer 1
10
67.571200
20
550.152000
11
58.277800
21
557.387000
0
LINE
8
Layer 1
10
58.277800
20
557.387000
11
49.580300
21
565.328000
0
LINE
8
Layer 1
10
49.580300
20
565.328000
11
41.532800
21
573.928000
0
LINE
8
Layer 1
10
41.532800
20
573.928000
11
34.184900
21
583.133000
0
LINE
8
Layer 1
10
34.184900
20
583.133000
11
27.581900
21
592.886000
0
LINE
8
Layer 1
10
27.581900
20
592.886000
11
21.764300
21
603.127000
0
LINE
8
Layer 1
10
21.764300
20
603.127000
11
16.768300
21
613.793000
0
LINE
8
Layer 1
10
16.768300
20
613.793000
11
12.624300
21
624.818000
0
LINE
8
Layer 1
10
12.624300
20
624.818000
11
9.358240
21
636.134000
0
LINE
8
Layer 1
10
9.358240
20
636.134000
11
6.989960
21
647.671000
0
LINE
8
Layer 1
10
6.989960
20
647.671000
11
5.534300
21
659.359000
0
LINE
8
Layer 1
10
5.534300
20
659.359000
11
5.000000
21
671.124000
0
LINE
8
Layer 1
10
5.000000
20
671.124000
11
5.390670
21
682.896000
0
LINE
8
Layer 1
10
5.390670
20
682.896000
11
6.703610
21
694.600000
0
LINE
8
Layer 1
10
6.703610
20
694.600000
11
8.930760
21
706.166000
0
LINE
8
Layer 1
10
8.930760
20
706.166000
11
12.058600
21
717.521000
0
LINE
8
Layer 1
10
12.058600
20
717.521000
11
16.067400
21
728.595000
0
LINE
8
Layer 1
10
16.067400
20
728.595000
11
20.933100
21
739.321000
0
LINE
8
Layer 1
10
20.933100
20
739.321000
11
26.625100
21
749.632000
0
LINE
8
Layer 1
10
26.625100
20
749.632000
11
30.707800
21
756.119000
0
LINE
8
Layer 1
10
30.707800
20
756.119000
11
14.455900
21
767.776000
0
LINE
8
Layer 1
10
14.455900
20
767.776000
11
13.526600
21
768.499000
0
LINE
8
Layer 1
10
13.526600
20
768.499000
11
12.656800
21
769.293000
0
LINE
8
Layer 1
10
12.656800
20
769.293000
11
11.852100
21
770.153000
0
LINE
8
Layer 1
10
11.852100
20
770.153000
11
11.117300
21
771.074000
0
LINE
8
Layer 1
10
11.117300
20
771.074000
11
10.456900
21
772.049000
0
LINE
8
Layer 1
10
10.456900
20
772.049000
11
9.875190
21
773.073000
0
LINE
8
Layer 1
10
9.875190
20
773.073000
11
9.375580
21
774.140000
0
LINE
8
Layer 1
10
9.375580
20
774.140000
11
8.961170
21
775.242000
0
LINE
8
Layer 1
10
8.961170
20
775.242000
11
8.634560
21
776.374000
0
LINE
8
Layer 1
10
8.634560
20
776.374000
11
8.397740
21
777.527000
0
LINE
8
Layer 1
10
8.397740
20
777.527000
11
8.252140
21
778.696000
0
LINE
8
Layer 1
10
8.252140
20
778.696000
11
8.198720
21
779.873000
0
LINE
8
Layer 1
10
8.198720
20
779.873000
11
8.237790
21
781.050000
0
LINE
8
Layer 1
10
8.237790
20
781.050000
11
8.369000
21
782.220000
0
LINE
8
Layer 1
10
8.369000
20
782.220000
11
8.591770
21
783.377000
0
LINE
8
Layer 1
10
8.591770
20
783.377000
11
8.904530
21
784.512000
0
LINE
8
Layer 1
10
8.904530
20
784.512000
11
9.305440
21
785.620000
0
LINE
8
Layer 1
10
9.305440
20
785.620000
11
9.791930
21
786.692000
0
LINE
8
Layer 1
10
9.791930
20
786.692000
11
10.361200
21
787.723000
0
LINE
8
Layer 1
10
10.361200
20
787.723000
11
11.009500
21
788.707000
0
LINE
8
Layer 1
10
11.009500
20
788.707000
11
25.579900
21
809.021000
0
LINE
8
Layer 1
10
25.579900
20
809.021000
11
26.303400
21
809.950000
0
LINE
8
Layer 1
10
26.303400
20
809.950000
11
27.097600
21
810.820000
0
LINE
8
Layer 1
10
27.097600
20
810.820000
11
27.957600
21
811.625000
0
LINE
8
Layer 1
10
27.957600
20
811.625000
11
28.878100
21
812.360000
0
LINE
8
Layer 1
10
28.878100
20
812.360000
11
29.853300
21
813.020000
0
LINE
8
Layer 1
10
29.853300
20
813.020000
11
30.877400
21
813.602000
0
LINE
8
Layer 1
10
30.877400
20
813.602000
11
31.944000
21
814.101000
0
LINE
8
Layer 1
10
31.944000
20
814.101000
11
33.046400
21
814.516000
0
LINE
8
Layer 1
10
33.046400
20
814.516000
11
34.178100
21
814.842000
0
LINE
8
Layer 1
10
34.178100
20
814.842000
11
35.331800
21
815.079000
0
LINE
8
Layer 1
10
35.331800
20
815.079000
11
36.500500
21
815.225000
0
LINE
8
Layer 1
10
36.500500
20
815.225000
11
37.677200
21
815.278000
0
LINE
8
Layer 1
10
37.677200
20
815.278000
11
38.854400
21
815.239000
0
LINE
8
Layer 1
10
38.854400
20
815.239000
11
40.024900
21
815.108000
0
LINE
8
Layer 1
10
40.024900
20
815.108000
11
41.181500
21
814.885000
0
LINE
8
Layer 1
10
41.181500
20
814.885000
11
42.316900
21
814.573000
0
LINE
8
Layer 1
10
42.316900
20
814.573000
11
43.424400
21
814.172000
0
LINE
8
Layer 1
10
43.424400
20
814.172000
11
44.496900
21
813.685000
0
LINE
8
Layer 1
10
44.496900
20
813.685000
11
45.528100
21
813.116000
0
LINE
8
Layer 1
10
45.528100
20
813.116000
11
46.511300
21
812.468000
0
LINE
8
Layer 1
10
46.511300
20
812.468000
11
62.764000
21
800.811000
0
LINE
8
Layer 1
10
62.764000
20
800.811000
11
83.078700
21
786.240000
0
LINE
8
Layer 1
10
83.078700
20
786.240000
11
53.705400
21
745.296000
0
LINE
8
Layer 1
10
53.705400
20
745.296000
11
48.020300
21
736.700000
0
LINE
8
Layer 1
10
48.020300
20
736.700000
11
43.276900
21
728.108000
0
LINE
8
Layer 1
10
43.276900
20
728.108000
11
39.222200
21
719.170000
0
LINE
8
Layer 1
10
39.222200
20
719.170000
11
35.881600
21
709.941000
0
LINE
8
Layer 1
10
35.881600
20
709.941000
11
33.275000
21
700.478000
0
LINE
8
Layer 1
10
33.275000
20
700.478000
11
31.419200
21
690.840000
0
LINE
8
Layer 1
10
31.419200
20
690.840000
11
30.325100
21
681.087000
0
LINE
8
Layer 1
10
30.325100
20
681.087000
11
29.999600
21
671.277000
0
LINE
8
Layer 1
10
29.999600
20
671.277000
11
30.444800
21
661.472000
0
LINE
8
Layer 1
10
30.444800
20
661.472000
11
31.657900
21
651.733000
0
LINE
8
Layer 1
10
31.657900
20
651.733000
11
33.631400
21
642.118000
0
LINE
8
Layer 1
10
33.631400
20
642.118000
11
36.353200
21
632.688000
0
LINE
8
Layer 1
10
36.353200
20
632.688000
11
39.806400
21
623.500000
0
LINE
8
Layer 1
10
39.806400
20
623.500000
11
43.969900
21
614.612000
0
LINE
8
Layer 1
10
43.969900
20
614.612000
11
48.817800
21
606.078000
0
LINE
8
Layer 1
10
48.817800
20
606.078000
11
54.320300
21
597.951000
0
LINE
8
Layer 1
10
54.320300
20
597.951000
11
60.443600
21
590.280000
0
LINE
8
Layer 1
10
60.443600
20
590.280000
11
67.149900
21
583.114000
0
LINE
8
Layer 1
10
67.149900
20
583.114000
11
74.397800
21
576.495000
0
LINE
8
Layer 1
10
74.397800
20
576.495000
11
82.537300
21
570.177000
0
LINE
8
Layer 1
10
39.450700
20
768.309000
11
54.020900
21
788.623000
0
LINE
8
Layer 1
10
54.020900
20
788.623000
11
33.706300
21
803.193000
0
LINE
8
Layer 1
10
33.706300
20
803.193000
11
19.136000
21
782.879000
0
LINE
8
Layer 1
10
19.136000
20
782.879000
11
39.450700
21
768.309000
0
LINE
8
Layer 1
10
763.712000
20
50.820100
11
749.143000
21
30.504100
0
LINE
8
Layer 1
10
749.143000
20
30.504100
11
769.458000
21
15.935800
0
LINE
8
Layer 1
10
769.458000
20
15.935800
11
784.027000
21
36.251900
0
LINE
8
Layer 1
10
784.027000
20
36.251900
11
763.712000
21
50.820100
 0 
ENDSEC
 0 
EOF