999
"DXF R12 Output" (www.mydxf.blogspot.com)
 0 
SECTION
 2 
HEADER
 9 
$ACADVER
 1 
AC1009
 9 
$EXTMIN
 10 
 0 
 20 
 0 
 9 
$EXTMAX
 10 
 8.5 
 20 
 11 
 0 
ENDSEC
 0 
SECTION
 2 
ENTITIES
0
LINE
8
Layer 1
10
793.173000
20
496.891000
11
827.831000
21
460.851000
0
LINE
8
Layer 1
10
351.794000
20
88.733200
11
385.010000
21
51.361100
0
LINE
8
Layer 1
10
812.972000
20
658.804000
11
807.203000
21
666.744000
0
LINE
8
Layer 1
10
807.203000
20
666.744000
11
800.169000
21
674.935000
0
LINE
8
Layer 1
10
800.169000
20
674.935000
11
668.102000
21
817.787000
0
LINE
8
Layer 1
10
668.102000
20
817.787000
11
704.818000
21
851.728000
0
LINE
8
Layer 1
10
704.818000
20
851.728000
11
718.394000
21
837.041000
0
LINE
8
Layer 1
10
718.394000
20
837.041000
11
700.111000
21
820.140000
0
LINE
8
Layer 1
10
700.111000
20
820.140000
11
717.081000
21
801.782000
0
LINE
8
Layer 1
10
717.081000
20
801.782000
11
735.365000
21
818.683000
0
LINE
8
Layer 1
10
735.365000
20
818.683000
11
837.544000
21
708.148000
0
LINE
8
Layer 1
10
837.544000
20
708.148000
11
846.468000
21
697.699000
0
LINE
8
Layer 1
10
846.468000
20
697.699000
11
854.546000
21
686.583000
0
LINE
8
Layer 1
10
854.546000
20
686.583000
11
861.725000
21
674.867000
0
LINE
8
Layer 1
10
861.725000
20
674.867000
11
867.963000
21
662.624000
0
LINE
8
Layer 1
10
867.963000
20
662.624000
11
873.222000
21
649.929000
0
LINE
8
Layer 1
10
873.222000
20
649.929000
11
877.468000
21
636.861000
0
LINE
8
Layer 1
10
877.468000
20
636.861000
11
880.676000
21
623.500000
0
LINE
8
Layer 1
10
880.676000
20
623.500000
11
882.826000
21
609.927000
0
LINE
8
Layer 1
10
882.826000
20
609.927000
11
883.904000
21
596.229000
0
LINE
8
Layer 1
10
883.904000
20
596.229000
11
883.905000
21
582.488000
0
LINE
8
Layer 1
10
883.905000
20
582.488000
11
882.826000
21
568.789000
0
LINE
8
Layer 1
10
882.826000
20
568.789000
11
880.677000
21
555.218000
0
LINE
8
Layer 1
10
880.677000
20
555.218000
11
877.469000
21
541.856000
0
LINE
8
Layer 1
10
877.469000
20
541.856000
11
873.223000
21
528.788000
0
LINE
8
Layer 1
10
873.223000
20
528.788000
11
867.965000
21
516.093000
0
LINE
8
Layer 1
10
867.965000
20
516.093000
11
861.727000
21
503.849000
0
LINE
8
Layer 1
10
861.727000
20
503.849000
11
854.547000
21
492.133000
0
LINE
8
Layer 1
10
854.547000
20
492.133000
11
846.471000
21
481.017000
0
LINE
8
Layer 1
10
846.471000
20
481.017000
11
837.547000
21
470.568000
0
LINE
8
Layer 1
10
837.547000
20
470.568000
11
827.831000
21
460.851000
0
LINE
8
Layer 1
10
827.831000
20
460.851000
11
616.747000
21
265.655000
0
LINE
8
Layer 1
10
616.747000
20
265.655000
11
599.776000
21
284.012000
0
LINE
8
Layer 1
10
599.776000
20
284.012000
11
581.358000
21
266.981000
0
LINE
8
Layer 1
10
581.358000
20
266.981000
11
598.329000
21
248.624000
0
LINE
8
Layer 1
10
598.329000
20
248.624000
11
385.010000
21
51.361100
0
LINE
8
Layer 1
10
385.010000
20
51.361100
11
374.562000
21
42.436800
0
LINE
8
Layer 1
10
374.562000
20
42.436800
11
363.446000
21
34.360200
0
LINE
8
Layer 1
10
363.446000
20
34.360200
11
351.729000
21
27.180000
0
LINE
8
Layer 1
10
351.729000
20
27.180000
11
339.486000
21
20.941700
0
LINE
8
Layer 1
10
339.486000
20
20.941700
11
326.792000
21
15.683200
0
LINE
8
Layer 1
10
326.792000
20
15.683200
11
313.723000
21
11.436300
0
LINE
8
Layer 1
10
313.723000
20
11.436300
11
300.362000
21
8.228250
0
LINE
8
Layer 1
10
300.362000
20
8.228250
11
286.790000
21
6.078440
0
LINE
8
Layer 1
10
286.790000
20
6.078440
11
273.091000
21
5.000000
0
LINE
8
Layer 1
10
273.091000
20
5.000000
11
259.351000
21
5.000010
0
LINE
8
Layer 1
10
259.351000
20
5.000010
11
245.652000
21
6.077590
0
LINE
8
Layer 1
10
245.652000
20
6.077590
11
232.080000
21
8.226890
0
LINE
8
Layer 1
10
232.080000
20
8.226890
11
218.719000
21
11.434500
0
LINE
8
Layer 1
10
218.719000
20
11.434500
11
205.650000
21
15.680000
0
LINE
8
Layer 1
10
205.650000
20
15.680000
11
192.955000
21
20.938200
0
LINE
8
Layer 1
10
192.955000
20
20.938200
11
180.711000
21
27.175900
0
LINE
8
Layer 1
10
180.711000
20
27.175900
11
168.996000
21
34.355600
0
LINE
8
Layer 1
10
168.996000
20
34.355600
11
157.878000
21
42.431900
0
LINE
8
Layer 1
10
157.878000
20
42.431900
11
147.430000
21
51.355600
0
LINE
8
Layer 1
10
147.430000
20
51.355600
11
137.713000
21
61.071800
0
LINE
8
Layer 1
10
137.713000
20
61.071800
11
35.530600
21
171.605000
0
LINE
8
Layer 1
10
35.530600
20
171.605000
11
53.813300
21
188.507000
0
LINE
8
Layer 1
10
53.813300
20
188.507000
11
36.842700
21
206.864000
0
LINE
8
Layer 1
10
36.842700
20
206.864000
11
18.560000
21
189.963000
0
LINE
8
Layer 1
10
18.560000
20
189.963000
11
5.000000
21
204.631000
0
LINE
8
Layer 1
10
5.000000
20
204.631000
11
41.715000
21
238.572000
0
LINE
8
Layer 1
10
41.715000
20
238.572000
11
173.755000
21
95.727400
0
LINE
8
Layer 1
10
173.755000
20
95.727400
11
181.368000
21
88.072600
0
LINE
8
Layer 1
10
181.368000
20
88.072600
11
188.832000
21
81.698900
0
LINE
8
Layer 1
10
188.832000
20
81.698900
11
196.773000
21
75.929600
0
LINE
8
Layer 1
10
196.773000
20
75.929600
11
205.141000
21
70.801500
0
LINE
8
Layer 1
10
205.141000
20
70.801500
11
213.887000
21
66.346100
0
LINE
8
Layer 1
10
213.887000
20
66.346100
11
222.955000
21
62.590300
0
LINE
8
Layer 1
10
222.955000
20
62.590300
11
232.290000
21
59.557600
0
LINE
8
Layer 1
10
232.290000
20
59.557600
11
241.833000
21
57.266400
0
LINE
8
Layer 1
10
241.833000
20
57.266400
11
251.528000
21
55.731500
0
LINE
8
Layer 1
10
251.528000
20
55.731500
11
261.312000
21
54.961300
0
LINE
8
Layer 1
10
261.312000
20
54.961300
11
271.127000
21
54.961600
0
LINE
8
Layer 1
10
271.127000
20
54.961600
11
280.912000
21
55.732000
0
LINE
8
Layer 1
10
280.912000
20
55.732000
11
290.606000
21
57.267300
0
LINE
8
Layer 1
10
290.606000
20
57.267300
11
300.150000
21
59.559100
0
LINE
8
Layer 1
10
300.150000
20
59.559100
11
309.485000
21
62.592200
0
LINE
8
Layer 1
10
309.485000
20
62.592200
11
318.552000
21
66.348100
0
LINE
8
Layer 1
10
318.552000
20
66.348100
11
327.297000
21
70.804400
0
LINE
8
Layer 1
10
327.297000
20
70.804400
11
335.666000
21
75.933200
0
LINE
8
Layer 1
10
335.666000
20
75.933200
11
343.606000
21
81.702200
0
LINE
8
Layer 1
10
343.606000
20
81.702200
11
351.794000
21
88.733200
0
LINE
8
Layer 1
10
351.794000
20
88.733200
11
793.173000
21
496.891000
0
LINE
8
Layer 1
10
793.173000
20
496.891000
11
800.830000
21
504.507000
0
LINE
8
Layer 1
10
800.830000
20
504.507000
11
807.205000
21
511.971000
0
LINE
8
Layer 1
10
807.205000
20
511.971000
11
812.974000
21
519.911000
0
LINE
8
Layer 1
10
812.974000
20
519.911000
11
818.102000
21
528.280000
0
LINE
8
Layer 1
10
818.102000
20
528.280000
11
822.558000
21
537.025000
0
LINE
8
Layer 1
10
822.558000
20
537.025000
11
826.313000
21
546.093000
0
LINE
8
Layer 1
10
826.313000
20
546.093000
11
829.347000
21
555.428000
0
LINE
8
Layer 1
10
829.347000
20
555.428000
11
831.638000
21
564.971000
0
LINE
8
Layer 1
10
831.638000
20
564.971000
11
833.173000
21
574.666000
0
LINE
8
Layer 1
10
833.173000
20
574.666000
11
833.943000
21
584.450000
0
LINE
8
Layer 1
10
833.943000
20
584.450000
11
833.943000
21
594.265000
0
LINE
8
Layer 1
10
833.943000
20
594.265000
11
833.173000
21
604.050000
0
LINE
8
Layer 1
10
833.173000
20
604.050000
11
831.637000
21
613.744000
0
LINE
8
Layer 1
10
831.637000
20
613.744000
11
829.346000
21
623.288000
0
LINE
8
Layer 1
10
829.346000
20
623.288000
11
826.313000
21
632.622000
0
LINE
8
Layer 1
10
826.313000
20
632.622000
11
822.556000
21
641.690000
0
LINE
8
Layer 1
10
822.556000
20
641.690000
11
818.100000
21
650.435000
0
LINE
8
Layer 1
10
818.100000
20
650.435000
11
812.972000
21
658.804000
 0 
ENDSEC
 0 
EOF