999
"DXF R12 Output" (www.mydxf.blogspot.com)
 0 
SECTION
 2 
HEADER
 9 
$ACADVER
 1 
AC1009
 9 
$EXTMIN
 10 
 0 
 20 
 0 
 9 
$EXTMAX
 10 
 8.5 
 20 
 11 
 0 
ENDSEC
 0 
SECTION
 2 
ENTITIES
0
LINE
8
Layer 1
10
1180.430000
20
344.850000
11
1099.190000
21
409.632000
0
LINE
8
Layer 1
10
903.697000
20
565.448000
11
786.397000
21
658.942000
0
LINE
8
Layer 1
10
1209.610000
20
323.232000
11
1180.430000
21
344.850000
0
LINE
8
Layer 1
10
1218.000000
20
318.027000
11
1209.610000
21
323.232000
0
LINE
8
Layer 1
10
1941.910000
20
249.485000
11
1749.510000
21
409.119000
0
LINE
8
Layer 1
10
7301.560000
20
7375.580000
11
7208.070000
21
7258.280000
0
LINE
8
Layer 1
10
7052.270000
20
7062.780000
11
6958.770000
21
6945.470000
0
LINE
8
Layer 1
10
6856.760000
20
7218.590000
11
6873.220000
21
7149.290000
0
LINE
8
Layer 1
10
6873.220000
20
7149.290000
11
6802.370000
21
7070.120000
0
LINE
8
Layer 1
10
1021.380000
20
783.580000
11
1059.520000
21
760.944000
0
LINE
8
Layer 1
10
7135.660000
20
7507.200000
11
7044.690000
21
7444.660000
0
LINE
8
Layer 1
10
7125.650000
20
7513.410000
11
7044.690000
21
7444.660000
0
LINE
8
Layer 1
10
6771.580000
20
7271.420000
11
6873.220000
21
7149.290000
0
LINE
8
Layer 1
10
6755.400000
20
7240.080000
11
6873.220000
21
7149.290000
0
LINE
8
Layer 1
10
6748.890000
20
7217.460000
11
6873.220000
21
7149.290000
0
LINE
8
Layer 1
10
6746.000000
20
7194.110000
11
6873.220000
21
7149.290000
0
LINE
8
Layer 1
10
6746.800000
20
7170.580000
11
6873.220000
21
7149.290000
0
LINE
8
Layer 1
10
6751.270000
20
7147.470000
11
6873.220000
21
7149.290000
0
LINE
8
Layer 1
10
6759.300000
20
7125.350000
11
6873.220000
21
7149.290000
0
LINE
8
Layer 1
10
7044.690000
20
7444.660000
11
6942.060000
21
7485.330000
0
LINE
8
Layer 1
10
6777.560000
20
7095.180000
11
6873.220000
21
7149.290000
0
LINE
8
Layer 1
10
6785.170000
20
7086.190000
11
6873.220000
21
7149.290000
0
LINE
8
Layer 1
10
7044.690000
20
7444.660000
11
6959.430000
21
7501.210000
0
LINE
8
Layer 1
10
1021.380000
20
783.580000
11
1121.840000
21
839.137000
0
LINE
8
Layer 1
10
1341.150000
20
472.538000
11
1254.420000
21
533.903000
0
LINE
8
Layer 1
10
7104.330000
20
7523.380000
11
7044.690000
21
7444.660000
0
LINE
8
Layer 1
10
7044.690000
20
7444.660000
11
6979.070000
21
7514.180000
0
LINE
8
Layer 1
10
7044.690000
20
7444.660000
11
6989.590000
21
7519.480000
0
LINE
8
Layer 1
10
7081.710000
20
7529.890000
11
7044.690000
21
7444.660000
0
LINE
8
Layer 1
10
7058.350000
20
7532.780000
11
7044.690000
21
7444.660000
0
LINE
8
Layer 1
10
7044.690000
20
7444.660000
11
7011.720000
21
7527.510000
0
LINE
8
Layer 1
10
7046.570000
20
7532.840000
11
7044.690000
21
7444.660000
0
LINE
8
Layer 1
10
7044.690000
20
7444.660000
11
7023.180000
21
7530.190000
0
LINE
8
Layer 1
10
1627.190000
20
304.586000
11
1748.180000
21
85.811500
0
LINE
8
Layer 1
10
1791.840000
20
112.246000
11
1654.060000
21
320.854000
0
LINE
8
Layer 1
10
1833.290000
20
142.023000
11
1679.570000
21
339.179000
0
LINE
8
Layer 1
10
1599.130000
20
290.477000
11
1702.580000
21
62.884200
0
LINE
8
Layer 1
10
1540.130000
20
269.067000
11
1606.700000
21
28.094700
0
LINE
8
Layer 1
10
1655.330000
20
43.606600
11
1570.050000
21
278.614000
0
LINE
8
Layer 1
10
1872.280000
20
174.963000
11
1703.560000
21
359.448000
0
LINE
8
Layer 1
10
1908.560000
20
210.859000
11
1725.890000
21
381.544000
0
LINE
8
Layer 1
10
1415.770000
20
255.022000
11
1404.620000
21
5.270370
0
LINE
8
Layer 1
10
1455.660000
20
5.000000
11
1447.180000
21
254.856000
0
LINE
8
Layer 1
10
1506.560000
20
8.731250
11
1478.510000
21
257.152000
0
LINE
8
Layer 1
10
1557.010000
20
16.447000
11
1509.550000
21
261.899000
0
LINE
8
Layer 1
10
1353.480000
20
262.735000
11
1303.400000
21
17.803100
0
LINE
8
Layer 1
10
1353.760000
20
9.548070
11
1384.480000
21
257.655000
0
LINE
8
Layer 1
10
1322.980000
20
270.228000
11
1253.840000
21
29.983400
0
LINE
8
Layer 1
10
1293.160000
20
280.095000
11
1205.380000
21
46.016100
0
LINE
8
Layer 1
10
1236.310000
20
306.675000
11
1112.990000
21
89.212800
0
LINE
8
Layer 1
10
1158.340000
20
65.799100
11
1264.210000
21
292.267000
0
LINE
8
Layer 1
10
1028.480000
20
146.329000
11
1180.430000
21
344.850000
0
LINE
8
Layer 1
10
7145.160000
20
7500.230000
11
7044.690000
21
7444.660000
0
LINE
8
Layer 1
10
7044.690000
20
7444.660000
11
7012.570000
21
7414.090000
0
LINE
8
Layer 1
10
6873.220000
20
7149.290000
11
6778.550000
21
7280.910000
0
LINE
8
Layer 1
10
7044.690000
20
7444.660000
11
6934.360000
21
7476.410000
0
LINE
8
Layer 1
10
6765.370000
20
7261.410000
11
6873.220000
21
7149.290000
0
LINE
8
Layer 1
10
6759.970000
20
7250.940000
11
6873.220000
21
7149.290000
0
LINE
8
Layer 1
10
6751.700000
20
7228.900000
11
6873.220000
21
7149.290000
0
LINE
8
Layer 1
10
6746.990000
20
7205.840000
11
6873.220000
21
7149.290000
0
LINE
8
Layer 1
10
6745.940000
20
7182.330000
11
6873.220000
21
7149.290000
0
LINE
8
Layer 1
10
6748.580000
20
7158.940000
11
6873.220000
21
7149.290000
0
LINE
8
Layer 1
10
6754.850000
20
7136.250000
11
6873.220000
21
7149.290000
0
LINE
8
Layer 1
10
6764.590000
20
7114.820000
11
6873.220000
21
7149.290000
0
LINE
8
Layer 1
10
6770.690000
20
7104.750000
11
6873.220000
21
7149.290000
0
LINE
8
Layer 1
10
7044.690000
20
7444.660000
11
6950.430000
21
7493.610000
0
LINE
8
Layer 1
10
6793.450000
20
7077.810000
11
6873.220000
21
7149.290000
0
LINE
8
Layer 1
10
7115.190000
20
7518.810000
11
7044.690000
21
7444.660000
0
LINE
8
Layer 1
10
1254.420000
20
533.903000
11
1317.340000
21
683.328000
0
LINE
8
Layer 1
10
1254.420000
20
533.903000
11
1255.000000
21
605.132000
0
LINE
8
Layer 1
10
7044.690000
20
7444.660000
11
6968.990000
21
7508.080000
0
LINE
8
Layer 1
10
7093.150000
20
7527.080000
11
7044.690000
21
7444.660000
0
LINE
8
Layer 1
10
7044.690000
20
7444.660000
11
7000.490000
21
7523.930000
0
LINE
8
Layer 1
10
7070.090000
20
7531.790000
11
7044.690000
21
7444.660000
0
LINE
8
Layer 1
10
7034.830000
20
7531.980000
11
7044.690000
21
7444.660000
0
LINE
8
Layer 1
10
927.127000
20
832.534000
11
936.124000
21
840.135000
0
LINE
8
Layer 1
10
936.124000
20
840.135000
11
945.688000
21
847.005000
0
LINE
8
Layer 1
10
945.688000
20
847.005000
11
955.765000
21
853.106000
0
LINE
8
Layer 1
10
955.765000
20
853.106000
11
966.287000
21
858.397000
0
LINE
8
Layer 1
10
966.287000
20
858.397000
11
977.193000
21
862.846000
0
LINE
8
Layer 1
10
977.193000
20
862.846000
11
988.415000
21
866.426000
0
LINE
8
Layer 1
10
988.415000
20
866.426000
11
999.883000
21
869.114000
0
LINE
8
Layer 1
10
999.883000
20
869.114000
11
1011.520000
21
870.882000
0
LINE
8
Layer 1
10
1011.520000
20
870.882000
11
1023.260000
21
871.745000
0
LINE
8
Layer 1
10
1023.260000
20
871.745000
11
1035.040000
21
871.682000
0
LINE
8
Layer 1
10
1035.040000
20
871.682000
11
1046.780000
21
870.697000
0
LINE
8
Layer 1
10
1046.780000
20
870.697000
11
1058.400000
21
868.793000
0
LINE
8
Layer 1
10
1058.400000
20
868.793000
11
1069.830000
21
865.982000
0
LINE
8
Layer 1
10
1069.830000
20
865.982000
11
1081.010000
21
862.285000
0
LINE
8
Layer 1
10
1081.010000
20
862.285000
11
1091.870000
21
857.720000
0
LINE
8
Layer 1
10
1091.870000
20
857.720000
11
1102.340000
21
852.317000
0
LINE
8
Layer 1
10
1102.340000
20
852.317000
11
1112.350000
21
846.111000
0
LINE
8
Layer 1
10
1112.350000
20
846.111000
11
1121.840000
21
839.137000
0
LINE
8
Layer 1
10
1121.840000
20
839.137000
11
1317.340000
21
683.328000
0
LINE
8
Layer 1
10
1317.340000
20
683.328000
11
1326.250000
21
675.630000
0
LINE
8
Layer 1
10
1326.250000
20
675.630000
11
1334.530000
21
667.258000
0
LINE
8
Layer 1
10
1334.530000
20
667.258000
11
1342.130000
21
658.261000
0
LINE
8
Layer 1
10
1342.130000
20
658.261000
11
1349.010000
21
648.697000
0
LINE
8
Layer 1
10
1349.010000
20
648.697000
11
1355.110000
21
638.623000
0
LINE
8
Layer 1
10
1355.110000
20
638.623000
11
1360.400000
21
628.100000
0
LINE
8
Layer 1
10
1360.400000
20
628.100000
11
1364.850000
21
617.195000
0
LINE
8
Layer 1
10
1364.850000
20
617.195000
11
1368.430000
21
605.974000
0
LINE
8
Layer 1
10
1368.430000
20
605.974000
11
1371.120000
21
594.507000
0
LINE
8
Layer 1
10
1371.120000
20
594.507000
11
1372.900000
21
582.865000
0
LINE
8
Layer 1
10
1372.900000
20
582.865000
11
1373.760000
21
571.118000
0
LINE
8
Layer 1
10
1373.760000
20
571.118000
11
1373.700000
21
559.341000
0
LINE
8
Layer 1
10
1373.700000
20
559.341000
11
1372.710000
21
547.604000
0
LINE
8
Layer 1
10
1372.710000
20
547.604000
11
1370.810000
21
535.981000
0
LINE
8
Layer 1
10
1370.810000
20
535.981000
11
1368.000000
21
524.543000
0
LINE
8
Layer 1
10
1368.000000
20
524.543000
11
1364.300000
21
513.361000
0
LINE
8
Layer 1
10
1364.300000
20
513.361000
11
1359.730000
21
502.505000
0
LINE
8
Layer 1
10
1359.730000
20
502.505000
11
1354.330000
21
492.039000
0
LINE
8
Layer 1
10
1354.330000
20
492.039000
11
1348.120000
21
482.030000
0
LINE
8
Layer 1
10
1348.120000
20
482.030000
11
1341.150000
21
472.538000
0
LINE
8
Layer 1
10
1341.150000
20
472.538000
11
1218.000000
21
318.027000
0
LINE
8
Layer 1
10
1218.000000
20
318.027000
11
1236.310000
21
306.675000
0
LINE
8
Layer 1
10
1236.310000
20
306.675000
11
1264.210000
21
292.267000
0
LINE
8
Layer 1
10
1264.210000
20
292.267000
11
1293.160000
21
280.095000
0
LINE
8
Layer 1
10
1293.160000
20
280.095000
11
1322.980000
21
270.228000
0
LINE
8
Layer 1
10
1322.980000
20
270.228000
11
1353.480000
21
262.735000
0
LINE
8
Layer 1
10
1353.480000
20
262.735000
11
1384.480000
21
257.655000
0
LINE
8
Layer 1
10
1384.480000
20
257.655000
11
1415.770000
21
255.022000
0
LINE
8
Layer 1
10
1415.770000
20
255.022000
11
1447.180000
21
254.856000
0
LINE
8
Layer 1
10
1447.180000
20
254.856000
11
1478.510000
21
257.152000
0
LINE
8
Layer 1
10
1478.510000
20
257.152000
11
1509.550000
21
261.899000
0
LINE
8
Layer 1
10
1509.550000
20
261.899000
11
1540.130000
21
269.067000
0
LINE
8
Layer 1
10
1540.130000
20
269.067000
11
1570.050000
21
278.614000
0
LINE
8
Layer 1
10
1570.050000
20
278.614000
11
1599.130000
21
290.477000
0
LINE
8
Layer 1
10
1599.130000
20
290.477000
11
1627.190000
21
304.586000
0
LINE
8
Layer 1
10
1627.190000
20
304.586000
11
1654.060000
21
320.854000
0
LINE
8
Layer 1
10
1654.060000
20
320.854000
11
1679.570000
21
339.179000
0
LINE
8
Layer 1
10
1679.570000
20
339.179000
11
1703.560000
21
359.448000
0
LINE
8
Layer 1
10
1703.560000
20
359.448000
11
1725.890000
21
381.544000
0
LINE
8
Layer 1
10
1725.890000
20
381.544000
11
1749.510000
21
409.119000
0
LINE
8
Layer 1
10
1749.510000
20
409.119000
11
6958.770000
21
6945.470000
0
LINE
8
Layer 1
10
6958.770000
20
6945.470000
11
6802.370000
21
7070.120000
0
LINE
8
Layer 1
10
6802.370000
20
7070.120000
11
6793.450000
21
7077.810000
0
LINE
8
Layer 1
10
6793.450000
20
7077.810000
11
6785.170000
21
7086.190000
0
LINE
8
Layer 1
10
6785.170000
20
7086.190000
11
6777.560000
21
7095.180000
0
LINE
8
Layer 1
10
6777.560000
20
7095.180000
11
6770.690000
21
7104.750000
0
LINE
8
Layer 1
10
6770.690000
20
7104.750000
11
6764.590000
21
7114.820000
0
LINE
8
Layer 1
10
6764.590000
20
7114.820000
11
6759.300000
21
7125.350000
0
LINE
8
Layer 1
10
6759.300000
20
7125.350000
11
6754.850000
21
7136.250000
0
LINE
8
Layer 1
10
6754.850000
20
7136.250000
11
6751.270000
21
7147.470000
0
LINE
8
Layer 1
10
6751.270000
20
7147.470000
11
6748.580000
21
7158.940000
0
LINE
8
Layer 1
10
6748.580000
20
7158.940000
11
6746.800000
21
7170.580000
0
LINE
8
Layer 1
10
6746.800000
20
7170.580000
11
6745.940000
21
7182.330000
0
LINE
8
Layer 1
10
6745.940000
20
7182.330000
11
6746.000000
21
7194.110000
0
LINE
8
Layer 1
10
6746.000000
20
7194.110000
11
6746.990000
21
7205.840000
0
LINE
8
Layer 1
10
6746.990000
20
7205.840000
11
6748.890000
21
7217.460000
0
LINE
8
Layer 1
10
6748.890000
20
7217.460000
11
6751.700000
21
7228.900000
0
LINE
8
Layer 1
10
6751.700000
20
7228.900000
11
6755.400000
21
7240.080000
0
LINE
8
Layer 1
10
6755.400000
20
7240.080000
11
6759.970000
21
7250.940000
0
LINE
8
Layer 1
10
6759.970000
20
7250.940000
11
6765.370000
21
7261.410000
0
LINE
8
Layer 1
10
6765.370000
20
7261.410000
11
6771.580000
21
7271.420000
0
LINE
8
Layer 1
10
6771.580000
20
7271.420000
11
6778.550000
21
7280.910000
0
LINE
8
Layer 1
10
6778.550000
20
7280.910000
11
6934.360000
21
7476.410000
0
LINE
8
Layer 1
10
6934.360000
20
7476.410000
11
6942.060000
21
7485.330000
0
LINE
8
Layer 1
10
6942.060000
20
7485.330000
11
6950.430000
21
7493.610000
0
LINE
8
Layer 1
10
6950.430000
20
7493.610000
11
6959.430000
21
7501.210000
0
LINE
8
Layer 1
10
6959.430000
20
7501.210000
11
6968.990000
21
7508.080000
0
LINE
8
Layer 1
10
6968.990000
20
7508.080000
11
6979.070000
21
7514.180000
0
LINE
8
Layer 1
10
6979.070000
20
7514.180000
11
6989.590000
21
7519.480000
0
LINE
8
Layer 1
10
6989.590000
20
7519.480000
11
7000.490000
21
7523.930000
0
LINE
8
Layer 1
10
7000.490000
20
7523.930000
11
7011.720000
21
7527.510000
0
LINE
8
Layer 1
10
7011.720000
20
7527.510000
11
7023.180000
21
7530.190000
0
LINE
8
Layer 1
10
7023.180000
20
7530.190000
11
7034.830000
21
7531.980000
0
LINE
8
Layer 1
10
7034.830000
20
7531.980000
11
7046.570000
21
7532.840000
0
LINE
8
Layer 1
10
7046.570000
20
7532.840000
11
7058.350000
21
7532.780000
0
LINE
8
Layer 1
10
7058.350000
20
7532.780000
11
7070.090000
21
7531.790000
0
LINE
8
Layer 1
10
7070.090000
20
7531.790000
11
7081.710000
21
7529.890000
0
LINE
8
Layer 1
10
7081.710000
20
7529.890000
11
7093.150000
21
7527.080000
0
LINE
8
Layer 1
10
7093.150000
20
7527.080000
11
7104.330000
21
7523.380000
0
LINE
8
Layer 1
10
7104.330000
20
7523.380000
11
7115.190000
21
7518.810000
0
LINE
8
Layer 1
10
7115.190000
20
7518.810000
11
7125.650000
21
7513.410000
0
LINE
8
Layer 1
10
7125.650000
20
7513.410000
11
7135.660000
21
7507.200000
0
LINE
8
Layer 1
10
7135.660000
20
7507.200000
11
7145.160000
21
7500.230000
0
LINE
8
Layer 1
10
7145.160000
20
7500.230000
11
7301.560000
21
7375.580000
0
LINE
8
Layer 1
10
7301.560000
20
7375.580000
11
7337.330000
21
7420.460000
0
LINE
8
Layer 1
10
7337.330000
20
7420.460000
11
7532.830000
21
7264.640000
0
LINE
8
Layer 1
10
7532.830000
20
7264.640000
11
1941.910000
21
249.485000
0
LINE
8
Layer 1
10
1941.910000
20
249.485000
11
1908.560000
21
210.859000
0
LINE
8
Layer 1
10
1908.560000
20
210.859000
11
1872.280000
21
174.963000
0
LINE
8
Layer 1
10
1872.280000
20
174.963000
11
1833.290000
21
142.023000
0
LINE
8
Layer 1
10
1833.290000
20
142.023000
11
1791.840000
21
112.246000
0
LINE
8
Layer 1
10
1791.840000
20
112.246000
11
1748.180000
21
85.811500
0
LINE
8
Layer 1
10
1748.180000
20
85.811500
11
1702.580000
21
62.884200
0
LINE
8
Layer 1
10
1702.580000
20
62.884200
11
1655.330000
21
43.606600
0
LINE
8
Layer 1
10
1655.330000
20
43.606600
11
1606.700000
21
28.094700
0
LINE
8
Layer 1
10
1606.700000
20
28.094700
11
1557.010000
21
16.447000
0
LINE
8
Layer 1
10
1557.010000
20
16.447000
11
1506.560000
21
8.731250
0
LINE
8
Layer 1
10
1506.560000
20
8.731250
11
1455.660000
21
5.000000
0
LINE
8
Layer 1
10
1455.660000
20
5.000000
11
1404.620000
21
5.270370
0
LINE
8
Layer 1
10
1404.620000
20
5.270370
11
1353.760000
21
9.548070
0
LINE
8
Layer 1
10
1353.760000
20
9.548070
11
1303.400000
21
17.803100
0
LINE
8
Layer 1
10
1303.400000
20
17.803100
11
1253.840000
21
29.983400
0
LINE
8
Layer 1
10
1253.840000
20
29.983400
11
1205.380000
21
46.016100
0
LINE
8
Layer 1
10
1205.380000
20
46.016100
11
1158.340000
21
65.799100
0
LINE
8
Layer 1
10
1158.340000
20
65.799100
11
1112.990000
21
89.212800
0
LINE
8
Layer 1
10
1112.990000
20
89.212800
11
1069.610000
21
116.111000
0
LINE
8
Layer 1
10
1069.610000
20
116.111000
11
1028.480000
21
146.329000
0
LINE
8
Layer 1
10
1028.480000
20
146.329000
11
5.000000
21
962.094000
0
LINE
8
Layer 1
10
5.000000
20
962.094000
11
160.821000
21
1157.590000
0
LINE
8
Layer 1
10
160.821000
20
1157.590000
11
786.397000
21
658.942000
0
LINE
8
Layer 1
10
786.397000
20
658.942000
11
911.058000
21
815.336000
0
LINE
8
Layer 1
10
911.058000
20
815.336000
11
918.754000
21
824.250000
0
LINE
8
Layer 1
10
918.754000
20
824.250000
11
927.127000
21
832.534000
0
LINE
8
Layer 1
10
7052.270000
20
7062.780000
11
7208.070000
21
7258.280000
0
LINE
8
Layer 1
10
7208.070000
20
7258.280000
11
7012.570000
21
7414.090000
0
LINE
8
Layer 1
10
7012.570000
20
7414.090000
11
6856.760000
21
7218.590000
0
LINE
8
Layer 1
10
6856.760000
20
7218.590000
11
7052.270000
21
7062.780000
0
LINE
8
Layer 1
10
903.697000
20
565.448000
11
1099.190000
21
409.632000
0
LINE
8
Layer 1
10
1099.190000
20
409.632000
11
1255.000000
21
605.132000
0
LINE
8
Layer 1
10
1255.000000
20
605.132000
11
1059.520000
21
760.944000
0
LINE
8
Layer 1
10
1059.520000
20
760.944000
11
903.697000
21
565.448000
 0 
ENDSEC
 0 
EOF