  0
SECTION
  2
HEADER
  9
$ACADVER
  1
AC1009
  9
$INSBASE
 10
0.0
 20
0.0
 30
0.0
  9
$EXTMIN
 10
0.0
 20
0.0
 30
0.0
  9
$EXTMAX
 10
0.0
 20
0.0
 30
0.0
  0
ENDSEC
  0
SECTION
  2
TABLES
  0
TABLE
  2
VPORT
 70
1
  0
VPORT
  2
*ACTIVE
 70
0
 10
0.0
 20
0.0
 11
1.0
 21
1.0
 12
-5.0
 22
1.0
 13
0.0
 23
0.0
 14
0.1
 24
0.1
 15
0.1
 25
0.1
 16
0.0
 26
0.0
 36
1.0
 17
0.0
 27
0.0
 37
0.0
 40
10.0
 41
1.0
 42
50.0
 43
0.0
 44
0.0
 50
0.0
 51
0.0
 71
0
 72
100
 73
1
 74
1
 75
0
 76
0
 77
0
 78
0
  0
ENDTAB
  0
TABLE
  2
LTYPE
 70
8
  0
LTYPE
  2
CONTINUOUS
 70
0
  3
Solid line
 72
65
 73
0
 40
0.0
  0
LTYPE
  2
DOT
 70
0
  3
. . . . . . .
 72
65
 73
2
 40
0.25
 49
0.0
 49
-0.25
  0
LTYPE
  2
DASHED
 70
0
  3
__ __ __ __ __
 72
65
 73
2
 40
0.8
 49
0.5
 49
-0.3
  0
LTYPE
  2
DASHDOT
 70
0
  3
__ . __ . __ .
 72
65
 73
4
 40
1.0
 49
0.5
 49
-0.25
 49
0.0
 49
-0.25
  0
LTYPE
  2
DIVIDE
 70
0
  3
____ . . ____ . . 
 72
65
 73
6
 40
1.25
 49
0.5
 49
-0.25
 49
0.0
 49
-0.25
 49
0.0
 49
-0.25
  0
LTYPE
  2
BORDER
 70
0
  3
__ __ . __ __ . 
 72
65
 73
6
 40
1.75
 49
0.5
 49
-0.25
 49
0.5
 49
-0.25
 49
0.0
 49
-0.25
  0
LTYPE
  2
HIDDEN
 70
0
  3
__ __ __ __ __
 72
65
 73
2
 40
0.4
 49
0.25
 49
-0.25
  0
LTYPE
  2
CENTER
 70
0
  3
____ _ ____ _ __
 72
65
 73
4
 40
2.0
 49
1.25
 49
-0.25
 49
0.25
 49
-0.25
  0
ENDTAB
  0
TABLE
  2
LAYER
 70
1
  0
LAYER
  2
PYDXF
 70
64
 62
7
  6
continuous
  0
ENDTAB
  0
TABLE
  2
STYLE
 70
1
  0
STYLE
  2
STANDARD
 70
0
 40
0
 41
1.0
 50
0.0
 71
0
 42
1
 3
ARIAL.TTF
 4

  0
ENDTAB
  0
TABLE
  2
VIEW
 70
1
  0
VIEW
  2
BF_TOPVIEW
 70
0
 40
120.0
 10
0.0
 20
0.0
 41
200.0
 11
0.0
 21
0.0
 31
1.0
 12
0.0
 22
0.0
 32
0.0
 42
50.0
 43
0.0
 44
0.0
 50
0.0
 71
0
  0
ENDTAB
  0
ENDSEC
  0
SECTION
  2
BLOCKS
  0
ENDSEC
  0
SECTION
  2
ENTITIES
  0
LINE
  8
0
 10
319.5340576171875
 20
-18.024105072021484
 30
11.247471809387207
 11
319.5188903808594
 21
-18.248363494873047
 31
11.247471809387207
  0
LINE
  8
0
 10
319.5188903808594
 20
-18.248363494873047
 30
11.247471809387207
 11
319.474609375
 21
-18.462141036987305
 31
11.247471809387207
  0
LINE
  8
0
 10
319.474609375
 20
-18.462141036987305
 30
11.247471809387207
 11
319.4031677246094
 21
-18.66350746154785
 31
11.247471809387207
  0
LINE
  8
0
 10
319.4031677246094
 20
-18.66350746154785
 30
11.247471809387207
 11
319.30657958984375
 21
-18.850616455078125
 31
11.247471809387207
  0
LINE
  8
0
 10
319.30657958984375
 20
-18.850616455078125
 30
11.247471809387207
 11
319.1868591308594
 21
-19.02170753479004
 31
11.247471809387207
  0
LINE
  8
0
 10
319.1868591308594
 20
-19.02170753479004
 30
11.247471809387207
 11
319.0461120605469
 21
-19.17510986328125
 31
11.247471809387207
  0
LINE
  8
0
 10
319.0461120605469
 20
-19.17510986328125
 30
11.247471809387207
 11
318.8863830566406
 21
-19.309207916259766
 31
11.247471809387207
  0
LINE
  8
0
 10
318.8863830566406
 20
-19.309207916259766
 30
11.247471809387207
 11
318.7096862792969
 21
-19.42241859436035
 31
11.247471809387207
  0
LINE
  8
0
 10
318.7096862792969
 20
-19.42241859436035
 30
11.247471809387207
 11
318.51806640625
 21
-19.513174057006836
 31
11.247471809387207
  0
LINE
  8
0
 10
316.62786865234375
 20
-18.424537658691406
 30
11.247406005859375
 11
316.56878662109375
 21
-18.424461364746094
 31
11.24747085571289
  0
LINE
  8
0
 10
316.4076843261719
 20
-18.424461364746094
 30
11.24739933013916
 11
316.4187927246094
 21
-18.424461364746094
 31
11.24747085571289
  0
LINE
  8
0
 10
318.51806640625
 20
-19.513174057006836
 30
11.247471809387207
 11
318.31353759765625
 21
-19.579912185668945
 31
11.247471809387207
  0
LINE
  8
0
 10
316.1869812011719
 20
-18.424320220947266
 30
11.247395515441895
 11
316.1687927246094
 21
-18.4243221282959
 31
11.24747085571289
  0
LINE
  8
0
 10
318.31353759765625
 20
-19.579912185668945
 30
11.247471809387207
 11
318.0981750488281
 21
-19.621074676513672
 31
11.247471809387207
  0
LINE
  8
0
 10
315.9687805175781
 20
-19.524105072021484
 30
11.247393608093262
 11
316.018798828125
 21
-19.524320602416992
 31
11.24747085571289
  0
LINE
  8
0
 10
318.0843811035156
 20
-19.511943817138672
 30
11.247471809387207
 11
318.0981750488281
 21
-19.621074676513672
 31
11.247471809387207
  0
LINE
  8
0
 10
318.0981750488281
 20
-19.621074676513672
 30
11.247471809387207
 11
317.8740539550781
 21
-19.635128021240234
 31
11.247471809387207
  0
LINE
  8
0
 10
318.0843811035156
 20
-19.511943817138672
 30
11.247471809387207
 11
317.8740539550781
 21
-19.525131225585938
 31
11.247471809387207
  0
LINE
  8
0
 10
317.8740539550781
 20
-19.525131225585938
 30
11.247471809387207
 11
317.8740539550781
 21
-19.635128021240234
 31
11.247471809387207
  0
LINE
  8
0
 10
315.9690856933594
 20
-19.274105072021484
 30
11.247393608093262
 11
316.1863098144531
 21
-19.274320602416992
 31
11.247395515441895
  0
LINE
  8
0
 10
315.9700927734375
 20
-18.42410659790039
 30
11.247393608093262
 11
316.0187683105469
 21
-18.424320220947266
 31
11.24747085571289
  0
LINE
  8
0
 10
315.9687805175781
 20
-19.524105072021484
 30
11.247393608093262
 11
315.9690856933594
 21
-19.274105072021484
 31
11.247393608093262
  0
LINE
  8
0
 10
316.18609619140625
 20
-19.524320602416992
 30
11.247395515441895
 11
316.1863098144531
 21
-19.274320602416992
 31
11.247395515441895
  0
LINE
  8
0
 10
316.1863098144531
 20
-19.274320602416992
 30
11.247395515441895
 11
316.40728759765625
 21
-19.27446174621582
 31
11.24739933013916
  0
LINE
  8
0
 10
316.18609619140625
 20
-19.524320602416992
 30
11.247395515441895
 11
316.40716552734375
 21
-19.52446174621582
 31
11.24739933013916
  0
LINE
  8
0
 10
316.40716552734375
 20
-19.52446174621582
 30
11.24739933013916
 11
316.40728759765625
 21
-19.27446174621582
 31
11.24739933013916
  0
LINE
  8
0
 10
316.40728759765625
 20
-19.27446174621582
 30
11.24739933013916
 11
316.627685546875
 21
-19.274538040161133
 31
11.247406005859375
  0
LINE
  8
0
 10
316.18609619140625
 20
-19.524320602416992
 30
11.247395515441895
 11
316.1687927246094
 21
-19.524320602416992
 31
11.24747085571289
  0
LINE
  8
0
 10
316.62762451171875
 20
-19.524538040161133
 30
11.247406005859375
 11
316.627685546875
 21
-19.274538040161133
 31
11.247406005859375
  0
LINE
  8
0
 10
316.627685546875
 20
-19.274538040161133
 30
11.247406005859375
 11
316.84320068359375
 21
-19.274560928344727
 31
11.247413635253906
  0
LINE
  8
0
 10
316.62762451171875
 20
-19.524538040161133
 30
11.247406005859375
 11
316.84320068359375
 21
-19.524560928344727
 31
11.247413635253906
  0
LINE
  8
0
 10
316.84320068359375
 20
-19.524560928344727
 30
11.247413635253906
 11
316.84320068359375
 21
-19.274560928344727
 31
11.247413635253906
  0
LINE
  8
0
 10
316.84320068359375
 20
-19.274560928344727
 30
11.247413635253906
 11
317.049560546875
 21
-19.2745418548584
 31
11.24742317199707
  0
LINE
  8
0
 10
316.84320068359375
 20
-19.524560928344727
 30
11.247413635253906
 11
317.0495910644531
 21
-19.5245418548584
 31
11.24742317199707
  0
LINE
  8
0
 10
317.0495910644531
 20
-19.5245418548584
 30
11.24742317199707
 11
317.049560546875
 21
-19.2745418548584
 31
11.24742317199707
  0
LINE
  8
0
 10
317.049560546875
 20
-19.2745418548584
 30
11.24742317199707
 11
317.24237060546875
 21
-19.274490356445312
 31
11.247432708740234
  0
LINE
  8
0
 10
317.0495910644531
 20
-19.5245418548584
 30
11.24742317199707
 11
317.2424621582031
 21
-19.524490356445312
 31
11.247432708740234
  0
LINE
  8
0
 10
317.2424621582031
 20
-19.524490356445312
 30
11.247432708740234
 11
317.24237060546875
 21
-19.274490356445312
 31
11.247432708740234
  0
LINE
  8
0
 10
317.24237060546875
 20
-19.274490356445312
 30
11.247432708740234
 11
317.4173583984375
 21
-19.274417877197266
 31
11.247442245483398
  0
LINE
  8
0
 10
317.2424621582031
 20
-19.524490356445312
 30
11.247432708740234
 11
317.41748046875
 21
-19.524417877197266
 31
11.247442245483398
  0
LINE
  8
0
 10
317.41748046875
 20
-19.524417877197266
 30
11.247442245483398
 11
317.4173583984375
 21
-19.274417877197266
 31
11.247442245483398
  0
LINE
  8
0
 10
317.4173583984375
 20
-19.274417877197266
 30
11.247442245483398
 11
317.5701904296875
 21
-19.274333953857422
 31
11.247451782226562
  0
LINE
  8
0
 10
317.41748046875
 20
-19.524417877197266
 30
11.247442245483398
 11
317.5703430175781
 21
-19.524333953857422
 31
11.247451782226562
  0
LINE
  8
0
 10
317.5703430175781
 20
-19.524333953857422
 30
11.247451782226562
 11
317.5701904296875
 21
-19.274333953857422
 31
11.247451782226562
  0
LINE
  8
0
 10
317.5701904296875
 20
-19.274333953857422
 30
11.247451782226562
 11
317.69659423828125
 21
-19.274250030517578
 31
11.247459411621094
  0
LINE
  8
0
 10
317.5703430175781
 20
-19.524333953857422
 30
11.247451782226562
 11
317.69677734375
 21
-19.524250030517578
 31
11.247459411621094
  0
LINE
  8
0
 10
317.69677734375
 20
-19.524250030517578
 30
11.247459411621094
 11
317.69659423828125
 21
-19.274250030517578
 31
11.247459411621094
  0
LINE
  8
0
 10
317.69659423828125
 20
-19.274250030517578
 30
11.247459411621094
 11
317.7922058105469
 21
-19.27417755126953
 31
11.247466087341309
  0
LINE
  8
0
 10
317.69677734375
 20
-19.524250030517578
 30
11.247459411621094
 11
317.7923889160156
 21
-19.52417755126953
 31
11.247466087341309
  0
LINE
  8
0
 10
317.7923889160156
 20
-19.52417755126953
 30
11.247466087341309
 11
317.7922058105469
 21
-19.27417755126953
 31
11.247466087341309
  0
LINE
  8
0
 10
317.7922058105469
 20
-19.27417755126953
 30
11.247466087341309
 11
317.85272216796875
 21
-19.274126052856445
 31
11.247469902038574
  0
LINE
  8
0
 10
317.7923889160156
 20
-19.52417755126953
 30
11.247466087341309
 11
317.8529357910156
 21
-19.524126052856445
 31
11.247469902038574
  0
LINE
  8
0
 10
317.8529357910156
 20
-19.524126052856445
 30
11.247469902038574
 11
317.85272216796875
 21
-19.274126052856445
 31
11.247469902038574
  0
LINE
  8
0
 10
317.85272216796875
 20
-19.274126052856445
 30
11.247469902038574
 11
317.86627197265625
 21
-19.274227142333984
 31
11.247471809387207
  0
LINE
  8
0
 10
317.8529357910156
 20
-19.524126052856445
 30
11.247469902038574
 11
317.87408447265625
 21
-19.524105072021484
 31
11.247471809387207
  0
LINE
  8
0
 10
317.87408447265625
 20
-19.524105072021484
 30
11.247471809387207
 11
317.86627197265625
 21
-19.274227142333984
 31
11.247471809387207
  0
LINE
  8
0
 10
317.86627197265625
 20
-19.274227142333984
 30
11.247471809387207
 11
318.0533142089844
 21
-19.26309585571289
 31
11.247471809387207
  0
LINE
  8
0
 10
316.40716552734375
 20
-19.52446174621582
 30
11.24739933013916
 11
316.4187927246094
 21
-19.524538040161133
 31
11.24747085571289
  0
LINE
  8
0
 10
316.62762451171875
 20
-19.524538040161133
 30
11.247406005859375
 11
316.56878662109375
 21
-19.524538040161133
 31
11.24747085571289
  0
LINE
  8
0
 10
318.0533142089844
 20
-19.26309585571289
 30
11.247471809387207
 11
318.2239685058594
 21
-19.230648040771484
 31
11.247471809387207
  0
LINE
  8
0
 10
318.2861328125
 20
-19.472797393798828
 30
11.247471809387207
 11
318.2239685058594
 21
-19.230648040771484
 31
11.247471809387207
  0
LINE
  8
0
 10
318.2239685058594
 20
-19.230648040771484
 30
11.247471809387207
 11
318.3851013183594
 21
-19.17820930480957
 31
11.247471809387207
  0
LINE
  8
0
 10
318.2861328125
 20
-19.472797393798828
 30
11.247471809387207
 11
318.4774169921875
 21
-19.41054344177246
 31
11.247471809387207
  0
LINE
  8
0
 10
318.4774169921875
 20
-19.41054344177246
 30
11.247471809387207
 11
318.3851013183594
 21
-19.17820930480957
 31
11.247471809387207
  0
LINE
  8
0
 10
318.3851013183594
 20
-19.17820930480957
 30
11.247471809387207
 11
318.53533935546875
 21
-19.107177734375
 31
11.247471809387207
  0
LINE
  8
0
 10
318.4774169921875
 20
-19.41054344177246
 30
11.247471809387207
 11
318.6564025878906
 21
-19.325904846191406
 31
11.247471809387207
  0
LINE
  8
0
 10
318.6564025878906
 20
-19.325904846191406
 30
11.247471809387207
 11
318.53533935546875
 21
-19.107177734375
 31
11.247471809387207
  0
LINE
  8
0
 10
318.53533935546875
 20
-19.107177734375
 30
11.247471809387207
 11
318.6732177734375
 21
-19.01892852783203
 31
11.247471809387207
  0
LINE
  8
0
 10
318.6564025878906
 20
-19.325904846191406
 30
11.247471809387207
 11
318.8212585449219
 21
-19.220386505126953
 31
11.247471809387207
  0
LINE
  8
0
 10
318.8212585449219
 20
-19.220386505126953
 30
11.247471809387207
 11
318.6732177734375
 21
-19.01892852783203
 31
11.247471809387207
  0
LINE
  8
0
 10
318.6732177734375
 20
-19.01892852783203
 30
11.247471809387207
 11
318.79730224609375
 21
-18.914831161499023
 31
11.247471809387207
  0
LINE
  8
0
 10
318.8212585449219
 20
-19.220386505126953
 30
11.247471809387207
 11
318.9700927734375
 21
-19.095504760742188
 31
11.247471809387207
  0
LINE
  8
0
 10
318.9700927734375
 20
-19.095504760742188
 30
11.247471809387207
 11
318.79730224609375
 21
-18.914831161499023
 31
11.247471809387207
  0
LINE
  8
0
 10
318.79730224609375
 20
-18.914831161499023
 30
11.247471809387207
 11
318.9062194824219
 21
-18.796222686767578
 31
11.247471809387207
  0
LINE
  8
0
 10
318.9700927734375
 20
-19.095504760742188
 30
11.247471809387207
 11
319.10113525390625
 21
-18.952768325805664
 31
11.247471809387207
  0
LINE
  8
0
 10
319.10113525390625
 20
-18.952768325805664
 30
11.247471809387207
 11
318.9062194824219
 21
-18.796222686767578
 31
11.247471809387207
  0
LINE
  8
0
 10
318.9062194824219
 20
-18.796222686767578
 30
11.247471809387207
 11
318.9985046386719
 21
-18.664363861083984
 31
11.247471809387207
  0
LINE
  8
0
 10
319.21246337890625
 20
-18.793685913085938
 30
11.247471809387207
 11
319.13922119140625
 21
-18.898340225219727
 31
11.247471809387207
  0
LINE
  8
0
 10
319.21246337890625
 20
-18.793685913085938
 30
11.247471809387207
 11
318.9985046386719
 21
-18.664363861083984
 31
11.247471809387207
  0
LINE
  8
0
 10
318.9985046386719
 20
-18.664363861083984
 30
11.247471809387207
 11
319.0728759765625
 21
-18.520383834838867
 31
11.247471809387207
  0
LINE
  8
0
 10
319.21246337890625
 20
-18.793685913085938
 30
11.247471809387207
 11
319.3022766113281
 21
-18.619766235351562
 31
11.247471809387207
  0
LINE
  8
0
 10
319.3022766113281
 20
-18.619766235351562
 30
11.247471809387207
 11
319.0728759765625
 21
-18.520383834838867
 31
11.247471809387207
  0
LINE
  8
0
 10
319.0728759765625
 20
-18.520383834838867
 30
11.247471809387207
 11
319.1279602050781
 21
-18.36522102355957
 31
11.247471809387207
  0
LINE
  8
0
 10
319.3022766113281
 20
-18.619766235351562
 30
11.247471809387207
 11
319.36871337890625
 21
-18.432523727416992
 31
11.247471809387207
  0
LINE
  8
0
 10
319.36871337890625
 20
-18.432523727416992
 30
11.247471809387207
 11
319.1279602050781
 21
-18.36522102355957
 31
11.247471809387207
  0
LINE
  8
0
 10
319.1279602050781
 20
-18.36522102355957
 30
11.247471809387207
 11
319.1622314453125
 21
-18.199613571166992
 31
11.247471809387207
  0
LINE
  8
0
 10
319.36871337890625
 20
-18.432523727416992
 30
11.247471809387207
 11
319.4099426269531
 21
-18.23346710205078
 31
11.247471809387207
  0
LINE
  8
0
 10
319.4099426269531
 20
-18.23346710205078
 30
11.247471809387207
 11
319.1622314453125
 21
-18.199613571166992
 31
11.247471809387207
  0
LINE
  8
0
 10
319.1622314453125
 20
-18.199613571166992
 30
11.247471809387207
 11
319.1742248535156
 21
-18.01565933227539
 31
11.247471809387207
  0
LINE
  8
0
 10
319.4099426269531
 20
-18.23346710205078
 30
11.247471809387207
 11
319.424072265625
 21
-18.024105072021484
 31
11.247471809387207
  0
LINE
  8
0
 10
319.424072265625
 20
-18.024105072021484
 30
11.247471809387207
 11
319.1742248535156
 21
-18.01565933227539
 31
11.247471809387207
  0
LINE
  8
0
 10
319.1742248535156
 20
-18.01565933227539
 30
11.247471809387207
 11
319.174072265625
 21
-17.906827926635742
 31
11.257309913635254
  0
LINE
  8
0
 10
319.424072265625
 20
-18.024105072021484
 30
11.247471809387207
 11
319.424072265625
 21
-17.90682601928711
 31
11.257309913635254
  0
LINE
  8
0
 10
319.424072265625
 20
-17.90682601928711
 30
11.257309913635254
 11
319.174072265625
 21
-17.906827926635742
 31
11.257309913635254
  0
LINE
  8
0
 10
319.174072265625
 20
-17.906827926635742
 30
11.257309913635254
 11
319.174072265625
 21
-17.582582473754883
 31
11.28450870513916
  0
LINE
  8
0
 10
319.424072265625
 20
-17.90682601928711
 30
11.257309913635254
 11
319.424072265625
 21
-17.58258056640625
 31
11.28450870513916
  0
LINE
  8
0
 10
319.424072265625
 20
-17.58258056640625
 30
11.28450870513916
 11
319.174072265625
 21
-17.582582473754883
 31
11.28450870513916
  0
LINE
  8
0
 10
319.174072265625
 20
-17.582582473754883
 30
11.28450870513916
 11
319.174072265625
 21
-17.09276580810547
 31
11.325596809387207
  0
LINE
  8
0
 10
319.424072265625
 20
-17.58258056640625
 30
11.28450870513916
 11
319.424072265625
 21
-17.092763900756836
 31
11.325596809387207
  0
LINE
  8
0
 10
319.424072265625
 20
-17.092763900756836
 30
11.325596809387207
 11
319.174072265625
 21
-17.09276580810547
 31
11.325596809387207
  0
LINE
  8
0
 10
319.174072265625
 20
-17.09276580810547
 30
11.325596809387207
 11
319.174072265625
 21
-16.478769302368164
 31
11.377100944519043
  0
LINE
  8
0
 10
319.424072265625
 20
-17.092763900756836
 30
11.325596809387207
 11
319.424072265625
 21
-16.47876739501953
 31
11.377100944519043
  0
LINE
  8
0
 10
319.424072265625
 20
-16.47876739501953
 30
11.377100944519043
 11
319.174072265625
 21
-16.478769302368164
 31
11.377100944519043
  0
LINE
  8
0
 10
319.174072265625
 20
-16.478769302368164
 30
11.377100944519043
 11
319.174072265625
 21
-15.781986236572266
 31
11.435550689697266
  0
LINE
  8
0
 10
319.424072265625
 20
-16.47876739501953
 30
11.377100944519043
 11
319.424072265625
 21
-15.781984329223633
 31
11.435550689697266
  0
LINE
  8
0
 10
319.424072265625
 20
-15.781984329223633
 30
11.435550689697266
 11
319.174072265625
 21
-15.781986236572266
 31
11.435550689697266
  0
LINE
  8
0
 10
319.174072265625
 20
-15.781986236572266
 30
11.435550689697266
 11
319.174072265625
 21
-15.043811798095703
 31
11.497471809387207
  0
LINE
  8
0
 10
319.424072265625
 20
-15.04380989074707
 30
11.497471809387207
 11
319.174072265625
 21
-15.043811798095703
 31
11.497471809387207
  0
LINE
  8
0
 10
319.174072265625
 20
-15.043811798095703
 30
11.497471809387207
 11
319.174072265625
 21
-14.305636405944824
 31
11.559392929077148
  0
LINE
  8
0
 10
319.424072265625
 20
-14.305634498596191
 30
11.559392929077148
 11
319.174072265625
 21
-14.305636405944824
 31
11.559392929077148
  0
LINE
  8
0
 10
319.174072265625
 20
-14.305636405944824
 30
11.559392929077148
 11
319.1740417480469
 21
-13.608854293823242
 31
11.617841720581055
  0
LINE
  8
0
 10
319.424072265625
 20
-14.305634498596191
 30
11.559392929077148
 11
319.4240417480469
 21
-13.60885238647461
 31
11.617841720581055
  0
LINE
  8
0
 10
319.4240417480469
 20
-13.60885238647461
 30
11.617841720581055
 11
319.1740417480469
 21
-13.608854293823242
 31
11.617841720581055
  0
LINE
  8
0
 10
319.1740417480469
 20
-13.608854293823242
 30
11.617841720581055
 11
319.1740417480469
 21
-12.994857788085938
 31
11.669346809387207
  0
LINE
  8
0
 10
319.4240417480469
 20
-13.60885238647461
 30
11.617841720581055
 11
319.4240417480469
 21
-12.994855880737305
 31
11.669346809387207
  0
LINE
  8
0
 10
319.4240417480469
 20
-12.994855880737305
 30
11.669346809387207
 11
319.1740417480469
 21
-12.994857788085938
 31
11.669346809387207
  0
LINE
  8
0
 10
319.1740417480469
 20
-12.994857788085938
 30
11.669346809387207
 11
319.1740417480469
 21
-12.505040168762207
 31
11.710434913635254
  0
LINE
  8
0
 10
319.4240417480469
 20
-12.994855880737305
 30
11.669346809387207
 11
319.4240417480469
 21
-12.505038261413574
 31
11.710434913635254
  0
LINE
  8
0
 10
319.4240417480469
 20
-12.505038261413574
 30
11.710434913635254
 11
319.1740417480469
 21
-12.505040168762207
 31
11.710434913635254
  0
LINE
  8
0
 10
319.1740417480469
 20
-12.505040168762207
 30
11.710434913635254
 11
319.1740417480469
 21
-12.180794715881348
 31
11.73763370513916
  0
LINE
  8
0
 10
319.4240417480469
 20
-12.505038261413574
 30
11.710434913635254
 11
319.4240417480469
 21
-12.180792808532715
 31
11.73763370513916
  0
LINE
  8
0
 10
319.4240417480469
 20
-12.180792808532715
 30
11.73763370513916
 11
319.1740417480469
 21
-12.180794715881348
 31
11.73763370513916
  0
LINE
  8
0
 10
319.1740417480469
 20
-12.180794715881348
 30
11.73763370513916
 11
319.1741943359375
 21
-12.071924209594727
 31
11.747471809387207
  0
LINE
  8
0
 10
319.1741943359375
 20
-12.071924209594727
 30
11.747471809387207
 11
319.1621398925781
 21
-11.886677742004395
 31
11.747471809387207
  0
LINE
  8
0
 10
319.1621398925781
 20
-11.886677742004395
 30
11.747471809387207
 11
319.1275939941406
 21
-11.717645645141602
 31
11.747471809387207
  0
LINE
  8
0
 10
319.1275939941406
 20
-11.717645645141602
 30
11.747471809387207
 11
319.0719299316406
 21
-11.55746841430664
 31
11.747471809387207
  0
LINE
  8
0
 10
319.0719299316406
 20
-11.55746841430664
 30
11.747471809387207
 11
318.9966735839844
 21
-11.407488822937012
 31
11.747471809387207
  0
LINE
  8
0
 10
318.9966735839844
 20
-11.407488822937012
 30
11.747471809387207
 11
318.90325927734375
 21
-11.269220352172852
 31
11.747471809387207
  0
LINE
  8
0
 10
318.0843811035156
 20
-19.511943817138672
 30
11.247471809387207
 11
318.0533142089844
 21
-19.26309585571289
 31
11.247471809387207
  0
LINE
  8
0
 10
318.90325927734375
 20
-11.269220352172852
 30
11.747471809387207
 11
318.79327392578125
 21
-11.144275665283203
 31
11.747471809387207
  0
LINE
  8
0
 10
318.0843811035156
 20
-19.511943817138672
 30
11.247471809387207
 11
317.87408447265625
 21
-19.524105072021484
 31
11.247471809387207
  0
LINE
  8
0
 10
318.0843811035156
 20
-19.511943817138672
 30
11.247471809387207
 11
318.2861328125
 21
-19.472797393798828
 31
11.247471809387207
  0
LINE
  8
0
 10
318.79327392578125
 20
-11.144275665283203
 30
11.747471809387207
 11
318.6683349609375
 21
-11.034295082092285
 31
11.747471809387207
  0
LINE
  8
0
 10
318.31353759765625
 20
-19.579912185668945
 30
11.247471809387207
 11
318.2861328125
 21
-19.472797393798828
 31
11.247471809387207
  0
LINE
  8
0
 10
318.51806640625
 20
-19.513174057006836
 30
11.247471809387207
 11
318.4774169921875
 21
-19.41054344177246
 31
11.247471809387207
  0
LINE
  8
0
 10
318.6683349609375
 20
-11.034295082092285
 30
11.747471809387207
 11
318.5300598144531
 21
-10.94089126586914
 31
11.747471809387207
  0
LINE
  8
0
 10
318.7096862792969
 20
-19.42241859436035
 30
11.247471809387207
 11
318.6564025878906
 21
-19.325904846191406
 31
11.247471809387207
  0
LINE
  8
0
 10
318.8863830566406
 20
-19.309207916259766
 30
11.247471809387207
 11
318.8212585449219
 21
-19.220386505126953
 31
11.247471809387207
  0
LINE
  8
0
 10
318.5300598144531
 20
-10.94089126586914
 30
11.747471809387207
 11
318.3800964355469
 21
-10.865615844726562
 31
11.747471809387207
  0
LINE
  8
0
 10
319.0461120605469
 20
-19.17510986328125
 30
11.247471809387207
 11
318.9700927734375
 21
-19.095504760742188
 31
11.247471809387207
  0
LINE
  8
0
 10
319.1868591308594
 20
-19.02170753479004
 30
11.247471809387207
 11
319.10113525390625
 21
-18.952768325805664
 31
11.247471809387207
  0
LINE
  8
0
 10
318.3800964355469
 20
-10.865615844726562
 30
11.747471809387207
 11
318.21990966796875
 21
-10.809962272644043
 31
11.747471809387207
  0
LINE
  8
0
 10
319.30657958984375
 20
-18.850616455078125
 30
11.247471809387207
 11
319.21246337890625
 21
-18.793685913085938
 31
11.247471809387207
  0
LINE
  8
0
 10
319.4031677246094
 20
-18.66350746154785
 30
11.247471809387207
 11
319.3022766113281
 21
-18.619766235351562
 31
11.247471809387207
  0
LINE
  8
0
 10
318.21990966796875
 20
-10.809962272644043
 30
11.747471809387207
 11
318.0508728027344
 21
-10.775411605834961
 31
11.747471809387207
  0
LINE
  8
0
 10
319.474609375
 20
-18.462141036987305
 30
11.247471809387207
 11
319.36871337890625
 21
-18.432523727416992
 31
11.247471809387207
  0
LINE
  8
0
 10
319.5188903808594
 20
-18.248363494873047
 30
11.247471809387207
 11
319.4099426269531
 21
-18.23346710205078
 31
11.247471809387207
  0
LINE
  8
0
 10
318.0508728027344
 20
-10.775411605834961
 30
11.747471809387207
 11
317.8656311035156
 21
-10.763373374938965
 31
11.747471809387207
  0
LINE
  8
0
 10
319.5340576171875
 20
-18.024105072021484
 30
11.247471809387207
 11
319.424072265625
 21
-18.024105072021484
 31
11.247471809387207
  0
LINE
  8
0
 10
317.8656311035156
 20
-10.763373374938965
 30
11.747471809387207
 11
317.8529052734375
 21
-10.763514518737793
 31
11.747471809387207
  0
LINE
  8
0
 10
319.10113525390625
 20
-18.952768325805664
 30
11.247471809387207
 11
319.13922119140625
 21
-18.898340225219727
 31
11.247471809387207
  0
LINE
  8
0
 10
317.8529052734375
 20
-10.513514518737793
 30
11.747471809387207
 11
317.8529052734375
 21
-10.763514518737793
 31
11.747471809387207
  0
LINE
  8
0
 10
317.8529052734375
 20
-10.763514518737793
 30
11.747471809387207
 11
317.7923583984375
 21
-10.763514518737793
 31
11.747471809387207
  0
LINE
  8
0
 10
317.8529052734375
 20
-10.513514518737793
 30
11.747471809387207
 11
317.7923583984375
 21
-10.513514518737793
 31
11.747471809387207
  0
LINE
  8
0
 10
317.7923583984375
 20
-10.513514518737793
 30
11.747471809387207
 11
317.7923583984375
 21
-10.763514518737793
 31
11.747471809387207
  0
LINE
  8
0
 10
317.7923583984375
 20
-10.763514518737793
 30
11.747471809387207
 11
317.69671630859375
 21
-10.763514518737793
 31
11.747471809387207
  0
LINE
  8
0
 10
317.7923583984375
 20
-10.513514518737793
 30
11.747471809387207
 11
317.69671630859375
 21
-10.513514518737793
 31
11.747471809387207
  0
LINE
  8
0
 10
317.69671630859375
 20
-10.513514518737793
 30
11.747471809387207
 11
317.69671630859375
 21
-10.763514518737793
 31
11.747471809387207
  0
LINE
  8
0
 10
317.69671630859375
 20
-10.763514518737793
 30
11.747471809387207
 11
317.5703125
 21
-10.763514518737793
 31
11.747471809387207
  0
LINE
  8
0
 10
317.69671630859375
 20
-10.513514518737793
 30
11.747471809387207
 11
317.5703125
 21
-10.513514518737793
 31
11.747471809387207
  0
LINE
  8
0
 10
317.5703125
 20
-10.513514518737793
 30
11.747471809387207
 11
317.5703125
 21
-10.763514518737793
 31
11.747471809387207
  0
LINE
  8
0
 10
317.5703125
 20
-10.763514518737793
 30
11.747471809387207
 11
317.4174499511719
 21
-10.763514518737793
 31
11.747471809387207
  0
LINE
  8
0
 10
317.5703125
 20
-10.513514518737793
 30
11.747471809387207
 11
317.4174499511719
 21
-10.513514518737793
 31
11.747471809387207
  0
LINE
  8
0
 10
317.4174499511719
 20
-10.513514518737793
 30
11.747471809387207
 11
317.4174499511719
 21
-10.763514518737793
 31
11.747471809387207
  0
LINE
  8
0
 10
317.4174499511719
 20
-10.763514518737793
 30
11.747471809387207
 11
317.242431640625
 21
-10.763514518737793
 31
11.747471809387207
  0
LINE
  8
0
 10
317.4174499511719
 20
-10.513514518737793
 30
11.747471809387207
 11
317.242431640625
 21
-10.513514518737793
 31
11.747471809387207
  0
LINE
  8
0
 10
317.242431640625
 20
-10.513514518737793
 30
11.747471809387207
 11
317.242431640625
 21
-10.763514518737793
 31
11.747471809387207
  0
LINE
  8
0
 10
317.242431640625
 20
-10.763514518737793
 30
11.747471809387207
 11
317.049560546875
 21
-10.763514518737793
 31
11.747471809387207
  0
LINE
  8
0
 10
317.242431640625
 20
-10.513514518737793
 30
11.747471809387207
 11
317.049560546875
 21
-10.513514518737793
 31
11.747471809387207
  0
LINE
  8
0
 10
317.049560546875
 20
-10.513514518737793
 30
11.747471809387207
 11
317.049560546875
 21
-10.763514518737793
 31
11.747471809387207
  0
LINE
  8
0
 10
317.049560546875
 20
-10.763514518737793
 30
11.747471809387207
 11
316.84320068359375
 21
-10.763514518737793
 31
11.747471809387207
  0
LINE
  8
0
 10
317.049560546875
 20
-10.513514518737793
 30
11.747471809387207
 11
316.84320068359375
 21
-10.513514518737793
 31
11.747471809387207
  0
LINE
  8
0
 10
316.84320068359375
 20
-10.513514518737793
 30
11.747471809387207
 11
316.84320068359375
 21
-10.763514518737793
 31
11.747471809387207
  0
LINE
  8
0
 10
316.84320068359375
 20
-10.763514518737793
 30
11.747471809387207
 11
316.62762451171875
 21
-10.763514518737793
 31
11.747471809387207
  0
LINE
  8
0
 10
316.84320068359375
 20
-10.513514518737793
 30
11.747471809387207
 11
316.62762451171875
 21
-10.513514518737793
 31
11.747471809387207
  0
LINE
  8
0
 10
316.62762451171875
 20
-10.513514518737793
 30
11.747471809387207
 11
316.62762451171875
 21
-10.763514518737793
 31
11.747471809387207
  0
LINE
  8
0
 10
316.62762451171875
 20
-10.763514518737793
 30
11.747471809387207
 11
316.4071350097656
 21
-10.763514518737793
 31
11.747471809387207
  0
LINE
  8
0
 10
315.96875
 20
-11.613513946533203
 30
11.747471809387207
 11
316.0187683105469
 21
-11.613513946533203
 31
11.747471809387207
  0
LINE
  8
0
 10
316.4071350097656
 20
-10.513514518737793
 30
11.747471809387207
 11
316.4071350097656
 21
-10.763514518737793
 31
11.747471809387207
  0
LINE
  8
0
 10
316.4071350097656
 20
-10.763514518737793
 30
11.747471809387207
 11
316.18609619140625
 21
-10.763514518737793
 31
11.747471809387207
  0
LINE
  8
0
 10
316.4071350097656
 20
-10.513514518737793
 30
11.747471809387207
 11
316.18609619140625
 21
-10.513514518737793
 31
11.747471809387207
  0
LINE
  8
0
 10
316.18609619140625
 20
-10.513514518737793
 30
11.747471809387207
 11
316.18609619140625
 21
-10.763514518737793
 31
11.747471809387207
  0
LINE
  8
0
 10
316.18609619140625
 20
-10.763514518737793
 30
11.747471809387207
 11
315.96875
 21
-10.763514518737793
 31
11.747471809387207
  0
LINE
  8
0
 10
316.4071350097656
 20
-11.613513946533203
 30
11.747471809387207
 11
316.4187927246094
 21
-11.613513946533203
 31
11.747471809387207
  0
LINE
  8
0
 10
315.96875
 20
-10.513514518737793
 30
11.747471809387207
 11
315.96875
 21
-10.763514518737793
 31
11.747471809387207
  0
LINE
  8
0
 10
316.4251403808594
 20
-18.424461364746094
 30
11.24747085571289
 11
316.4187927246094
 21
-18.424461364746094
 31
11.24747085571289
  0
LINE
  8
0
 10
315.96978759765625
 20
-18.67410659790039
 30
11.247393608093262
 11
316.1867980957031
 21
-18.674320220947266
 31
11.247395515441895
  0
LINE
  8
0
 10
315.96978759765625
 20
-18.67410659790039
 30
11.247393608093262
 11
315.9700927734375
 21
-18.42410659790039
 31
11.247393608093262
  0
LINE
  8
0
 10
316.1867980957031
 20
-18.674320220947266
 30
11.247395515441895
 11
316.1869812011719
 21
-18.424320220947266
 31
11.247395515441895
  0
LINE
  8
0
 10
316.1869812011719
 20
-18.424320220947266
 30
11.247395515441895
 11
316.4076843261719
 21
-18.424461364746094
 31
11.24739933013916
  0
LINE
  8
0
 10
316.1867980957031
 20
-18.674320220947266
 30
11.247395515441895
 11
316.4075622558594
 21
-18.674461364746094
 31
11.24739933013916
  0
LINE
  8
0
 10
316.4075622558594
 20
-18.674461364746094
 30
11.24739933013916
 11
316.4076843261719
 21
-18.424461364746094
 31
11.24739933013916
  0
LINE
  8
0
 10
316.4075622558594
 20
-18.674461364746094
 30
11.24739933013916
 11
316.6278076171875
 21
-18.674537658691406
 31
11.247406005859375
  0
LINE
  8
0
 10
316.6278076171875
 20
-18.674537658691406
 30
11.247406005859375
 11
316.62786865234375
 21
-18.424537658691406
 31
11.247406005859375
  0
LINE
  8
0
 10
316.62786865234375
 20
-18.424537658691406
 30
11.247406005859375
 11
316.8432312011719
 21
-18.424560546875
 31
11.247414588928223
  0
LINE
  8
0
 10
316.6278076171875
 20
-18.674537658691406
 30
11.247406005859375
 11
316.8432312011719
 21
-18.674560546875
 31
11.247414588928223
  0
LINE
  8
0
 10
316.8432312011719
 20
-18.674560546875
 30
11.247414588928223
 11
316.8432312011719
 21
-18.424560546875
 31
11.247414588928223
  0
LINE
  8
0
 10
316.8432312011719
 20
-18.424560546875
 30
11.247414588928223
 11
317.0494079589844
 21
-18.424541473388672
 31
11.24742317199707
  0
LINE
  8
0
 10
316.8432312011719
 20
-18.674560546875
 30
11.247414588928223
 11
317.0494384765625
 21
-18.674541473388672
 31
11.24742317199707
  0
LINE
  8
0
 10
317.0494384765625
 20
-18.674541473388672
 30
11.24742317199707
 11
317.0494079589844
 21
-18.424541473388672
 31
11.24742317199707
  0
LINE
  8
0
 10
317.0494079589844
 20
-18.424541473388672
 30
11.24742317199707
 11
317.2420654296875
 21
-18.424489974975586
 31
11.247432708740234
  0
LINE
  8
0
 10
317.0494384765625
 20
-18.674541473388672
 30
11.24742317199707
 11
317.2421569824219
 21
-18.674489974975586
 31
11.247432708740234
  0
LINE
  8
0
 10
317.2421569824219
 20
-18.674489974975586
 30
11.247432708740234
 11
317.2420654296875
 21
-18.424489974975586
 31
11.247432708740234
  0
LINE
  8
0
 10
317.2420654296875
 20
-18.424489974975586
 30
11.247432708740234
 11
317.41693115234375
 21
-18.42441749572754
 31
11.247442245483398
  0
LINE
  8
0
 10
317.2421569824219
 20
-18.674489974975586
 30
11.247432708740234
 11
317.41705322265625
 21
-18.67441749572754
 31
11.247442245483398
  0
LINE
  8
0
 10
317.41705322265625
 20
-18.67441749572754
 30
11.247442245483398
 11
317.41693115234375
 21
-18.42441749572754
 31
11.247442245483398
  0
LINE
  8
0
 10
317.41693115234375
 20
-18.42441749572754
 30
11.247442245483398
 11
317.5696716308594
 21
-18.424333572387695
 31
11.247451782226562
  0
LINE
  8
0
 10
317.41705322265625
 20
-18.67441749572754
 30
11.247442245483398
 11
317.56982421875
 21
-18.674333572387695
 31
11.247451782226562
  0
LINE
  8
0
 10
317.56982421875
 20
-18.674333572387695
 30
11.247451782226562
 11
317.5696716308594
 21
-18.424333572387695
 31
11.247451782226562
  0
LINE
  8
0
 10
317.5696716308594
 20
-18.424333572387695
 30
11.247451782226562
 11
317.69598388671875
 21
-18.42424964904785
 31
11.247459411621094
  0
LINE
  8
0
 10
317.56982421875
 20
-18.674333572387695
 30
11.247451782226562
 11
317.6961669921875
 21
-18.67424964904785
 31
11.247459411621094
  0
LINE
  8
0
 10
317.6961669921875
 20
-18.67424964904785
 30
11.247459411621094
 11
317.69598388671875
 21
-18.42424964904785
 31
11.247459411621094
  0
LINE
  8
0
 10
317.69598388671875
 20
-18.42424964904785
 30
11.247459411621094
 11
317.79150390625
 21
-18.424177169799805
 31
11.247466087341309
  0
LINE
  8
0
 10
317.6961669921875
 20
-18.67424964904785
 30
11.247459411621094
 11
317.7917175292969
 21
-18.674177169799805
 31
11.247466087341309
  0
LINE
  8
0
 10
317.7917175292969
 20
-18.674177169799805
 30
11.247466087341309
 11
317.79150390625
 21
-18.424177169799805
 31
11.247466087341309
  0
LINE
  8
0
 10
317.79150390625
 20
-18.424177169799805
 30
11.247466087341309
 11
317.8519592285156
 21
-18.42412567138672
 31
11.247469902038574
  0
LINE
  8
0
 10
317.7917175292969
 20
-18.674177169799805
 30
11.247466087341309
 11
317.8522033691406
 21
-18.67412567138672
 31
11.247469902038574
  0
LINE
  8
0
 10
317.8522033691406
 20
-18.67412567138672
 30
11.247469902038574
 11
317.8519592285156
 21
-18.42412567138672
 31
11.247469902038574
  0
LINE
  8
0
 10
317.8475646972656
 20
-18.67452049255371
 30
11.247471809387207
 11
317.8397521972656
 21
-18.424640655517578
 31
11.247471809387207
  0
LINE
  8
0
 10
317.8397521972656
 20
-18.424640655517578
 30
11.247471809387207
 11
317.9476013183594
 21
-18.419696807861328
 31
11.247471809387207
  0
LINE
  8
0
 10
317.8475646972656
 20
-18.67452049255371
 30
11.247471809387207
 11
317.97869873046875
 21
-18.667755126953125
 31
11.247471809387207
  0
LINE
  8
0
 10
317.97869873046875
 20
-18.667755126953125
 30
11.247471809387207
 11
317.9476013183594
 21
-18.419696807861328
 31
11.247471809387207
  0
LINE
  8
0
 10
317.9476013183594
 20
-18.419696807861328
 30
11.247471809387207
 11
318.01263427734375
 21
-18.40734100341797
 31
11.247471809387207
  0
LINE
  8
0
 10
317.97869873046875
 20
-18.667755126953125
 30
11.247471809387207
 11
318.0747985839844
 21
-18.649490356445312
 31
11.247471809387207
  0
LINE
  8
0
 10
318.0747985839844
 20
-18.649490356445312
 30
11.247471809387207
 11
318.01263427734375
 21
-18.40734100341797
 31
11.247471809387207
  0
LINE
  8
0
 10
318.01263427734375
 20
-18.40734100341797
 30
11.247471809387207
 11
318.0712585449219
 21
-18.388275146484375
 31
11.247471809387207
  0
LINE
  8
0
 10
318.0747985839844
 20
-18.649490356445312
 30
11.247471809387207
 11
318.16357421875
 21
-18.620609283447266
 31
11.247471809387207
  0
LINE
  8
0
 10
318.16357421875
 20
-18.620609283447266
 30
11.247471809387207
 11
318.0712585449219
 21
-18.388275146484375
 31
11.247471809387207
  0
LINE
  8
0
 10
318.0712585449219
 20
-18.388275146484375
 30
11.247471809387207
 11
318.1236877441406
 21
-18.363506317138672
 31
11.247471809387207
  0
LINE
  8
0
 10
318.16357421875
 20
-18.620609283447266
 30
11.247471809387207
 11
318.2447509765625
 21
-18.582233428955078
 31
11.247471809387207
  0
LINE
  8
0
 10
318.2447509765625
 20
-18.582233428955078
 30
11.247471809387207
 11
318.1236877441406
 21
-18.363506317138672
 31
11.247471809387207
  0
LINE
  8
0
 10
318.1236877441406
 20
-18.363506317138672
 30
11.247471809387207
 11
318.1698913574219
 21
-18.333969116210938
 31
11.247471809387207
  0
LINE
  8
0
 10
318.2447509765625
 20
-18.582233428955078
 30
11.247471809387207
 11
318.31793212890625
 21
-18.53542709350586
 31
11.247471809387207
  0
LINE
  8
0
 10
318.31793212890625
 20
-18.53542709350586
 30
11.247471809387207
 11
318.1698913574219
 21
-18.333969116210938
 31
11.247471809387207
  0
LINE
  8
0
 10
318.1698913574219
 20
-18.333969116210938
 30
11.247471809387207
 11
318.2098083496094
 21
-18.300540924072266
 31
11.247471809387207
  0
LINE
  8
0
 10
318.31793212890625
 20
-18.53542709350586
 30
11.247471809387207
 11
318.3825988769531
 21
-18.48121452331543
 31
11.247471809387207
  0
LINE
  8
0
 10
318.3825988769531
 20
-18.48121452331543
 30
11.247471809387207
 11
318.2098083496094
 21
-18.300540924072266
 31
11.247471809387207
  0
LINE
  8
0
 10
318.2098083496094
 20
-18.300540924072266
 30
11.247471809387207
 11
318.24346923828125
 21
-18.26396942138672
 31
11.247471809387207
  0
LINE
  8
0
 10
318.3825988769531
 20
-18.48121452331543
 30
11.247471809387207
 11
318.4383850097656
 21
-18.420515060424805
 31
11.247471809387207
  0
LINE
  8
0
 10
318.4383850097656
 20
-18.420515060424805
 30
11.247471809387207
 11
318.24346923828125
 21
-18.26396942138672
 31
11.247471809387207
  0
LINE
  8
0
 10
318.24346923828125
 20
-18.26396942138672
 30
11.247471809387207
 11
318.2710876464844
 21
-18.224672317504883
 31
11.247471809387207
  0
LINE
  8
0
 10
318.4383850097656
 20
-18.420515060424805
 30
11.247471809387207
 11
318.4850158691406
 21
-18.353994369506836
 31
11.247471809387207
  0
LINE
  8
0
 10
318.4850158691406
 20
-18.353994369506836
 30
11.247471809387207
 11
318.2710876464844
 21
-18.224672317504883
 31
11.247471809387207
  0
LINE
  8
0
 10
318.2710876464844
 20
-18.224672317504883
 30
11.247471809387207
 11
318.2929382324219
 21
-18.182476043701172
 31
11.247471809387207
  0
LINE
  8
0
 10
318.4850158691406
 20
-18.353994369506836
 30
11.247471809387207
 11
318.5223388671875
 21
-18.2818603515625
 31
11.247471809387207
  0
LINE
  8
0
 10
318.5223388671875
 20
-18.2818603515625
 30
11.247471809387207
 11
318.2929382324219
 21
-18.182476043701172
 31
11.247471809387207
  0
LINE
  8
0
 10
318.2929382324219
 20
-18.182476043701172
 30
11.247471809387207
 11
318.309326171875
 21
-18.13639259338379
 31
11.247471809387207
  0
LINE
  8
0
 10
318.5223388671875
 20
-18.2818603515625
 30
11.247471809387207
 11
318.55010986328125
 21
-18.20369529724121
 31
11.247471809387207
  0
LINE
  8
0
 10
318.55010986328125
 20
-18.20369529724121
 30
11.247471809387207
 11
318.309326171875
 21
-18.13639259338379
 31
11.247471809387207
  0
LINE
  8
0
 10
318.309326171875
 20
-18.13639259338379
 30
11.247471809387207
 11
318.320068359375
 21
-18.08451271057129
 31
11.247471809387207
  0
LINE
  8
0
 10
318.55010986328125
 20
-18.20369529724121
 30
11.247471809387207
 11
318.5677795410156
 21
-18.118366241455078
 31
11.247471809387207
  0
LINE
  8
0
 10
318.5677795410156
 20
-18.118366241455078
 30
11.247471809387207
 11
318.320068359375
 21
-18.08451271057129
 31
11.247471809387207
  0
LINE
  8
0
 10
318.320068359375
 20
-18.08451271057129
 30
11.247471809387207
 11
318.32470703125
 21
-17.9869384765625
 31
11.247471809387207
  0
LINE
  8
0
 10
318.5677795410156
 20
-18.118366241455078
 30
11.247471809387207
 11
318.5745849609375
 21
-17.995384216308594
 31
11.247471809387207
  0
LINE
  8
0
 10
318.5745849609375
 20
-17.995384216308594
 30
11.247471809387207
 11
318.32470703125
 21
-17.9869384765625
 31
11.247471809387207
  0
LINE
  8
0
 10
318.32470703125
 20
-17.9869384765625
 30
11.247471809387207
 11
318.3240966796875
 21
-17.90683364868164
 31
11.257309913635254
  0
LINE
  8
0
 10
318.5745849609375
 20
-17.995384216308594
 30
11.247471809387207
 11
318.5740966796875
 21
-17.906831741333008
 31
11.257309913635254
  0
LINE
  8
0
 10
318.5740966796875
 20
-17.906831741333008
 30
11.257309913635254
 11
318.3240966796875
 21
-17.90683364868164
 31
11.257309913635254
  0
LINE
  8
0
 10
318.3240966796875
 20
-17.90683364868164
 30
11.257309913635254
 11
318.3240966796875
 21
-17.58258819580078
 31
11.28450870513916
  0
LINE
  8
0
 10
318.5740966796875
 20
-17.906831741333008
 30
11.257309913635254
 11
318.5740966796875
 21
-17.58258819580078
 31
11.28450870513916
  0
LINE
  8
0
 10
318.5740966796875
 20
-17.58258819580078
 30
11.28450870513916
 11
318.3240966796875
 21
-17.58258819580078
 31
11.28450870513916
  0
LINE
  8
0
 10
318.3240966796875
 20
-17.58258819580078
 30
11.28450870513916
 11
318.3240661621094
 21
-17.092771530151367
 31
11.325596809387207
  0
LINE
  8
0
 10
318.5740966796875
 20
-17.58258819580078
 30
11.28450870513916
 11
318.5740661621094
 21
-17.092769622802734
 31
11.325596809387207
  0
LINE
  8
0
 10
318.5740661621094
 20
-17.092769622802734
 30
11.325596809387207
 11
318.3240661621094
 21
-17.092771530151367
 31
11.325596809387207
  0
LINE
  8
0
 10
318.3240661621094
 20
-17.092771530151367
 30
11.325596809387207
 11
318.3240661621094
 21
-16.478775024414062
 31
11.377100944519043
  0
LINE
  8
0
 10
318.5740661621094
 20
-17.092769622802734
 30
11.325596809387207
 11
318.5740661621094
 21
-16.47877311706543
 31
11.377100944519043
  0
LINE
  8
0
 10
318.5740661621094
 20
-16.47877311706543
 30
11.377100944519043
 11
318.3240661621094
 21
-16.478775024414062
 31
11.377100944519043
  0
LINE
  8
0
 10
318.3240661621094
 20
-16.478775024414062
 30
11.377100944519043
 11
318.3240661621094
 21
-15.781993865966797
 31
11.435550689697266
  0
LINE
  8
0
 10
318.5740661621094
 20
-16.47877311706543
 30
11.377100944519043
 11
318.5740661621094
 21
-15.781991958618164
 31
11.435550689697266
  0
LINE
  8
0
 10
318.5740661621094
 20
-15.781991958618164
 30
11.435550689697266
 11
318.3240661621094
 21
-15.781993865966797
 31
11.435550689697266
  0
LINE
  8
0
 10
319.424072265625
 20
-15.04380989074707
 30
11.497471809387207
 11
319.4240417480469
 21
-14.908010482788086
 31
11.50894546508789
  0
LINE
  8
0
 10
318.5740661621094
 20
-15.781991958618164
 30
11.435550689697266
 11
318.5740661621094
 21
-15.043816566467285
 31
11.497471809387207
  0
LINE
  8
0
 10
318.5740661621094
 20
-15.043816566467285
 30
11.497471809387207
 11
318.3240661621094
 21
-15.043818473815918
 31
11.497471809387207
  0
LINE
  8
0
 10
319.424072265625
 20
-14.305634498596191
 30
11.559392929077148
 11
319.4240417480469
 21
-14.758520126342773
 31
11.521403312683105
  0
LINE
  8
0
 10
318.5740661621094
 20
-15.043816566467285
 30
11.497471809387207
 11
318.5740661621094
 21
-14.305641174316406
 31
11.559392929077148
  0
LINE
  8
0
 10
318.5740661621094
 20
-14.305641174316406
 30
11.559392929077148
 11
318.3240661621094
 21
-14.305643081665039
 31
11.559392929077148
  0
LINE
  8
0
 10
318.3240661621094
 20
-14.305643081665039
 30
11.559392929077148
 11
318.3240661621094
 21
-13.60886001586914
 31
11.617841720581055
  0
LINE
  8
0
 10
318.5740661621094
 20
-14.305641174316406
 30
11.559392929077148
 11
318.5740661621094
 21
-13.608858108520508
 31
11.617841720581055
  0
LINE
  8
0
 10
318.5740661621094
 20
-13.608858108520508
 30
11.617841720581055
 11
318.3240661621094
 21
-13.60886001586914
 31
11.617841720581055
  0
LINE
  8
0
 10
318.3240661621094
 20
-13.60886001586914
 30
11.617841720581055
 11
318.32403564453125
 21
-12.994864463806152
 31
11.669346809387207
  0
LINE
  8
0
 10
318.5740661621094
 20
-13.608858108520508
 30
11.617841720581055
 11
318.57403564453125
 21
-12.99486255645752
 31
11.669346809387207
  0
LINE
  8
0
 10
318.57403564453125
 20
-12.99486255645752
 30
11.669346809387207
 11
318.32403564453125
 21
-12.994864463806152
 31
11.669346809387207
  0
LINE
  8
0
 10
318.32403564453125
 20
-12.994864463806152
 30
11.669346809387207
 11
318.32403564453125
 21
-12.505046844482422
 31
11.710434913635254
  0
LINE
  8
0
 10
318.57403564453125
 20
-12.99486255645752
 30
11.669346809387207
 11
318.57403564453125
 21
-12.505044937133789
 31
11.710434913635254
  0
LINE
  8
0
 10
318.57403564453125
 20
-12.505044937133789
 30
11.710434913635254
 11
318.32403564453125
 21
-12.505046844482422
 31
11.710434913635254
  0
LINE
  8
0
 10
318.32403564453125
 20
-12.505046844482422
 30
11.710434913635254
 11
318.32403564453125
 21
-12.18079948425293
 31
11.73763370513916
  0
LINE
  8
0
 10
318.57403564453125
 20
-12.505044937133789
 30
11.710434913635254
 11
318.57403564453125
 21
-12.180797576904297
 31
11.73763370513916
  0
LINE
  8
0
 10
318.57403564453125
 20
-12.180797576904297
 30
11.73763370513916
 11
318.32403564453125
 21
-12.18079948425293
 31
11.73763370513916
  0
LINE
  8
0
 10
318.32403564453125
 20
-12.18079948425293
 30
11.73763370513916
 11
318.3246765136719
 21
-12.100519180297852
 31
11.747471809387207
  0
LINE
  8
0
 10
318.57403564453125
 20
-12.180797576904297
 30
11.73763370513916
 11
318.57452392578125
 21
-12.092108726501465
 31
11.747471809387207
  0
LINE
  8
0
 10
318.57452392578125
 20
-12.092108726501465
 30
11.747471809387207
 11
318.3246765136719
 21
-12.100519180297852
 31
11.747471809387207
  0
LINE
  8
0
 10
318.3246765136719
 20
-12.100519180297852
 30
11.747471809387207
 11
318.3197937011719
 21
-12.000541687011719
 31
11.747471809387207
  0
LINE
  8
0
 10
318.57452392578125
 20
-12.092108726501465
 30
11.747471809387207
 11
318.56756591796875
 21
-11.967052459716797
 31
11.747471809387207
  0
LINE
  8
0
 10
318.56756591796875
 20
-11.967052459716797
 30
11.747471809387207
 11
318.3197937011719
 21
-12.000541687011719
 31
11.747471809387207
  0
LINE
  8
0
 10
318.3197937011719
 20
-12.000541687011719
 30
11.747471809387207
 11
318.30792236328125
 21
-11.942669868469238
 31
11.747471809387207
  0
LINE
  8
0
 10
318.56756591796875
 20
-11.967052459716797
 30
11.747471809387207
 11
318.54901123046875
 21
-11.876485824584961
 31
11.747471809387207
  0
LINE
  8
0
 10
318.54901123046875
 20
-11.876485824584961
 30
11.747471809387207
 11
318.30792236328125
 21
-11.942669868469238
 31
11.747471809387207
  0
LINE
  8
0
 10
318.30792236328125
 20
-11.942669868469238
 30
11.747471809387207
 11
318.2889404296875
 21
-11.888233184814453
 31
11.747471809387207
  0
LINE
  8
0
 10
318.54901123046875
 20
-11.876485824584961
 30
11.747471809387207
 11
318.51922607421875
 21
-11.790949821472168
 31
11.747471809387207
  0
LINE
  8
0
 10
318.51922607421875
 20
-11.790949821472168
 30
11.747471809387207
 11
318.2889404296875
 21
-11.888233184814453
 31
11.747471809387207
  0
LINE
  8
0
 10
318.2889404296875
 20
-11.888233184814453
 30
11.747471809387207
 11
318.2630920410156
 21
-11.836873054504395
 31
11.747471809387207
  0
LINE
  8
0
 10
318.51922607421875
 20
-11.790949821472168
 30
11.747471809387207
 11
318.4788513183594
 21
-11.710583686828613
 31
11.747471809387207
  0
LINE
  8
0
 10
318.4788513183594
 20
-11.710583686828613
 30
11.747471809387207
 11
318.2630920410156
 21
-11.836873054504395
 31
11.747471809387207
  0
LINE
  8
0
 10
318.2630920410156
 20
-11.836873054504395
 30
11.747471809387207
 11
318.2306823730469
 21
-11.788962364196777
 31
11.747471809387207
  0
LINE
  8
0
 10
318.4788513183594
 20
-11.710583686828613
 30
11.747471809387207
 11
318.4284973144531
 21
-11.636096954345703
 31
11.747471809387207
  0
LINE
  8
0
 10
318.4284973144531
 20
-11.636096954345703
 30
11.747471809387207
 11
318.2306823730469
 21
-11.788962364196777
 31
11.747471809387207
  0
LINE
  8
0
 10
318.2306823730469
 20
-11.788962364196777
 30
11.747471809387207
 11
318.1922302246094
 21
-11.745316505432129
 31
11.747471809387207
  0
LINE
  8
0
 10
318.4284973144531
 20
-11.636096954345703
 30
11.747471809387207
 11
318.3690185546875
 21
-11.5685396194458
 31
11.747471809387207
  0
LINE
  8
0
 10
318.3690185546875
 20
-11.5685396194458
 30
11.747471809387207
 11
318.1922302246094
 21
-11.745316505432129
 31
11.747471809387207
  0
LINE
  8
0
 10
318.1922302246094
 20
-11.745316505432129
 30
11.747471809387207
 11
318.1485900878906
 21
-11.706878662109375
 31
11.747471809387207
  0
LINE
  8
0
 10
318.3690185546875
 20
-11.5685396194458
 30
11.747471809387207
 11
318.30145263671875
 21
-11.50905990600586
 31
11.747471809387207
  0
LINE
  8
0
 10
318.30145263671875
 20
-11.50905990600586
 30
11.747471809387207
 11
318.1485900878906
 21
-11.706878662109375
 31
11.747471809387207
  0
LINE
  8
0
 10
318.1485900878906
 20
-11.706878662109375
 30
11.747471809387207
 11
318.1006774902344
 21
-11.67446517944336
 31
11.747471809387207
  0
LINE
  8
0
 10
318.30145263671875
 20
-11.50905990600586
 30
11.747471809387207
 11
318.2269592285156
 21
-11.458707809448242
 31
11.747471809387207
  0
LINE
  8
0
 10
318.2269592285156
 20
-11.458707809448242
 30
11.747471809387207
 11
318.1006774902344
 21
-11.67446517944336
 31
11.747471809387207
  0
LINE
  8
0
 10
318.1006774902344
 20
-11.67446517944336
 30
11.747471809387207
 11
318.04931640625
 21
-11.648619651794434
 31
11.747471809387207
  0
LINE
  8
0
 10
318.2269592285156
 20
-11.458707809448242
 30
11.747471809387207
 11
318.1466064453125
 21
-11.41832447052002
 31
11.747471809387207
  0
LINE
  8
0
 10
318.1466064453125
 20
-11.41832447052002
 30
11.747471809387207
 11
318.04931640625
 21
-11.648619651794434
 31
11.747471809387207
  0
LINE
  8
0
 10
318.04931640625
 20
-11.648619651794434
 30
11.747471809387207
 11
317.994873046875
 21
-11.62963581085205
 31
11.747471809387207
  0
LINE
  8
0
 10
318.1466064453125
 20
-11.41832447052002
 30
11.747471809387207
 11
318.0610656738281
 21
-11.388555526733398
 31
11.747471809387207
  0
LINE
  8
0
 10
318.0610656738281
 20
-11.388555526733398
 30
11.747471809387207
 11
317.994873046875
 21
-11.62963581085205
 31
11.747471809387207
  0
LINE
  8
0
 10
317.994873046875
 20
-11.62963581085205
 30
11.747471809387207
 11
317.93701171875
 21
-11.61775016784668
 31
11.747471809387207
  0
LINE
  8
0
 10
318.0610656738281
 20
-11.388555526733398
 30
11.747471809387207
 11
317.9704895019531
 21
-11.370002746582031
 31
11.747471809387207
  0
LINE
  8
0
 10
317.9704895019531
 20
-11.370002746582031
 30
11.747471809387207
 11
317.93701171875
 21
-11.61775016784668
 31
11.747471809387207
  0
LINE
  8
0
 10
317.93701171875
 20
-11.61775016784668
 30
11.747471809387207
 11
317.83709716796875
 21
-11.612894058227539
 31
11.747471809387207
  0
LINE
  8
0
 10
317.9704895019531
 20
-11.370002746582031
 30
11.747471809387207
 11
317.8454895019531
 21
-11.363035202026367
 31
11.747471809387207
  0
LINE
  8
0
 10
317.8454895019531
 20
-11.363035202026367
 30
11.747471809387207
 11
317.83709716796875
 21
-11.612894058227539
 31
11.747471809387207
  0
LINE
  8
0
 10
317.83709716796875
 20
-11.612894058227539
 30
11.747471809387207
 11
317.8529052734375
 21
-11.613513946533203
 31
11.747471809387207
  0
LINE
  8
0
 10
317.8454895019531
 20
-11.363035202026367
 30
11.747471809387207
 11
317.8529052734375
 21
-11.363513946533203
 31
11.747471809387207
  0
LINE
  8
0
 10
317.8529052734375
 20
-11.363513946533203
 30
11.747471809387207
 11
317.8529052734375
 21
-11.613513946533203
 31
11.747471809387207
  0
LINE
  8
0
 10
317.8529052734375
 20
-11.613513946533203
 30
11.747471809387207
 11
317.7923583984375
 21
-11.613513946533203
 31
11.747471809387207
  0
LINE
  8
0
 10
317.8529052734375
 20
-11.363513946533203
 30
11.747471809387207
 11
317.7923583984375
 21
-11.363513946533203
 31
11.747471809387207
  0
LINE
  8
0
 10
317.7923583984375
 20
-11.363513946533203
 30
11.747471809387207
 11
317.7923583984375
 21
-11.613513946533203
 31
11.747471809387207
  0
LINE
  8
0
 10
317.7923583984375
 20
-11.613513946533203
 30
11.747471809387207
 11
317.69671630859375
 21
-11.613513946533203
 31
11.747471809387207
  0
LINE
  8
0
 10
317.7923583984375
 20
-11.363513946533203
 30
11.747471809387207
 11
317.69671630859375
 21
-11.363513946533203
 31
11.747471809387207
  0
LINE
  8
0
 10
317.69671630859375
 20
-11.363513946533203
 30
11.747471809387207
 11
317.69671630859375
 21
-11.613513946533203
 31
11.747471809387207
  0
LINE
  8
0
 10
317.69671630859375
 20
-11.613513946533203
 30
11.747471809387207
 11
317.5703125
 21
-11.613513946533203
 31
11.747471809387207
  0
LINE
  8
0
 10
317.69671630859375
 20
-11.363513946533203
 30
11.747471809387207
 11
317.5703125
 21
-11.363513946533203
 31
11.747471809387207
  0
LINE
  8
0
 10
317.5703125
 20
-11.363513946533203
 30
11.747471809387207
 11
317.5703125
 21
-11.613513946533203
 31
11.747471809387207
  0
LINE
  8
0
 10
317.5703125
 20
-11.613513946533203
 30
11.747471809387207
 11
317.4174499511719
 21
-11.613513946533203
 31
11.747471809387207
  0
LINE
  8
0
 10
317.5703125
 20
-11.363513946533203
 30
11.747471809387207
 11
317.4174499511719
 21
-11.363513946533203
 31
11.747471809387207
  0
LINE
  8
0
 10
317.4174499511719
 20
-11.363513946533203
 30
11.747471809387207
 11
317.4174499511719
 21
-11.613513946533203
 31
11.747471809387207
  0
LINE
  8
0
 10
317.4174499511719
 20
-11.613513946533203
 30
11.747471809387207
 11
317.242431640625
 21
-11.613513946533203
 31
11.747471809387207
  0
LINE
  8
0
 10
317.4174499511719
 20
-11.363513946533203
 30
11.747471809387207
 11
317.242431640625
 21
-11.363513946533203
 31
11.747471809387207
  0
LINE
  8
0
 10
317.242431640625
 20
-11.363513946533203
 30
11.747471809387207
 11
317.242431640625
 21
-11.613513946533203
 31
11.747471809387207
  0
LINE
  8
0
 10
317.242431640625
 20
-11.613513946533203
 30
11.747471809387207
 11
317.049560546875
 21
-11.613513946533203
 31
11.747471809387207
  0
LINE
  8
0
 10
317.242431640625
 20
-11.363513946533203
 30
11.747471809387207
 11
317.049560546875
 21
-11.363513946533203
 31
11.747471809387207
  0
LINE
  8
0
 10
317.049560546875
 20
-11.363513946533203
 30
11.747471809387207
 11
317.049560546875
 21
-11.613513946533203
 31
11.747471809387207
  0
LINE
  8
0
 10
317.049560546875
 20
-11.613513946533203
 30
11.747471809387207
 11
316.84320068359375
 21
-11.613513946533203
 31
11.747471809387207
  0
LINE
  8
0
 10
317.049560546875
 20
-11.363513946533203
 30
11.747471809387207
 11
316.84320068359375
 21
-11.363513946533203
 31
11.747471809387207
  0
LINE
  8
0
 10
316.84320068359375
 20
-11.363513946533203
 30
11.747471809387207
 11
316.84320068359375
 21
-11.613513946533203
 31
11.747471809387207
  0
LINE
  8
0
 10
316.84320068359375
 20
-11.613513946533203
 30
11.747471809387207
 11
316.62762451171875
 21
-11.613513946533203
 31
11.747471809387207
  0
LINE
  8
0
 10
316.84320068359375
 20
-11.363513946533203
 30
11.747471809387207
 11
316.62762451171875
 21
-11.363513946533203
 31
11.747471809387207
  0
LINE
  8
0
 10
316.62762451171875
 20
-11.363513946533203
 30
11.747471809387207
 11
316.62762451171875
 21
-11.613513946533203
 31
11.747471809387207
  0
LINE
  8
0
 10
318.9966735839844
 20
-11.407488822937012
 30
11.747471809387207
 11
319.2124328613281
 21
-11.28119945526123
 31
11.747471809387207
  0
LINE
  8
0
 10
316.62762451171875
 20
-11.363513946533203
 30
11.747471809387207
 11
316.4071350097656
 21
-11.363513946533203
 31
11.747471809387207
  0
LINE
  8
0
 10
316.4071350097656
 20
-11.363513946533203
 30
11.747471809387207
 11
316.4071350097656
 21
-11.613513946533203
 31
11.747471809387207
  0
LINE
  8
0
 10
316.4071350097656
 20
-11.613513946533203
 30
11.747471809387207
 11
316.18609619140625
 21
-11.613513946533203
 31
11.747471809387207
  0
LINE
  8
0
 10
316.4071350097656
 20
-11.363513946533203
 30
11.747471809387207
 11
316.18609619140625
 21
-11.363513946533203
 31
11.747471809387207
  0
LINE
  8
0
 10
316.18609619140625
 20
-11.363513946533203
 30
11.747471809387207
 11
316.18609619140625
 21
-11.613513946533203
 31
11.747471809387207
  0
LINE
  8
0
 10
319.0719299316406
 20
-11.55746841430664
 30
11.747471809387207
 11
319.30224609375
 21
-11.460184097290039
 31
11.747471809387207
  0
LINE
  8
0
 10
316.18609619140625
 20
-11.363513946533203
 30
11.747471809387207
 11
315.96875
 21
-11.363513946533203
 31
11.747471809387207
  0
LINE
  8
0
 10
315.96875
 20
-11.363513946533203
 30
11.747471809387207
 11
315.96875
 21
-11.613513946533203
 31
11.747471809387207
  0
LINE
  8
0
 10
319.5340270996094
 20
-12.06351375579834
 30
11.747471809387207
 11
319.5188903808594
 21
-11.83845329284668
 31
11.747471809387207
  0
LINE
  8
0
 10
319.4240417480469
 20
-12.06351375579834
 30
11.747471809387207
 11
319.4098815917969
 21
-11.853187561035156
 31
11.747471809387207
  0
LINE
  8
0
 10
319.4240417480469
 20
-12.06351375579834
 30
11.747471809387207
 11
319.5340270996094
 21
-12.06351375579834
 31
11.747471809387207
  0
LINE
  8
0
 10
319.4098815917969
 20
-11.853187561035156
 30
11.747471809387207
 11
319.5188903808594
 21
-11.83845329284668
 31
11.747471809387207
  0
LINE
  8
0
 10
319.5188903808594
 20
-11.83845329284668
 30
11.747471809387207
 11
319.4747619628906
 21
-11.622342109680176
 31
11.747471809387207
  0
LINE
  8
0
 10
319.4098815917969
 20
-11.853187561035156
 30
11.747471809387207
 11
319.3686828613281
 21
-11.65146255493164
 31
11.747471809387207
  0
LINE
  8
0
 10
319.3686828613281
 20
-11.65146255493164
 30
11.747471809387207
 11
319.4747619628906
 21
-11.622342109680176
 31
11.747471809387207
  0
LINE
  8
0
 10
319.4747619628906
 20
-11.622342109680176
 30
11.747471809387207
 11
319.403564453125
 21
-11.417379379272461
 31
11.747471809387207
  0
LINE
  8
0
 10
319.3686828613281
 20
-11.65146255493164
 30
11.747471809387207
 11
319.30224609375
 21
-11.460184097290039
 31
11.747471809387207
  0
LINE
  8
0
 10
319.30224609375
 20
-11.460184097290039
 30
11.747471809387207
 11
319.403564453125
 21
-11.417379379272461
 31
11.747471809387207
  0
LINE
  8
0
 10
319.403564453125
 20
-11.417379379272461
 30
11.747471809387207
 11
319.3073425292969
 21
-11.225632667541504
 31
11.747471809387207
  0
LINE
  8
0
 10
319.30224609375
 20
-11.460184097290039
 30
11.747471809387207
 11
319.2124328613281
 21
-11.28119945526123
 31
11.747471809387207
  0
LINE
  8
0
 10
319.2124328613281
 20
-11.28119945526123
 30
11.747471809387207
 11
319.3073425292969
 21
-11.225632667541504
 31
11.747471809387207
  0
LINE
  8
0
 10
319.3073425292969
 20
-11.225632667541504
 30
11.747471809387207
 11
319.1881103515625
 21
-11.049095153808594
 31
11.747471809387207
  0
LINE
  8
0
 10
319.2124328613281
 20
-11.28119945526123
 30
11.747471809387207
 11
319.10107421875
 21
-11.116355895996094
 31
11.747471809387207
  0
LINE
  8
0
 10
319.10107421875
 20
-11.116355895996094
 30
11.747471809387207
 11
319.1881103515625
 21
-11.049095153808594
 31
11.747471809387207
  0
LINE
  8
0
 10
319.1881103515625
 20
-11.049095153808594
 30
11.747471809387207
 11
319.0478515625
 21
-10.889718055725098
 31
11.747471809387207
  0
LINE
  8
0
 10
319.10107421875
 20
-11.116355895996094
 30
11.747471809387207
 11
318.9700622558594
 21
-10.967498779296875
 31
11.747471809387207
  0
LINE
  8
0
 10
318.9700622558594
 20
-10.967498779296875
 30
11.747471809387207
 11
319.0478515625
 21
-10.889718055725098
 31
11.747471809387207
  0
LINE
  8
0
 10
319.0478515625
 20
-10.889718055725098
 30
11.747471809387207
 11
318.8884582519531
 21
-10.74943733215332
 31
11.747471809387207
  0
LINE
  8
0
 10
318.9700622558594
 20
-10.967498779296875
 30
11.747471809387207
 11
318.8211975097656
 21
-10.83647632598877
 31
11.747471809387207
  0
LINE
  8
0
 10
318.8211975097656
 20
-10.83647632598877
 30
11.747471809387207
 11
318.8884582519531
 21
-10.74943733215332
 31
11.747471809387207
  0
LINE
  8
0
 10
318.8884582519531
 20
-10.74943733215332
 30
11.747471809387207
 11
318.7119140625
 21
-10.630203247070312
 31
11.747471809387207
  0
LINE
  8
0
 10
318.8211975097656
 20
-10.83647632598877
 30
11.747471809387207
 11
318.6563720703125
 21
-10.72513484954834
 31
11.747471809387207
  0
LINE
  8
0
 10
318.6563720703125
 20
-10.72513484954834
 30
11.747471809387207
 11
318.7119140625
 21
-10.630203247070312
 31
11.747471809387207
  0
LINE
  8
0
 10
318.7119140625
 20
-10.630203247070312
 30
11.747471809387207
 11
318.5201721191406
 21
-10.533992767333984
 31
11.747471809387207
  0
LINE
  8
0
 10
318.6563720703125
 20
-10.72513484954834
 30
11.747471809387207
 11
318.4773864746094
 21
-10.635320663452148
 31
11.747471809387207
  0
LINE
  8
0
 10
318.4773864746094
 20
-10.635320663452148
 30
11.747471809387207
 11
318.5201721191406
 21
-10.533992767333984
 31
11.747471809387207
  0
LINE
  8
0
 10
318.5201721191406
 20
-10.533992767333984
 30
11.747471809387207
 11
318.3152160644531
 21
-10.462807655334473
 31
11.747471809387207
  0
LINE
  8
0
 10
318.4773864746094
 20
-10.635320663452148
 30
11.747471809387207
 11
318.2861022949219
 21
-10.56888198852539
 31
11.747471809387207
  0
LINE
  8
0
 10
318.2861022949219
 20
-10.56888198852539
 30
11.747471809387207
 11
318.3152160644531
 21
-10.462807655334473
 31
11.747471809387207
  0
LINE
  8
0
 10
318.3152160644531
 20
-10.462807655334473
 30
11.747471809387207
 11
318.0990905761719
 21
-10.418657302856445
 31
11.747471809387207
  0
LINE
  8
0
 10
318.2861022949219
 20
-10.56888198852539
 30
11.747471809387207
 11
318.0843811035156
 21
-10.527664184570312
 31
11.747471809387207
  0
LINE
  8
0
 10
318.0843811035156
 20
-10.527664184570312
 30
11.747471809387207
 11
318.0990905761719
 21
-10.418657302856445
 31
11.747471809387207
  0
LINE
  8
0
 10
318.0990905761719
 20
-10.418657302856445
 30
11.747471809387207
 11
317.8740234375
 21
-10.403515815734863
 31
11.747471809387207
  0
LINE
  8
0
 10
318.0843811035156
 20
-10.527664184570312
 30
11.747471809387207
 11
317.8740234375
 21
-10.513514518737793
 31
11.747471809387207
  0
LINE
  8
0
 10
317.8740234375
 20
-10.513514518737793
 30
11.747471809387207
 11
317.8740234375
 21
-10.403515815734863
 31
11.747471809387207
  0
LINE
  8
0
 10
316.4187927246094
 20
-10.513514518737793
 30
11.747471809387207
 11
316.4187927246094
 21
-10.262495040893555
 31
11.747471809387207
  0
LINE
  8
0
 10
316.4187927246094
 20
-10.262495040893555
 30
11.747471809387207
 11
316.1687927246094
 21
-10.262495040893555
 31
11.747471809387207
  0
LINE
  8
0
 10
316.1687927246094
 20
-10.262495040893555
 30
11.747471809387207
 11
316.1687927246094
 21
-10.513514518737793
 31
11.747471809387207
  0
LINE
  8
0
 10
316.4187927246094
 20
-10.513514518737793
 30
11.747471809387207
 11
316.56878662109375
 21
-10.513514518737793
 31
11.747471809387207
  0
LINE
  8
0
 10
316.1687927246094
 20
-10.513514518737793
 30
11.747471809387207
 11
316.018798828125
 21
-10.513514518737793
 31
11.747471809387207
  0
LINE
  8
0
 10
316.56878662109375
 20
-10.312494277954102
 30
11.747471809387207
 11
316.46270751953125
 21
-10.268562316894531
 31
11.747471809387207
  0
LINE
  8
0
 10
316.56878662109375
 20
-10.312494277954102
 30
11.747471809387207
 11
316.5683288574219
 21
-10.300725936889648
 31
11.747471809387207
  0
LINE
  8
0
 10
316.5683288574219
 20
-10.300725936889648
 30
11.747471809387207
 11
316.5669250488281
 21
-10.289029121398926
 31
11.747471809387207
  0
LINE
  8
0
 10
316.5669250488281
 20
-10.289029121398926
 30
11.747471809387207
 11
316.56463623046875
 21
-10.277478218078613
 31
11.747471809387207
  0
LINE
  8
0
 10
316.56463623046875
 20
-10.277478218078613
 30
11.747471809387207
 11
316.5614318847656
 21
-10.266141891479492
 31
11.747471809387207
  0
LINE
  8
0
 10
316.5614318847656
 20
-10.266141891479492
 30
11.747471809387207
 11
316.557373046875
 21
-10.25509262084961
 31
11.747471809387207
  0
LINE
  8
0
 10
316.557373046875
 20
-10.25509262084961
 30
11.747471809387207
 11
316.55242919921875
 21
-10.244396209716797
 31
11.747471809387207
  0
LINE
  8
0
 10
316.55242919921875
 20
-10.244396209716797
 30
11.747471809387207
 11
316.5466613769531
 21
-10.23412036895752
 31
11.747471809387207
  0
LINE
  8
0
 10
316.5466613769531
 20
-10.23412036895752
 30
11.747471809387207
 11
316.5401306152344
 21
-10.224327087402344
 31
11.747471809387207
  0
LINE
  8
0
 10
316.5401306152344
 20
-10.224327087402344
 30
11.747471809387207
 11
316.5328369140625
 21
-10.21507740020752
 31
11.747471809387207
  0
LINE
  8
0
 10
316.5328369140625
 20
-10.21507740020752
 30
11.747471809387207
 11
316.52484130859375
 21
-10.206428527832031
 31
11.747471809387207
  0
LINE
  8
0
 10
316.52484130859375
 20
-10.206428527832031
 30
11.747471809387207
 11
316.5162048339844
 21
-10.198433876037598
 31
11.747471809387207
  0
LINE
  8
0
 10
316.5162048339844
 20
-10.198433876037598
 30
11.747471809387207
 11
316.5069580078125
 21
-10.191142082214355
 31
11.747471809387207
  0
LINE
  8
0
 10
316.5069580078125
 20
-10.191142082214355
 30
11.747471809387207
 11
316.4971618652344
 21
-10.184598922729492
 31
11.747471809387207
  0
LINE
  8
0
 10
316.4971618652344
 20
-10.184598922729492
 30
11.747471809387207
 11
316.48687744140625
 21
-10.17884349822998
 31
11.747471809387207
  0
LINE
  8
0
 10
316.48687744140625
 20
-10.17884349822998
 30
11.747471809387207
 11
316.4761657714844
 21
-10.17391300201416
 31
11.747471809387207
  0
LINE
  8
0
 10
316.4761657714844
 20
-10.17391300201416
 30
11.747471809387207
 11
316.4651184082031
 21
-10.169836044311523
 31
11.747471809387207
  0
LINE
  8
0
 10
316.4651184082031
 20
-10.169836044311523
 30
11.747471809387207
 11
316.45379638671875
 21
-10.16663932800293
 31
11.747471809387207
  0
LINE
  8
0
 10
316.45379638671875
 20
-10.16663932800293
 30
11.747471809387207
 11
316.4422302246094
 21
-10.164341926574707
 31
11.747471809387207
  0
LINE
  8
0
 10
316.4422302246094
 20
-10.164341926574707
 30
11.747471809387207
 11
316.4305419921875
 21
-10.162957191467285
 31
11.747471809387207
  0
LINE
  8
0
 10
316.41876220703125
 20
-10.162494659423828
 30
11.747471809387207
 11
316.4305419921875
 21
-10.162957191467285
 31
11.747471809387207
  0
LINE
  8
0
 10
316.41876220703125
 20
-10.162494659423828
 30
11.747471809387207
 11
316.46270751953125
 21
-10.268562316894531
 31
11.747471809387207
  0
LINE
  8
0
 10
316.46270751953125
 20
-10.268562316894531
 30
11.747471809387207
 11
316.5683288574219
 21
-10.300725936889648
 31
11.747471809387207
  0
LINE
  8
0
 10
316.46270751953125
 20
-10.268562316894531
 30
11.747471809387207
 11
316.5669250488281
 21
-10.289029121398926
 31
11.747471809387207
  0
LINE
  8
0
 10
316.46270751953125
 20
-10.268562316894531
 30
11.747471809387207
 11
316.56463623046875
 21
-10.277478218078613
 31
11.747471809387207
  0
LINE
  8
0
 10
316.46270751953125
 20
-10.268562316894531
 30
11.747471809387207
 11
316.5614318847656
 21
-10.266141891479492
 31
11.747471809387207
  0
LINE
  8
0
 10
316.46270751953125
 20
-10.268562316894531
 30
11.747471809387207
 11
316.557373046875
 21
-10.25509262084961
 31
11.747471809387207
  0
LINE
  8
0
 10
316.46270751953125
 20
-10.268562316894531
 30
11.747471809387207
 11
316.55242919921875
 21
-10.244396209716797
 31
11.747471809387207
  0
LINE
  8
0
 10
316.46270751953125
 20
-10.268562316894531
 30
11.747471809387207
 11
316.5466613769531
 21
-10.23412036895752
 31
11.747471809387207
  0
LINE
  8
0
 10
316.46270751953125
 20
-10.268562316894531
 30
11.747471809387207
 11
316.5401306152344
 21
-10.224327087402344
 31
11.747471809387207
  0
LINE
  8
0
 10
316.46270751953125
 20
-10.268562316894531
 30
11.747471809387207
 11
316.5328369140625
 21
-10.21507740020752
 31
11.747471809387207
  0
LINE
  8
0
 10
316.46270751953125
 20
-10.268562316894531
 30
11.747471809387207
 11
316.52484130859375
 21
-10.206428527832031
 31
11.747471809387207
  0
LINE
  8
0
 10
316.46270751953125
 20
-10.268562316894531
 30
11.747471809387207
 11
316.5162048339844
 21
-10.198433876037598
 31
11.747471809387207
  0
LINE
  8
0
 10
316.46270751953125
 20
-10.268562316894531
 30
11.747471809387207
 11
316.5069580078125
 21
-10.191142082214355
 31
11.747471809387207
  0
LINE
  8
0
 10
316.46270751953125
 20
-10.268562316894531
 30
11.747471809387207
 11
316.4971618652344
 21
-10.184598922729492
 31
11.747471809387207
  0
LINE
  8
0
 10
316.46270751953125
 20
-10.268562316894531
 30
11.747471809387207
 11
316.48687744140625
 21
-10.17884349822998
 31
11.747471809387207
  0
LINE
  8
0
 10
316.46270751953125
 20
-10.268562316894531
 30
11.747471809387207
 11
316.4761657714844
 21
-10.17391300201416
 31
11.747471809387207
  0
LINE
  8
0
 10
316.46270751953125
 20
-10.268562316894531
 30
11.747471809387207
 11
316.4651184082031
 21
-10.169836044311523
 31
11.747471809387207
  0
LINE
  8
0
 10
316.46270751953125
 20
-10.268562316894531
 30
11.747471809387207
 11
316.45379638671875
 21
-10.16663932800293
 31
11.747471809387207
  0
LINE
  8
0
 10
316.46270751953125
 20
-10.268562316894531
 30
11.747471809387207
 11
316.4422302246094
 21
-10.164341926574707
 31
11.747471809387207
  0
LINE
  8
0
 10
316.46270751953125
 20
-10.268562316894531
 30
11.747471809387207
 11
316.4305419921875
 21
-10.162957191467285
 31
11.747471809387207
  0
LINE
  8
0
 10
316.56878662109375
 20
-10.513514518737793
 30
11.747471809387207
 11
316.56878662109375
 21
-10.312494277954102
 31
11.747471809387207
  0
LINE
  8
0
 10
316.4187927246094
 20
-10.262495040893555
 30
11.747471809387207
 11
316.46270751953125
 21
-10.268562316894531
 31
11.747471809387207
  0
LINE
  8
0
 10
316.1687927246094
 20
-10.162494659423828
 30
11.747471809387207
 11
316.1248474121094
 21
-10.318558692932129
 31
11.747471809387207
  0
LINE
  8
0
 10
316.1687927246094
 20
-10.162494659423828
 30
11.747471809387207
 11
316.1570129394531
 21
-10.162957191467285
 31
11.747471809387207
  0
LINE
  8
0
 10
316.1570129394531
 20
-10.162957191467285
 30
11.747471809387207
 11
316.14532470703125
 21
-10.16434097290039
 31
11.747471809387207
  0
LINE
  8
0
 10
316.14532470703125
 20
-10.16434097290039
 30
11.747471809387207
 11
316.1337585449219
 21
-10.16663932800293
 31
11.747471809387207
  0
LINE
  8
0
 10
316.1337585449219
 20
-10.16663932800293
 30
11.747471809387207
 11
316.1224365234375
 21
-10.169836044311523
 31
11.747471809387207
  0
LINE
  8
0
 10
316.1224365234375
 20
-10.169836044311523
 30
11.747471809387207
 11
316.11138916015625
 21
-10.17391300201416
 31
11.747471809387207
  0
LINE
  8
0
 10
316.11138916015625
 20
-10.17391300201416
 30
11.747471809387207
 11
316.1006774902344
 21
-10.17884349822998
 31
11.747471809387207
  0
LINE
  8
0
 10
316.1006774902344
 20
-10.17884349822998
 30
11.747471809387207
 11
316.09039306640625
 21
-10.184598922729492
 31
11.747471809387207
  0
LINE
  8
0
 10
316.09039306640625
 20
-10.184598922729492
 30
11.747471809387207
 11
316.08062744140625
 21
-10.191142082214355
 31
11.747471809387207
  0
LINE
  8
0
 10
316.08062744140625
 20
-10.191142082214355
 30
11.747471809387207
 11
316.07135009765625
 21
-10.198433876037598
 31
11.747471809387207
  0
LINE
  8
0
 10
316.07135009765625
 20
-10.198433876037598
 30
11.747471809387207
 11
316.0627136230469
 21
-10.206428527832031
 31
11.747471809387207
  0
LINE
  8
0
 10
316.0627136230469
 20
-10.206428527832031
 30
11.747471809387207
 11
316.0547180175781
 21
-10.21507740020752
 31
11.747471809387207
  0
LINE
  8
0
 10
316.0547180175781
 20
-10.21507740020752
 30
11.747471809387207
 11
316.04742431640625
 21
-10.224327087402344
 31
11.747471809387207
  0
LINE
  8
0
 10
316.04742431640625
 20
-10.224327087402344
 30
11.747471809387207
 11
316.0408935546875
 21
-10.23412036895752
 31
11.747471809387207
  0
LINE
  8
0
 10
316.0408935546875
 20
-10.23412036895752
 30
11.747471809387207
 11
316.0351257324219
 21
-10.244396209716797
 31
11.747471809387207
  0
LINE
  8
0
 10
316.0351257324219
 20
-10.244396209716797
 30
11.747471809387207
 11
316.03021240234375
 21
-10.25509262084961
 31
11.747471809387207
  0
LINE
  8
0
 10
316.03021240234375
 20
-10.25509262084961
 30
11.747471809387207
 11
316.026123046875
 21
-10.266141891479492
 31
11.747471809387207
  0
LINE
  8
0
 10
316.026123046875
 20
-10.266141891479492
 30
11.747471809387207
 11
316.0229187011719
 21
-10.277478218078613
 31
11.747471809387207
  0
LINE
  8
0
 10
316.0229187011719
 20
-10.277478218078613
 30
11.747471809387207
 11
316.0206298828125
 21
-10.289029121398926
 31
11.747471809387207
  0
LINE
  8
0
 10
316.0206298828125
 20
-10.289029121398926
 30
11.747471809387207
 11
316.0192565917969
 21
-10.300725936889648
 31
11.747471809387207
  0
LINE
  8
0
 10
316.0187683105469
 20
-10.312494277954102
 30
11.747471809387207
 11
316.0192565917969
 21
-10.300725936889648
 31
11.747471809387207
  0
LINE
  8
0
 10
316.0187683105469
 20
-10.312494277954102
 30
11.747471809387207
 11
316.1248474121094
 21
-10.318558692932129
 31
11.747471809387207
  0
LINE
  8
0
 10
316.1248474121094
 20
-10.318558692932129
 30
11.747471809387207
 11
316.1570129394531
 21
-10.162957191467285
 31
11.747471809387207
  0
LINE
  8
0
 10
316.1248474121094
 20
-10.318558692932129
 30
11.747471809387207
 11
316.14532470703125
 21
-10.16434097290039
 31
11.747471809387207
  0
LINE
  8
0
 10
316.1248474121094
 20
-10.318558692932129
 30
11.747471809387207
 11
316.1337585449219
 21
-10.16663932800293
 31
11.747471809387207
  0
LINE
  8
0
 10
316.1248474121094
 20
-10.318558692932129
 30
11.747471809387207
 11
316.1224365234375
 21
-10.169836044311523
 31
11.747471809387207
  0
LINE
  8
0
 10
316.1248474121094
 20
-10.318558692932129
 30
11.747471809387207
 11
316.11138916015625
 21
-10.17391300201416
 31
11.747471809387207
  0
LINE
  8
0
 10
316.1248474121094
 20
-10.318558692932129
 30
11.747471809387207
 11
316.1006774902344
 21
-10.17884349822998
 31
11.747471809387207
  0
LINE
  8
0
 10
316.1248474121094
 20
-10.318558692932129
 30
11.747471809387207
 11
316.09039306640625
 21
-10.184598922729492
 31
11.747471809387207
  0
LINE
  8
0
 10
316.1248474121094
 20
-10.318558692932129
 30
11.747471809387207
 11
316.08062744140625
 21
-10.191142082214355
 31
11.747471809387207
  0
LINE
  8
0
 10
316.1248474121094
 20
-10.318558692932129
 30
11.747471809387207
 11
316.07135009765625
 21
-10.198433876037598
 31
11.747471809387207
  0
LINE
  8
0
 10
316.1248474121094
 20
-10.318558692932129
 30
11.747471809387207
 11
316.0627136230469
 21
-10.206428527832031
 31
11.747471809387207
  0
LINE
  8
0
 10
316.1248474121094
 20
-10.318558692932129
 30
11.747471809387207
 11
316.0547180175781
 21
-10.21507740020752
 31
11.747471809387207
  0
LINE
  8
0
 10
316.1248474121094
 20
-10.318558692932129
 30
11.747471809387207
 11
316.04742431640625
 21
-10.224327087402344
 31
11.747471809387207
  0
LINE
  8
0
 10
316.1248474121094
 20
-10.318558692932129
 30
11.747471809387207
 11
316.0408935546875
 21
-10.23412036895752
 31
11.747471809387207
  0
LINE
  8
0
 10
316.1248474121094
 20
-10.318558692932129
 30
11.747471809387207
 11
316.0351257324219
 21
-10.244396209716797
 31
11.747471809387207
  0
LINE
  8
0
 10
316.1248474121094
 20
-10.318558692932129
 30
11.747471809387207
 11
316.03021240234375
 21
-10.25509262084961
 31
11.747471809387207
  0
LINE
  8
0
 10
316.1248474121094
 20
-10.318558692932129
 30
11.747471809387207
 11
316.026123046875
 21
-10.266141891479492
 31
11.747471809387207
  0
LINE
  8
0
 10
316.1248474121094
 20
-10.318558692932129
 30
11.747471809387207
 11
316.0229187011719
 21
-10.277478218078613
 31
11.747471809387207
  0
LINE
  8
0
 10
316.1248474121094
 20
-10.318558692932129
 30
11.747471809387207
 11
316.0206298828125
 21
-10.289029121398926
 31
11.747471809387207
  0
LINE
  8
0
 10
316.1248474121094
 20
-10.318558692932129
 30
11.747471809387207
 11
316.0192565917969
 21
-10.300725936889648
 31
11.747471809387207
  0
LINE
  8
0
 10
316.018798828125
 20
-10.513514518737793
 30
11.747471809387207
 11
316.0187683105469
 21
-10.312494277954102
 31
11.747471809387207
  0
LINE
  8
0
 10
316.41876220703125
 20
-10.162494659423828
 30
11.747471809387207
 11
316.1687927246094
 21
-10.162494659423828
 31
11.747471809387207
  0
LINE
  8
0
 10
316.1687927246094
 20
-10.262495040893555
 30
11.747471809387207
 11
316.1248474121094
 21
-10.318558692932129
 31
11.747471809387207
  0
LINE
  8
0
 10
316.4187927246094
 20
-11.613513946533203
 30
11.747471809387207
 11
316.4187927246094
 21
-11.863513946533203
 31
11.747471809387207
  0
LINE
  8
0
 10
316.4187927246094
 20
-11.863513946533203
 30
11.747471809387207
 11
316.1687927246094
 21
-11.863513946533203
 31
11.747471809387207
  0
LINE
  8
0
 10
316.1687927246094
 20
-11.863513946533203
 30
11.747471809387207
 11
316.1687927246094
 21
-11.613513946533203
 31
11.747471809387207
  0
LINE
  8
0
 10
316.4187927246094
 20
-11.613513946533203
 30
11.747471809387207
 11
316.56878662109375
 21
-11.613513946533203
 31
11.747471809387207
  0
LINE
  8
0
 10
316.1687927246094
 20
-11.613513946533203
 30
11.747471809387207
 11
316.0187683105469
 21
-11.613513946533203
 31
11.747471809387207
  0
LINE
  8
0
 10
316.56878662109375
 20
-11.813514709472656
 30
11.747471809387207
 11
316.46270751953125
 21
-11.857446670532227
 31
11.747471809387207
  0
LINE
  8
0
 10
316.56878662109375
 20
-11.813514709472656
 30
11.747471809387207
 11
316.5683288574219
 21
-11.82528305053711
 31
11.747471809387207
  0
LINE
  8
0
 10
316.5683288574219
 20
-11.82528305053711
 30
11.747471809387207
 11
316.5669250488281
 21
-11.836978912353516
 31
11.747471809387207
  0
LINE
  8
0
 10
316.5669250488281
 20
-11.836978912353516
 30
11.747471809387207
 11
316.56463623046875
 21
-11.848530769348145
 31
11.747471809387207
  0
LINE
  8
0
 10
316.56463623046875
 20
-11.848530769348145
 30
11.747471809387207
 11
316.5614318847656
 21
-11.859867095947266
 31
11.747471809387207
  0
LINE
  8
0
 10
316.5614318847656
 20
-11.859867095947266
 30
11.747471809387207
 11
316.557373046875
 21
-11.870916366577148
 31
11.747471809387207
  0
LINE
  8
0
 10
316.557373046875
 20
-11.870916366577148
 30
11.747471809387207
 11
316.55242919921875
 21
-11.881612777709961
 31
11.747471809387207
  0
LINE
  8
0
 10
316.55242919921875
 20
-11.881612777709961
 30
11.747471809387207
 11
316.5466613769531
 21
-11.891888618469238
 31
11.747471809387207
  0
LINE
  8
0
 10
316.5466613769531
 20
-11.891888618469238
 30
11.747471809387207
 11
316.5401306152344
 21
-11.901681900024414
 31
11.747471809387207
  0
LINE
  8
0
 10
316.5401306152344
 20
-11.901681900024414
 30
11.747471809387207
 11
316.5328369140625
 21
-11.910930633544922
 31
11.747471809387207
  0
LINE
  8
0
 10
316.5328369140625
 20
-11.910930633544922
 30
11.747471809387207
 11
316.52484130859375
 21
-11.919580459594727
 31
11.747471809387207
  0
LINE
  8
0
 10
316.52484130859375
 20
-11.919580459594727
 30
11.747471809387207
 11
316.5162048339844
 21
-11.92757511138916
 31
11.747471809387207
  0
LINE
  8
0
 10
316.5162048339844
 20
-11.92757511138916
 30
11.747471809387207
 11
316.5069580078125
 21
-11.934865951538086
 31
11.747471809387207
  0
LINE
  8
0
 10
316.5069580078125
 20
-11.934865951538086
 30
11.747471809387207
 11
316.4971618652344
 21
-11.941410064697266
 31
11.747471809387207
  0
LINE
  8
0
 10
316.4971618652344
 20
-11.941410064697266
 30
11.747471809387207
 11
316.48687744140625
 21
-11.947164535522461
 31
11.747471809387207
  0
LINE
  8
0
 10
316.48687744140625
 20
-11.947164535522461
 30
11.747471809387207
 11
316.4761657714844
 21
-11.952095985412598
 31
11.747471809387207
  0
LINE
  8
0
 10
316.4761657714844
 20
-11.952095985412598
 30
11.747471809387207
 11
316.4651184082031
 21
-11.956172943115234
 31
11.747471809387207
  0
LINE
  8
0
 10
316.4651184082031
 20
-11.956172943115234
 30
11.747471809387207
 11
316.45379638671875
 21
-11.959369659423828
 31
11.747471809387207
  0
LINE
  8
0
 10
316.45379638671875
 20
-11.959369659423828
 30
11.747471809387207
 11
316.4422302246094
 21
-11.961668014526367
 31
11.747471809387207
  0
LINE
  8
0
 10
316.4422302246094
 20
-11.961668014526367
 30
11.747471809387207
 11
316.4305419921875
 21
-11.963051795959473
 31
11.747471809387207
  0
LINE
  8
0
 10
316.41876220703125
 20
-11.96351432800293
 30
11.747471809387207
 11
316.4305419921875
 21
-11.963051795959473
 31
11.747471809387207
  0
LINE
  8
0
 10
316.41876220703125
 20
-11.96351432800293
 30
11.747471809387207
 11
316.46270751953125
 21
-11.857446670532227
 31
11.747471809387207
  0
LINE
  8
0
 10
316.46270751953125
 20
-11.857446670532227
 30
11.747471809387207
 11
316.5683288574219
 21
-11.82528305053711
 31
11.747471809387207
  0
LINE
  8
0
 10
316.46270751953125
 20
-11.857446670532227
 30
11.747471809387207
 11
316.5669250488281
 21
-11.836978912353516
 31
11.747471809387207
  0
LINE
  8
0
 10
316.46270751953125
 20
-11.857446670532227
 30
11.747471809387207
 11
316.56463623046875
 21
-11.848530769348145
 31
11.747471809387207
  0
LINE
  8
0
 10
316.46270751953125
 20
-11.857446670532227
 30
11.747471809387207
 11
316.5614318847656
 21
-11.859867095947266
 31
11.747471809387207
  0
LINE
  8
0
 10
316.46270751953125
 20
-11.857446670532227
 30
11.747471809387207
 11
316.557373046875
 21
-11.870916366577148
 31
11.747471809387207
  0
LINE
  8
0
 10
316.46270751953125
 20
-11.857446670532227
 30
11.747471809387207
 11
316.55242919921875
 21
-11.881612777709961
 31
11.747471809387207
  0
LINE
  8
0
 10
316.46270751953125
 20
-11.857446670532227
 30
11.747471809387207
 11
316.5466613769531
 21
-11.891888618469238
 31
11.747471809387207
  0
LINE
  8
0
 10
316.46270751953125
 20
-11.857446670532227
 30
11.747471809387207
 11
316.5401306152344
 21
-11.901681900024414
 31
11.747471809387207
  0
LINE
  8
0
 10
316.46270751953125
 20
-11.857446670532227
 30
11.747471809387207
 11
316.5328369140625
 21
-11.910930633544922
 31
11.747471809387207
  0
LINE
  8
0
 10
316.46270751953125
 20
-11.857446670532227
 30
11.747471809387207
 11
316.52484130859375
 21
-11.919580459594727
 31
11.747471809387207
  0
LINE
  8
0
 10
316.46270751953125
 20
-11.857446670532227
 30
11.747471809387207
 11
316.5162048339844
 21
-11.92757511138916
 31
11.747471809387207
  0
LINE
  8
0
 10
316.46270751953125
 20
-11.857446670532227
 30
11.747471809387207
 11
316.5069580078125
 21
-11.934865951538086
 31
11.747471809387207
  0
LINE
  8
0
 10
316.46270751953125
 20
-11.857446670532227
 30
11.747471809387207
 11
316.4971618652344
 21
-11.941410064697266
 31
11.747471809387207
  0
LINE
  8
0
 10
316.46270751953125
 20
-11.857446670532227
 30
11.747471809387207
 11
316.48687744140625
 21
-11.947164535522461
 31
11.747471809387207
  0
LINE
  8
0
 10
316.46270751953125
 20
-11.857446670532227
 30
11.747471809387207
 11
316.4761657714844
 21
-11.952095985412598
 31
11.747471809387207
  0
LINE
  8
0
 10
316.46270751953125
 20
-11.857446670532227
 30
11.747471809387207
 11
316.4651184082031
 21
-11.956172943115234
 31
11.747471809387207
  0
LINE
  8
0
 10
316.46270751953125
 20
-11.857446670532227
 30
11.747471809387207
 11
316.45379638671875
 21
-11.959369659423828
 31
11.747471809387207
  0
LINE
  8
0
 10
316.46270751953125
 20
-11.857446670532227
 30
11.747471809387207
 11
316.4422302246094
 21
-11.961668014526367
 31
11.747471809387207
  0
LINE
  8
0
 10
316.46270751953125
 20
-11.857446670532227
 30
11.747471809387207
 11
316.4305419921875
 21
-11.963051795959473
 31
11.747471809387207
  0
LINE
  8
0
 10
316.56878662109375
 20
-11.613513946533203
 30
11.747471809387207
 11
316.56878662109375
 21
-11.813514709472656
 31
11.747471809387207
  0
LINE
  8
0
 10
316.4187927246094
 20
-11.863513946533203
 30
11.747471809387207
 11
316.46270751953125
 21
-11.857446670532227
 31
11.747471809387207
  0
LINE
  8
0
 10
316.1687927246094
 20
-11.96351432800293
 30
11.747471809387207
 11
316.1248474121094
 21
-11.807451248168945
 31
11.747471809387207
  0
LINE
  8
0
 10
316.1687927246094
 20
-11.96351432800293
 30
11.747471809387207
 11
316.1570129394531
 21
-11.963052749633789
 31
11.747471809387207
  0
LINE
  8
0
 10
316.1570129394531
 20
-11.963052749633789
 30
11.747471809387207
 11
316.14532470703125
 21
-11.961668014526367
 31
11.747471809387207
  0
LINE
  8
0
 10
316.14532470703125
 20
-11.961668014526367
 30
11.747471809387207
 11
316.1337585449219
 21
-11.959369659423828
 31
11.747471809387207
  0
LINE
  8
0
 10
316.1337585449219
 20
-11.959369659423828
 30
11.747471809387207
 11
316.1224365234375
 21
-11.956172943115234
 31
11.747471809387207
  0
LINE
  8
0
 10
316.1224365234375
 20
-11.956172943115234
 30
11.747471809387207
 11
316.11138916015625
 21
-11.952096939086914
 31
11.747471809387207
  0
LINE
  8
0
 10
316.11138916015625
 20
-11.952096939086914
 30
11.747471809387207
 11
316.1006774902344
 21
-11.947165489196777
 31
11.747471809387207
  0
LINE
  8
0
 10
316.1006774902344
 20
-11.947165489196777
 30
11.747471809387207
 11
316.09039306640625
 21
-11.941410064697266
 31
11.747471809387207
  0
LINE
  8
0
 10
316.09039306640625
 20
-11.941410064697266
 30
11.747471809387207
 11
316.08062744140625
 21
-11.934866905212402
 31
11.747471809387207
  0
LINE
  8
0
 10
316.08062744140625
 20
-11.934866905212402
 30
11.747471809387207
 11
316.07135009765625
 21
-11.927576065063477
 31
11.747471809387207
  0
LINE
  8
0
 10
316.07135009765625
 20
-11.927576065063477
 30
11.747471809387207
 11
316.0627136230469
 21
-11.919580459594727
 31
11.747471809387207
  0
LINE
  8
0
 10
316.0627136230469
 20
-11.919580459594727
 30
11.747471809387207
 11
316.0547180175781
 21
-11.910931587219238
 31
11.747471809387207
  0
LINE
  8
0
 10
316.0547180175781
 20
-11.910931587219238
 30
11.747471809387207
 11
316.04742431640625
 21
-11.901681900024414
 31
11.747471809387207
  0
LINE
  8
0
 10
316.04742431640625
 20
-11.901681900024414
 30
11.747471809387207
 11
316.0408935546875
 21
-11.891889572143555
 31
11.747471809387207
  0
LINE
  8
0
 10
316.0408935546875
 20
-11.891889572143555
 30
11.747471809387207
 11
316.0351257324219
 21
-11.881612777709961
 31
11.747471809387207
  0
LINE
  8
0
 10
316.0351257324219
 20
-11.881612777709961
 30
11.747471809387207
 11
316.03021240234375
 21
-11.870916366577148
 31
11.747471809387207
  0
LINE
  8
0
 10
316.03021240234375
 20
-11.870916366577148
 30
11.747471809387207
 11
316.026123046875
 21
-11.859867095947266
 31
11.747471809387207
  0
LINE
  8
0
 10
316.026123046875
 20
-11.859867095947266
 30
11.747471809387207
 11
316.0229187011719
 21
-11.848531723022461
 31
11.747471809387207
  0
LINE
  8
0
 10
316.0229187011719
 20
-11.848531723022461
 30
11.747471809387207
 11
316.0206298828125
 21
-11.836979866027832
 31
11.747471809387207
  0
LINE
  8
0
 10
316.0206298828125
 20
-11.836979866027832
 30
11.747471809387207
 11
316.0192565917969
 21
-11.82528305053711
 31
11.747471809387207
  0
LINE
  8
0
 10
316.0187683105469
 20
-11.813514709472656
 30
11.747471809387207
 11
316.0192565917969
 21
-11.82528305053711
 31
11.747471809387207
  0
LINE
  8
0
 10
316.0187683105469
 20
-11.813514709472656
 30
11.747471809387207
 11
316.1248474121094
 21
-11.807451248168945
 31
11.747471809387207
  0
LINE
  8
0
 10
316.1248474121094
 20
-11.807451248168945
 30
11.747471809387207
 11
316.1570129394531
 21
-11.963052749633789
 31
11.747471809387207
  0
LINE
  8
0
 10
316.1248474121094
 20
-11.807451248168945
 30
11.747471809387207
 11
316.14532470703125
 21
-11.961668014526367
 31
11.747471809387207
  0
LINE
  8
0
 10
316.1248474121094
 20
-11.807451248168945
 30
11.747471809387207
 11
316.1337585449219
 21
-11.959369659423828
 31
11.747471809387207
  0
LINE
  8
0
 10
316.1248474121094
 20
-11.807451248168945
 30
11.747471809387207
 11
316.1224365234375
 21
-11.956172943115234
 31
11.747471809387207
  0
LINE
  8
0
 10
316.1248474121094
 20
-11.807451248168945
 30
11.747471809387207
 11
316.11138916015625
 21
-11.952096939086914
 31
11.747471809387207
  0
LINE
  8
0
 10
316.1248474121094
 20
-11.807451248168945
 30
11.747471809387207
 11
316.1006774902344
 21
-11.947165489196777
 31
11.747471809387207
  0
LINE
  8
0
 10
316.1248474121094
 20
-11.807451248168945
 30
11.747471809387207
 11
316.09039306640625
 21
-11.941410064697266
 31
11.747471809387207
  0
LINE
  8
0
 10
316.1248474121094
 20
-11.807451248168945
 30
11.747471809387207
 11
316.08062744140625
 21
-11.934866905212402
 31
11.747471809387207
  0
LINE
  8
0
 10
316.1248474121094
 20
-11.807451248168945
 30
11.747471809387207
 11
316.07135009765625
 21
-11.927576065063477
 31
11.747471809387207
  0
LINE
  8
0
 10
316.1248474121094
 20
-11.807451248168945
 30
11.747471809387207
 11
316.0627136230469
 21
-11.919580459594727
 31
11.747471809387207
  0
LINE
  8
0
 10
316.1248474121094
 20
-11.807451248168945
 30
11.747471809387207
 11
316.0547180175781
 21
-11.910931587219238
 31
11.747471809387207
  0
LINE
  8
0
 10
316.1248474121094
 20
-11.807451248168945
 30
11.747471809387207
 11
316.04742431640625
 21
-11.901681900024414
 31
11.747471809387207
  0
LINE
  8
0
 10
316.1248474121094
 20
-11.807451248168945
 30
11.747471809387207
 11
316.0408935546875
 21
-11.891889572143555
 31
11.747471809387207
  0
LINE
  8
0
 10
316.1248474121094
 20
-11.807451248168945
 30
11.747471809387207
 11
316.0351257324219
 21
-11.881612777709961
 31
11.747471809387207
  0
LINE
  8
0
 10
316.1248474121094
 20
-11.807451248168945
 30
11.747471809387207
 11
316.03021240234375
 21
-11.870916366577148
 31
11.747471809387207
  0
LINE
  8
0
 10
316.1248474121094
 20
-11.807451248168945
 30
11.747471809387207
 11
316.026123046875
 21
-11.859867095947266
 31
11.747471809387207
  0
LINE
  8
0
 10
316.1248474121094
 20
-11.807451248168945
 30
11.747471809387207
 11
316.0229187011719
 21
-11.848531723022461
 31
11.747471809387207
  0
LINE
  8
0
 10
316.1248474121094
 20
-11.807451248168945
 30
11.747471809387207
 11
316.0206298828125
 21
-11.836979866027832
 31
11.747471809387207
  0
LINE
  8
0
 10
316.1248474121094
 20
-11.807451248168945
 30
11.747471809387207
 11
316.0192565917969
 21
-11.82528305053711
 31
11.747471809387207
  0
LINE
  8
0
 10
316.0187683105469
 20
-11.613513946533203
 30
11.747471809387207
 11
316.0187683105469
 21
-11.813514709472656
 31
11.747471809387207
  0
LINE
  8
0
 10
316.41876220703125
 20
-11.96351432800293
 30
11.747471809387207
 11
316.1687927246094
 21
-11.96351432800293
 31
11.747471809387207
  0
LINE
  8
0
 10
316.1687927246094
 20
-11.863513946533203
 30
11.747471809387207
 11
316.1248474121094
 21
-11.807451248168945
 31
11.747471809387207
  0
LINE
  8
0
 10
316.4187927246094
 20
-19.524538040161133
 30
11.24747085571289
 11
316.4187927246094
 21
-19.775131225585938
 31
11.24747085571289
  0
LINE
  8
0
 10
316.4187927246094
 20
-19.775131225585938
 30
11.24747085571289
 11
316.1687927246094
 21
-19.775131225585938
 31
11.24747085571289
  0
LINE
  8
0
 10
316.1687927246094
 20
-19.775131225585938
 30
11.24747085571289
 11
316.1687927246094
 21
-19.524320602416992
 31
11.24747085571289
  0
LINE
  8
0
 10
316.4187927246094
 20
-19.524538040161133
 30
11.24747085571289
 11
316.56878662109375
 21
-19.524538040161133
 31
11.24747085571289
  0
LINE
  8
0
 10
316.1687927246094
 20
-19.524320602416992
 30
11.24747085571289
 11
316.018798828125
 21
-19.524320602416992
 31
11.24747085571289
  0
LINE
  8
0
 10
316.56878662109375
 20
-19.725130081176758
 30
11.24747085571289
 11
316.46270751953125
 21
-19.769062042236328
 31
11.24747085571289
  0
LINE
  8
0
 10
316.56878662109375
 20
-19.725130081176758
 30
11.24747085571289
 11
316.5683288574219
 21
-19.736900329589844
 31
11.24747085571289
  0
LINE
  8
0
 10
316.5683288574219
 20
-19.736900329589844
 30
11.24747085571289
 11
316.5669250488281
 21
-19.74859619140625
 31
11.24747085571289
  0
LINE
  8
0
 10
316.5669250488281
 20
-19.74859619140625
 30
11.24747085571289
 11
316.56463623046875
 21
-19.760147094726562
 31
11.24747085571289
  0
LINE
  8
0
 10
316.56463623046875
 20
-19.760147094726562
 30
11.24747085571289
 11
316.5614318847656
 21
-19.771482467651367
 31
11.24747085571289
  0
LINE
  8
0
 10
316.5614318847656
 20
-19.771482467651367
 30
11.24747085571289
 11
316.557373046875
 21
-19.782533645629883
 31
11.24747085571289
  0
LINE
  8
0
 10
316.557373046875
 20
-19.782533645629883
 30
11.24747085571289
 11
316.55242919921875
 21
-19.793230056762695
 31
11.24747085571289
  0
LINE
  8
0
 10
316.55242919921875
 20
-19.793230056762695
 30
11.24747085571289
 11
316.5466613769531
 21
-19.803504943847656
 31
11.24747085571289
  0
LINE
  8
0
 10
316.5466613769531
 20
-19.803504943847656
 30
11.24747085571289
 11
316.5401306152344
 21
-19.81329917907715
 31
11.24747085571289
  0
LINE
  8
0
 10
316.5401306152344
 20
-19.81329917907715
 30
11.24747085571289
 11
316.5328369140625
 21
-19.822547912597656
 31
11.24747085571289
  0
LINE
  8
0
 10
316.5328369140625
 20
-19.822547912597656
 30
11.24747085571289
 11
316.52484130859375
 21
-19.831195831298828
 31
11.24747085571289
  0
LINE
  8
0
 10
316.52484130859375
 20
-19.831195831298828
 30
11.24747085571289
 11
316.5162048339844
 21
-19.839191436767578
 31
11.24747085571289
  0
LINE
  8
0
 10
316.5162048339844
 20
-19.839191436767578
 30
11.24747085571289
 11
316.5069580078125
 21
-19.84648323059082
 31
11.24747085571289
  0
LINE
  8
0
 10
316.5069580078125
 20
-19.84648323059082
 30
11.24747085571289
 11
316.4971618652344
 21
-19.85302734375
 31
11.24747085571289
  0
LINE
  8
0
 10
316.4971618652344
 20
-19.85302734375
 30
11.24747085571289
 11
316.48687744140625
 21
-19.858781814575195
 31
11.24747085571289
  0
LINE
  8
0
 10
316.48687744140625
 20
-19.858781814575195
 30
11.24747085571289
 11
316.4761657714844
 21
-19.863712310791016
 31
11.24747085571289
  0
LINE
  8
0
 10
316.4761657714844
 20
-19.863712310791016
 30
11.24747085571289
 11
316.4651184082031
 21
-19.867788314819336
 31
11.24747085571289
  0
LINE
  8
0
 10
316.4651184082031
 20
-19.867788314819336
 30
11.24747085571289
 11
316.45379638671875
 21
-19.870986938476562
 31
11.24747085571289
  0
LINE
  8
0
 10
316.45379638671875
 20
-19.870986938476562
 30
11.24747085571289
 11
316.4422302246094
 21
-19.87328338623047
 31
11.24747085571289
  0
LINE
  8
0
 10
316.4422302246094
 20
-19.87328338623047
 30
11.24747085571289
 11
316.4305419921875
 21
-19.87466812133789
 31
11.24747085571289
  0
LINE
  8
0
 10
316.41876220703125
 20
-19.87512969970703
 30
11.24747085571289
 11
316.4305419921875
 21
-19.87466812133789
 31
11.24747085571289
  0
LINE
  8
0
 10
316.41876220703125
 20
-19.87512969970703
 30
11.24747085571289
 11
316.46270751953125
 21
-19.769062042236328
 31
11.24747085571289
  0
LINE
  8
0
 10
316.46270751953125
 20
-19.769062042236328
 30
11.24747085571289
 11
316.5683288574219
 21
-19.736900329589844
 31
11.24747085571289
  0
LINE
  8
0
 10
316.46270751953125
 20
-19.769062042236328
 30
11.24747085571289
 11
316.5669250488281
 21
-19.74859619140625
 31
11.24747085571289
  0
LINE
  8
0
 10
316.46270751953125
 20
-19.769062042236328
 30
11.24747085571289
 11
316.56463623046875
 21
-19.760147094726562
 31
11.24747085571289
  0
LINE
  8
0
 10
316.46270751953125
 20
-19.769062042236328
 30
11.24747085571289
 11
316.5614318847656
 21
-19.771482467651367
 31
11.24747085571289
  0
LINE
  8
0
 10
316.46270751953125
 20
-19.769062042236328
 30
11.24747085571289
 11
316.557373046875
 21
-19.782533645629883
 31
11.24747085571289
  0
LINE
  8
0
 10
316.46270751953125
 20
-19.769062042236328
 30
11.24747085571289
 11
316.55242919921875
 21
-19.793230056762695
 31
11.24747085571289
  0
LINE
  8
0
 10
316.46270751953125
 20
-19.769062042236328
 30
11.24747085571289
 11
316.5466613769531
 21
-19.803504943847656
 31
11.24747085571289
  0
LINE
  8
0
 10
316.46270751953125
 20
-19.769062042236328
 30
11.24747085571289
 11
316.5401306152344
 21
-19.81329917907715
 31
11.24747085571289
  0
LINE
  8
0
 10
316.46270751953125
 20
-19.769062042236328
 30
11.24747085571289
 11
316.5328369140625
 21
-19.822547912597656
 31
11.24747085571289
  0
LINE
  8
0
 10
316.46270751953125
 20
-19.769062042236328
 30
11.24747085571289
 11
316.52484130859375
 21
-19.831195831298828
 31
11.24747085571289
  0
LINE
  8
0
 10
316.46270751953125
 20
-19.769062042236328
 30
11.24747085571289
 11
316.5162048339844
 21
-19.839191436767578
 31
11.24747085571289
  0
LINE
  8
0
 10
316.46270751953125
 20
-19.769062042236328
 30
11.24747085571289
 11
316.5069580078125
 21
-19.84648323059082
 31
11.24747085571289
  0
LINE
  8
0
 10
316.46270751953125
 20
-19.769062042236328
 30
11.24747085571289
 11
316.4971618652344
 21
-19.85302734375
 31
11.24747085571289
  0
LINE
  8
0
 10
316.46270751953125
 20
-19.769062042236328
 30
11.24747085571289
 11
316.48687744140625
 21
-19.858781814575195
 31
11.24747085571289
  0
LINE
  8
0
 10
316.46270751953125
 20
-19.769062042236328
 30
11.24747085571289
 11
316.4761657714844
 21
-19.863712310791016
 31
11.24747085571289
  0
LINE
  8
0
 10
316.46270751953125
 20
-19.769062042236328
 30
11.24747085571289
 11
316.4651184082031
 21
-19.867788314819336
 31
11.24747085571289
  0
LINE
  8
0
 10
316.46270751953125
 20
-19.769062042236328
 30
11.24747085571289
 11
316.45379638671875
 21
-19.870986938476562
 31
11.24747085571289
  0
LINE
  8
0
 10
316.46270751953125
 20
-19.769062042236328
 30
11.24747085571289
 11
316.4422302246094
 21
-19.87328338623047
 31
11.24747085571289
  0
LINE
  8
0
 10
316.46270751953125
 20
-19.769062042236328
 30
11.24747085571289
 11
316.4305419921875
 21
-19.87466812133789
 31
11.24747085571289
  0
LINE
  8
0
 10
316.56878662109375
 20
-19.524538040161133
 30
11.24747085571289
 11
316.56878662109375
 21
-19.725130081176758
 31
11.24747085571289
  0
LINE
  8
0
 10
316.4187927246094
 20
-19.775131225585938
 30
11.24747085571289
 11
316.46270751953125
 21
-19.769062042236328
 31
11.24747085571289
  0
LINE
  8
0
 10
316.1687927246094
 20
-19.87512969970703
 30
11.24747085571289
 11
316.1248474121094
 21
-19.719066619873047
 31
11.24747085571289
  0
LINE
  8
0
 10
316.1687927246094
 20
-19.87512969970703
 30
11.24747085571289
 11
316.1570129394531
 21
-19.87466812133789
 31
11.24747085571289
  0
LINE
  8
0
 10
316.1570129394531
 20
-19.87466812133789
 30
11.24747085571289
 11
316.14532470703125
 21
-19.87328338623047
 31
11.24747085571289
  0
LINE
  8
0
 10
316.14532470703125
 20
-19.87328338623047
 30
11.24747085571289
 11
316.1337585449219
 21
-19.870986938476562
 31
11.24747085571289
  0
LINE
  8
0
 10
316.1337585449219
 20
-19.870986938476562
 30
11.24747085571289
 11
316.1224365234375
 21
-19.867788314819336
 31
11.24747085571289
  0
LINE
  8
0
 10
316.1224365234375
 20
-19.867788314819336
 30
11.24747085571289
 11
316.11138916015625
 21
-19.863712310791016
 31
11.24747085571289
  0
LINE
  8
0
 10
316.11138916015625
 20
-19.863712310791016
 30
11.24747085571289
 11
316.1006774902344
 21
-19.858781814575195
 31
11.24747085571289
  0
LINE
  8
0
 10
316.1006774902344
 20
-19.858781814575195
 30
11.24747085571289
 11
316.09039306640625
 21
-19.85302734375
 31
11.24747085571289
  0
LINE
  8
0
 10
316.09039306640625
 20
-19.85302734375
 30
11.24747085571289
 11
316.08062744140625
 21
-19.84648323059082
 31
11.24747085571289
  0
LINE
  8
0
 10
316.08062744140625
 20
-19.84648323059082
 30
11.24747085571289
 11
316.07135009765625
 21
-19.839191436767578
 31
11.24747085571289
  0
LINE
  8
0
 10
316.07135009765625
 20
-19.839191436767578
 30
11.24747085571289
 11
316.0627136230469
 21
-19.831195831298828
 31
11.24747085571289
  0
LINE
  8
0
 10
316.0627136230469
 20
-19.831195831298828
 30
11.24747085571289
 11
316.0547180175781
 21
-19.822547912597656
 31
11.24747085571289
  0
LINE
  8
0
 10
316.0547180175781
 20
-19.822547912597656
 30
11.24747085571289
 11
316.04742431640625
 21
-19.81329917907715
 31
11.24747085571289
  0
LINE
  8
0
 10
316.04742431640625
 20
-19.81329917907715
 30
11.24747085571289
 11
316.0408935546875
 21
-19.803504943847656
 31
11.24747085571289
  0
LINE
  8
0
 10
316.0408935546875
 20
-19.803504943847656
 30
11.24747085571289
 11
316.0351257324219
 21
-19.793228149414062
 31
11.24747085571289
  0
LINE
  8
0
 10
316.0351257324219
 20
-19.793228149414062
 30
11.24747085571289
 11
316.03021240234375
 21
-19.782533645629883
 31
11.24747085571289
  0
LINE
  8
0
 10
316.03021240234375
 20
-19.782533645629883
 30
11.24747085571289
 11
316.026123046875
 21
-19.771482467651367
 31
11.24747085571289
  0
LINE
  8
0
 10
316.026123046875
 20
-19.771482467651367
 30
11.24747085571289
 11
316.0229187011719
 21
-19.760147094726562
 31
11.24747085571289
  0
LINE
  8
0
 10
316.0229187011719
 20
-19.760147094726562
 30
11.24747085571289
 11
316.0206298828125
 21
-19.74859619140625
 31
11.24747085571289
  0
LINE
  8
0
 10
316.0206298828125
 20
-19.74859619140625
 30
11.24747085571289
 11
316.0192565917969
 21
-19.736900329589844
 31
11.24747085571289
  0
LINE
  8
0
 10
316.0187683105469
 20
-19.725130081176758
 30
11.24747085571289
 11
316.0192565917969
 21
-19.736900329589844
 31
11.24747085571289
  0
LINE
  8
0
 10
316.0187683105469
 20
-19.725130081176758
 30
11.24747085571289
 11
316.1248474121094
 21
-19.719066619873047
 31
11.24747085571289
  0
LINE
  8
0
 10
316.1248474121094
 20
-19.719066619873047
 30
11.24747085571289
 11
316.1570129394531
 21
-19.87466812133789
 31
11.24747085571289
  0
LINE
  8
0
 10
316.1248474121094
 20
-19.719066619873047
 30
11.24747085571289
 11
316.14532470703125
 21
-19.87328338623047
 31
11.24747085571289
  0
LINE
  8
0
 10
316.1248474121094
 20
-19.719066619873047
 30
11.24747085571289
 11
316.1337585449219
 21
-19.870986938476562
 31
11.24747085571289
  0
LINE
  8
0
 10
316.1248474121094
 20
-19.719066619873047
 30
11.24747085571289
 11
316.1224365234375
 21
-19.867788314819336
 31
11.24747085571289
  0
LINE
  8
0
 10
316.1248474121094
 20
-19.719066619873047
 30
11.24747085571289
 11
316.11138916015625
 21
-19.863712310791016
 31
11.24747085571289
  0
LINE
  8
0
 10
316.1248474121094
 20
-19.719066619873047
 30
11.24747085571289
 11
316.1006774902344
 21
-19.858781814575195
 31
11.24747085571289
  0
LINE
  8
0
 10
316.1248474121094
 20
-19.719066619873047
 30
11.24747085571289
 11
316.09039306640625
 21
-19.85302734375
 31
11.24747085571289
  0
LINE
  8
0
 10
316.1248474121094
 20
-19.719066619873047
 30
11.24747085571289
 11
316.08062744140625
 21
-19.84648323059082
 31
11.24747085571289
  0
LINE
  8
0
 10
316.1248474121094
 20
-19.719066619873047
 30
11.24747085571289
 11
316.07135009765625
 21
-19.839191436767578
 31
11.24747085571289
  0
LINE
  8
0
 10
316.1248474121094
 20
-19.719066619873047
 30
11.24747085571289
 11
316.0627136230469
 21
-19.831195831298828
 31
11.24747085571289
  0
LINE
  8
0
 10
316.1248474121094
 20
-19.719066619873047
 30
11.24747085571289
 11
316.0547180175781
 21
-19.822547912597656
 31
11.24747085571289
  0
LINE
  8
0
 10
316.1248474121094
 20
-19.719066619873047
 30
11.24747085571289
 11
316.04742431640625
 21
-19.81329917907715
 31
11.24747085571289
  0
LINE
  8
0
 10
316.1248474121094
 20
-19.719066619873047
 30
11.24747085571289
 11
316.0408935546875
 21
-19.803504943847656
 31
11.24747085571289
  0
LINE
  8
0
 10
316.1248474121094
 20
-19.719066619873047
 30
11.24747085571289
 11
316.0351257324219
 21
-19.793228149414062
 31
11.24747085571289
  0
LINE
  8
0
 10
316.1248474121094
 20
-19.719066619873047
 30
11.24747085571289
 11
316.03021240234375
 21
-19.782533645629883
 31
11.24747085571289
  0
LINE
  8
0
 10
316.1248474121094
 20
-19.719066619873047
 30
11.24747085571289
 11
316.026123046875
 21
-19.771482467651367
 31
11.24747085571289
  0
LINE
  8
0
 10
316.1248474121094
 20
-19.719066619873047
 30
11.24747085571289
 11
316.0229187011719
 21
-19.760147094726562
 31
11.24747085571289
  0
LINE
  8
0
 10
316.1248474121094
 20
-19.719066619873047
 30
11.24747085571289
 11
316.0206298828125
 21
-19.74859619140625
 31
11.24747085571289
  0
LINE
  8
0
 10
316.1248474121094
 20
-19.719066619873047
 30
11.24747085571289
 11
316.0192565917969
 21
-19.736900329589844
 31
11.24747085571289
  0
LINE
  8
0
 10
316.018798828125
 20
-19.524320602416992
 30
11.24747085571289
 11
316.0187683105469
 21
-19.725130081176758
 31
11.24747085571289
  0
LINE
  8
0
 10
316.41876220703125
 20
-19.87512969970703
 30
11.24747085571289
 11
316.1687927246094
 21
-19.87512969970703
 31
11.24747085571289
  0
LINE
  8
0
 10
316.1687927246094
 20
-19.775131225585938
 30
11.24747085571289
 11
316.1248474121094
 21
-19.719066619873047
 31
11.24747085571289
  0
LINE
  8
0
 10
316.4187927246094
 20
-18.424461364746094
 30
11.24747085571289
 11
316.4187927246094
 21
-18.174110412597656
 31
11.24747085571289
  0
LINE
  8
0
 10
316.4187927246094
 20
-18.174110412597656
 30
11.24747085571289
 11
316.1687927246094
 21
-18.174110412597656
 31
11.24747085571289
  0
LINE
  8
0
 10
316.1687927246094
 20
-18.174110412597656
 30
11.24747085571289
 11
316.1687927246094
 21
-18.4243221282959
 31
11.24747085571289
  0
LINE
  8
0
 10
316.4251403808594
 20
-18.424461364746094
 30
11.24747085571289
 11
316.56878662109375
 21
-18.424461364746094
 31
11.24747085571289
  0
LINE
  8
0
 10
316.1687927246094
 20
-18.4243221282959
 30
11.24747085571289
 11
316.0187683105469
 21
-18.424320220947266
 31
11.24747085571289
  0
LINE
  8
0
 10
316.56878662109375
 20
-18.224109649658203
 30
11.24747085571289
 11
316.46270751953125
 21
-18.180177688598633
 31
11.24747085571289
  0
LINE
  8
0
 10
316.56878662109375
 20
-18.224109649658203
 30
11.24747085571289
 11
316.5683288574219
 21
-18.21234130859375
 31
11.24747085571289
  0
LINE
  8
0
 10
316.5683288574219
 20
-18.21234130859375
 30
11.24747085571289
 11
316.5669250488281
 21
-18.200645446777344
 31
11.24747085571289
  0
LINE
  8
0
 10
316.5669250488281
 20
-18.200645446777344
 30
11.24747085571289
 11
316.56463623046875
 21
-18.18909454345703
 31
11.24747085571289
  0
LINE
  8
0
 10
316.56463623046875
 20
-18.18909454345703
 30
11.24747085571289
 11
316.5614318847656
 21
-18.177757263183594
 31
11.24747085571289
  0
LINE
  8
0
 10
316.5614318847656
 20
-18.177757263183594
 30
11.24747085571289
 11
316.557373046875
 21
-18.16670799255371
 31
11.24747085571289
  0
LINE
  8
0
 10
316.557373046875
 20
-18.16670799255371
 30
11.24747085571289
 11
316.55242919921875
 21
-18.1560115814209
 31
11.24747085571289
  0
LINE
  8
0
 10
316.55242919921875
 20
-18.1560115814209
 30
11.24747085571289
 11
316.5466613769531
 21
-18.145734786987305
 31
11.24747085571289
  0
LINE
  8
0
 10
316.5466613769531
 20
-18.145734786987305
 30
11.24747085571289
 11
316.5401306152344
 21
-18.135942459106445
 31
11.24747085571289
  0
LINE
  8
0
 10
316.5401306152344
 20
-18.135942459106445
 30
11.24747085571289
 11
316.5328369140625
 21
-18.126693725585938
 31
11.24747085571289
  0
LINE
  8
0
 10
316.5328369140625
 20
-18.126693725585938
 30
11.24747085571289
 11
316.52484130859375
 21
-18.118043899536133
 31
11.24747085571289
  0
LINE
  8
0
 10
316.52484130859375
 20
-18.118043899536133
 30
11.24747085571289
 11
316.5162048339844
 21
-18.110050201416016
 31
11.24747085571289
  0
LINE
  8
0
 10
316.5162048339844
 20
-18.110050201416016
 30
11.24747085571289
 11
316.5069580078125
 21
-18.102758407592773
 31
11.24747085571289
  0
LINE
  8
0
 10
316.5069580078125
 20
-18.102758407592773
 30
11.24747085571289
 11
316.4971618652344
 21
-18.096214294433594
 31
11.24747085571289
  0
LINE
  8
0
 10
316.4971618652344
 20
-18.096214294433594
 30
11.24747085571289
 11
316.48687744140625
 21
-18.0904598236084
 31
11.24747085571289
  0
LINE
  8
0
 10
316.48687744140625
 20
-18.0904598236084
 30
11.24747085571289
 11
316.4761657714844
 21
-18.085529327392578
 31
11.24747085571289
  0
LINE
  8
0
 10
316.4761657714844
 20
-18.085529327392578
 30
11.24747085571289
 11
316.4651184082031
 21
-18.081451416015625
 31
11.24747085571289
  0
LINE
  8
0
 10
316.4651184082031
 20
-18.081451416015625
 30
11.24747085571289
 11
316.45379638671875
 21
-18.07825469970703
 31
11.24747085571289
  0
LINE
  8
0
 10
316.45379638671875
 20
-18.07825469970703
 30
11.24747085571289
 11
316.4422302246094
 21
-18.075956344604492
 31
11.24747085571289
  0
LINE
  8
0
 10
316.4422302246094
 20
-18.075956344604492
 30
11.24747085571289
 11
316.4305419921875
 21
-18.074573516845703
 31
11.24747085571289
  0
LINE
  8
0
 10
316.41876220703125
 20
-18.07411003112793
 30
11.24747085571289
 11
316.4305419921875
 21
-18.074573516845703
 31
11.24747085571289
  0
LINE
  8
0
 10
316.41876220703125
 20
-18.07411003112793
 30
11.24747085571289
 11
316.46270751953125
 21
-18.180177688598633
 31
11.24747085571289
  0
LINE
  8
0
 10
316.46270751953125
 20
-18.180177688598633
 30
11.24747085571289
 11
316.5683288574219
 21
-18.21234130859375
 31
11.24747085571289
  0
LINE
  8
0
 10
316.46270751953125
 20
-18.180177688598633
 30
11.24747085571289
 11
316.5669250488281
 21
-18.200645446777344
 31
11.24747085571289
  0
LINE
  8
0
 10
316.46270751953125
 20
-18.180177688598633
 30
11.24747085571289
 11
316.56463623046875
 21
-18.18909454345703
 31
11.24747085571289
  0
LINE
  8
0
 10
316.46270751953125
 20
-18.180177688598633
 30
11.24747085571289
 11
316.5614318847656
 21
-18.177757263183594
 31
11.24747085571289
  0
LINE
  8
0
 10
316.46270751953125
 20
-18.180177688598633
 30
11.24747085571289
 11
316.557373046875
 21
-18.16670799255371
 31
11.24747085571289
  0
LINE
  8
0
 10
316.46270751953125
 20
-18.180177688598633
 30
11.24747085571289
 11
316.55242919921875
 21
-18.1560115814209
 31
11.24747085571289
  0
LINE
  8
0
 10
316.46270751953125
 20
-18.180177688598633
 30
11.24747085571289
 11
316.5466613769531
 21
-18.145734786987305
 31
11.24747085571289
  0
LINE
  8
0
 10
316.46270751953125
 20
-18.180177688598633
 30
11.24747085571289
 11
316.5401306152344
 21
-18.135942459106445
 31
11.24747085571289
  0
LINE
  8
0
 10
316.46270751953125
 20
-18.180177688598633
 30
11.24747085571289
 11
316.5328369140625
 21
-18.126693725585938
 31
11.24747085571289
  0
LINE
  8
0
 10
316.46270751953125
 20
-18.180177688598633
 30
11.24747085571289
 11
316.52484130859375
 21
-18.118043899536133
 31
11.24747085571289
  0
LINE
  8
0
 10
316.46270751953125
 20
-18.180177688598633
 30
11.24747085571289
 11
316.5162048339844
 21
-18.110050201416016
 31
11.24747085571289
  0
LINE
  8
0
 10
316.46270751953125
 20
-18.180177688598633
 30
11.24747085571289
 11
316.5069580078125
 21
-18.102758407592773
 31
11.24747085571289
  0
LINE
  8
0
 10
316.46270751953125
 20
-18.180177688598633
 30
11.24747085571289
 11
316.4971618652344
 21
-18.096214294433594
 31
11.24747085571289
  0
LINE
  8
0
 10
316.46270751953125
 20
-18.180177688598633
 30
11.24747085571289
 11
316.48687744140625
 21
-18.0904598236084
 31
11.24747085571289
  0
LINE
  8
0
 10
316.46270751953125
 20
-18.180177688598633
 30
11.24747085571289
 11
316.4761657714844
 21
-18.085529327392578
 31
11.24747085571289
  0
LINE
  8
0
 10
316.46270751953125
 20
-18.180177688598633
 30
11.24747085571289
 11
316.4651184082031
 21
-18.081451416015625
 31
11.24747085571289
  0
LINE
  8
0
 10
316.46270751953125
 20
-18.180177688598633
 30
11.24747085571289
 11
316.45379638671875
 21
-18.07825469970703
 31
11.24747085571289
  0
LINE
  8
0
 10
316.46270751953125
 20
-18.180177688598633
 30
11.24747085571289
 11
316.4422302246094
 21
-18.075956344604492
 31
11.24747085571289
  0
LINE
  8
0
 10
316.46270751953125
 20
-18.180177688598633
 30
11.24747085571289
 11
316.4305419921875
 21
-18.074573516845703
 31
11.24747085571289
  0
LINE
  8
0
 10
316.56878662109375
 20
-18.424461364746094
 30
11.24747085571289
 11
316.56878662109375
 21
-18.224109649658203
 31
11.24747085571289
  0
LINE
  8
0
 10
316.4187927246094
 20
-18.174110412597656
 30
11.24747085571289
 11
316.46270751953125
 21
-18.180177688598633
 31
11.24747085571289
  0
LINE
  8
0
 10
316.1687927246094
 20
-18.07411003112793
 30
11.24747085571289
 11
316.1248474121094
 21
-18.230173110961914
 31
11.24747085571289
  0
LINE
  8
0
 10
316.1687927246094
 20
-18.07411003112793
 30
11.24747085571289
 11
316.1570129394531
 21
-18.07457160949707
 31
11.24747085571289
  0
LINE
  8
0
 10
316.1570129394531
 20
-18.07457160949707
 30
11.24747085571289
 11
316.14532470703125
 21
-18.075956344604492
 31
11.24747085571289
  0
LINE
  8
0
 10
316.14532470703125
 20
-18.075956344604492
 30
11.24747085571289
 11
316.1337585449219
 21
-18.07825469970703
 31
11.24747085571289
  0
LINE
  8
0
 10
316.1337585449219
 20
-18.07825469970703
 30
11.24747085571289
 11
316.1224365234375
 21
-18.081451416015625
 31
11.24747085571289
  0
LINE
  8
0
 10
316.1224365234375
 20
-18.081451416015625
 30
11.24747085571289
 11
316.11138916015625
 21
-18.085527420043945
 31
11.24747085571289
  0
LINE
  8
0
 10
316.11138916015625
 20
-18.085527420043945
 30
11.24747085571289
 11
316.1006774902344
 21
-18.090457916259766
 31
11.24747085571289
  0
LINE
  8
0
 10
316.1006774902344
 20
-18.090457916259766
 30
11.24747085571289
 11
316.09039306640625
 21
-18.096214294433594
 31
11.24747085571289
  0
LINE
  8
0
 10
316.09039306640625
 20
-18.096214294433594
 30
11.24747085571289
 11
316.08062744140625
 21
-18.10275650024414
 31
11.24747085571289
  0
LINE
  8
0
 10
316.08062744140625
 20
-18.10275650024414
 30
11.24747085571289
 11
316.07135009765625
 21
-18.110048294067383
 31
11.24747085571289
  0
LINE
  8
0
 10
316.07135009765625
 20
-18.110048294067383
 30
11.24747085571289
 11
316.0627136230469
 21
-18.118043899536133
 31
11.24747085571289
  0
LINE
  8
0
 10
316.0627136230469
 20
-18.118043899536133
 30
11.24747085571289
 11
316.0547180175781
 21
-18.126691818237305
 31
11.24747085571289
  0
LINE
  8
0
 10
316.0547180175781
 20
-18.126691818237305
 30
11.24747085571289
 11
316.04742431640625
 21
-18.135942459106445
 31
11.24747085571289
  0
LINE
  8
0
 10
316.04742431640625
 20
-18.135942459106445
 30
11.24747085571289
 11
316.0408935546875
 21
-18.145734786987305
 31
11.24747085571289
  0
LINE
  8
0
 10
316.0408935546875
 20
-18.145734786987305
 30
11.24747085571289
 11
316.0351257324219
 21
-18.1560115814209
 31
11.24747085571289
  0
LINE
  8
0
 10
316.0351257324219
 20
-18.1560115814209
 30
11.24747085571289
 11
316.03021240234375
 21
-18.16670799255371
 31
11.24747085571289
  0
LINE
  8
0
 10
316.03021240234375
 20
-18.16670799255371
 30
11.24747085571289
 11
316.026123046875
 21
-18.177757263183594
 31
11.24747085571289
  0
LINE
  8
0
 10
316.026123046875
 20
-18.177757263183594
 30
11.24747085571289
 11
316.0229187011719
 21
-18.1890926361084
 31
11.24747085571289
  0
LINE
  8
0
 10
316.0229187011719
 20
-18.1890926361084
 30
11.24747085571289
 11
316.0206298828125
 21
-18.200645446777344
 31
11.24747085571289
  0
LINE
  8
0
 10
316.0206298828125
 20
-18.200645446777344
 30
11.24747085571289
 11
316.0192565917969
 21
-18.21234130859375
 31
11.24747085571289
  0
LINE
  8
0
 10
316.0187683105469
 20
-18.224109649658203
 30
11.24747085571289
 11
316.0192565917969
 21
-18.21234130859375
 31
11.24747085571289
  0
LINE
  8
0
 10
316.0187683105469
 20
-18.224109649658203
 30
11.24747085571289
 11
316.1248474121094
 21
-18.230173110961914
 31
11.24747085571289
  0
LINE
  8
0
 10
316.1248474121094
 20
-18.230173110961914
 30
11.24747085571289
 11
316.1570129394531
 21
-18.07457160949707
 31
11.24747085571289
  0
LINE
  8
0
 10
316.1248474121094
 20
-18.230173110961914
 30
11.24747085571289
 11
316.14532470703125
 21
-18.075956344604492
 31
11.24747085571289
  0
LINE
  8
0
 10
316.1248474121094
 20
-18.230173110961914
 30
11.24747085571289
 11
316.1337585449219
 21
-18.07825469970703
 31
11.24747085571289
  0
LINE
  8
0
 10
316.1248474121094
 20
-18.230173110961914
 30
11.24747085571289
 11
316.1224365234375
 21
-18.081451416015625
 31
11.24747085571289
  0
LINE
  8
0
 10
316.1248474121094
 20
-18.230173110961914
 30
11.24747085571289
 11
316.11138916015625
 21
-18.085527420043945
 31
11.24747085571289
  0
LINE
  8
0
 10
316.1248474121094
 20
-18.230173110961914
 30
11.24747085571289
 11
316.1006774902344
 21
-18.090457916259766
 31
11.24747085571289
  0
LINE
  8
0
 10
316.1248474121094
 20
-18.230173110961914
 30
11.24747085571289
 11
316.09039306640625
 21
-18.096214294433594
 31
11.24747085571289
  0
LINE
  8
0
 10
316.1248474121094
 20
-18.230173110961914
 30
11.24747085571289
 11
316.08062744140625
 21
-18.10275650024414
 31
11.24747085571289
  0
LINE
  8
0
 10
316.1248474121094
 20
-18.230173110961914
 30
11.24747085571289
 11
316.07135009765625
 21
-18.110048294067383
 31
11.24747085571289
  0
LINE
  8
0
 10
316.1248474121094
 20
-18.230173110961914
 30
11.24747085571289
 11
316.0627136230469
 21
-18.118043899536133
 31
11.24747085571289
  0
LINE
  8
0
 10
316.1248474121094
 20
-18.230173110961914
 30
11.24747085571289
 11
316.0547180175781
 21
-18.126691818237305
 31
11.24747085571289
  0
LINE
  8
0
 10
316.1248474121094
 20
-18.230173110961914
 30
11.24747085571289
 11
316.04742431640625
 21
-18.135942459106445
 31
11.24747085571289
  0
LINE
  8
0
 10
316.1248474121094
 20
-18.230173110961914
 30
11.24747085571289
 11
316.0408935546875
 21
-18.145734786987305
 31
11.24747085571289
  0
LINE
  8
0
 10
316.1248474121094
 20
-18.230173110961914
 30
11.24747085571289
 11
316.0351257324219
 21
-18.1560115814209
 31
11.24747085571289
  0
LINE
  8
0
 10
316.1248474121094
 20
-18.230173110961914
 30
11.24747085571289
 11
316.03021240234375
 21
-18.16670799255371
 31
11.24747085571289
  0
LINE
  8
0
 10
316.1248474121094
 20
-18.230173110961914
 30
11.24747085571289
 11
316.026123046875
 21
-18.177757263183594
 31
11.24747085571289
  0
LINE
  8
0
 10
316.1248474121094
 20
-18.230173110961914
 30
11.24747085571289
 11
316.0229187011719
 21
-18.1890926361084
 31
11.24747085571289
  0
LINE
  8
0
 10
316.1248474121094
 20
-18.230173110961914
 30
11.24747085571289
 11
316.0206298828125
 21
-18.200645446777344
 31
11.24747085571289
  0
LINE
  8
0
 10
316.1248474121094
 20
-18.230173110961914
 30
11.24747085571289
 11
316.0192565917969
 21
-18.21234130859375
 31
11.24747085571289
  0
LINE
  8
0
 10
316.0187683105469
 20
-18.424320220947266
 30
11.24747085571289
 11
316.0187683105469
 21
-18.224109649658203
 31
11.24747085571289
  0
LINE
  8
0
 10
316.41876220703125
 20
-18.07411003112793
 30
11.24747085571289
 11
316.1687927246094
 21
-18.07411003112793
 31
11.24747085571289
  0
LINE
  8
0
 10
316.1687927246094
 20
-18.174110412597656
 30
11.24747085571289
 11
316.1248474121094
 21
-18.230173110961914
 31
11.24747085571289
  0
LINE
  8
0
 10
319.1275939941406
 20
-11.717645645141602
 30
11.747471809387207
 11
319.3686828613281
 21
-11.65146255493164
 31
11.747471809387207
  0
LINE
  8
0
 10
319.1621398925781
 20
-11.886677742004395
 30
11.747471809387207
 11
319.4098815917969
 21
-11.853187561035156
 31
11.747471809387207
  0
LINE
  8
0
 10
319.1741943359375
 20
-12.071924209594727
 30
11.747471809387207
 11
319.4240417480469
 21
-12.06351375579834
 31
11.747471809387207
  0
LINE
  8
0
 10
319.4240417480469
 20
-12.180792808532715
 30
11.73763370513916
 11
319.4240417480469
 21
-12.06351375579834
 31
11.747471809387207
  0
LINE
  8
0
 10
316.4071350097656
 20
-10.513514518737793
 30
11.747471809387207
 11
316.4187927246094
 21
-10.513514518737793
 31
11.747471809387207
  0
LINE
  8
0
 10
315.96875
 20
-10.513514518737793
 30
11.747471809387207
 11
316.018798828125
 21
-10.513514518737793
 31
11.747471809387207
  0
LINE
  8
0
 10
316.62762451171875
 20
-10.513514518737793
 30
11.747471809387207
 11
316.56878662109375
 21
-10.513514518737793
 31
11.747471809387207
  0
LINE
  8
0
 10
316.18609619140625
 20
-10.513514518737793
 30
11.747471809387207
 11
316.1687927246094
 21
-10.513514518737793
 31
11.747471809387207
  0
LINE
  8
0
 10
316.18609619140625
 20
-11.613513946533203
 30
11.747471809387207
 11
316.1687927246094
 21
-11.613513946533203
 31
11.747471809387207
  0
LINE
  8
0
 10
316.62762451171875
 20
-11.613513946533203
 30
11.747471809387207
 11
316.56878662109375
 21
-11.613513946533203
 31
11.747471809387207
  0
LINE
  8
0
 10
318.90325927734375
 20
-11.269220352172852
 30
11.747471809387207
 11
319.10107421875
 21
-11.116355895996094
 31
11.747471809387207
  0
LINE
  8
0
 10
318.79327392578125
 20
-11.144275665283203
 30
11.747471809387207
 11
318.9700622558594
 21
-10.967498779296875
 31
11.747471809387207
  0
LINE
  8
0
 10
318.6683349609375
 20
-11.034295082092285
 30
11.747471809387207
 11
318.8211975097656
 21
-10.83647632598877
 31
11.747471809387207
  0
LINE
  8
0
 10
318.5300598144531
 20
-10.94089126586914
 30
11.747471809387207
 11
318.6563720703125
 21
-10.72513484954834
 31
11.747471809387207
  0
LINE
  8
0
 10
318.3800964355469
 20
-10.865615844726562
 30
11.747471809387207
 11
318.4773864746094
 21
-10.635320663452148
 31
11.747471809387207
  0
LINE
  8
0
 10
318.21990966796875
 20
-10.809962272644043
 30
11.747471809387207
 11
318.2861022949219
 21
-10.56888198852539
 31
11.747471809387207
  0
LINE
  8
0
 10
318.0508728027344
 20
-10.775411605834961
 30
11.747471809387207
 11
318.0843811035156
 21
-10.527664184570312
 31
11.747471809387207
  0
LINE
  8
0
 10
317.8656311035156
 20
-10.763373374938965
 30
11.747471809387207
 11
317.8740234375
 21
-10.513514518737793
 31
11.747471809387207
  0
LINE
  8
0
 10
317.8529052734375
 20
-10.513514518737793
 30
11.747471809387207
 11
317.8740234375
 21
-10.513514518737793
 31
11.747471809387207
  0
LINE
  8
0
 10
318.3240661621094
 20
-15.15713882446289
 30
11.488184928894043
 11
318.07403564453125
 21
-15.157136917114258
 31
11.488184928894043
  0
LINE
  8
0
 10
318.07403564453125
 20
-15.157136917114258
 30
11.488184928894043
 11
318.07403564453125
 21
-14.908010482788086
 31
11.50894546508789
  0
LINE
  8
0
 10
318.07403564453125
 20
-14.908010482788086
 30
11.50894546508789
 11
318.3240661621094
 21
-14.908010482788086
 31
11.50894546508789
  0
LINE
  8
0
 10
318.3240661621094
 20
-15.15713882446289
 30
11.488184928894043
 11
318.3240661621094
 21
-15.306621551513672
 31
11.475728034973145
  0
LINE
  8
0
 10
318.3240661621094
 20
-14.908010482788086
 30
11.50894546508789
 11
318.3240661621094
 21
-14.760137557983398
 31
11.521267890930176
  0
LINE
  8
0
 10
318.1240234375
 20
-15.306615829467773
 30
11.475728034973145
 11
318.080078125
 21
-15.20091438293457
 31
11.484537124633789
  0
LINE
  8
0
 10
318.1240234375
 20
-15.306615829467773
 30
11.475728034973145
 11
318.11224365234375
 21
-15.30615520477295
 31
11.475767135620117
  0
LINE
  8
0
 10
318.11224365234375
 20
-15.30615520477295
 30
11.475767135620117
 11
318.1005554199219
 21
-15.30477523803711
 31
11.475881576538086
  0
LINE
  8
0
 10
318.1005554199219
 20
-15.30477523803711
 30
11.475881576538086
 11
318.0890197753906
 21
-15.302484512329102
 31
11.476072311401367
  0
LINE
  8
0
 10
318.0890197753906
 20
-15.302484512329102
 30
11.476072311401367
 11
318.0776672363281
 21
-15.299299240112305
 31
11.476338386535645
  0
LINE
  8
0
 10
318.0776672363281
 20
-15.299299240112305
 30
11.476338386535645
 11
318.0666198730469
 21
-15.295235633850098
 31
11.476676940917969
  0
LINE
  8
0
 10
318.0666198730469
 20
-15.295235633850098
 30
11.476676940917969
 11
318.0559387207031
 21
-15.290321350097656
 31
11.477086067199707
  0
LINE
  8
0
 10
318.0559387207031
 20
-15.290321350097656
 30
11.477086067199707
 11
318.045654296875
 21
-15.284585952758789
 31
11.477563858032227
  0
LINE
  8
0
 10
318.045654296875
 20
-15.284585952758789
 30
11.477563858032227
 11
318.0358581542969
 21
-15.278064727783203
 31
11.478107452392578
  0
LINE
  8
0
 10
318.0358581542969
 20
-15.278064727783203
 30
11.478107452392578
 11
318.026611328125
 21
-15.270798683166504
 31
11.478713035583496
  0
LINE
  8
0
 10
318.026611328125
 20
-15.270798683166504
 30
11.478713035583496
 11
318.0179443359375
 21
-15.26283073425293
 31
11.479376792907715
  0
LINE
  8
0
 10
318.0179443359375
 20
-15.26283073425293
 30
11.479376792907715
 11
318.0099792480469
 21
-15.25421142578125
 31
11.480094909667969
  0
LINE
  8
0
 10
318.0099792480469
 20
-15.25421142578125
 30
11.480094909667969
 11
318.002685546875
 21
-15.244994163513184
 31
11.480863571166992
  0
LINE
  8
0
 10
318.002685546875
 20
-15.244994163513184
 30
11.480863571166992
 11
317.9961242675781
 21
-15.235235214233398
 31
11.481677055358887
  0
LINE
  8
0
 10
317.9961242675781
 20
-15.235235214233398
 30
11.481677055358887
 11
317.9903869628906
 21
-15.224994659423828
 31
11.48253059387207
  0
LINE
  8
0
 10
317.9903869628906
 20
-15.224994659423828
 30
11.48253059387207
 11
317.9854431152344
 21
-15.214334487915039
 31
11.483418464660645
  0
LINE
  8
0
 10
317.9854431152344
 20
-15.214334487915039
 30
11.483418464660645
 11
317.9813537597656
 21
-15.203323364257812
 31
11.484335899353027
  0
LINE
  8
0
 10
317.9813537597656
 20
-15.203323364257812
 30
11.484335899353027
 11
317.9781799316406
 21
-15.192026138305664
 31
11.48527717590332
  0
LINE
  8
0
 10
317.9781799316406
 20
-15.192026138305664
 30
11.48527717590332
 11
317.9758605957031
 21
-15.180514335632324
 31
11.486236572265625
  0
LINE
  8
0
 10
317.9758605957031
 20
-15.180514335632324
 30
11.486236572265625
 11
317.9744873046875
 21
-15.168858528137207
 31
11.487208366394043
  0
LINE
  8
0
 10
317.9740295410156
 20
-15.157130241394043
 30
11.48818588256836
 11
317.9744873046875
 21
-15.168858528137207
 31
11.487208366394043
  0
LINE
  8
0
 10
317.9740295410156
 20
-15.157130241394043
 30
11.48818588256836
 11
318.080078125
 21
-15.20091438293457
 31
11.484537124633789
  0
LINE
  8
0
 10
318.080078125
 20
-15.20091438293457
 30
11.484537124633789
 11
318.11224365234375
 21
-15.30615520477295
 31
11.475767135620117
  0
LINE
  8
0
 10
318.080078125
 20
-15.20091438293457
 30
11.484537124633789
 11
318.1005554199219
 21
-15.30477523803711
 31
11.475881576538086
  0
LINE
  8
0
 10
318.080078125
 20
-15.20091438293457
 30
11.484537124633789
 11
318.0890197753906
 21
-15.302484512329102
 31
11.476072311401367
  0
LINE
  8
0
 10
318.080078125
 20
-15.20091438293457
 30
11.484537124633789
 11
318.0776672363281
 21
-15.299299240112305
 31
11.476338386535645
  0
LINE
  8
0
 10
318.080078125
 20
-15.20091438293457
 30
11.484537124633789
 11
318.0666198730469
 21
-15.295235633850098
 31
11.476676940917969
  0
LINE
  8
0
 10
318.080078125
 20
-15.20091438293457
 30
11.484537124633789
 11
318.0559387207031
 21
-15.290321350097656
 31
11.477086067199707
  0
LINE
  8
0
 10
318.080078125
 20
-15.20091438293457
 30
11.484537124633789
 11
318.045654296875
 21
-15.284585952758789
 31
11.477563858032227
  0
LINE
  8
0
 10
318.080078125
 20
-15.20091438293457
 30
11.484537124633789
 11
318.0358581542969
 21
-15.278064727783203
 31
11.478107452392578
  0
LINE
  8
0
 10
318.080078125
 20
-15.20091438293457
 30
11.484537124633789
 11
318.026611328125
 21
-15.270798683166504
 31
11.478713035583496
  0
LINE
  8
0
 10
318.080078125
 20
-15.20091438293457
 30
11.484537124633789
 11
318.0179443359375
 21
-15.26283073425293
 31
11.479376792907715
  0
LINE
  8
0
 10
318.080078125
 20
-15.20091438293457
 30
11.484537124633789
 11
318.0099792480469
 21
-15.25421142578125
 31
11.480094909667969
  0
LINE
  8
0
 10
318.080078125
 20
-15.20091438293457
 30
11.484537124633789
 11
318.002685546875
 21
-15.244994163513184
 31
11.480863571166992
  0
LINE
  8
0
 10
318.080078125
 20
-15.20091438293457
 30
11.484537124633789
 11
317.9961242675781
 21
-15.235235214233398
 31
11.481677055358887
  0
LINE
  8
0
 10
318.080078125
 20
-15.20091438293457
 30
11.484537124633789
 11
317.9903869628906
 21
-15.224994659423828
 31
11.48253059387207
  0
LINE
  8
0
 10
318.080078125
 20
-15.20091438293457
 30
11.484537124633789
 11
317.9854431152344
 21
-15.214334487915039
 31
11.483418464660645
  0
LINE
  8
0
 10
318.080078125
 20
-15.20091438293457
 30
11.484537124633789
 11
317.9813537597656
 21
-15.203323364257812
 31
11.484335899353027
  0
LINE
  8
0
 10
318.080078125
 20
-15.20091438293457
 30
11.484537124633789
 11
317.9781799316406
 21
-15.192026138305664
 31
11.48527717590332
  0
LINE
  8
0
 10
318.080078125
 20
-15.20091438293457
 30
11.484537124633789
 11
317.9758605957031
 21
-15.180514335632324
 31
11.486236572265625
  0
LINE
  8
0
 10
318.080078125
 20
-15.20091438293457
 30
11.484537124633789
 11
317.9744873046875
 21
-15.168858528137207
 31
11.487208366394043
  0
LINE
  8
0
 10
318.3240661621094
 20
-15.306621551513672
 30
11.475728034973145
 11
318.1240234375
 21
-15.306615829467773
 31
11.475728034973145
  0
LINE
  8
0
 10
318.07403564453125
 20
-15.157136917114258
 30
11.488184928894043
 11
318.080078125
 21
-15.20091438293457
 31
11.484537124633789
  0
LINE
  8
0
 10
317.9740295410156
 20
-14.907999992370605
 30
11.508946418762207
 11
318.1300964355469
 21
-14.864219665527344
 31
11.512594223022461
  0
LINE
  8
0
 10
317.9740295410156
 20
-14.907999992370605
 30
11.508946418762207
 11
317.9744873046875
 21
-14.896271705627441
 31
11.509923934936523
  0
LINE
  8
0
 10
317.9744873046875
 20
-14.896271705627441
 30
11.509923934936523
 11
317.9758605957031
 21
-14.884615898132324
 31
11.510894775390625
  0
LINE
  8
0
 10
317.9758605957031
 20
-14.884615898132324
 30
11.510894775390625
 11
317.9781799316406
 21
-14.873104095458984
 31
11.51185417175293
  0
LINE
  8
0
 10
317.9781799316406
 20
-14.873104095458984
 30
11.51185417175293
 11
317.9813537597656
 21
-14.861807823181152
 31
11.512795448303223
  0
LINE
  8
0
 10
317.9813537597656
 20
-14.861807823181152
 30
11.512795448303223
 11
317.9854431152344
 21
-14.85079574584961
 31
11.513712882995605
  0
LINE
  8
0
 10
317.9854431152344
 20
-14.85079574584961
 30
11.513712882995605
 11
317.9903869628906
 21
-14.840136528015137
 31
11.514601707458496
  0
LINE
  8
0
 10
317.9903869628906
 20
-14.840136528015137
 30
11.514601707458496
 11
317.9961242675781
 21
-14.829895973205566
 31
11.51545524597168
  0
LINE
  8
0
 10
317.9961242675781
 20
-14.829895973205566
 30
11.51545524597168
 11
318.002685546875
 21
-14.820137023925781
 31
11.516267776489258
  0
LINE
  8
0
 10
318.002685546875
 20
-14.820137023925781
 30
11.516267776489258
 11
318.00994873046875
 21
-14.810919761657715
 31
11.517036437988281
  0
LINE
  8
0
 10
318.00994873046875
 20
-14.810919761657715
 30
11.517036437988281
 11
318.0179443359375
 21
-14.802300453186035
 31
11.517754554748535
  0
LINE
  8
0
 10
318.0179443359375
 20
-14.802300453186035
 30
11.517754554748535
 11
318.026611328125
 21
-14.794333457946777
 31
11.518418312072754
  0
LINE
  8
0
 10
318.026611328125
 20
-14.794333457946777
 30
11.518418312072754
 11
318.0358581542969
 21
-14.787067413330078
 31
11.519023895263672
  0
LINE
  8
0
 10
318.0358581542969
 20
-14.787067413330078
 30
11.519023895263672
 11
318.045654296875
 21
-14.780546188354492
 31
11.519567489624023
  0
LINE
  8
0
 10
318.045654296875
 20
-14.780546188354492
 30
11.519567489624023
 11
318.0559387207031
 21
-14.774810791015625
 31
11.520045280456543
  0
LINE
  8
0
 10
318.0559387207031
 20
-14.774810791015625
 30
11.520045280456543
 11
318.0666198730469
 21
-14.7698974609375
 31
11.520454406738281
  0
LINE
  8
0
 10
318.0666198730469
 20
-14.7698974609375
 30
11.520454406738281
 11
318.0776672363281
 21
-14.76583480834961
 31
11.520792961120605
  0
LINE
  8
0
 10
318.0776672363281
 20
-14.76583480834961
 30
11.520792961120605
 11
318.0890197753906
 21
-14.762649536132812
 31
11.521059036254883
  0
LINE
  8
0
 10
318.0890197753906
 20
-14.762649536132812
 30
11.521059036254883
 11
318.1005554199219
 21
-14.760358810424805
 31
11.521249771118164
  0
LINE
  8
0
 10
318.1005554199219
 20
-14.760358810424805
 30
11.521249771118164
 11
318.11224365234375
 21
-14.758979797363281
 31
11.521364212036133
  0
LINE
  8
0
 10
318.1240234375
 20
-14.758519172668457
 30
11.521403312683105
 11
318.11224365234375
 21
-14.758979797363281
 31
11.521364212036133
  0
LINE
  8
0
 10
318.1240234375
 20
-14.758519172668457
 30
11.521403312683105
 11
318.1300964355469
 21
-14.864219665527344
 31
11.512594223022461
  0
LINE
  8
0
 10
318.1300964355469
 20
-14.864219665527344
 30
11.512594223022461
 11
317.9744873046875
 21
-14.896271705627441
 31
11.509923934936523
  0
LINE
  8
0
 10
318.1300964355469
 20
-14.864219665527344
 30
11.512594223022461
 11
317.9758605957031
 21
-14.884615898132324
 31
11.510894775390625
  0
LINE
  8
0
 10
318.1300964355469
 20
-14.864219665527344
 30
11.512594223022461
 11
317.9781799316406
 21
-14.873104095458984
 31
11.51185417175293
  0
LINE
  8
0
 10
318.1300964355469
 20
-14.864219665527344
 30
11.512594223022461
 11
317.9813537597656
 21
-14.861807823181152
 31
11.512795448303223
  0
LINE
  8
0
 10
318.1300964355469
 20
-14.864219665527344
 30
11.512594223022461
 11
317.9854431152344
 21
-14.85079574584961
 31
11.513712882995605
  0
LINE
  8
0
 10
318.1300964355469
 20
-14.864219665527344
 30
11.512594223022461
 11
317.9903869628906
 21
-14.840136528015137
 31
11.514601707458496
  0
LINE
  8
0
 10
318.1300964355469
 20
-14.864219665527344
 30
11.512594223022461
 11
317.9961242675781
 21
-14.829895973205566
 31
11.51545524597168
  0
LINE
  8
0
 10
318.1300964355469
 20
-14.864219665527344
 30
11.512594223022461
 11
318.002685546875
 21
-14.820137023925781
 31
11.516267776489258
  0
LINE
  8
0
 10
318.1300964355469
 20
-14.864219665527344
 30
11.512594223022461
 11
318.00994873046875
 21
-14.810919761657715
 31
11.517036437988281
  0
LINE
  8
0
 10
318.1300964355469
 20
-14.864219665527344
 30
11.512594223022461
 11
318.0179443359375
 21
-14.802300453186035
 31
11.517754554748535
  0
LINE
  8
0
 10
318.1300964355469
 20
-14.864219665527344
 30
11.512594223022461
 11
318.026611328125
 21
-14.794333457946777
 31
11.518418312072754
  0
LINE
  8
0
 10
318.1300964355469
 20
-14.864219665527344
 30
11.512594223022461
 11
318.0358581542969
 21
-14.787067413330078
 31
11.519023895263672
  0
LINE
  8
0
 10
318.1300964355469
 20
-14.864219665527344
 30
11.512594223022461
 11
318.045654296875
 21
-14.780546188354492
 31
11.519567489624023
  0
LINE
  8
0
 10
318.1300964355469
 20
-14.864219665527344
 30
11.512594223022461
 11
318.0559387207031
 21
-14.774810791015625
 31
11.520045280456543
  0
LINE
  8
0
 10
318.1300964355469
 20
-14.864219665527344
 30
11.512594223022461
 11
318.0666198730469
 21
-14.7698974609375
 31
11.520454406738281
  0
LINE
  8
0
 10
318.1300964355469
 20
-14.864219665527344
 30
11.512594223022461
 11
318.0776672363281
 21
-14.76583480834961
 31
11.520792961120605
  0
LINE
  8
0
 10
318.1300964355469
 20
-14.864219665527344
 30
11.512594223022461
 11
318.0890197753906
 21
-14.762649536132812
 31
11.521059036254883
  0
LINE
  8
0
 10
318.1300964355469
 20
-14.864219665527344
 30
11.512594223022461
 11
318.1005554199219
 21
-14.760358810424805
 31
11.521249771118164
  0
LINE
  8
0
 10
318.1300964355469
 20
-14.864219665527344
 30
11.512594223022461
 11
318.11224365234375
 21
-14.758979797363281
 31
11.521364212036133
  0
LINE
  8
0
 10
318.3240661621094
 20
-14.758520126342773
 30
11.521403312683105
 11
318.1240234375
 21
-14.758519172668457
 31
11.521403312683105
  0
LINE
  8
0
 10
317.9740295410156
 20
-15.157130241394043
 30
11.48818588256836
 11
317.9740295410156
 21
-14.907999992370605
 31
11.508946418762207
  0
LINE
  8
0
 10
318.07403564453125
 20
-14.908010482788086
 30
11.50894546508789
 11
318.1300964355469
 21
-14.864219665527344
 31
11.512594223022461
  0
LINE
  8
0
 10
319.4240417480469
 20
-15.15713882446289
 30
11.488184928894043
 11
319.674072265625
 21
-15.157136917114258
 31
11.488184928894043
  0
LINE
  8
0
 10
319.674072265625
 20
-15.157136917114258
 30
11.488184928894043
 11
319.674072265625
 21
-14.908010482788086
 31
11.50894546508789
  0
LINE
  8
0
 10
319.674072265625
 20
-14.908010482788086
 30
11.50894546508789
 11
319.4240417480469
 21
-14.908010482788086
 31
11.50894546508789
  0
LINE
  8
0
 10
319.4240417480469
 20
-15.15713882446289
 30
11.488184928894043
 11
319.4240417480469
 21
-15.306621551513672
 31
11.475728034973145
  0
LINE
  8
0
 10
319.4240417480469
 20
-14.908010482788086
 30
11.50894546508789
 11
319.4240417480469
 21
-14.758520126342773
 31
11.521403312683105
  0
LINE
  8
0
 10
319.6240539550781
 20
-15.306615829467773
 30
11.475728034973145
 11
319.6679992675781
 21
-15.20091438293457
 31
11.484537124633789
  0
LINE
  8
0
 10
319.6240539550781
 20
-15.306615829467773
 30
11.475728034973145
 11
319.6358337402344
 21
-15.30615520477295
 31
11.475767135620117
  0
LINE
  8
0
 10
319.6358337402344
 20
-15.30615520477295
 30
11.475767135620117
 11
319.64752197265625
 21
-15.30477523803711
 31
11.475881576538086
  0
LINE
  8
0
 10
319.64752197265625
 20
-15.30477523803711
 30
11.475881576538086
 11
319.6590881347656
 21
-15.302484512329102
 31
11.476072311401367
  0
LINE
  8
0
 10
319.6590881347656
 20
-15.302484512329102
 30
11.476072311401367
 11
319.67041015625
 21
-15.299299240112305
 31
11.476338386535645
  0
LINE
  8
0
 10
319.67041015625
 20
-15.299299240112305
 30
11.476338386535645
 11
319.68145751953125
 21
-15.295235633850098
 31
11.476676940917969
  0
LINE
  8
0
 10
319.68145751953125
 20
-15.295235633850098
 30
11.476676940917969
 11
319.6921691894531
 21
-15.290321350097656
 31
11.477086067199707
  0
LINE
  8
0
 10
319.6921691894531
 20
-15.290321350097656
 30
11.477086067199707
 11
319.70245361328125
 21
-15.284585952758789
 31
11.477563858032227
  0
LINE
  8
0
 10
319.70245361328125
 20
-15.284585952758789
 30
11.477563858032227
 11
319.7122497558594
 21
-15.278064727783203
 31
11.478107452392578
  0
LINE
  8
0
 10
319.7122497558594
 20
-15.278064727783203
 30
11.478107452392578
 11
319.72149658203125
 21
-15.270798683166504
 31
11.478713035583496
  0
LINE
  8
0
 10
319.72149658203125
 20
-15.270798683166504
 30
11.478713035583496
 11
319.7301330566406
 21
-15.26283073425293
 31
11.479376792907715
  0
LINE
  8
0
 10
319.7301330566406
 20
-15.26283073425293
 30
11.479376792907715
 11
319.7381286621094
 21
-15.25421142578125
 31
11.480094909667969
  0
LINE
  8
0
 10
319.7381286621094
 20
-15.25421142578125
 30
11.480094909667969
 11
319.74542236328125
 21
-15.244994163513184
 31
11.480863571166992
  0
LINE
  8
0
 10
319.74542236328125
 20
-15.244994163513184
 30
11.480863571166992
 11
319.751953125
 21
-15.235235214233398
 31
11.481677055358887
  0
LINE
  8
0
 10
319.751953125
 20
-15.235235214233398
 30
11.481677055358887
 11
319.7577209472656
 21
-15.224994659423828
 31
11.48253059387207
  0
LINE
  8
0
 10
319.7577209472656
 20
-15.224994659423828
 30
11.48253059387207
 11
319.76263427734375
 21
-15.214334487915039
 31
11.483418464660645
  0
LINE
  8
0
 10
319.76263427734375
 20
-15.214334487915039
 30
11.483418464660645
 11
319.7667236328125
 21
-15.203323364257812
 31
11.484335899353027
  0
LINE
  8
0
 10
319.7667236328125
 20
-15.203323364257812
 30
11.484335899353027
 11
319.7699279785156
 21
-15.192026138305664
 31
11.48527717590332
  0
LINE
  8
0
 10
319.7699279785156
 20
-15.192026138305664
 30
11.48527717590332
 11
319.772216796875
 21
-15.180514335632324
 31
11.486236572265625
  0
LINE
  8
0
 10
319.772216796875
 20
-15.180514335632324
 30
11.486236572265625
 11
319.7735900878906
 21
-15.168858528137207
 31
11.487208366394043
  0
LINE
  8
0
 10
319.7740783691406
 20
-15.157130241394043
 30
11.48818588256836
 11
319.7735900878906
 21
-15.168858528137207
 31
11.487208366394043
  0
LINE
  8
0
 10
319.7740783691406
 20
-15.157130241394043
 30
11.48818588256836
 11
319.6679992675781
 21
-15.20091438293457
 31
11.484537124633789
  0
LINE
  8
0
 10
319.6679992675781
 20
-15.20091438293457
 30
11.484537124633789
 11
319.6358337402344
 21
-15.30615520477295
 31
11.475767135620117
  0
LINE
  8
0
 10
319.6679992675781
 20
-15.20091438293457
 30
11.484537124633789
 11
319.64752197265625
 21
-15.30477523803711
 31
11.475881576538086
  0
LINE
  8
0
 10
319.6679992675781
 20
-15.20091438293457
 30
11.484537124633789
 11
319.6590881347656
 21
-15.302484512329102
 31
11.476072311401367
  0
LINE
  8
0
 10
319.6679992675781
 20
-15.20091438293457
 30
11.484537124633789
 11
319.67041015625
 21
-15.299299240112305
 31
11.476338386535645
  0
LINE
  8
0
 10
319.6679992675781
 20
-15.20091438293457
 30
11.484537124633789
 11
319.68145751953125
 21
-15.295235633850098
 31
11.476676940917969
  0
LINE
  8
0
 10
319.6679992675781
 20
-15.20091438293457
 30
11.484537124633789
 11
319.6921691894531
 21
-15.290321350097656
 31
11.477086067199707
  0
LINE
  8
0
 10
319.6679992675781
 20
-15.20091438293457
 30
11.484537124633789
 11
319.70245361328125
 21
-15.284585952758789
 31
11.477563858032227
  0
LINE
  8
0
 10
319.6679992675781
 20
-15.20091438293457
 30
11.484537124633789
 11
319.7122497558594
 21
-15.278064727783203
 31
11.478107452392578
  0
LINE
  8
0
 10
319.6679992675781
 20
-15.20091438293457
 30
11.484537124633789
 11
319.72149658203125
 21
-15.270798683166504
 31
11.478713035583496
  0
LINE
  8
0
 10
319.6679992675781
 20
-15.20091438293457
 30
11.484537124633789
 11
319.7301330566406
 21
-15.26283073425293
 31
11.479376792907715
  0
LINE
  8
0
 10
319.6679992675781
 20
-15.20091438293457
 30
11.484537124633789
 11
319.7381286621094
 21
-15.25421142578125
 31
11.480094909667969
  0
LINE
  8
0
 10
319.6679992675781
 20
-15.20091438293457
 30
11.484537124633789
 11
319.74542236328125
 21
-15.244994163513184
 31
11.480863571166992
  0
LINE
  8
0
 10
319.6679992675781
 20
-15.20091438293457
 30
11.484537124633789
 11
319.751953125
 21
-15.235235214233398
 31
11.481677055358887
  0
LINE
  8
0
 10
319.6679992675781
 20
-15.20091438293457
 30
11.484537124633789
 11
319.7577209472656
 21
-15.224994659423828
 31
11.48253059387207
  0
LINE
  8
0
 10
319.6679992675781
 20
-15.20091438293457
 30
11.484537124633789
 11
319.76263427734375
 21
-15.214334487915039
 31
11.483418464660645
  0
LINE
  8
0
 10
319.6679992675781
 20
-15.20091438293457
 30
11.484537124633789
 11
319.7667236328125
 21
-15.203323364257812
 31
11.484335899353027
  0
LINE
  8
0
 10
319.6679992675781
 20
-15.20091438293457
 30
11.484537124633789
 11
319.7699279785156
 21
-15.192026138305664
 31
11.48527717590332
  0
LINE
  8
0
 10
319.6679992675781
 20
-15.20091438293457
 30
11.484537124633789
 11
319.772216796875
 21
-15.180514335632324
 31
11.486236572265625
  0
LINE
  8
0
 10
319.6679992675781
 20
-15.20091438293457
 30
11.484537124633789
 11
319.7735900878906
 21
-15.168858528137207
 31
11.487208366394043
  0
LINE
  8
0
 10
319.4240417480469
 20
-15.306621551513672
 30
11.475728034973145
 11
319.6240539550781
 21
-15.306615829467773
 31
11.475728034973145
  0
LINE
  8
0
 10
319.674072265625
 20
-15.157136917114258
 30
11.488184928894043
 11
319.6679992675781
 21
-15.20091438293457
 31
11.484537124633789
  0
LINE
  8
0
 10
319.7740783691406
 20
-14.907999992370605
 30
11.508946418762207
 11
319.6180114746094
 21
-14.864219665527344
 31
11.512594223022461
  0
LINE
  8
0
 10
319.7740783691406
 20
-14.907999992370605
 30
11.508946418762207
 11
319.77362060546875
 21
-14.896271705627441
 31
11.509923934936523
  0
LINE
  8
0
 10
319.77362060546875
 20
-14.896271705627441
 30
11.509923934936523
 11
319.772216796875
 21
-14.884615898132324
 31
11.510894775390625
  0
LINE
  8
0
 10
319.772216796875
 20
-14.884615898132324
 30
11.510894775390625
 11
319.7699279785156
 21
-14.873104095458984
 31
11.51185417175293
  0
LINE
  8
0
 10
319.7699279785156
 20
-14.873104095458984
 30
11.51185417175293
 11
319.7667236328125
 21
-14.861807823181152
 31
11.512795448303223
  0
LINE
  8
0
 10
319.7667236328125
 20
-14.861807823181152
 30
11.512795448303223
 11
319.7626647949219
 21
-14.85079574584961
 31
11.513712882995605
  0
LINE
  8
0
 10
319.7626647949219
 20
-14.85079574584961
 30
11.513712882995605
 11
319.7577209472656
 21
-14.840137481689453
 31
11.514601707458496
  0
LINE
  8
0
 10
319.7577209472656
 20
-14.840137481689453
 30
11.514601707458496
 11
319.751953125
 21
-14.829895973205566
 31
11.51545524597168
  0
LINE
  8
0
 10
319.751953125
 20
-14.829895973205566
 30
11.51545524597168
 11
319.74542236328125
 21
-14.820137023925781
 31
11.516267776489258
  0
LINE
  8
0
 10
319.74542236328125
 20
-14.820137023925781
 30
11.516267776489258
 11
319.7381286621094
 21
-14.810919761657715
 31
11.517036437988281
  0
LINE
  8
0
 10
319.7381286621094
 20
-14.810919761657715
 30
11.517036437988281
 11
319.7301330566406
 21
-14.802301406860352
 31
11.517754554748535
  0
LINE
  8
0
 10
319.7301330566406
 20
-14.802301406860352
 30
11.517754554748535
 11
319.72149658203125
 21
-14.794333457946777
 31
11.518418312072754
  0
LINE
  8
0
 10
319.72149658203125
 20
-14.794333457946777
 30
11.518418312072754
 11
319.7122497558594
 21
-14.787067413330078
 31
11.519023895263672
  0
LINE
  8
0
 10
319.7122497558594
 20
-14.787067413330078
 30
11.519023895263672
 11
319.70245361328125
 21
-14.780546188354492
 31
11.519567489624023
  0
LINE
  8
0
 10
319.70245361328125
 20
-14.780546188354492
 30
11.519567489624023
 11
319.6921691894531
 21
-14.774810791015625
 31
11.520045280456543
  0
LINE
  8
0
 10
319.6921691894531
 20
-14.774810791015625
 30
11.520045280456543
 11
319.68145751953125
 21
-14.7698974609375
 31
11.520454406738281
  0
LINE
  8
0
 10
319.68145751953125
 20
-14.7698974609375
 30
11.520454406738281
 11
319.67041015625
 21
-14.76583480834961
 31
11.520792961120605
  0
LINE
  8
0
 10
319.67041015625
 20
-14.76583480834961
 30
11.520792961120605
 11
319.6590881347656
 21
-14.762649536132812
 31
11.521059036254883
  0
LINE
  8
0
 10
319.6590881347656
 20
-14.762649536132812
 30
11.521059036254883
 11
319.64752197265625
 21
-14.760358810424805
 31
11.521249771118164
  0
LINE
  8
0
 10
319.64752197265625
 20
-14.760358810424805
 30
11.521249771118164
 11
319.6358337402344
 21
-14.758979797363281
 31
11.521364212036133
  0
LINE
  8
0
 10
319.6240539550781
 20
-14.758519172668457
 30
11.521403312683105
 11
319.6358337402344
 21
-14.758979797363281
 31
11.521364212036133
  0
LINE
  8
0
 10
319.6240539550781
 20
-14.758519172668457
 30
11.521403312683105
 11
319.6180114746094
 21
-14.864219665527344
 31
11.512594223022461
  0
LINE
  8
0
 10
319.6180114746094
 20
-14.864219665527344
 30
11.512594223022461
 11
319.77362060546875
 21
-14.896271705627441
 31
11.509923934936523
  0
LINE
  8
0
 10
319.6180114746094
 20
-14.864219665527344
 30
11.512594223022461
 11
319.772216796875
 21
-14.884615898132324
 31
11.510894775390625
  0
LINE
  8
0
 10
319.6180114746094
 20
-14.864219665527344
 30
11.512594223022461
 11
319.7699279785156
 21
-14.873104095458984
 31
11.51185417175293
  0
LINE
  8
0
 10
319.6180114746094
 20
-14.864219665527344
 30
11.512594223022461
 11
319.7667236328125
 21
-14.861807823181152
 31
11.512795448303223
  0
LINE
  8
0
 10
319.6180114746094
 20
-14.864219665527344
 30
11.512594223022461
 11
319.7626647949219
 21
-14.85079574584961
 31
11.513712882995605
  0
LINE
  8
0
 10
319.6180114746094
 20
-14.864219665527344
 30
11.512594223022461
 11
319.7577209472656
 21
-14.840137481689453
 31
11.514601707458496
  0
LINE
  8
0
 10
319.6180114746094
 20
-14.864219665527344
 30
11.512594223022461
 11
319.751953125
 21
-14.829895973205566
 31
11.51545524597168
  0
LINE
  8
0
 10
319.6180114746094
 20
-14.864219665527344
 30
11.512594223022461
 11
319.74542236328125
 21
-14.820137023925781
 31
11.516267776489258
  0
LINE
  8
0
 10
319.6180114746094
 20
-14.864219665527344
 30
11.512594223022461
 11
319.7381286621094
 21
-14.810919761657715
 31
11.517036437988281
  0
LINE
  8
0
 10
319.6180114746094
 20
-14.864219665527344
 30
11.512594223022461
 11
319.7301330566406
 21
-14.802301406860352
 31
11.517754554748535
  0
LINE
  8
0
 10
319.6180114746094
 20
-14.864219665527344
 30
11.512594223022461
 11
319.72149658203125
 21
-14.794333457946777
 31
11.518418312072754
  0
LINE
  8
0
 10
319.6180114746094
 20
-14.864219665527344
 30
11.512594223022461
 11
319.7122497558594
 21
-14.787067413330078
 31
11.519023895263672
  0
LINE
  8
0
 10
319.6180114746094
 20
-14.864219665527344
 30
11.512594223022461
 11
319.70245361328125
 21
-14.780546188354492
 31
11.519567489624023
  0
LINE
  8
0
 10
319.6180114746094
 20
-14.864219665527344
 30
11.512594223022461
 11
319.6921691894531
 21
-14.774810791015625
 31
11.520045280456543
  0
LINE
  8
0
 10
319.6180114746094
 20
-14.864219665527344
 30
11.512594223022461
 11
319.68145751953125
 21
-14.7698974609375
 31
11.520454406738281
  0
LINE
  8
0
 10
319.6180114746094
 20
-14.864219665527344
 30
11.512594223022461
 11
319.67041015625
 21
-14.76583480834961
 31
11.520792961120605
  0
LINE
  8
0
 10
319.6180114746094
 20
-14.864219665527344
 30
11.512594223022461
 11
319.6590881347656
 21
-14.762649536132812
 31
11.521059036254883
  0
LINE
  8
0
 10
319.6180114746094
 20
-14.864219665527344
 30
11.512594223022461
 11
319.64752197265625
 21
-14.760358810424805
 31
11.521249771118164
  0
LINE
  8
0
 10
319.6180114746094
 20
-14.864219665527344
 30
11.512594223022461
 11
319.6358337402344
 21
-14.758979797363281
 31
11.521364212036133
  0
LINE
  8
0
 10
319.4240417480469
 20
-14.758520126342773
 30
11.521403312683105
 11
319.6240539550781
 21
-14.758519172668457
 31
11.521403312683105
  0
LINE
  8
0
 10
319.7740783691406
 20
-15.157130241394043
 30
11.48818588256836
 11
319.7740783691406
 21
-14.907999992370605
 31
11.508946418762207
  0
LINE
  8
0
 10
319.674072265625
 20
-14.908010482788086
 30
11.50894546508789
 11
319.6180114746094
 21
-14.864219665527344
 31
11.512594223022461
  0
LINE
  8
0
 10
319.424072265625
 20
-15.04380989074707
 30
11.497471809387207
 11
319.4240417480469
 21
-15.15713882446289
 31
11.488184928894043
  0
LINE
  8
0
 10
318.3240661621094
 20
-14.758520126342773
 30
11.521403312683105
 11
318.3240661621094
 21
-14.760137557983398
 31
11.521267890930176
  0
LINE
  8
0
 10
318.3240661621094
 20
-15.043818473815918
 30
11.497471809387207
 11
318.3240661621094
 21
-15.15713882446289
 31
11.488184928894043
  0
LINE
  8
0
 10
318.3240661621094
 20
-14.305643081665039
 30
11.559392929077148
 11
318.3240661621094
 21
-14.758520126342773
 31
11.521403312683105
  0
LINE
  8
0
 10
318.3240661621094
 20
-15.781993865966797
 30
11.435550689697266
 11
318.3240661621094
 21
-15.306621551513672
 31
11.475728034973145
  0
LINE
  8
0
 10
318.3240661621094
 20
-15.043818473815918
 30
11.497471809387207
 11
318.3240661621094
 21
-14.908010482788086
 31
11.50894546508789
  0
LINE
  8
0
 10
319.424072265625
 20
-15.781984329223633
 30
11.435550689697266
 11
319.4240417480469
 21
-15.306621551513672
 31
11.475728034973145
  0
ENDSEC
  0
EOF
