999
"DXF R12 Output" (www.mydxf.blogspot.com)
 0 
SECTION
 2 
HEADER
 9 
$ACADVER
 1 
AC1009
 9 
$EXTMIN
 10 
 0 
 20 
 0 
 9 
$EXTMAX
 10 
 8.5 
 20 
 11 
 0 
ENDSEC
 0 
SECTION
 2 
ENTITIES
0
LINE
8
Layer 1
10
134.871000
20
26.936900
11
116.470000
21
43.860200
0
LINE
8
Layer 1
10
134.871000
20
26.936900
11
131.343000
21
23.249300
0
LINE
8
Layer 1
10
131.343000
20
23.249300
11
127.536000
21
19.849500
0
LINE
8
Layer 1
10
127.536000
20
19.849500
11
123.475000
21
16.758800
0
LINE
8
Layer 1
10
123.475000
20
16.758800
11
119.183000
21
13.996300
0
LINE
8
Layer 1
10
119.183000
20
13.996300
11
114.688000
21
11.579000
0
LINE
8
Layer 1
10
114.688000
20
11.579000
11
110.017000
21
9.521780
0
LINE
8
Layer 1
10
110.017000
20
9.521780
11
105.200000
21
7.837410
0
LINE
8
Layer 1
10
105.200000
20
7.837410
11
100.265000
21
6.536210
0
LINE
8
Layer 1
10
100.265000
20
6.536210
11
95.242500
21
5.626260
0
LINE
8
Layer 1
10
95.242500
20
5.626260
11
90.164700
21
5.113080
0
LINE
8
Layer 1
10
90.164700
20
5.113080
11
85.062200
21
5.000000
0
LINE
8
Layer 1
10
85.062200
20
5.000000
11
79.966500
21
5.287450
0
LINE
8
Layer 1
10
79.966500
20
5.287450
11
74.909100
21
5.973960
0
LINE
8
Layer 1
10
74.909100
20
5.973960
11
69.921200
21
7.055110
0
LINE
8
Layer 1
10
69.921200
20
7.055110
11
65.033400
21
8.524190
0
LINE
8
Layer 1
10
65.033400
20
8.524190
11
60.276000
21
10.372300
0
LINE
8
Layer 1
10
60.276000
20
10.372300
11
55.678300
21
12.588000
0
LINE
8
Layer 1
10
55.678300
20
12.588000
11
51.268600
21
15.157600
0
LINE
8
Layer 1
10
51.268600
20
15.157600
11
47.074000
21
18.065200
0
LINE
8
Layer 1
10
47.074000
20
18.065200
11
43.120500
21
21.293000
0
LINE
8
Layer 1
10
43.120500
20
21.293000
11
5.000000
21
54.994500
0
LINE
8
Layer 1
10
5.000000
20
54.994500
11
21.556400
21
73.721900
0
LINE
8
Layer 1
10
21.556400
20
73.721900
11
34.803800
21
88.705500
0
LINE
8
Layer 1
10
34.803800
20
88.705500
11
35.617900
21
89.556600
0
LINE
8
Layer 1
10
35.617900
20
89.556600
11
36.496400
21
90.341200
0
LINE
8
Layer 1
10
36.496400
20
90.341200
11
37.433700
21
91.054400
0
LINE
8
Layer 1
10
37.433700
20
91.054400
11
38.424000
21
91.691900
0
LINE
8
Layer 1
10
38.424000
20
91.691900
11
39.461300
21
92.249700
0
LINE
8
Layer 1
10
39.461300
20
92.249700
11
40.539300
21
92.724500
0
LINE
8
Layer 1
10
40.539300
20
92.724500
11
41.651100
21
93.113200
0
LINE
8
Layer 1
10
41.651100
20
93.113200
11
42.790000
21
93.413400
0
LINE
8
Layer 1
10
42.790000
20
93.413400
11
43.949000
21
93.623400
0
LINE
8
Layer 1
10
43.949000
20
93.623400
11
45.120800
21
93.741800
0
LINE
8
Layer 1
10
45.120800
20
93.741800
11
46.298300
21
93.767900
0
LINE
8
Layer 1
10
46.298300
20
93.767900
11
47.474200
21
93.701500
0
LINE
8
Layer 1
10
47.474200
20
93.701500
11
48.641300
21
93.543100
0
LINE
8
Layer 1
10
48.641300
20
93.543100
11
49.792400
21
93.293600
0
LINE
8
Layer 1
10
49.792400
20
93.293600
11
50.920300
21
92.954600
0
LINE
8
Layer 1
10
50.920300
20
92.954600
11
52.018200
21
92.528100
0
LINE
8
Layer 1
10
52.018200
20
92.528100
11
53.079200
21
92.016900
0
LINE
8
Layer 1
10
53.079200
20
92.016900
11
54.096800
21
91.423800
0
LINE
8
Layer 1
10
54.096800
20
91.423800
11
55.064900
21
90.752900
0
LINE
8
Layer 1
10
55.064900
20
90.752900
11
55.977200
21
90.008000
0
LINE
8
Layer 1
10
55.977200
20
90.008000
11
74.706900
21
73.449600
0
LINE
8
Layer 1
10
74.706900
20
73.449600
11
75.558000
21
72.635400
0
LINE
8
Layer 1
10
75.558000
20
72.635400
11
76.342500
21
71.757000
0
LINE
8
Layer 1
10
76.342500
20
71.757000
11
77.055800
21
70.819700
0
LINE
8
Layer 1
10
77.055800
20
70.819700
11
77.693300
21
69.829400
0
LINE
8
Layer 1
10
77.693300
20
69.829400
11
78.251200
21
68.792100
0
LINE
8
Layer 1
10
78.251200
20
68.792100
11
78.726000
21
67.714200
0
LINE
8
Layer 1
10
78.726000
20
67.714200
11
79.114600
21
66.602400
0
LINE
8
Layer 1
10
79.114600
20
66.602400
11
79.414900
21
65.463500
0
LINE
8
Layer 1
10
79.414900
20
65.463500
11
79.624900
21
64.304600
0
LINE
8
Layer 1
10
79.624900
20
64.304600
11
79.743300
21
63.132800
0
LINE
8
Layer 1
10
79.743300
20
63.132800
11
79.769400
21
61.955200
0
LINE
8
Layer 1
10
79.769400
20
61.955200
11
79.703100
21
60.779300
0
LINE
8
Layer 1
10
79.703100
20
60.779300
11
79.544700
21
59.612200
0
LINE
8
Layer 1
10
79.544700
20
59.612200
11
79.295200
21
58.461200
0
LINE
8
Layer 1
10
79.295200
20
58.461200
11
78.956200
21
57.333200
0
LINE
8
Layer 1
10
78.956200
20
57.333200
11
78.529700
21
56.235300
0
LINE
8
Layer 1
10
78.529700
20
56.235300
11
78.018400
21
55.174300
0
LINE
8
Layer 1
10
78.018400
20
55.174300
11
77.425400
21
54.156700
0
LINE
8
Layer 1
10
77.425400
20
54.156700
11
76.754400
21
53.188700
0
LINE
8
Layer 1
10
76.754400
20
53.188700
11
76.009500
21
52.276300
0
LINE
8
Layer 1
10
76.009500
20
52.276300
11
62.762400
21
37.292400
0
LINE
8
Layer 1
10
62.762400
20
37.292400
11
64.693600
21
36.246900
0
LINE
8
Layer 1
10
64.693600
20
36.246900
11
67.407200
21
34.665800
0
LINE
8
Layer 1
10
67.407200
20
34.665800
11
70.236500
21
33.302300
0
LINE
8
Layer 1
10
70.236500
20
33.302300
11
73.164000
21
32.165000
0
LINE
8
Layer 1
10
73.164000
20
32.165000
11
76.172000
21
31.261000
0
LINE
8
Layer 1
10
76.172000
20
31.261000
11
79.241700
21
30.595600
0
LINE
8
Layer 1
10
79.241700
20
30.595600
11
82.353600
21
30.173200
0
LINE
8
Layer 1
10
82.353600
20
30.173200
11
85.489400
21
29.996300
0
LINE
8
Layer 1
10
85.489400
20
29.996300
11
88.629600
21
30.065900
0
LINE
8
Layer 1
10
88.629600
20
30.065900
11
91.754500
21
30.381700
0
LINE
8
Layer 1
10
91.754500
20
30.381700
11
94.844900
21
30.941700
0
LINE
8
Layer 1
10
94.844900
20
30.941700
11
97.881800
21
31.742400
0
LINE
8
Layer 1
10
97.881800
20
31.742400
11
100.847000
21
32.778900
0
LINE
8
Layer 1
10
100.847000
20
32.778900
11
103.721000
21
34.045000
0
LINE
8
Layer 1
10
103.721000
20
34.045000
11
106.487000
21
35.532600
0
LINE
8
Layer 1
10
106.487000
20
35.532600
11
109.128000
21
37.232600
0
LINE
8
Layer 1
10
109.128000
20
37.232600
11
111.628000
21
39.134600
0
LINE
8
Layer 1
10
111.628000
20
39.134600
11
113.971000
21
41.227300
0
LINE
8
Layer 1
10
113.971000
20
41.227300
11
116.470000
21
43.860200
0
LINE
8
Layer 1
10
116.470000
20
43.860200
11
673.588000
21
674.144000
0
LINE
8
Layer 1
10
673.588000
20
674.144000
11
658.602000
21
687.390000
0
LINE
8
Layer 1
10
658.602000
20
687.390000
11
657.751000
21
688.205000
0
LINE
8
Layer 1
10
657.751000
20
688.205000
11
656.967000
21
689.083000
0
LINE
8
Layer 1
10
656.967000
20
689.083000
11
656.253000
21
690.020000
0
LINE
8
Layer 1
10
656.253000
20
690.020000
11
655.616000
21
691.010000
0
LINE
8
Layer 1
10
655.616000
20
691.010000
11
655.058000
21
692.049000
0
LINE
8
Layer 1
10
655.058000
20
692.049000
11
654.582000
21
693.126000
0
LINE
8
Layer 1
10
654.582000
20
693.126000
11
654.194000
21
694.238000
0
LINE
8
Layer 1
10
654.194000
20
694.238000
11
653.893000
21
695.375000
0
LINE
8
Layer 1
10
653.893000
20
695.375000
11
653.683000
21
696.534000
0
LINE
8
Layer 1
10
653.683000
20
696.534000
11
653.565000
21
697.707000
0
LINE
8
Layer 1
10
653.565000
20
697.707000
11
653.539000
21
698.884000
0
LINE
8
Layer 1
10
653.539000
20
698.884000
11
653.606000
21
700.061000
0
LINE
8
Layer 1
10
653.606000
20
700.061000
11
653.764000
21
701.228000
0
LINE
8
Layer 1
10
653.764000
20
701.228000
11
654.012000
21
702.379000
0
LINE
8
Layer 1
10
654.012000
20
702.379000
11
654.352000
21
703.506000
0
LINE
8
Layer 1
10
654.352000
20
703.506000
11
654.779000
21
704.605000
0
LINE
8
Layer 1
10
654.779000
20
704.605000
11
655.290000
21
705.665000
0
LINE
8
Layer 1
10
655.290000
20
705.665000
11
655.883000
21
706.684000
0
LINE
8
Layer 1
10
655.883000
20
706.684000
11
656.553000
21
707.652000
0
LINE
8
Layer 1
10
656.553000
20
707.652000
11
657.298000
21
708.564000
0
LINE
8
Layer 1
10
657.298000
20
708.564000
11
673.855000
21
727.294000
0
LINE
8
Layer 1
10
673.855000
20
727.294000
11
674.669000
21
728.146000
0
LINE
8
Layer 1
10
674.669000
20
728.146000
11
675.548000
21
728.930000
0
LINE
8
Layer 1
10
675.548000
20
728.930000
11
676.485000
21
729.643000
0
LINE
8
Layer 1
10
676.485000
20
729.643000
11
677.474000
21
730.280000
0
LINE
8
Layer 1
10
677.474000
20
730.280000
11
678.512000
21
730.839000
0
LINE
8
Layer 1
10
678.512000
20
730.839000
11
679.590000
21
731.313000
0
LINE
8
Layer 1
10
679.590000
20
731.313000
11
680.701000
21
731.703000
0
LINE
8
Layer 1
10
680.701000
20
731.703000
11
681.840000
21
732.003000
0
LINE
8
Layer 1
10
681.840000
20
732.003000
11
682.999000
21
732.213000
0
LINE
8
Layer 1
10
682.999000
20
732.213000
11
684.170000
21
732.332000
0
LINE
8
Layer 1
10
684.170000
20
732.332000
11
685.348000
21
732.358000
0
LINE
8
Layer 1
10
685.348000
20
732.358000
11
686.523000
21
732.291000
0
LINE
8
Layer 1
10
686.523000
20
732.291000
11
687.691000
21
732.133000
0
LINE
8
Layer 1
10
687.691000
20
732.133000
11
688.842000
21
731.884000
0
LINE
8
Layer 1
10
688.842000
20
731.884000
11
689.970000
21
731.545000
0
LINE
8
Layer 1
10
689.970000
20
731.545000
11
691.068000
21
731.118000
0
LINE
8
Layer 1
10
691.068000
20
731.118000
11
692.130000
21
730.607000
0
LINE
8
Layer 1
10
692.130000
20
730.607000
11
693.147000
21
730.014000
0
LINE
8
Layer 1
10
693.147000
20
730.014000
11
694.115000
21
729.344000
0
LINE
8
Layer 1
10
694.115000
20
729.344000
11
695.027000
21
728.599000
0
LINE
8
Layer 1
10
695.027000
20
728.599000
11
710.013000
21
715.355000
0
LINE
8
Layer 1
10
710.013000
20
715.355000
11
713.626000
21
719.442000
0
LINE
8
Layer 1
10
713.626000
20
719.442000
11
732.358000
21
702.884000
0
LINE
8
Layer 1
10
732.358000
20
702.884000
11
134.871000
21
26.936900
0
LINE
8
Layer 1
10
700.079000
20
704.115000
11
681.347000
21
720.672000
0
LINE
8
Layer 1
10
681.347000
20
720.672000
11
664.791000
21
701.941000
0
LINE
8
Layer 1
10
664.791000
20
701.941000
11
683.522000
21
685.384000
0
LINE
8
Layer 1
10
683.522000
20
685.384000
11
700.079000
21
704.115000
0
LINE
8
Layer 1
10
51.523700
20
47.228300
11
68.082700
21
65.958200
0
LINE
8
Layer 1
10
68.082700
20
65.958200
11
49.353300
21
82.516400
0
LINE
8
Layer 1
10
49.353300
20
82.516400
11
32.794400
21
63.786500
0
LINE
8
Layer 1
10
32.794400
20
63.786500
11
51.523700
21
47.228300
 0 
ENDSEC
 0 
EOF