999
"DXF R12 Output" (www.mydxf.blogspot.com)
 0 
SECTION
 2 
HEADER
 9 
$ACADVER
 1 
AC1009
 9 
$EXTMIN
 10 
 0 
 20 
 0 
 9 
$EXTMAX
 10 
 8.5 
 20 
 11 
 0 
ENDSEC
 0 
SECTION
 2 
ENTITIES
0
LINE
8
Layer 1
10
470.465000
20
39.591200
11
454.222000
21
20.586500
0
LINE
8
Layer 1
10
39.581300
20
470.513000
11
20.569300
21
454.279000
0
LINE
8
Layer 1
10
8.183250
20
516.581000
11
9.949990
21
521.369000
0
LINE
8
Layer 1
10
9.949990
20
521.369000
11
12.087400
21
526.003000
0
LINE
8
Layer 1
10
12.087400
20
526.003000
11
14.581600
21
530.456000
0
LINE
8
Layer 1
10
14.581600
20
530.456000
11
17.417600
21
534.700000
0
LINE
8
Layer 1
10
17.417600
20
534.700000
11
20.577800
21
538.707000
0
LINE
8
Layer 1
10
20.577800
20
538.707000
11
24.042500
21
542.455000
0
LINE
8
Layer 1
10
24.042500
20
542.455000
11
162.317000
21
680.703000
0
LINE
8
Layer 1
10
162.317000
20
680.703000
11
179.993000
21
663.023000
0
LINE
8
Layer 1
10
179.993000
20
663.023000
11
176.456000
21
659.485000
0
LINE
8
Layer 1
10
176.456000
20
659.485000
11
190.597000
21
645.342000
0
LINE
8
Layer 1
10
190.597000
20
645.342000
11
191.396000
21
644.477000
0
LINE
8
Layer 1
10
191.396000
20
644.477000
11
192.125000
21
643.552000
0
LINE
8
Layer 1
10
192.125000
20
643.552000
11
192.779000
21
642.573000
0
LINE
8
Layer 1
10
192.779000
20
642.573000
11
193.354000
21
641.545000
0
LINE
8
Layer 1
10
193.354000
20
641.545000
11
193.848000
21
640.475000
0
LINE
8
Layer 1
10
193.848000
20
640.475000
11
194.255000
21
639.370000
0
LINE
8
Layer 1
10
194.255000
20
639.370000
11
194.575000
21
638.237000
0
LINE
8
Layer 1
10
194.575000
20
638.237000
11
194.804000
21
637.082000
0
LINE
8
Layer 1
10
194.804000
20
637.082000
11
194.942000
21
635.912000
0
LINE
8
Layer 1
10
194.942000
20
635.912000
11
194.989000
21
634.735000
0
LINE
8
Layer 1
10
194.989000
20
634.735000
11
194.942000
21
633.558000
0
LINE
8
Layer 1
10
194.942000
20
633.558000
11
194.804000
21
632.388000
0
LINE
8
Layer 1
10
194.804000
20
632.388000
11
194.574000
21
631.233000
0
LINE
8
Layer 1
10
194.574000
20
631.233000
11
194.254000
21
630.100000
0
LINE
8
Layer 1
10
194.254000
20
630.100000
11
193.846000
21
628.995000
0
LINE
8
Layer 1
10
193.846000
20
628.995000
11
193.353000
21
627.926000
0
LINE
8
Layer 1
10
193.353000
20
627.926000
11
192.777000
21
626.898000
0
LINE
8
Layer 1
10
192.777000
20
626.898000
11
192.124000
21
625.918000
0
LINE
8
Layer 1
10
192.124000
20
625.918000
11
191.394000
21
624.994000
0
LINE
8
Layer 1
10
191.394000
20
624.994000
11
190.595000
21
624.129000
0
LINE
8
Layer 1
10
190.595000
20
624.129000
11
172.915000
21
606.453000
0
LINE
8
Layer 1
10
172.915000
20
606.453000
11
172.050000
21
605.654000
0
LINE
8
Layer 1
10
172.050000
20
605.654000
11
171.125000
21
604.925000
0
LINE
8
Layer 1
10
171.125000
20
604.925000
11
170.146000
21
604.271000
0
LINE
8
Layer 1
10
170.146000
20
604.271000
11
169.118000
21
603.695000
0
LINE
8
Layer 1
10
169.118000
20
603.695000
11
168.049000
21
603.202000
0
LINE
8
Layer 1
10
168.049000
20
603.202000
11
166.944000
21
602.795000
0
LINE
8
Layer 1
10
166.944000
20
602.795000
11
165.810000
21
602.475000
0
LINE
8
Layer 1
10
165.810000
20
602.475000
11
164.655000
21
602.245000
0
LINE
8
Layer 1
10
164.655000
20
602.245000
11
163.485000
21
602.107000
0
LINE
8
Layer 1
10
163.485000
20
602.107000
11
162.308000
21
602.061000
0
LINE
8
Layer 1
10
162.308000
20
602.061000
11
161.131000
21
602.108000
0
LINE
8
Layer 1
10
161.131000
20
602.108000
11
159.962000
21
602.246000
0
LINE
8
Layer 1
10
159.962000
20
602.246000
11
158.806000
21
602.476000
0
LINE
8
Layer 1
10
158.806000
20
602.476000
11
157.673000
21
602.795000
0
LINE
8
Layer 1
10
157.673000
20
602.795000
11
156.568000
21
603.203000
0
LINE
8
Layer 1
10
156.568000
20
603.203000
11
155.498000
21
603.697000
0
LINE
8
Layer 1
10
155.498000
20
603.697000
11
154.471000
21
604.272000
0
LINE
8
Layer 1
10
154.471000
20
604.272000
11
153.491000
21
604.927000
0
LINE
8
Layer 1
10
153.491000
20
604.927000
11
152.566000
21
605.656000
0
LINE
8
Layer 1
10
152.566000
20
605.656000
11
151.702000
21
606.455000
0
LINE
8
Layer 1
10
151.702000
20
606.455000
11
137.561000
21
620.598000
0
LINE
8
Layer 1
10
137.561000
20
620.598000
11
42.062500
21
525.126000
0
LINE
8
Layer 1
10
42.062500
20
525.126000
11
39.586600
21
522.469000
0
LINE
8
Layer 1
10
39.586600
20
522.469000
11
37.641400
21
520.003000
0
LINE
8
Layer 1
10
37.641400
20
520.003000
11
35.896700
21
517.391000
0
LINE
8
Layer 1
10
35.896700
20
517.391000
11
34.361500
21
514.651000
0
LINE
8
Layer 1
10
34.361500
20
514.651000
11
33.046400
21
511.799000
0
LINE
8
Layer 1
10
33.046400
20
511.799000
11
31.959300
21
508.852000
0
LINE
8
Layer 1
10
31.959300
20
508.852000
11
31.106100
21
505.830000
0
LINE
8
Layer 1
10
31.106100
20
505.830000
11
30.493000
21
502.749000
0
LINE
8
Layer 1
10
30.493000
20
502.749000
11
30.123700
21
499.630000
0
LINE
8
Layer 1
10
30.123700
20
499.630000
11
29.999900
21
496.492000
0
LINE
8
Layer 1
10
29.999900
20
496.492000
11
30.122900
21
493.354000
0
LINE
8
Layer 1
10
30.122900
20
493.354000
11
30.491800
21
490.234000
0
LINE
8
Layer 1
10
30.491800
20
490.234000
11
31.104200
21
487.154000
0
LINE
8
Layer 1
10
31.104200
20
487.154000
11
31.956500
21
484.131000
0
LINE
8
Layer 1
10
31.956500
20
484.131000
11
33.043000
21
481.184000
0
LINE
8
Layer 1
10
33.043000
20
481.184000
11
34.358100
21
478.332000
0
LINE
8
Layer 1
10
34.358100
20
478.332000
11
35.892300
21
475.591000
0
LINE
8
Layer 1
10
35.892300
20
475.591000
11
37.636700
21
472.980000
0
LINE
8
Layer 1
10
37.636700
20
472.980000
11
39.581300
21
470.513000
0
LINE
8
Layer 1
10
39.581300
20
470.513000
11
236.628000
21
273.278000
0
LINE
8
Layer 1
10
236.628000
20
273.278000
11
250.771000
21
287.419000
0
LINE
8
Layer 1
10
250.771000
20
287.419000
11
251.636000
21
288.219000
0
LINE
8
Layer 1
10
251.636000
20
288.219000
11
252.561000
21
288.948000
0
LINE
8
Layer 1
10
252.561000
20
288.948000
11
253.540000
21
289.602000
0
LINE
8
Layer 1
10
253.540000
20
289.602000
11
254.568000
21
290.178000
0
LINE
8
Layer 1
10
254.568000
20
290.178000
11
255.638000
21
290.671000
0
LINE
8
Layer 1
10
255.638000
20
290.671000
11
256.743000
21
291.078000
0
LINE
8
Layer 1
10
256.743000
20
291.078000
11
257.876000
21
291.398000
0
LINE
8
Layer 1
10
257.876000
20
291.398000
11
259.032000
21
291.627000
0
LINE
8
Layer 1
10
259.032000
20
291.627000
11
260.201000
21
291.766000
0
LINE
8
Layer 1
10
260.201000
20
291.766000
11
261.378000
21
291.812000
0
LINE
8
Layer 1
10
261.378000
20
291.812000
11
262.555000
21
291.766000
0
LINE
8
Layer 1
10
262.555000
20
291.766000
11
263.724000
21
291.628000
0
LINE
8
Layer 1
10
263.724000
20
291.628000
11
264.880000
21
291.398000
0
LINE
8
Layer 1
10
264.880000
20
291.398000
11
266.013000
21
291.078000
0
LINE
8
Layer 1
10
266.013000
20
291.078000
11
267.118000
21
290.671000
0
LINE
8
Layer 1
10
267.118000
20
290.671000
11
268.188000
21
290.177000
0
LINE
8
Layer 1
10
268.188000
20
290.177000
11
269.216000
21
289.601000
0
LINE
8
Layer 1
10
269.216000
20
289.601000
11
270.194000
21
288.947000
0
LINE
8
Layer 1
10
270.194000
20
288.947000
11
271.119000
21
288.218000
0
LINE
8
Layer 1
10
271.119000
20
288.218000
11
271.984000
21
287.419000
0
LINE
8
Layer 1
10
271.984000
20
287.419000
11
289.661000
21
269.741000
0
LINE
8
Layer 1
10
289.661000
20
269.741000
11
290.461000
21
268.875000
0
LINE
8
Layer 1
10
290.461000
20
268.875000
11
291.190000
21
267.950000
0
LINE
8
Layer 1
10
291.190000
20
267.950000
11
291.844000
21
266.971000
0
LINE
8
Layer 1
10
291.844000
20
266.971000
11
292.420000
21
265.943000
0
LINE
8
Layer 1
10
292.420000
20
265.943000
11
292.913000
21
264.874000
0
LINE
8
Layer 1
10
292.913000
20
264.874000
11
293.321000
21
263.768000
0
LINE
8
Layer 1
10
293.321000
20
263.768000
11
293.640000
21
262.635000
0
LINE
8
Layer 1
10
293.640000
20
262.635000
11
293.870000
21
261.480000
0
LINE
8
Layer 1
10
293.870000
20
261.480000
11
294.008000
21
260.311000
0
LINE
8
Layer 1
10
294.008000
20
260.311000
11
294.054000
21
259.134000
0
LINE
8
Layer 1
10
294.054000
20
259.134000
11
294.008000
21
257.957000
0
LINE
8
Layer 1
10
294.008000
20
257.957000
11
293.870000
21
256.787000
0
LINE
8
Layer 1
10
293.870000
20
256.787000
11
293.640000
21
255.632000
0
LINE
8
Layer 1
10
293.640000
20
255.632000
11
293.320000
21
254.498000
0
LINE
8
Layer 1
10
293.320000
20
254.498000
11
292.912000
21
253.393000
0
LINE
8
Layer 1
10
292.912000
20
253.393000
11
292.419000
21
252.324000
0
LINE
8
Layer 1
10
292.419000
20
252.324000
11
291.844000
21
251.296000
0
LINE
8
Layer 1
10
291.844000
20
251.296000
11
291.189000
21
250.316000
0
LINE
8
Layer 1
10
291.189000
20
250.316000
11
290.460000
21
249.392000
0
LINE
8
Layer 1
10
290.460000
20
249.392000
11
289.660000
21
248.527000
0
LINE
8
Layer 1
10
289.660000
20
248.527000
11
275.518000
21
234.385000
0
LINE
8
Layer 1
10
275.518000
20
234.385000
11
470.465000
21
39.591200
0
LINE
8
Layer 1
10
470.465000
20
39.591200
11
472.931000
21
37.646100
0
LINE
8
Layer 1
10
472.931000
20
37.646100
11
475.541000
21
35.900800
0
LINE
8
Layer 1
10
475.541000
20
35.900800
11
478.282000
21
34.364800
0
LINE
8
Layer 1
10
478.282000
20
34.364800
11
481.133000
21
33.049100
0
LINE
8
Layer 1
10
481.133000
20
33.049100
11
484.079000
21
31.961400
0
LINE
8
Layer 1
10
484.079000
20
31.961400
11
487.102000
21
31.107900
0
LINE
8
Layer 1
10
487.102000
20
31.107900
11
490.182000
21
30.494200
0
LINE
8
Layer 1
10
490.182000
20
30.494200
11
493.301000
21
30.124000
0
LINE
8
Layer 1
10
493.301000
20
30.124000
11
496.440000
21
29.999700
0
LINE
8
Layer 1
10
496.440000
20
29.999700
11
499.578000
21
30.122400
0
LINE
8
Layer 1
10
499.578000
20
30.122400
11
502.697000
21
30.490300
0
LINE
8
Layer 1
10
502.697000
20
30.490300
11
505.778000
21
31.102200
0
LINE
8
Layer 1
10
505.778000
20
31.102200
11
508.801000
21
31.954100
0
LINE
8
Layer 1
10
508.801000
20
31.954100
11
511.748000
21
33.039900
0
LINE
8
Layer 1
10
511.748000
20
33.039900
11
514.601000
21
34.354000
0
LINE
8
Layer 1
10
514.601000
20
34.354000
11
517.341000
21
35.888000
0
LINE
8
Layer 1
10
517.341000
20
35.888000
11
519.953000
21
37.632300
0
LINE
8
Layer 1
10
519.953000
20
37.632300
11
522.420000
21
39.576000
0
LINE
8
Layer 1
10
522.420000
20
39.576000
11
525.078000
21
42.050700
0
LINE
8
Layer 1
10
525.078000
20
42.050700
11
620.591000
21
137.512000
0
LINE
8
Layer 1
10
620.591000
20
137.512000
11
606.453000
21
151.659000
0
LINE
8
Layer 1
10
606.453000
20
151.659000
11
605.655000
21
152.524000
0
LINE
8
Layer 1
10
605.655000
20
152.524000
11
604.926000
21
153.449000
0
LINE
8
Layer 1
10
604.926000
20
153.449000
11
604.272000
21
154.428000
0
LINE
8
Layer 1
10
604.272000
20
154.428000
11
603.697000
21
155.456000
0
LINE
8
Layer 1
10
603.697000
20
155.456000
11
603.204000
21
156.526000
0
LINE
8
Layer 1
10
603.204000
20
156.526000
11
602.797000
21
157.631000
0
LINE
8
Layer 1
10
602.797000
20
157.631000
11
602.477000
21
158.765000
0
LINE
8
Layer 1
10
602.477000
20
158.765000
11
602.248000
21
159.920000
0
LINE
8
Layer 1
10
602.248000
20
159.920000
11
602.110000
21
161.090000
0
LINE
8
Layer 1
10
602.110000
20
161.090000
11
602.064000
21
162.267000
0
LINE
8
Layer 1
10
602.064000
20
162.267000
11
602.110000
21
163.444000
0
LINE
8
Layer 1
10
602.110000
20
163.444000
11
602.249000
21
164.613000
0
LINE
8
Layer 1
10
602.249000
20
164.613000
11
602.479000
21
165.768000
0
LINE
8
Layer 1
10
602.479000
20
165.768000
11
602.800000
21
166.902000
0
LINE
8
Layer 1
10
602.800000
20
166.902000
11
603.207000
21
168.007000
0
LINE
8
Layer 1
10
603.207000
20
168.007000
11
603.701000
21
169.076000
0
LINE
8
Layer 1
10
603.701000
20
169.076000
11
604.277000
21
170.104000
0
LINE
8
Layer 1
10
604.277000
20
170.104000
11
604.931000
21
171.083000
0
LINE
8
Layer 1
10
604.931000
20
171.083000
11
605.661000
21
172.008000
0
LINE
8
Layer 1
10
605.661000
20
172.008000
11
606.461000
21
172.872000
0
LINE
8
Layer 1
10
606.461000
20
172.872000
11
624.143000
21
190.544000
0
LINE
8
Layer 1
10
624.143000
20
190.544000
11
625.008000
21
191.343000
0
LINE
8
Layer 1
10
625.008000
20
191.343000
11
625.933000
21
192.072000
0
LINE
8
Layer 1
10
625.933000
20
192.072000
11
626.913000
21
192.726000
0
LINE
8
Layer 1
10
626.913000
20
192.726000
11
627.941000
21
193.301000
0
LINE
8
Layer 1
10
627.941000
20
193.301000
11
629.010000
21
193.794000
0
LINE
8
Layer 1
10
629.010000
20
193.794000
11
630.116000
21
194.201000
0
LINE
8
Layer 1
10
630.116000
20
194.201000
11
631.249000
21
194.521000
0
LINE
8
Layer 1
10
631.249000
20
194.521000
11
632.405000
21
194.750000
0
LINE
8
Layer 1
10
632.405000
20
194.750000
11
633.574000
21
194.888000
0
LINE
8
Layer 1
10
633.574000
20
194.888000
11
634.751000
21
194.934000
0
LINE
8
Layer 1
10
634.751000
20
194.934000
11
635.928000
21
194.888000
0
LINE
8
Layer 1
10
635.928000
20
194.888000
11
637.097000
21
194.749000
0
LINE
8
Layer 1
10
637.097000
20
194.749000
11
638.253000
21
194.519000
0
LINE
8
Layer 1
10
638.253000
20
194.519000
11
639.386000
21
194.198000
0
LINE
8
Layer 1
10
639.386000
20
194.198000
11
640.491000
21
193.790000
0
LINE
8
Layer 1
10
640.491000
20
193.790000
11
641.560000
21
193.297000
0
LINE
8
Layer 1
10
641.560000
20
193.297000
11
642.588000
21
192.721000
0
LINE
8
Layer 1
10
642.588000
20
192.721000
11
643.567000
21
192.067000
0
LINE
8
Layer 1
10
643.567000
20
192.067000
11
644.491000
21
191.337000
0
LINE
8
Layer 1
10
644.491000
20
191.337000
11
645.356000
21
190.538000
0
LINE
8
Layer 1
10
645.356000
20
190.538000
11
659.494000
21
176.391000
0
LINE
8
Layer 1
10
659.494000
20
176.391000
11
663.030000
21
179.926000
0
LINE
8
Layer 1
10
663.030000
20
179.926000
11
680.703000
21
162.243000
0
LINE
8
Layer 1
10
680.703000
20
162.243000
11
542.400000
21
24.023900
0
LINE
8
Layer 1
10
542.400000
20
24.023900
11
538.651000
21
20.560800
0
LINE
8
Layer 1
10
538.651000
20
20.560800
11
534.642000
21
17.402100
0
LINE
8
Layer 1
10
534.642000
20
17.402100
11
530.397000
21
14.567900
0
LINE
8
Layer 1
10
530.397000
20
14.567900
11
525.943000
21
12.075500
0
LINE
8
Layer 1
10
525.943000
20
12.075500
11
521.308000
21
9.939940
0
LINE
8
Layer 1
10
521.308000
20
9.939940
11
516.519000
21
8.175070
0
LINE
8
Layer 1
10
516.519000
20
8.175070
11
511.606000
21
6.791340
0
LINE
8
Layer 1
10
511.606000
20
6.791340
11
506.601000
21
5.796870
0
LINE
8
Layer 1
10
506.601000
20
5.796870
11
501.532000
21
5.198770
0
LINE
8
Layer 1
10
501.532000
20
5.198770
11
496.432000
21
5.000000
0
LINE
8
Layer 1
10
496.432000
20
5.000000
11
491.332000
21
5.201720
0
LINE
8
Layer 1
10
491.332000
20
5.201720
11
486.264000
21
5.802890
0
LINE
8
Layer 1
10
486.264000
20
5.802890
11
481.258000
21
6.800520
0
LINE
8
Layer 1
10
481.258000
20
6.800520
11
476.347000
21
8.187010
0
LINE
8
Layer 1
10
476.347000
20
8.187010
11
471.559000
21
9.954890
0
LINE
8
Layer 1
10
471.559000
20
9.954890
11
466.925000
21
12.093500
0
LINE
8
Layer 1
10
466.925000
20
12.093500
11
462.473000
21
14.588400
0
LINE
8
Layer 1
10
462.473000
20
14.588400
11
458.230000
21
17.425200
0
LINE
8
Layer 1
10
458.230000
20
17.425200
11
454.222000
21
20.586500
0
LINE
8
Layer 1
10
454.222000
20
20.586500
11
450.487000
21
24.039400
0
LINE
8
Layer 1
10
450.487000
20
24.039400
11
24.020700
21
450.542000
0
LINE
8
Layer 1
10
24.020700
20
450.542000
11
20.569300
21
454.279000
0
LINE
8
Layer 1
10
20.569300
20
454.279000
11
17.409600
21
458.287000
0
LINE
8
Layer 1
10
17.409600
20
458.287000
11
14.574700
21
462.531000
0
LINE
8
Layer 1
10
14.574700
20
462.531000
11
12.081600
21
466.984000
0
LINE
8
Layer 1
10
12.081600
20
466.984000
11
9.945370
21
471.619000
0
LINE
8
Layer 1
10
9.945370
20
471.619000
11
8.179490
21
476.408000
0
LINE
8
Layer 1
10
8.179490
20
476.408000
11
6.794370
21
481.320000
0
LINE
8
Layer 1
10
6.794370
20
481.320000
11
5.799330
21
486.326000
0
LINE
8
Layer 1
10
5.799330
20
486.326000
11
5.199700
21
491.395000
0
LINE
8
Layer 1
10
5.199700
20
491.395000
11
5.000000
21
496.494000
0
LINE
8
Layer 1
10
5.000000
20
496.494000
11
5.200870
21
501.594000
0
LINE
8
Layer 1
10
5.200870
20
501.594000
11
5.801030
21
506.663000
0
LINE
8
Layer 1
10
5.801030
20
506.663000
11
6.797500
21
511.668000
0
LINE
8
Layer 1
10
6.797500
20
511.668000
11
8.183250
21
516.581000
0
LINE
8
Layer 1
10
282.590000
20
262.669000
11
264.914000
21
280.347000
0
LINE
8
Layer 1
10
264.914000
20
280.347000
11
247.235000
21
262.670000
0
LINE
8
Layer 1
10
247.235000
20
262.670000
11
264.911000
21
244.992000
0
LINE
8
Layer 1
10
264.911000
20
244.992000
11
282.590000
21
262.669000
0
LINE
8
Layer 1
10
148.169000
20
631.204000
11
165.844000
21
613.525000
0
LINE
8
Layer 1
10
165.844000
20
613.525000
11
183.523000
21
631.200000
0
LINE
8
Layer 1
10
183.523000
20
631.200000
11
165.848000
21
648.879000
0
LINE
8
Layer 1
10
165.848000
20
648.879000
11
148.169000
21
631.204000
0
LINE
8
Layer 1
10
648.884000
20
165.787000
11
631.211000
21
183.470000
0
LINE
8
Layer 1
10
631.211000
20
183.470000
11
613.529000
21
165.798000
0
LINE
8
Layer 1
10
613.529000
20
165.798000
11
631.201000
21
148.115000
0
LINE
8
Layer 1
10
631.201000
20
148.115000
11
648.884000
21
165.787000
 0 
ENDSEC
 0 
EOF