999
"DXF R12 Output" (www.mydxf.blogspot.com)
 0 
SECTION
 2 
HEADER
 9 
$ACADVER
 1 
AC1009
 9 
$EXTMIN
 10 
 0 
 20 
 0 
 9 
$EXTMAX
 10 
 8.5 
 20 
 11 
 0 
ENDSEC
 0 
SECTION
 2 
ENTITIES
0
LINE
8
Layer 1
10
67.020600
20
353.207000
11
49.005100
21
370.540000
0
LINE
8
Layer 1
10
497.182000
20
783.368000
11
479.862000
21
801.395000
0
LINE
8
Layer 1
10
49.005100
20
370.540000
11
246.339000
21
567.884000
0
LINE
8
Layer 1
10
246.339000
20
567.884000
11
232.196000
21
582.025000
0
LINE
8
Layer 1
10
232.196000
20
582.025000
11
231.397000
21
582.890000
0
LINE
8
Layer 1
10
231.397000
20
582.890000
11
230.668000
21
583.815000
0
LINE
8
Layer 1
10
230.668000
20
583.815000
11
230.013000
21
584.795000
0
LINE
8
Layer 1
10
230.013000
20
584.795000
11
229.438000
21
585.822000
0
LINE
8
Layer 1
10
229.438000
20
585.822000
11
228.945000
21
586.892000
0
LINE
8
Layer 1
10
228.945000
20
586.892000
11
228.537000
21
587.997000
0
LINE
8
Layer 1
10
228.537000
20
587.997000
11
228.217000
21
589.130000
0
LINE
8
Layer 1
10
228.217000
20
589.130000
11
227.987000
21
590.285000
0
LINE
8
Layer 1
10
227.987000
20
590.285000
11
227.849000
21
591.455000
0
LINE
8
Layer 1
10
227.849000
20
591.455000
11
227.803000
21
592.632000
0
LINE
8
Layer 1
10
227.803000
20
592.632000
11
227.849000
21
593.809000
0
LINE
8
Layer 1
10
227.849000
20
593.809000
11
227.988000
21
594.979000
0
LINE
8
Layer 1
10
227.988000
20
594.979000
11
228.217000
21
596.134000
0
LINE
8
Layer 1
10
228.217000
20
596.134000
11
228.537000
21
597.267000
0
LINE
8
Layer 1
10
228.537000
20
597.267000
11
228.945000
21
598.372000
0
LINE
8
Layer 1
10
228.945000
20
598.372000
11
229.438000
21
599.442000
0
LINE
8
Layer 1
10
229.438000
20
599.442000
11
230.013000
21
600.470000
0
LINE
8
Layer 1
10
230.013000
20
600.470000
11
230.668000
21
601.449000
0
LINE
8
Layer 1
10
230.668000
20
601.449000
11
231.397000
21
602.374000
0
LINE
8
Layer 1
10
231.397000
20
602.374000
11
232.196000
21
603.238000
0
LINE
8
Layer 1
10
232.196000
20
603.238000
11
249.873000
21
620.916000
0
LINE
8
Layer 1
10
249.873000
20
620.916000
11
250.738000
21
621.715000
0
LINE
8
Layer 1
10
250.738000
20
621.715000
11
251.663000
21
622.445000
0
LINE
8
Layer 1
10
251.663000
20
622.445000
11
252.643000
21
623.099000
0
LINE
8
Layer 1
10
252.643000
20
623.099000
11
253.670000
21
623.675000
0
LINE
8
Layer 1
10
253.670000
20
623.675000
11
254.740000
21
624.168000
0
LINE
8
Layer 1
10
254.740000
20
624.168000
11
255.845000
21
624.575000
0
LINE
8
Layer 1
10
255.845000
20
624.575000
11
256.978000
21
624.895000
0
LINE
8
Layer 1
10
256.978000
20
624.895000
11
258.134000
21
625.125000
0
LINE
8
Layer 1
10
258.134000
20
625.125000
11
259.303000
21
625.263000
0
LINE
8
Layer 1
10
259.303000
20
625.263000
11
260.480000
21
625.309000
0
LINE
8
Layer 1
10
260.480000
20
625.309000
11
261.657000
21
625.263000
0
LINE
8
Layer 1
10
261.657000
20
625.263000
11
262.827000
21
625.125000
0
LINE
8
Layer 1
10
262.827000
20
625.125000
11
263.982000
21
624.895000
0
LINE
8
Layer 1
10
263.982000
20
624.895000
11
265.116000
21
624.575000
0
LINE
8
Layer 1
10
265.116000
20
624.575000
11
266.221000
21
624.168000
0
LINE
8
Layer 1
10
266.221000
20
624.168000
11
267.290000
21
623.675000
0
LINE
8
Layer 1
10
267.290000
20
623.675000
11
268.318000
21
623.099000
0
LINE
8
Layer 1
10
268.318000
20
623.099000
11
269.297000
21
622.445000
0
LINE
8
Layer 1
10
269.297000
20
622.445000
11
270.222000
21
621.716000
0
LINE
8
Layer 1
10
270.222000
20
621.716000
11
271.087000
21
620.916000
0
LINE
8
Layer 1
10
271.087000
20
620.916000
11
285.230000
21
606.775000
0
LINE
8
Layer 1
10
285.230000
20
606.775000
11
479.862000
21
801.395000
0
LINE
8
Layer 1
10
479.862000
20
801.395000
11
488.515000
21
809.384000
0
LINE
8
Layer 1
10
488.515000
20
809.384000
11
497.770000
21
816.670000
0
LINE
8
Layer 1
10
497.770000
20
816.670000
11
507.567000
21
823.207000
0
LINE
8
Layer 1
10
507.567000
20
823.207000
11
517.847000
21
828.955000
0
LINE
8
Layer 1
10
517.847000
20
828.955000
11
528.546000
21
833.879000
0
LINE
8
Layer 1
10
528.546000
20
833.879000
11
539.599000
21
837.949000
0
LINE
8
Layer 1
10
539.599000
20
837.949000
11
550.936000
21
841.138000
0
LINE
8
Layer 1
10
550.936000
20
841.138000
11
562.490000
21
843.429000
0
LINE
8
Layer 1
10
562.490000
20
843.429000
11
574.187000
21
844.806000
0
LINE
8
Layer 1
10
574.187000
20
844.806000
11
585.956000
21
845.261000
0
LINE
8
Layer 1
10
585.956000
20
845.261000
11
597.725000
21
844.791000
0
LINE
8
Layer 1
10
597.725000
20
844.791000
11
609.420000
21
843.399000
0
LINE
8
Layer 1
10
609.420000
20
843.399000
11
620.970000
21
841.094000
0
LINE
8
Layer 1
10
620.970000
20
841.094000
11
632.304000
21
837.890000
0
LINE
8
Layer 1
10
632.304000
20
837.890000
11
643.351000
21
833.807000
0
LINE
8
Layer 1
10
643.351000
20
833.807000
11
654.044000
21
828.869000
0
LINE
8
Layer 1
10
654.044000
20
828.869000
11
664.317000
21
823.108000
0
LINE
8
Layer 1
10
664.317000
20
823.108000
11
674.106000
21
816.559000
0
LINE
8
Layer 1
10
674.106000
20
816.559000
11
683.351000
21
809.262000
0
LINE
8
Layer 1
10
683.351000
20
809.262000
11
691.995000
21
801.262000
0
LINE
8
Layer 1
10
691.995000
20
801.262000
11
787.845000
21
705.443000
0
LINE
8
Layer 1
10
787.845000
20
705.443000
11
801.995000
21
719.576000
0
LINE
8
Layer 1
10
801.995000
20
719.576000
11
802.860000
21
720.375000
0
LINE
8
Layer 1
10
802.860000
20
720.375000
11
803.785000
21
721.103000
0
LINE
8
Layer 1
10
803.785000
20
721.103000
11
804.765000
21
721.758000
0
LINE
8
Layer 1
10
804.765000
20
721.758000
11
805.793000
21
722.332000
0
LINE
8
Layer 1
10
805.793000
20
722.332000
11
806.863000
21
722.825000
0
LINE
8
Layer 1
10
806.863000
20
722.825000
11
807.968000
21
723.232000
0
LINE
8
Layer 1
10
807.968000
20
723.232000
11
809.102000
21
723.550000
0
LINE
8
Layer 1
10
809.102000
20
723.550000
11
810.257000
21
723.780000
0
LINE
8
Layer 1
10
810.257000
20
723.780000
11
811.427000
21
723.917000
0
LINE
8
Layer 1
10
811.427000
20
723.917000
11
812.604000
21
723.963000
0
LINE
8
Layer 1
10
812.604000
20
723.963000
11
813.781000
21
723.916000
0
LINE
8
Layer 1
10
813.781000
20
723.916000
11
814.950000
21
723.777000
0
LINE
8
Layer 1
10
814.950000
20
723.777000
11
816.105000
21
723.546000
0
LINE
8
Layer 1
10
816.105000
20
723.546000
11
817.239000
21
723.226000
0
LINE
8
Layer 1
10
817.239000
20
723.226000
11
818.343000
21
722.818000
0
LINE
8
Layer 1
10
818.343000
20
722.818000
11
819.412000
21
722.324000
0
LINE
8
Layer 1
10
819.412000
20
722.324000
11
820.440000
21
721.748000
0
LINE
8
Layer 1
10
820.440000
20
721.748000
11
821.418000
21
721.093000
0
LINE
8
Layer 1
10
821.418000
20
721.093000
11
822.343000
21
720.363000
0
LINE
8
Layer 1
10
822.343000
20
720.363000
11
823.208000
21
719.563000
0
LINE
8
Layer 1
10
823.208000
20
719.563000
11
840.874000
21
701.876000
0
LINE
8
Layer 1
10
840.874000
20
701.876000
11
841.673000
21
701.010000
0
LINE
8
Layer 1
10
841.673000
20
701.010000
11
842.401000
21
700.085000
0
LINE
8
Layer 1
10
842.401000
20
700.085000
11
843.055000
21
699.105000
0
LINE
8
Layer 1
10
843.055000
20
699.105000
11
843.630000
21
698.077000
0
LINE
8
Layer 1
10
843.630000
20
698.077000
11
844.123000
21
697.007000
0
LINE
8
Layer 1
10
844.123000
20
697.007000
11
844.530000
21
695.902000
0
LINE
8
Layer 1
10
844.530000
20
695.902000
11
844.848000
21
694.768000
0
LINE
8
Layer 1
10
844.848000
20
694.768000
11
845.078000
21
693.613000
0
LINE
8
Layer 1
10
845.078000
20
693.613000
11
845.216000
21
692.443000
0
LINE
8
Layer 1
10
845.216000
20
692.443000
11
845.261000
21
691.266000
0
LINE
8
Layer 1
10
845.261000
20
691.266000
11
845.214000
21
690.089000
0
LINE
8
Layer 1
10
845.214000
20
690.089000
11
845.075000
21
688.920000
0
LINE
8
Layer 1
10
845.075000
20
688.920000
11
844.845000
21
687.765000
0
LINE
8
Layer 1
10
844.845000
20
687.765000
11
844.525000
21
686.631000
0
LINE
8
Layer 1
10
844.525000
20
686.631000
11
844.116000
21
685.527000
0
LINE
8
Layer 1
10
844.116000
20
685.527000
11
843.622000
21
684.457000
0
LINE
8
Layer 1
10
843.622000
20
684.457000
11
843.046000
21
683.430000
0
LINE
8
Layer 1
10
843.046000
20
683.430000
11
842.391000
21
682.451000
0
LINE
8
Layer 1
10
842.391000
20
682.451000
11
841.661000
21
681.526000
0
LINE
8
Layer 1
10
841.661000
20
681.526000
11
840.862000
21
680.662000
0
LINE
8
Layer 1
10
840.862000
20
680.662000
11
826.712000
21
666.529000
0
LINE
8
Layer 1
10
826.712000
20
666.529000
11
830.171000
21
662.919000
0
LINE
8
Layer 1
10
830.171000
20
662.919000
11
812.483000
21
645.252000
0
LINE
8
Layer 1
10
812.483000
20
645.252000
11
674.657000
21
783.251000
0
LINE
8
Layer 1
10
674.657000
20
783.251000
11
667.104000
21
790.261000
0
LINE
8
Layer 1
10
667.104000
20
790.261000
11
659.399000
21
796.342000
0
LINE
8
Layer 1
10
659.399000
20
796.342000
11
651.242000
21
801.800000
0
LINE
8
Layer 1
10
651.242000
20
801.800000
11
642.681000
21
806.601000
0
LINE
8
Layer 1
10
642.681000
20
806.601000
11
633.770000
21
810.716000
0
LINE
8
Layer 1
10
633.770000
20
810.716000
11
624.564000
21
814.119000
0
LINE
8
Layer 1
10
624.564000
20
814.119000
11
615.119000
21
816.789000
0
LINE
8
Layer 1
10
615.119000
20
816.789000
11
605.494000
21
818.709000
0
LINE
8
Layer 1
10
605.494000
20
818.709000
11
595.748000
21
819.869000
0
LINE
8
Layer 1
10
595.748000
20
819.869000
11
585.940000
21
820.261000
0
LINE
8
Layer 1
10
585.940000
20
820.261000
11
576.132000
21
819.882000
0
LINE
8
Layer 1
10
576.132000
20
819.882000
11
566.385000
21
818.734000
0
LINE
8
Layer 1
10
566.385000
20
818.734000
11
556.757000
21
816.826000
0
LINE
8
Layer 1
10
556.757000
20
816.826000
11
547.309000
21
814.167000
0
LINE
8
Layer 1
10
547.309000
20
814.167000
11
538.098000
21
810.776000
0
LINE
8
Layer 1
10
538.098000
20
810.776000
11
529.182000
21
806.672000
0
LINE
8
Layer 1
10
529.182000
20
806.672000
11
520.616000
21
801.882000
0
LINE
8
Layer 1
10
520.616000
20
801.882000
11
512.451000
21
796.435000
0
LINE
8
Layer 1
10
512.451000
20
796.435000
11
504.739000
21
790.364000
0
LINE
8
Layer 1
10
504.739000
20
790.364000
11
497.182000
21
783.368000
0
LINE
8
Layer 1
10
497.182000
20
783.368000
11
67.020600
21
353.207000
0
LINE
8
Layer 1
10
67.020600
20
353.207000
11
60.003600
21
345.647000
0
LINE
8
Layer 1
10
60.003600
20
345.647000
11
53.921700
21
337.943000
0
LINE
8
Layer 1
10
53.921700
20
337.943000
11
48.463600
21
329.786000
0
LINE
8
Layer 1
10
48.463600
20
329.786000
11
43.661900
21
321.226000
0
LINE
8
Layer 1
10
43.661900
20
321.226000
11
39.547100
21
312.316000
0
LINE
8
Layer 1
10
39.547100
20
312.316000
11
36.143800
21
303.110000
0
LINE
8
Layer 1
10
36.143800
20
303.110000
11
33.472900
21
293.665000
0
LINE
8
Layer 1
10
33.472900
20
293.665000
11
31.552000
21
284.040000
0
LINE
8
Layer 1
10
31.552000
20
284.040000
11
30.391700
21
274.294000
0
LINE
8
Layer 1
10
30.391700
20
274.294000
11
29.999700
21
264.486000
0
LINE
8
Layer 1
10
29.999700
20
264.486000
11
30.378700
21
254.679000
0
LINE
8
Layer 1
10
30.378700
20
254.679000
11
31.525500
21
244.931000
0
LINE
8
Layer 1
10
31.525500
20
244.931000
11
33.434000
21
235.303000
0
LINE
8
Layer 1
10
33.434000
20
235.303000
11
36.091800
21
225.855000
0
LINE
8
Layer 1
10
36.091800
20
225.855000
11
39.482700
21
216.644000
0
LINE
8
Layer 1
10
39.482700
20
216.644000
11
43.586200
21
207.729000
0
LINE
8
Layer 1
10
43.586200
20
207.729000
11
48.376200
21
199.162000
0
LINE
8
Layer 1
10
48.376200
20
199.162000
11
53.823500
21
190.997000
0
LINE
8
Layer 1
10
53.823500
20
190.997000
11
59.894700
21
183.285000
0
LINE
8
Layer 1
10
59.894700
20
183.285000
11
66.895400
21
175.723000
0
LINE
8
Layer 1
10
66.895400
20
175.723000
11
204.720000
21
37.720900
0
LINE
8
Layer 1
10
204.720000
20
37.720900
11
187.030000
21
20.055000
0
LINE
8
Layer 1
10
187.030000
20
20.055000
11
183.427000
21
23.518100
0
LINE
8
Layer 1
10
183.427000
20
23.518100
11
169.275000
21
9.385950
0
LINE
8
Layer 1
10
169.275000
20
9.385950
11
168.410000
21
8.586770
0
LINE
8
Layer 1
10
168.410000
20
8.586770
11
167.484000
21
7.858280
0
LINE
8
Layer 1
10
167.484000
20
7.858280
11
166.505000
21
7.204780
0
LINE
8
Layer 1
10
166.505000
20
7.204780
11
165.477000
21
6.629770
0
LINE
8
Layer 1
10
165.477000
20
6.629770
11
164.407000
21
6.137670
0
LINE
8
Layer 1
10
164.407000
20
6.137670
11
163.301000
21
5.730690
0
LINE
8
Layer 1
10
163.301000
20
5.730690
11
162.168000
21
5.411750
0
LINE
8
Layer 1
10
162.168000
20
5.411750
11
161.013000
21
5.183050
0
LINE
8
Layer 1
10
161.013000
20
5.183050
11
159.842000
21
5.045120
0
LINE
8
Layer 1
10
159.842000
20
5.045120
11
158.666000
21
5.000000
0
LINE
8
Layer 1
10
158.666000
20
5.000000
11
157.489000
21
5.047090
0
LINE
8
Layer 1
10
157.489000
20
5.047090
11
156.319000
21
5.186150
0
LINE
8
Layer 1
10
156.319000
20
5.186150
11
155.164000
21
5.416520
0
LINE
8
Layer 1
10
155.164000
20
5.416520
11
154.031000
21
5.737130
0
LINE
8
Layer 1
10
154.031000
20
5.737130
11
152.926000
21
6.145660
0
LINE
8
Layer 1
10
152.926000
20
6.145660
11
151.857000
21
6.639130
0
LINE
8
Layer 1
10
151.857000
20
6.639130
11
150.829000
21
7.215330
0
LINE
8
Layer 1
10
150.829000
20
7.215330
11
149.851000
21
7.870440
0
LINE
8
Layer 1
10
149.851000
20
7.870440
11
148.926000
21
8.600420
0
LINE
8
Layer 1
10
148.926000
20
8.600420
11
148.062000
21
9.400310
0
LINE
8
Layer 1
10
148.062000
20
9.400310
11
130.396000
21
27.089500
0
LINE
8
Layer 1
10
130.396000
20
27.089500
11
129.598000
21
27.955100
0
LINE
8
Layer 1
10
129.598000
20
27.955100
11
128.869000
21
28.880300
0
LINE
8
Layer 1
10
128.869000
20
28.880300
11
128.215000
21
29.860000
0
LINE
8
Layer 1
10
128.215000
20
29.860000
11
127.640000
21
30.888000
0
LINE
8
Layer 1
10
127.640000
20
30.888000
11
127.148000
21
31.958300
0
LINE
8
Layer 1
10
127.148000
20
31.958300
11
126.741000
21
33.063400
0
LINE
8
Layer 1
10
126.741000
20
33.063400
11
126.422000
21
34.197000
0
LINE
8
Layer 1
10
126.422000
20
34.197000
11
126.193000
21
35.352500
0
LINE
8
Layer 1
10
126.193000
20
35.352500
11
126.056000
21
36.522300
0
LINE
8
Layer 1
10
126.056000
20
36.522300
11
126.010000
21
37.699300
0
LINE
8
Layer 1
10
126.010000
20
37.699300
11
126.057000
21
38.875800
0
LINE
8
Layer 1
10
126.057000
20
38.875800
11
126.197000
21
40.045700
0
LINE
8
Layer 1
10
126.197000
20
40.045700
11
126.427000
21
41.200400
0
LINE
8
Layer 1
10
126.427000
20
41.200400
11
126.748000
21
42.333800
0
LINE
8
Layer 1
10
126.748000
20
42.333800
11
127.156000
21
43.438600
0
LINE
8
Layer 1
10
127.156000
20
43.438600
11
127.650000
21
44.507600
0
LINE
8
Layer 1
10
127.650000
20
44.507600
11
128.226000
21
45.535000
0
LINE
8
Layer 1
10
128.226000
20
45.535000
11
128.881000
21
46.513800
0
LINE
8
Layer 1
10
128.881000
20
46.513800
11
129.611000
21
47.438200
0
LINE
8
Layer 1
10
129.611000
20
47.438200
11
130.411000
21
48.302800
0
LINE
8
Layer 1
10
130.411000
20
48.302800
11
144.562000
21
62.435100
0
LINE
8
Layer 1
10
144.562000
20
62.435100
11
48.862800
21
158.408000
0
LINE
8
Layer 1
10
48.862800
20
158.408000
11
40.873700
21
167.062000
0
LINE
8
Layer 1
10
40.873700
20
167.062000
11
33.588100
21
176.316000
0
LINE
8
Layer 1
10
33.588100
20
176.316000
11
27.051300
21
186.114000
0
LINE
8
Layer 1
10
27.051300
20
186.114000
11
21.303000
21
196.393000
0
LINE
8
Layer 1
10
21.303000
20
196.393000
11
16.379100
21
207.093000
0
LINE
8
Layer 1
10
16.379100
20
207.093000
11
12.310500
21
218.146000
0
LINE
8
Layer 1
10
12.310500
20
218.146000
11
9.121030
21
229.484000
0
LINE
8
Layer 1
10
9.121030
20
229.484000
11
6.830640
21
241.037000
0
LINE
8
Layer 1
10
6.830640
20
241.037000
11
5.454530
21
252.734000
0
LINE
8
Layer 1
10
5.454530
20
252.734000
11
5.000000
21
264.503000
0
LINE
8
Layer 1
10
5.000000
20
264.503000
11
5.470190
21
276.272000
0
LINE
8
Layer 1
10
5.470190
20
276.272000
11
6.862150
21
287.967000
0
LINE
8
Layer 1
10
6.862150
20
287.967000
11
9.167720
21
299.517000
0
LINE
8
Layer 1
10
9.167720
20
299.517000
11
12.372200
21
310.851000
0
LINE
8
Layer 1
10
12.372200
20
310.851000
11
16.456400
21
321.898000
0
LINE
8
Layer 1
10
16.456400
20
321.898000
11
21.394300
21
332.591000
0
LINE
8
Layer 1
10
21.394300
20
332.591000
11
27.156200
21
342.863000
0
LINE
8
Layer 1
10
27.156200
20
342.863000
11
33.706200
21
352.652000
0
LINE
8
Layer 1
10
33.706200
20
352.652000
11
41.004300
21
361.896000
0
LINE
8
Layer 1
10
41.004300
20
361.896000
11
49.005100
21
370.540000
0
LINE
8
Layer 1
10
239.268000
20
596.168000
11
256.946000
21
578.491000
0
LINE
8
Layer 1
10
256.946000
20
578.491000
11
274.623000
21
596.168000
0
LINE
8
Layer 1
10
274.623000
20
596.168000
11
256.945000
21
613.845000
0
LINE
8
Layer 1
10
256.945000
20
613.845000
11
239.268000
21
596.168000
0
LINE
8
Layer 1
10
155.163000
20
51.820800
11
137.473000
21
34.155000
0
LINE
8
Layer 1
10
137.473000
20
34.155000
11
155.138000
21
16.466100
0
LINE
8
Layer 1
10
155.138000
20
16.466100
11
172.828000
21
34.131900
0
LINE
8
Layer 1
10
172.828000
20
34.131900
11
155.163000
21
51.820800
0
LINE
8
Layer 1
10
816.112000
20
677.141000
11
833.799000
21
694.808000
0
LINE
8
Layer 1
10
833.799000
20
694.808000
11
816.133000
21
712.496000
0
LINE
8
Layer 1
10
816.133000
20
712.496000
11
798.445000
21
694.829000
0
LINE
8
Layer 1
10
798.445000
20
694.829000
11
816.112000
21
677.141000
 0 
ENDSEC
 0 
EOF