999
"DXF R12 Output" (www.mydxf.blogspot.com)
 0 
SECTION
 2 
HEADER
 9 
$ACADVER
 1 
AC1009
 9 
$EXTMIN
 10 
 0 
 20 
 0 
 9 
$EXTMAX
 10 
 8.5 
 20 
 11 
 0 
ENDSEC
 0 
SECTION
 2 
ENTITIES
0
LINE
8
Layer 1
10
82.646200
20
251.743000
11
67.687800
21
271.774000
0
LINE
8
Layer 1
10
41.626200
20
248.022000
11
49.682000
21
256.614000
0
LINE
8
Layer 1
10
49.682000
20
256.614000
11
58.387100
21
264.548000
0
LINE
8
Layer 1
10
58.387100
20
264.548000
11
67.687800
21
271.774000
0
LINE
8
Layer 1
10
67.687800
20
271.774000
11
758.690000
21
767.618000
0
LINE
8
Layer 1
10
758.690000
20
767.618000
11
747.032000
21
783.869000
0
LINE
8
Layer 1
10
747.032000
20
783.869000
11
746.383000
21
784.852000
0
LINE
8
Layer 1
10
746.383000
20
784.852000
11
745.814000
21
785.883000
0
LINE
8
Layer 1
10
745.814000
20
785.883000
11
745.328000
21
786.956000
0
LINE
8
Layer 1
10
745.328000
20
786.956000
11
744.927000
21
788.063000
0
LINE
8
Layer 1
10
744.927000
20
788.063000
11
744.614000
21
789.199000
0
LINE
8
Layer 1
10
744.614000
20
789.199000
11
744.391000
21
790.355000
0
LINE
8
Layer 1
10
744.391000
20
790.355000
11
744.259000
21
791.526000
0
LINE
8
Layer 1
10
744.259000
20
791.526000
11
744.220000
21
792.703000
0
LINE
8
Layer 1
10
744.220000
20
792.703000
11
744.273000
21
793.879000
0
LINE
8
Layer 1
10
744.273000
20
793.879000
11
744.419000
21
795.048000
0
LINE
8
Layer 1
10
744.419000
20
795.048000
11
744.656000
21
796.202000
0
LINE
8
Layer 1
10
744.656000
20
796.202000
11
744.982000
21
797.333000
0
LINE
8
Layer 1
10
744.982000
20
797.333000
11
745.396000
21
798.436000
0
LINE
8
Layer 1
10
745.396000
20
798.436000
11
745.896000
21
799.503000
0
LINE
8
Layer 1
10
745.896000
20
799.503000
11
746.477000
21
800.526000
0
LINE
8
Layer 1
10
746.477000
20
800.526000
11
747.138000
21
801.502000
0
LINE
8
Layer 1
10
747.138000
20
801.502000
11
747.872000
21
802.423000
0
LINE
8
Layer 1
10
747.872000
20
802.423000
11
748.677000
21
803.283000
0
LINE
8
Layer 1
10
748.677000
20
803.283000
11
749.546000
21
804.077000
0
LINE
8
Layer 1
10
749.546000
20
804.077000
11
750.476000
21
804.801000
0
LINE
8
Layer 1
10
750.476000
20
804.801000
11
770.789000
21
819.374000
0
LINE
8
Layer 1
10
770.789000
20
819.374000
11
771.773000
21
820.022000
0
LINE
8
Layer 1
10
771.773000
20
820.022000
11
772.803000
21
820.591000
0
LINE
8
Layer 1
10
772.803000
20
820.591000
11
773.876000
21
821.078000
0
LINE
8
Layer 1
10
773.876000
20
821.078000
11
774.984000
21
821.479000
0
LINE
8
Layer 1
10
774.984000
20
821.479000
11
776.119000
21
821.792000
0
LINE
8
Layer 1
10
776.119000
20
821.792000
11
777.276000
21
822.015000
0
LINE
8
Layer 1
10
777.276000
20
822.015000
11
778.446000
21
822.146000
0
LINE
8
Layer 1
10
778.446000
20
822.146000
11
779.623000
21
822.185000
0
LINE
8
Layer 1
10
779.623000
20
822.185000
11
780.800000
21
822.132000
0
LINE
8
Layer 1
10
780.800000
20
822.132000
11
781.969000
21
821.986000
0
LINE
8
Layer 1
10
781.969000
20
821.986000
11
783.123000
21
821.750000
0
LINE
8
Layer 1
10
783.123000
20
821.750000
11
784.254000
21
821.423000
0
LINE
8
Layer 1
10
784.254000
20
821.423000
11
785.357000
21
821.009000
0
LINE
8
Layer 1
10
785.357000
20
821.009000
11
786.423000
21
820.509000
0
LINE
8
Layer 1
10
786.423000
20
820.509000
11
787.448000
21
819.928000
0
LINE
8
Layer 1
10
787.448000
20
819.928000
11
788.423000
21
819.267000
0
LINE
8
Layer 1
10
788.423000
20
819.267000
11
789.343000
21
818.532000
0
LINE
8
Layer 1
10
789.343000
20
818.532000
11
790.203000
21
817.728000
0
LINE
8
Layer 1
10
790.203000
20
817.728000
11
790.998000
21
816.858000
0
LINE
8
Layer 1
10
790.998000
20
816.858000
11
791.722000
21
815.929000
0
LINE
8
Layer 1
10
791.722000
20
815.929000
11
803.380000
21
799.678000
0
LINE
8
Layer 1
10
803.380000
20
799.678000
11
807.588000
21
802.571000
0
LINE
8
Layer 1
10
807.588000
20
802.571000
11
822.185000
21
782.275000
0
LINE
8
Layer 1
10
822.185000
20
782.275000
11
82.646200
21
251.743000
0
LINE
8
Layer 1
10
82.646200
20
251.743000
11
74.488500
21
245.423000
0
LINE
8
Layer 1
10
74.488500
20
245.423000
11
67.234300
21
238.812000
0
LINE
8
Layer 1
10
67.234300
20
238.812000
11
60.521200
21
231.652000
0
LINE
8
Layer 1
10
60.521200
20
231.652000
11
54.390600
21
223.987000
0
LINE
8
Layer 1
10
54.390600
20
223.987000
11
48.880200
21
215.865000
0
LINE
8
Layer 1
10
48.880200
20
215.865000
11
44.024000
21
207.336000
0
LINE
8
Layer 1
10
44.024000
20
207.336000
11
39.852000
21
198.452000
0
LINE
8
Layer 1
10
39.852000
20
198.452000
11
36.390000
21
189.268000
0
LINE
8
Layer 1
10
36.390000
20
189.268000
11
33.659100
21
179.840000
0
LINE
8
Layer 1
10
33.659100
20
179.840000
11
31.676400
21
170.227000
0
LINE
8
Layer 1
10
31.676400
20
170.227000
11
30.453900
21
160.489000
0
LINE
8
Layer 1
10
30.453900
20
160.489000
11
29.999400
21
150.684000
0
LINE
8
Layer 1
10
29.999400
20
150.684000
11
30.315400
21
140.875000
0
LINE
8
Layer 1
10
30.315400
20
140.875000
11
31.400200
21
131.120000
0
LINE
8
Layer 1
10
31.400200
20
131.120000
11
33.247000
21
121.480000
0
LINE
8
Layer 1
10
33.247000
20
121.480000
11
35.844500
21
112.015000
0
LINE
8
Layer 1
10
35.844500
20
112.015000
11
39.176400
21
102.783000
0
LINE
8
Layer 1
10
39.176400
20
102.783000
11
43.222600
21
93.841000
0
LINE
8
Layer 1
10
43.222600
20
93.841000
11
47.957700
21
85.243800
0
LINE
8
Layer 1
10
47.957700
20
85.243800
11
53.634600
21
76.642600
0
LINE
8
Layer 1
10
53.634600
20
76.642600
11
94.355000
21
19.763700
0
LINE
8
Layer 1
10
94.355000
20
19.763700
11
74.026200
21
5.212130
0
LINE
8
Layer 1
10
74.026200
20
5.212130
11
63.842800
21
19.443600
0
LINE
8
Layer 1
10
63.842800
20
19.443600
11
47.579900
21
7.802430
0
LINE
8
Layer 1
10
47.579900
20
7.802430
11
46.596100
21
7.155010
0
LINE
8
Layer 1
10
46.596100
20
7.155010
11
45.564400
21
6.586800
0
LINE
8
Layer 1
10
45.564400
20
6.586800
11
44.491400
21
6.101310
0
LINE
8
Layer 1
10
44.491400
20
6.101310
11
43.383500
21
5.701370
0
LINE
8
Layer 1
10
43.383500
20
5.701370
11
42.247700
21
5.389690
0
LINE
8
Layer 1
10
42.247700
20
5.389690
11
41.090900
21
5.168140
0
LINE
8
Layer 1
10
41.090900
20
5.168140
11
39.920300
21
5.037970
0
LINE
8
Layer 1
10
39.920300
20
5.037970
11
38.743200
21
5.000000
0
LINE
8
Layer 1
10
38.743200
20
5.000000
11
37.566600
21
5.054540
0
LINE
8
Layer 1
10
37.566600
20
5.054540
11
36.397900
21
5.201230
0
LINE
8
Layer 1
10
36.397900
20
5.201230
11
35.244400
21
5.439170
0
LINE
8
Layer 1
10
35.244400
20
5.439170
11
34.113100
21
5.766750
0
LINE
8
Layer 1
10
34.113100
20
5.766750
11
33.011100
21
6.182260
0
LINE
8
Layer 1
10
33.011100
20
6.182260
11
31.945000
21
6.682880
0
LINE
8
Layer 1
10
31.945000
20
6.682880
11
30.921500
21
7.265690
0
LINE
8
Layer 1
10
30.921500
20
7.265690
11
29.946800
21
7.926890
0
LINE
8
Layer 1
10
29.946800
20
7.926890
11
29.027100
21
8.662530
0
LINE
8
Layer 1
10
29.027100
20
8.662530
11
28.167800
21
9.468140
0
LINE
8
Layer 1
10
28.167800
20
9.468140
11
27.374500
21
10.338600
0
LINE
8
Layer 1
10
27.374500
20
10.338600
11
26.651900
21
11.268700
0
LINE
8
Layer 1
10
26.651900
20
11.268700
11
12.100900
21
31.597100
0
LINE
8
Layer 1
10
12.100900
20
31.597100
11
11.453500
21
32.581000
0
LINE
8
Layer 1
10
11.453500
20
32.581000
11
10.885300
21
33.612600
0
LINE
8
Layer 1
10
10.885300
20
33.612600
11
10.399700
21
34.685700
0
LINE
8
Layer 1
10
10.399700
20
34.685700
11
9.999890
21
35.793500
0
LINE
8
Layer 1
10
9.999890
20
35.793500
11
9.688200
21
36.929400
0
LINE
8
Layer 1
10
9.688200
20
36.929400
11
9.466610
21
38.086200
0
LINE
8
Layer 1
10
9.466610
20
38.086200
11
9.336400
21
39.256800
0
LINE
8
Layer 1
10
9.336400
20
39.256800
11
9.298450
21
40.433900
0
LINE
8
Layer 1
10
9.298450
20
40.433900
11
9.352970
21
41.610500
0
LINE
8
Layer 1
10
9.352970
20
41.610500
11
9.499670
21
42.779200
0
LINE
8
Layer 1
10
9.499670
20
42.779200
11
18.168600
21
41.343400
0
LINE
8
Layer 1
10
18.168600
20
41.343400
11
20.232000
21
37.418100
0
LINE
8
Layer 1
10
20.232000
20
37.418100
11
34.782800
21
17.090100
0
LINE
8
Layer 1
10
34.782800
20
17.090100
11
55.111500
21
31.641600
0
LINE
8
Layer 1
10
55.111500
20
31.641600
11
31.829700
21
64.166800
0
LINE
8
Layer 1
10
31.829700
20
64.166800
11
26.550000
21
72.332200
0
LINE
8
Layer 1
10
26.550000
20
72.332200
11
20.867800
21
82.648800
0
LINE
8
Layer 1
10
20.867800
20
82.648800
11
16.012400
21
93.379300
0
LINE
8
Layer 1
10
16.012400
20
93.379300
11
12.014100
21
104.458000
0
LINE
8
Layer 1
10
12.014100
20
104.458000
11
8.897190
21
115.816000
0
LINE
8
Layer 1
10
8.897190
20
115.816000
11
6.680960
21
127.383000
0
LINE
8
Layer 1
10
6.680960
20
127.383000
11
5.379270
21
139.089000
0
LINE
8
Layer 1
10
5.379270
20
139.089000
11
5.000000
21
150.861000
0
LINE
8
Layer 1
10
5.000000
20
150.861000
11
5.545500
21
162.626000
0
LINE
8
Layer 1
10
5.545500
20
162.626000
11
7.012430
21
174.313000
0
LINE
8
Layer 1
10
7.012430
20
174.313000
11
9.391730
21
185.848000
0
LINE
8
Layer 1
10
9.391730
20
185.848000
11
12.668700
21
197.161000
0
LINE
8
Layer 1
10
12.668700
20
197.161000
11
16.823100
21
208.182000
0
LINE
8
Layer 1
10
16.823100
20
208.182000
11
21.829600
21
218.843000
0
LINE
8
Layer 1
10
21.829600
20
218.843000
11
27.657000
21
229.078000
0
LINE
8
Layer 1
10
27.657000
20
229.078000
11
34.269500
21
238.824000
0
LINE
8
Layer 1
10
34.269500
20
238.824000
11
41.626200
21
248.022000
0
LINE
8
Layer 1
10
791.192000
20
790.934000
11
776.619000
21
811.248000
0
LINE
8
Layer 1
10
776.619000
20
811.248000
11
756.306000
21
796.676000
0
LINE
8
Layer 1
10
756.306000
20
796.676000
11
770.879000
21
776.362000
0
LINE
8
Layer 1
10
770.879000
20
776.362000
11
791.192000
21
790.934000
0
LINE
8
Layer 1
10
30.123100
20
830.966000
11
30.478600
21
822.187000
0
LINE
8
Layer 1
10
30.478600
20
822.187000
11
29.300800
21
822.185000
0
LINE
8
Layer 1
10
29.300800
20
822.185000
11
28.126500
21
822.276000
0
LINE
8
Layer 1
10
28.126500
20
822.276000
11
26.963000
21
822.459000
0
LINE
8
Layer 1
10
26.963000
20
822.459000
11
25.817400
21
822.733000
0
LINE
8
Layer 1
10
25.817400
20
822.733000
11
24.696800
21
823.095000
0
LINE
8
Layer 1
10
24.696800
20
823.095000
11
23.608100
21
823.545000
0
LINE
8
Layer 1
10
23.608100
20
823.545000
11
22.558000
21
824.078000
0
LINE
8
Layer 1
10
22.558000
20
824.078000
11
21.553000
21
824.692000
0
LINE
8
Layer 1
10
21.553000
20
824.692000
11
20.599300
21
825.383000
0
LINE
8
Layer 1
10
20.599300
20
825.383000
11
19.702800
21
826.147000
0
LINE
8
Layer 1
10
19.702800
20
826.147000
11
5.000000
21
839.705000
0
LINE
8
Layer 1
10
5.000000
20
839.705000
11
15.169000
21
850.732000
0
LINE
8
Layer 1
10
15.169000
20
850.732000
11
33.547200
21
833.784000
0
LINE
8
Layer 1
10
33.547200
20
833.784000
11
30.123100
21
830.966000
 0 
ENDSEC
 0 
EOF