999
"DXF R12 Output" (www.mydxf.blogspot.com)
 0 
SECTION
 2 
HEADER
 9 
$ACADVER
 1 
AC1009
 9 
$EXTMIN
 10 
 0 
 20 
 0 
 9 
$EXTMAX
 10 
 8.5 
 20 
 11 
 0 
ENDSEC
 0 
SECTION
 2 
ENTITIES
0
LINE
8
Layer 1
10
472.124000
20
42.089300
11
454.788000
21
24.076800
0
LINE
8
Layer 1
10
42.031500
20
472.325000
11
24.001100
21
455.006000
0
LINE
8
Layer 1
10
513.117000
20
31.947300
11
516.064000
21
33.031500
0
LINE
8
Layer 1
10
516.064000
20
33.031500
11
518.918000
21
34.344100
0
LINE
8
Layer 1
10
518.918000
20
34.344100
11
521.659000
21
35.876600
0
LINE
8
Layer 1
10
521.659000
20
35.876600
11
524.272000
21
37.619400
0
LINE
8
Layer 1
10
524.272000
20
37.619400
11
526.741000
21
39.561800
0
LINE
8
Layer 1
10
526.741000
20
39.561800
11
529.399000
21
42.035000
0
LINE
8
Layer 1
10
529.399000
20
42.035000
11
624.966000
21
137.446000
0
LINE
8
Layer 1
10
624.966000
20
137.446000
11
610.836000
21
151.600000
0
LINE
8
Layer 1
10
610.836000
20
151.600000
11
610.037000
21
152.466000
0
LINE
8
Layer 1
10
610.037000
20
152.466000
11
609.309000
21
153.391000
0
LINE
8
Layer 1
10
609.309000
20
153.391000
11
608.655000
21
154.371000
0
LINE
8
Layer 1
10
608.655000
20
154.371000
11
608.080000
21
155.399000
0
LINE
8
Layer 1
10
608.080000
20
155.399000
11
607.588000
21
156.469000
0
LINE
8
Layer 1
10
607.588000
20
156.469000
11
607.182000
21
157.575000
0
LINE
8
Layer 1
10
607.182000
20
157.575000
11
606.863000
21
158.708000
0
LINE
8
Layer 1
10
606.863000
20
158.708000
11
606.634000
21
159.864000
0
LINE
8
Layer 1
10
606.634000
20
159.864000
11
606.497000
21
161.034000
0
LINE
8
Layer 1
10
606.497000
20
161.034000
11
606.451000
21
162.211000
0
LINE
8
Layer 1
10
606.451000
20
162.211000
11
606.498000
21
163.388000
0
LINE
8
Layer 1
10
606.498000
20
163.388000
11
606.638000
21
164.557000
0
LINE
8
Layer 1
10
606.638000
20
164.557000
11
606.869000
21
165.712000
0
LINE
8
Layer 1
10
606.869000
20
165.712000
11
607.190000
21
166.845000
0
LINE
8
Layer 1
10
607.190000
20
166.845000
11
607.598000
21
167.950000
0
LINE
8
Layer 1
10
607.598000
20
167.950000
11
608.092000
21
169.019000
0
LINE
8
Layer 1
10
608.092000
20
169.019000
11
608.668000
21
170.046000
0
LINE
8
Layer 1
10
608.668000
20
170.046000
11
609.324000
21
171.025000
0
LINE
8
Layer 1
10
609.324000
20
171.025000
11
610.053000
21
171.949000
0
LINE
8
Layer 1
10
610.053000
20
171.949000
11
610.854000
21
172.813000
0
LINE
8
Layer 1
10
610.854000
20
172.813000
11
628.546000
21
190.476000
0
LINE
8
Layer 1
10
628.546000
20
190.476000
11
629.411000
21
191.275000
0
LINE
8
Layer 1
10
629.411000
20
191.275000
11
630.337000
21
192.003000
0
LINE
8
Layer 1
10
630.337000
20
192.003000
11
631.317000
21
192.656000
0
LINE
8
Layer 1
10
631.317000
20
192.656000
11
632.345000
21
193.231000
0
LINE
8
Layer 1
10
632.345000
20
193.231000
11
633.415000
21
193.723000
0
LINE
8
Layer 1
10
633.415000
20
193.723000
11
634.520000
21
194.130000
0
LINE
8
Layer 1
10
634.520000
20
194.130000
11
635.654000
21
194.449000
0
LINE
8
Layer 1
10
635.654000
20
194.449000
11
636.810000
21
194.677000
0
LINE
8
Layer 1
10
636.810000
20
194.677000
11
637.979000
21
194.815000
0
LINE
8
Layer 1
10
637.979000
20
194.815000
11
639.156000
21
194.860000
0
LINE
8
Layer 1
10
639.156000
20
194.860000
11
640.333000
21
194.813000
0
LINE
8
Layer 1
10
640.333000
20
194.813000
11
641.503000
21
194.674000
0
LINE
8
Layer 1
10
641.503000
20
194.674000
11
642.658000
21
194.443000
0
LINE
8
Layer 1
10
642.658000
20
194.443000
11
643.791000
21
194.122000
0
LINE
8
Layer 1
10
643.791000
20
194.122000
11
644.896000
21
193.714000
0
LINE
8
Layer 1
10
644.896000
20
193.714000
11
645.965000
21
193.220000
0
LINE
8
Layer 1
10
645.965000
20
193.220000
11
646.992000
21
192.643000
0
LINE
8
Layer 1
10
646.992000
20
192.643000
11
647.971000
21
191.988000
0
LINE
8
Layer 1
10
647.971000
20
191.988000
11
648.895000
21
191.258000
0
LINE
8
Layer 1
10
648.895000
20
191.258000
11
649.760000
21
190.458000
0
LINE
8
Layer 1
10
649.760000
20
190.458000
11
663.890000
21
176.304000
0
LINE
8
Layer 1
10
663.890000
20
176.304000
11
667.426000
21
179.834000
0
LINE
8
Layer 1
10
667.426000
20
179.834000
11
685.089000
21
162.142000
0
LINE
8
Layer 1
10
685.089000
20
162.142000
11
546.712000
21
23.998900
0
LINE
8
Layer 1
10
546.712000
20
23.998900
11
542.961000
21
20.537800
0
LINE
8
Layer 1
10
542.961000
20
20.537800
11
538.950000
21
17.381300
0
LINE
8
Layer 1
10
538.950000
20
17.381300
11
534.704000
21
14.549400
0
LINE
8
Layer 1
10
534.704000
20
14.549400
11
530.249000
21
12.059500
0
LINE
8
Layer 1
10
530.249000
20
12.059500
11
525.612000
21
9.926380
0
LINE
8
Layer 1
10
525.612000
20
9.926380
11
520.822000
21
8.164110
0
LINE
8
Layer 1
10
520.822000
20
8.164110
11
515.909000
21
6.783070
0
LINE
8
Layer 1
10
515.909000
20
6.783070
11
510.902000
21
5.791370
0
LINE
8
Layer 1
10
510.902000
20
5.791370
11
505.833000
21
5.195920
0
LINE
8
Layer 1
10
505.833000
20
5.195920
11
500.733000
21
5.000000
0
LINE
8
Layer 1
10
500.733000
20
5.000000
11
495.634000
21
5.204500
0
LINE
8
Layer 1
10
495.634000
20
5.204500
11
490.566000
21
5.808420
0
LINE
8
Layer 1
10
490.566000
20
5.808420
11
485.561000
21
6.808760
0
LINE
8
Layer 1
10
485.561000
20
6.808760
11
480.650000
21
8.197970
0
LINE
8
Layer 1
10
480.650000
20
8.197970
11
475.863000
21
9.968460
0
LINE
8
Layer 1
10
475.863000
20
9.968460
11
471.230000
21
12.109600
0
LINE
8
Layer 1
10
471.230000
20
12.109600
11
466.779000
21
14.606900
0
LINE
8
Layer 1
10
466.779000
20
14.606900
11
462.538000
21
17.446000
0
LINE
8
Layer 1
10
462.538000
20
17.446000
11
458.533000
21
20.609000
0
LINE
8
Layer 1
10
458.533000
20
20.609000
11
454.788000
21
24.076800
0
LINE
8
Layer 1
10
454.788000
20
24.076800
11
24.001100
21
455.006000
0
LINE
8
Layer 1
10
24.001100
20
455.006000
11
20.540100
21
458.757000
0
LINE
8
Layer 1
10
20.540100
20
458.757000
11
17.383200
21
462.768000
0
LINE
8
Layer 1
10
17.383200
20
462.768000
11
14.551100
21
467.014000
0
LINE
8
Layer 1
10
14.551100
20
467.014000
11
12.061100
21
471.469000
0
LINE
8
Layer 1
10
12.061100
20
471.469000
11
9.928110
21
476.105000
0
LINE
8
Layer 1
10
9.928110
20
476.105000
11
8.164990
21
480.895000
0
LINE
8
Layer 1
10
8.164990
20
480.895000
11
6.783910
21
485.808000
0
LINE
8
Layer 1
10
6.783910
20
485.808000
11
5.792270
21
490.815000
0
LINE
8
Layer 1
10
5.792270
20
490.815000
11
5.196160
21
495.884000
0
LINE
8
Layer 1
10
5.196160
20
495.884000
11
5.000000
21
500.984000
0
LINE
8
Layer 1
10
5.000000
20
500.984000
11
5.204350
21
506.084000
0
LINE
8
Layer 1
10
5.204350
20
506.084000
11
5.808420
21
511.151000
0
LINE
8
Layer 1
10
5.808420
20
511.151000
11
6.807840
21
516.156000
0
LINE
8
Layer 1
10
6.807840
20
516.156000
11
8.196910
21
521.068000
0
LINE
8
Layer 1
10
8.196910
20
521.068000
11
9.967560
21
525.854000
0
LINE
8
Layer 1
10
9.967560
20
525.854000
11
12.107600
21
530.488000
0
LINE
8
Layer 1
10
12.107600
20
530.488000
11
14.604800
21
534.939000
0
LINE
8
Layer 1
10
14.604800
20
534.939000
11
17.443600
21
539.181000
0
LINE
8
Layer 1
10
17.443600
20
539.181000
11
20.606700
21
543.186000
0
LINE
8
Layer 1
10
20.606700
20
543.186000
11
24.073800
21
546.932000
0
LINE
8
Layer 1
10
24.073800
20
546.932000
11
162.443000
21
685.089000
0
LINE
8
Layer 1
10
162.443000
20
685.089000
11
180.108000
21
667.397000
0
LINE
8
Layer 1
10
180.108000
20
667.397000
11
176.570000
21
663.864000
0
LINE
8
Layer 1
10
176.570000
20
663.864000
11
190.701000
21
649.711000
0
LINE
8
Layer 1
10
190.701000
20
649.711000
11
191.499000
21
648.846000
0
LINE
8
Layer 1
10
191.499000
20
648.846000
11
192.227000
21
647.920000
0
LINE
8
Layer 1
10
192.227000
20
647.920000
11
192.881000
21
646.940000
0
LINE
8
Layer 1
10
192.881000
20
646.940000
11
193.456000
21
645.912000
0
LINE
8
Layer 1
10
193.456000
20
645.912000
11
193.948000
21
644.842000
0
LINE
8
Layer 1
10
193.948000
20
644.842000
11
194.355000
21
643.736000
0
LINE
8
Layer 1
10
194.355000
20
643.736000
11
194.674000
21
642.603000
0
LINE
8
Layer 1
10
194.674000
20
642.603000
11
194.903000
21
641.447000
0
LINE
8
Layer 1
10
194.903000
20
641.447000
11
195.040000
21
640.278000
0
LINE
8
Layer 1
10
195.040000
20
640.278000
11
195.086000
21
639.101000
0
LINE
8
Layer 1
10
195.086000
20
639.101000
11
195.039000
21
637.924000
0
LINE
8
Layer 1
10
195.039000
20
637.924000
11
194.899000
21
636.754000
0
LINE
8
Layer 1
10
194.899000
20
636.754000
11
194.668000
21
635.599000
0
LINE
8
Layer 1
10
194.668000
20
635.599000
11
194.348000
21
634.466000
0
LINE
8
Layer 1
10
194.348000
20
634.466000
11
193.939000
21
633.361000
0
LINE
8
Layer 1
10
193.939000
20
633.361000
11
193.445000
21
632.292000
0
LINE
8
Layer 1
10
193.445000
20
632.292000
11
192.869000
21
631.265000
0
LINE
8
Layer 1
10
192.869000
20
631.265000
11
192.214000
21
630.286000
0
LINE
8
Layer 1
10
192.214000
20
630.286000
11
191.484000
21
629.361000
0
LINE
8
Layer 1
10
191.484000
20
629.361000
11
190.684000
21
628.497000
0
LINE
8
Layer 1
10
190.684000
20
628.497000
11
172.993000
21
610.833000
0
LINE
8
Layer 1
10
172.993000
20
610.833000
11
172.127000
21
610.034000
0
LINE
8
Layer 1
10
172.127000
20
610.034000
11
171.202000
21
609.305000
0
LINE
8
Layer 1
10
171.202000
20
609.305000
11
170.222000
21
608.652000
0
LINE
8
Layer 1
10
170.222000
20
608.652000
11
169.194000
21
608.078000
0
LINE
8
Layer 1
10
169.194000
20
608.078000
11
168.124000
21
607.585000
0
LINE
8
Layer 1
10
168.124000
20
607.585000
11
167.019000
21
607.178000
0
LINE
8
Layer 1
10
167.019000
20
607.178000
11
165.885000
21
606.859000
0
LINE
8
Layer 1
10
165.885000
20
606.859000
11
164.729000
21
606.630000
0
LINE
8
Layer 1
10
164.729000
20
606.630000
11
163.559000
21
606.493000
0
LINE
8
Layer 1
10
163.559000
20
606.493000
11
162.382000
21
606.448000
0
LINE
8
Layer 1
10
162.382000
20
606.448000
11
161.205000
21
606.495000
0
LINE
8
Layer 1
10
161.205000
20
606.495000
11
160.036000
21
606.634000
0
LINE
8
Layer 1
10
160.036000
20
606.634000
11
158.881000
21
606.865000
0
LINE
8
Layer 1
10
158.881000
20
606.865000
11
157.748000
21
607.185000
0
LINE
8
Layer 1
10
157.748000
20
607.185000
11
156.643000
21
607.594000
0
LINE
8
Layer 1
10
156.643000
20
607.594000
11
155.574000
21
608.088000
0
LINE
8
Layer 1
10
155.574000
20
608.088000
11
154.547000
21
608.664000
0
LINE
8
Layer 1
10
154.547000
20
608.664000
11
153.568000
21
609.319000
0
LINE
8
Layer 1
10
153.568000
20
609.319000
11
152.643000
21
610.049000
0
LINE
8
Layer 1
10
152.643000
20
610.049000
11
151.779000
21
610.849000
0
LINE
8
Layer 1
10
151.779000
20
610.849000
11
137.648000
21
625.003000
0
LINE
8
Layer 1
10
137.648000
20
625.003000
11
42.082200
21
529.590000
0
LINE
8
Layer 1
10
42.082200
20
529.590000
11
39.604500
21
526.935000
0
LINE
8
Layer 1
10
39.604500
20
526.935000
11
37.658200
21
524.470000
0
LINE
8
Layer 1
10
37.658200
20
524.470000
11
35.911000
21
521.860000
0
LINE
8
Layer 1
10
35.911000
20
521.860000
11
34.374000
21
519.121000
0
LINE
8
Layer 1
10
34.374000
20
519.121000
11
33.056900
21
516.269000
0
LINE
8
Layer 1
10
33.056900
20
516.269000
11
31.967700
21
513.323000
0
LINE
8
Layer 1
10
31.967700
20
513.323000
11
31.112500
21
510.301000
0
LINE
8
Layer 1
10
31.112500
20
510.301000
11
30.497200
21
507.221000
0
LINE
8
Layer 1
10
30.497200
20
507.221000
11
30.125700
21
504.103000
0
LINE
8
Layer 1
10
30.125700
20
504.103000
11
30.000200
21
500.964000
0
LINE
8
Layer 1
10
30.000200
20
500.964000
11
30.121100
21
497.825000
0
LINE
8
Layer 1
10
30.121100
20
497.825000
11
30.487800
21
494.706000
0
LINE
8
Layer 1
10
30.487800
20
494.706000
11
31.097500
21
491.626000
0
LINE
8
Layer 1
10
31.097500
20
491.626000
11
31.947800
21
488.602000
0
LINE
8
Layer 1
10
31.947800
20
488.602000
11
33.032700
21
485.654000
0
LINE
8
Layer 1
10
33.032700
20
485.654000
11
34.345200
21
482.801000
0
LINE
8
Layer 1
10
34.345200
20
482.801000
11
35.878100
21
480.059000
0
LINE
8
Layer 1
10
35.878100
20
480.059000
11
37.620600
21
477.446000
0
LINE
8
Layer 1
10
37.620600
20
477.446000
11
39.563600
21
474.978000
0
LINE
8
Layer 1
10
39.563600
20
474.978000
11
42.031500
21
472.325000
0
LINE
8
Layer 1
10
42.031500
20
472.325000
11
236.273000
21
278.018000
0
LINE
8
Layer 1
10
236.273000
20
278.018000
11
250.418000
21
292.158000
0
LINE
8
Layer 1
10
250.418000
20
292.158000
11
251.283000
21
292.957000
0
LINE
8
Layer 1
10
251.283000
20
292.957000
11
252.208000
21
293.686000
0
LINE
8
Layer 1
10
252.208000
20
293.686000
11
253.188000
21
294.340000
0
LINE
8
Layer 1
10
253.188000
20
294.340000
11
254.215000
21
294.916000
0
LINE
8
Layer 1
10
254.215000
20
294.916000
11
255.285000
21
295.409000
0
LINE
8
Layer 1
10
255.285000
20
295.409000
11
256.390000
21
295.816000
0
LINE
8
Layer 1
10
256.390000
20
295.816000
11
257.524000
21
296.136000
0
LINE
8
Layer 1
10
257.524000
20
296.136000
11
258.679000
21
296.365000
0
LINE
8
Layer 1
10
258.679000
20
296.365000
11
259.849000
21
296.503000
0
LINE
8
Layer 1
10
259.849000
20
296.503000
11
261.026000
21
296.549000
0
LINE
8
Layer 1
10
261.026000
20
296.549000
11
262.203000
21
296.503000
0
LINE
8
Layer 1
10
262.203000
20
296.503000
11
263.372000
21
296.364000
0
LINE
8
Layer 1
10
263.372000
20
296.364000
11
264.527000
21
296.134000
0
LINE
8
Layer 1
10
264.527000
20
296.134000
11
265.661000
21
295.814000
0
LINE
8
Layer 1
10
265.661000
20
295.814000
11
266.766000
21
295.406000
0
LINE
8
Layer 1
10
266.766000
20
295.406000
11
267.836000
21
294.913000
0
LINE
8
Layer 1
10
267.836000
20
294.913000
11
268.863000
21
294.338000
0
LINE
8
Layer 1
10
268.863000
20
294.338000
11
269.842000
21
293.683000
0
LINE
8
Layer 1
10
269.842000
20
293.683000
11
270.767000
21
292.954000
0
LINE
8
Layer 1
10
270.767000
20
292.954000
11
271.632000
21
292.154000
0
LINE
8
Layer 1
10
271.632000
20
292.154000
11
289.307000
21
274.474000
0
LINE
8
Layer 1
10
289.307000
20
274.474000
11
290.106000
21
273.609000
0
LINE
8
Layer 1
10
290.106000
20
273.609000
11
290.835000
21
272.684000
0
LINE
8
Layer 1
10
290.835000
20
272.684000
11
291.489000
21
271.704000
0
LINE
8
Layer 1
10
291.489000
20
271.704000
11
292.064000
21
270.677000
0
LINE
8
Layer 1
10
292.064000
20
270.677000
11
292.557000
21
269.607000
0
LINE
8
Layer 1
10
292.557000
20
269.607000
11
292.964000
21
268.502000
0
LINE
8
Layer 1
10
292.964000
20
268.502000
11
293.284000
21
267.368000
0
LINE
8
Layer 1
10
293.284000
20
267.368000
11
293.514000
21
266.213000
0
LINE
8
Layer 1
10
293.514000
20
266.213000
11
293.652000
21
265.044000
0
LINE
8
Layer 1
10
293.652000
20
265.044000
11
293.698000
21
263.867000
0
LINE
8
Layer 1
10
293.698000
20
263.867000
11
293.652000
21
262.690000
0
LINE
8
Layer 1
10
293.652000
20
262.690000
11
293.513000
21
261.520000
0
LINE
8
Layer 1
10
293.513000
20
261.520000
11
293.283000
21
260.365000
0
LINE
8
Layer 1
10
293.283000
20
260.365000
11
292.963000
21
259.231000
0
LINE
8
Layer 1
10
292.963000
20
259.231000
11
292.556000
21
258.126000
0
LINE
8
Layer 1
10
292.556000
20
258.126000
11
292.062000
21
257.057000
0
LINE
8
Layer 1
10
292.062000
20
257.057000
11
291.486000
21
256.029000
0
LINE
8
Layer 1
10
291.486000
20
256.029000
11
290.832000
21
255.050000
0
LINE
8
Layer 1
10
290.832000
20
255.050000
11
290.103000
21
254.125000
0
LINE
8
Layer 1
10
290.103000
20
254.125000
11
289.303000
21
253.260000
0
LINE
8
Layer 1
10
289.303000
20
253.260000
11
275.159000
21
239.121000
0
LINE
8
Layer 1
10
275.159000
20
239.121000
11
472.124000
21
42.089300
0
LINE
8
Layer 1
10
472.124000
20
42.089300
11
474.784000
21
39.605900
0
LINE
8
Layer 1
10
474.784000
20
39.605900
11
477.250000
21
37.658900
0
LINE
8
Layer 1
10
477.250000
20
37.658900
11
479.859000
21
35.912100
0
LINE
8
Layer 1
10
479.859000
20
35.912100
11
482.599000
21
34.374700
0
LINE
8
Layer 1
10
482.599000
20
34.374700
11
485.450000
21
33.057400
0
LINE
8
Layer 1
10
485.450000
20
33.057400
11
488.395000
21
31.968100
0
LINE
8
Layer 1
10
488.395000
20
31.968100
11
491.418000
21
31.112900
0
LINE
8
Layer 1
10
491.418000
20
31.112900
11
494.498000
21
30.497600
0
LINE
8
Layer 1
10
494.498000
20
30.497600
11
497.616000
21
30.125600
0
LINE
8
Layer 1
10
497.616000
20
30.125600
11
500.755000
21
29.999700
0
LINE
8
Layer 1
10
500.755000
20
29.999700
11
503.893000
21
30.120600
0
LINE
8
Layer 1
10
503.893000
20
30.120600
11
507.012000
21
30.486900
0
LINE
8
Layer 1
10
507.012000
20
30.486900
11
510.093000
21
31.097100
0
LINE
8
Layer 1
10
510.093000
20
31.097100
11
513.117000
21
31.947300
0
LINE
8
Layer 1
10
264.553000
20
249.730000
11
282.233000
21
267.405000
0
LINE
8
Layer 1
10
282.233000
20
267.405000
11
264.559000
21
285.085000
0
LINE
8
Layer 1
10
264.559000
20
285.085000
11
246.879000
21
267.410000
0
LINE
8
Layer 1
10
246.879000
20
267.410000
11
264.553000
21
249.730000
0
LINE
8
Layer 1
10
653.274000
20
165.707000
11
635.611000
21
183.399000
0
LINE
8
Layer 1
10
635.611000
20
183.399000
11
617.919000
21
165.737000
0
LINE
8
Layer 1
10
617.919000
20
165.737000
11
635.582000
21
148.044000
0
LINE
8
Layer 1
10
635.582000
20
148.044000
11
653.274000
21
165.707000
0
LINE
8
Layer 1
10
148.264000
20
635.602000
11
165.927000
21
617.911000
0
LINE
8
Layer 1
10
165.927000
20
617.911000
11
183.618000
21
635.574000
0
LINE
8
Layer 1
10
183.618000
20
635.574000
11
165.955000
21
653.266000
0
LINE
8
Layer 1
10
165.955000
20
653.266000
11
148.264000
21
635.602000
 0 
ENDSEC
 0 
EOF